<svg xmlns="http://www.w3.org/2000/svg" viewBox="0 0 17.94 24.72"><g data-name="レイヤー 1"><path d="M17.26 16.89C17.26 21.44 13.55 24 9 24S.67 21.44.67 16.89C.67 9.74 4.39 9.74 9 9.74s8.26.08 8.26 7.15z" fill="#4e574e"/><path d="M9 24.49c-5.15 0-8.75-3.12-8.75-7.6 0-7.6 4.25-7.6 8.75-7.6s8.75 0 8.75 7.6c-.03 4.47-3.63 7.6-8.75 7.6zM9 10.2c-4.55 0-7.84 0-7.84 6.69 0 4.62 3.94 6.69 7.84 6.69s7.84-2.07 7.84-6.69C16.81 10.2 13.52 10.2 9 10.2z"/><path d="M14.68 9.93A14 14 0 009 9a14 14 0 00-5.71 1C1 11.64.93 15.29 1.12 15.73a2 2 0 001 1c.42.31.27 1.7 1.44 2 1 .23.41 1 1.62 1.41.59.21 1 0 1.48.5a3 3 0 002.34.9 2.94 2.94 0 002.32-.94c.46-.54.89-.3 1.48-.5 1.21-.42.65-1.18 1.62-1.41 1.17-.27 1-1.67 1.44-2a2 2 0 001-1c.14-.4.07-4.05-2.18-5.76z" fill="#fff"/><path d="M9 22a3.48 3.48 0 01-2.71-1.1c-.17-.2-.29-.21-.59-.24a2.63 2.63 0 01-.7-.13 1.81 1.81 0 01-1.17-1c-.11-.23-.14-.3-.4-.36A2.09 2.09 0 012 17.48a1.92 1.92 0 00-.16-.41L1.63 17a2.11 2.11 0 01-.92-1C.46 15.35.5 11.45 3 9.57A14.74 14.74 0 019 8.5a14.89 14.89 0 015.92 1h.07c2.48 1.88 2.52 5.78 2.27 6.34a2.11 2.11 0 01-.92 1l-.19.13a2.46 2.46 0 00-.15.4 2.09 2.09 0 01-1.46 1.65c-.26.06-.29.13-.4.36a1.81 1.81 0 01-1.17 1 2.63 2.63 0 01-.69.13c-.3 0-.42 0-.59.24A3.34 3.34 0 019 22zM9 9.41a13.5 13.5 0 00-5.5.93c-2 1.5-2 4.86-1.92 5.22a1.21 1.21 0 00.57.63l.24.16a1.57 1.57 0 01.47.86c.18.56.33.93.8 1a1.34 1.34 0 011 .84.93.93 0 00.66.58 1.86 1.86 0 00.47.08 1.54 1.54 0 011.21.6 2.5 2.5 0 002 .78 2.47 2.47 0 002-.78 1.54 1.54 0 011.21-.56 1.86 1.86 0 00.47-.08.93.93 0 00.66-.58 1.34 1.34 0 011-.84c.47-.11.63-.48.8-1a1.57 1.57 0 01.47-.86l.24-.16a1.22 1.22 0 00.58-.64c.11-.35 0-3.67-2-5.23A13.65 13.65 0 009 9.41z"/><path d="M12.54 10.51c.92 1.18 1.11 3.07-.24 3.93-1.53 1-2.53-.42-3.47-.31h.08C8 14 7 15.42 5.45 14.44c-1.34-.86-1.16-2.74-.24-3.93" fill="#fae7bb"/><path d="M11.2 15.16a3.51 3.51 0 01-1.46-.4 2.43 2.43 0 00-.74-.27h-.14a1.87 1.87 0 00-.85.26 2.6 2.6 0 01-2.76 0 2.41 2.41 0 01-1.09-1.67 3.7 3.7 0 01.76-2.79l.58.45A3 3 0 004.88 13a1.67 1.67 0 00.76 1.17 1.88 1.88 0 002.06 0 2.58 2.58 0 011.17-.33 2.59 2.59 0 011.17.33 1.88 1.88 0 002.06 0 1.67 1.67 0 00.76-1.17 3 3 0 00-.62-2.22l.58-.45a3.7 3.7 0 01.76 2.79 2.41 2.41 0 01-1.09 1.67 2.37 2.37 0 01-1.29.37z"/><path d="M7.71 12.19a.51.51 0 01-1 0c0-.26.23-.61.51-.61s.49.35.49.61zm3.35-.08a.51.51 0 01-1 0c0-.26.23-.61.51-.61s.49.36.49.61z"/><path d="M15.52 10.68C16 9.41 13.36.77 10.92.77c-1.49 0-1.66 2-4.21 3.15C2.66 5.69 2.53 10 2.37 10.68 2.3 11 5.62 10 8.94 10s6.48.95 6.58.68z" fill="#ffdc1d"/><path d="M2.51 11.18A.55.55 0 012 11a.51.51 0 01-.12-.44c0-.07 0-.18.05-.33.23-1.23.78-5.06 4.6-6.72A6 6 0 008.9 1.6a2.65 2.65 0 012-1.29c.72 0 1.46.53 2.19 1.57 1.73 2.47 3.27 7.75 2.83 8.94-.17.46-.57.4-2 .16a31 31 0 00-5-.5 32.2 32.2 0 00-5.06.52 10.66 10.66 0 01-1.35.18zm6.44-1.6a31.9 31.9 0 015.11.51c.39.06.81.13 1.07.16a19.68 19.68 0 00-2.75-7.85c-.53-.76-1-1.18-1.45-1.18s-.78.31-1.33 1a6.92 6.92 0 01-2.7 2.15c-3.24 1.41-3.8 4.56-4 5.9l.82-.13a33.08 33.08 0 015.22-.55z"/><path d="M9 8.63a.45.45 0 01-.45-.45V6.4a.45.45 0 01.91 0v1.78a.45.45 0 01-.46.45z"/><path d="M11.05 6.62h-.14A6.87 6.87 0 009 6.3a6.87 6.87 0 00-1.88.3.45.45 0 01-.29-.86A7.73 7.73 0 019 5.39a7.73 7.73 0 012.17.35.45.45 0 01-.14.88z"/></g></svg>