<svg data-name="レイヤー 1" xmlns="http://www.w3.org/2000/svg" viewBox="0 0 65.92 65.92"><path d="M58.87 33a3.51 3.51 0 013.51-3.51V17.07H3.54v12.38a3.51 3.51 0 010 7v12.4h58.84V36.47A3.51 3.51 0 0158.87 33z" stroke="#afbf36" stroke-linecap="round" stroke-linejoin="round" stroke-width="2.5" fill="#fff"/><path fill="none" stroke-dasharray="6 8" stroke="#afbf36" stroke-linecap="round" stroke-linejoin="round" stroke-width="2.5" d="M48.84 17.07v31.78"/><path d="M14 34.31l.76-.92a2.59 2.59 0 001.61.6c.38 0 .58-.13.58-.34 0-.21-.16-.32-.84-.48-1.06-.24-1.88-.54-1.88-1.55 0-.92.73-1.59 1.92-1.59a3.15 3.15 0 012.05.66l-.69 1a2.47 2.47 0 00-1.39-.49c-.33 0-.5.14-.5.32 0 .22.17.32.87.48 1.13.25 1.84.62 1.84 1.55 0 1-.8 1.62-2 1.62a3.51 3.51 0 01-2.33-.86zM20.61 30h1.33l2.11 5h-1.48l-.35-.89H20.3l-.36.89H18.5zm1.2 3l-.55-1.41L20.7 33zm2.54-.13v-2.79h1.39v2.76c0 .71.36 1 .92 1s.92-.32.92-1v-2.76H29v2.75a2.08 2.08 0 01-2.33 2.31 2.05 2.05 0 01-2.32-2.27zm5.57-2.79h1.28l2.05 2.62v-2.62h1.36v5h-1.2l-2.13-2.72V35h-1.36zm7.35-.08h1.33l2.11 5h-1.47l-.36-.89H37l-.4.89h-1.44zm1.21 3l-.56-1.41-.56 1.41z" fill="#afbf36"/></svg>