<svg id="レイヤー_1" data-name="レイヤー 1" xmlns="http://www.w3.org/2000/svg" viewBox="0 0 65.92 65.92"><defs><style>.cls-2,.cls-3{fill:none}.cls-2{stroke:#afbf36;stroke-width:2.5px;stroke-linecap:round;stroke-linejoin:round}.cls-3{stroke:#000;stroke-width:1.5px;stroke-miterlimit:10}</style></defs><path d="M17.18 16.22l.88-1.06a3 3 0 001.85.69c.43 0 .66-.15.66-.39 0-.24-.19-.36-1-.55-1.22-.28-2.15-.62-2.15-1.79 0-1.06.84-1.83 2.21-1.83A3.56 3.56 0 0122 12l-.79 1.11a2.82 2.82 0 00-1.6-.56c-.38 0-.57.16-.57.37 0 .26.2.37 1 .55 1.3.28 2.12.71 2.12 1.78 0 1.17-.92 1.86-2.31 1.86a4 4 0 01-2.67-.89zm7.56-4.9h1.53l2.43 5.75H27l-.41-1h-2.21l-.4 1h-1.66zm1.39 3.49l-.64-1.62-.64 1.62zm2.92-.25v-3.2h1.59v3.17c0 .82.42 1.21 1.06 1.21s1.06-.37 1.06-1.17v-3.21h1.59v3.16a2.39 2.39 0 01-2.67 2.65 2.35 2.35 0 01-2.63-2.61zm6.39-3.2h1.48l2.35 3v-3h1.57v5.71h-1.38L37 13.93v3.14h-1.56zm8.46-.04h1.52l2.43 5.75h-1.69l-.41-1h-2.21l-.41 1h-1.66zm1.38 3.49l-.63-1.62-.65 1.62z" fill="#afbf36"/><path class="cls-2" d="M39.79 39.84v14.14H25.61V39.84M7.07 25.49h51.26M7.07 39.19h35.66m-1.71 0h17.35m-42.73-9.25h4.8v4.8h-4.8zm9.75 0h4.8v4.8h-4.8zm9.75 0h4.8v4.8h-4.8zm9.75 0h4.8v4.8h-4.8zm-12.38 9.9v14.04m-28.13.45h57.16"/><path class="cls-3" d="M8.46 54h48.48a1.39 1.39 0 001.39-1.39v-36.8a1.4 1.4 0 00-1.39-1.39h-4.16v2.33s0 4.39-20.27 4.39-20.27-4.39-20.27-4.39v-2.33H8.46a1.39 1.39 0 00-1.39 1.39V54"/><path class="cls-3" d="M12.24 14.42v2.33s0 4.39 20.27 4.39 20.27-4.39 20.27-4.39v-2.33"/><path d="M12.24 12.63v4.12s0 4.39 20.27 4.39 20.27-4.39 20.27-4.39V12.1s0-4.4-20.27-4.4-20.27 4.4-20.27 4.4v3.22" stroke="#000" stroke-width="1.5" stroke-linecap="round" stroke-linejoin="round" fill="none"/><path class="cls-2" d="M8.46 54h48.48a1.39 1.39 0 001.39-1.39v-36.8a1.4 1.4 0 00-1.39-1.39h-4.16v2.33s0 4.39-20.27 4.39-20.27-4.39-20.27-4.39v-2.33H8.46a1.39 1.39 0 00-1.39 1.39V54"/><path class="cls-2" d="M12.24 14.42v2.33s0 4.39 20.27 4.39 20.27-4.39 20.27-4.39v-2.33"/><path class="cls-2" d="M12.24 12.63v4.12s0 4.39 20.27 4.39 20.27-4.39 20.27-4.39V12.1s0-4.4-20.27-4.4-20.27 4.4-20.27 4.4v3.22"/></svg>