<svg id="レイヤー_1" data-name="レイヤー 1" xmlns="http://www.w3.org/2000/svg" viewBox="0 0 65.92 65.92"><defs><style>.cls-1{fill:#afbf36}</style></defs><path class="cls-1" d="M24.29 54.07a1.31 1.31 0 01-1.3-1.3V33.18a1.31 1.31 0 011.3-1.3h16.89a1.31 1.31 0 011.3 1.3v19.59a1.31 1.31 0 01-1.3 1.3zm15.59-2.6v-17H25.59v17z"/><path class="cls-1" d="M41.18 53.81H24.29a1 1 0 01-1-1V33.18a1 1 0 011-1h16.89a1 1 0 011 1v19.59a1 1 0 01-1 1.04zm-15.85-2.08h14.81V34.22H25.33z"/><path class="cls-1" d="M24.52 34.28a1.29 1.29 0 01-1.15-.82l-.67-1.68a1.29 1.29 0 01.1-1.15l.9-1.5a1.32 1.32 0 01.46-.45 13.62 13.62 0 013.21-1.6h.25a1.32 1.32 0 01.83.3l.81.68 1.66 2.05a1.54 1.54 0 01.23.44l.43 1.45a1.32 1.32 0 01-.58 1.48l-1.27.78a1.26 1.26 0 01-.68.2zm4.2-2.43l.09-.06-.1-.33-1.32-1.58c-.45.22-1.07.56-1.65.88l-.39.66.12.3z"/><path class="cls-1" d="M29.06 34.2l-4.53-.2a1 1 0 01-.92-.65l-.67-1.68a1 1 0 01.08-.92l.9-1.5a1 1 0 01.37-.37 13.7 13.7 0 013.12-1.56 1 1 0 01.88.22l.81.68 1.62 2a1.22 1.22 0 01.18.36l.43 1.47a1.06 1.06 0 01-.45 1.18l-1.27.77a1.07 1.07 0 01-.55.2zM25.29 32l3.49.14.33-.2-.11-.56-1.51-1.83c-.47.24-1.21.64-1.89 1l-.5.83z"/><path class="cls-1" d="M30.49 34.28a1.3 1.3 0 01-1.25-1.35 1.28 1.28 0 011.3-1.24l4.14.16.09-.06-.59-1.73-.63-.29c-.5.25-1.39.73-2.13 1.16a1.33 1.33 0 01-.64.17 1.3 1.3 0 01-.65-2.42 13.74 13.74 0 013.2-1.6h.26a1.25 1.25 0 01.54.12l1.63.75a1.29 1.29 0 01.67.74L37.54 32a1.32 1.32 0 01-.54 1.48l-1.27.78a1.28 1.28 0 01-.68.2z"/><path class="cls-1" d="M35 34.2l-4.5-.2a1 1 0 01-1-1.08 1 1 0 011.08-1l4.17.17.33-.2-.7-2-.84-.39c-.46.23-1.44.76-2.25 1.23a1 1 0 11-1-1.81 13.18 13.18 0 013.12-1.56 1 1 0 01.64.07l1.63.76a1 1 0 01.54.58l1.1 3.33a1 1 0 01-.45 1.18l-1.3.72a1 1 0 01-.57.2z"/><path class="cls-1" d="M36.39 34.29a1.28 1.28 0 01-1.2-.95l-.57-2.1a1.31 1.31 0 01.31-1.24l.79-.83A1.23 1.23 0 0136 29a11.23 11.23 0 013-1.48 1.09 1.09 0 01.26 0 1.32 1.32 0 01.84.31L42.65 30a1.33 1.33 0 01.45 1.09l-.1 1.45a1.29 1.29 0 01-.6 1l-1.15.72a1.32 1.32 0 01-.69.2zm3.79-2.44l.26-.17v-.18L39 30.26c-.44.23-1 .55-1.56.86l-.13.14.13.48z"/><path class="cls-1" d="M40.53 34.2L36.4 34a1 1 0 01-1-.77l-.58-2.1a1 1 0 01.26-1l.79-.83a.84.84 0 01.23-.18 11.86 11.86 0 012.9-1.4 1 1 0 01.88.23l2.59 2.21a1 1 0 01.36.87l-.12 1.49a1.08 1.08 0 01-.48.8l-1.15.68a1.07 1.07 0 01-.55.2zM37.24 32l3 .12.44-.28v-.44L39 30c-.45.23-1.12.6-1.72.94l-.29.3zm-10.98-2.69a1.3 1.3 0 01-.81-.29 1.27 1.27 0 01-.48-.87 1.31 1.31 0 01.28-.95l2.25-2.81a1.3 1.3 0 011-.48l3.71-.06a1.31 1.31 0 011.31 1.27 1.3 1.3 0 01-1.28 1.32h-3.08l-1.88 2.33a1.28 1.28 0 01-1.02.54z"/><path class="cls-1" d="M26.26 29.05a1 1 0 01-.65-.23 1 1 0 01-.16-1.46l2.26-2.81a1 1 0 01.79-.38l3.69-.07a1 1 0 110 2.08l-3.19.06-1.95 2.42a1 1 0 01-.79.39z"/><path class="cls-1" d="M39 29.8a1.3 1.3 0 01-1.29-1.19l-.15-1.71-1.56-.78-1.8.64.29 1a1.3 1.3 0 01-.87 1.61 1.21 1.21 0 01-.38.06 1.3 1.3 0 01-1.24-.96l-.64-2.15a1.3 1.3 0 01.81-1.6l3.49-1.23a1.61 1.61 0 01.43-.07 1.31 1.31 0 01.59.14l2.66 1.36a1.3 1.3 0 01.71 1l.2 2.43a1.29 1.29 0 01-.3.94 1.25 1.25 0 01-.89.45z"/><path class="cls-1" d="M39 29.54a1 1 0 01-1-.95l-.15-1.85-1.85-.9-2.14.76.36 1.21a1 1 0 11-2 .59l-.65-2.16a1 1 0 01.7-1.24l3.49-1.22a1 1 0 01.82.05l2.67 1.36a1 1 0 01.56.84l.2 2.43a1 1 0 01-.95 1.12zm-3.15 7.85a2 2 0 011.95 2v12.72a2 2 0 01-1.95 2h-6.23a2 2 0 01-1.95-2V39.34a2 2 0 011.95-2m.64 2.6v11.53h4.94V40"/><path class="cls-1" d="M35.85 37.65a1.69 1.69 0 011.69 1.69v12.77a1.7 1.7 0 01-1.69 1.7h-6.23a1.7 1.7 0 01-1.69-1.7V39.34a1.69 1.69 0 011.69-1.69m.38 2.08v12h5.45v-12"/><path d="M5.12 13.03H60.6v39.52H5.12zm0 20.69h18.13m18.36 0h18.14M5.12 40.65h18.13m18.36 0h18.14M47.12 13.2v20.31M17.46 13.2v20.31M32.73 13.2v11.95" fill="none" stroke="#afbf36" stroke-linecap="round" stroke-linejoin="round" stroke-width="2.5"/></svg>