<svg id="レイヤー_1" data-name="レイヤー 1" xmlns="http://www.w3.org/2000/svg" viewBox="0 0 65.92 65.92"><defs><style>.cls-1{fill:none}.cls-1,.cls-3{stroke:#afbf36;stroke-linecap:round;stroke-linejoin:round;stroke-width:2.5px}.cls-2{fill:#afbf36}.cls-3{fill:#fff}</style></defs><path class="cls-1" d="M12.56 50.14a4.27 4.27 0 01-4.53-4 4.27 4.27 0 014.53-4m40.8 8a4.27 4.27 0 004.53-4 4.27 4.27 0 00-4.53-4m0 4.05c0 9.38-9.13 14.73-20.4 14.73s-20.4-5.35-20.4-14.73S21.69 26.92 33 26.92s20.36 9.88 20.36 19.27z"/><path class="cls-2" d="M11.77 42.08c.09.4 2.28.64 4.46.65 4.21 0 13.85-.88 20.26-3.33a54.14 54.14 0 0013.2-7.53c.29-1.19-5.48-10-16.73-10-17.16-.03-22.09 16.49-21.19 20.21z"/><path class="cls-2" d="M49.58 28.15c4.5 3.9 4.93 12.53 3.78 16.17-17.91-2.73-16.58-11.61-16.87-11.92 0 0 1.65-14.19 13.09-4.25z"/><circle class="cls-2" cx="26.17" cy="45.96" r="1.56"/><circle class="cls-2" cx="39.75" cy="45.96" r="1.56"/><path class="cls-1" d="M36.79 54.25v2.48"/><path class="cls-3" d="M38.48 53c-2 1.68-9.06 1.68-11 0m4.95-16.22a98.68 98.68 0 0122.68 2.56c2.27-2.27-2.84-13.64-5.33-18.17C46.6 15.38 39.65 5 32.7 5S18.8 15.38 15.61 21.17C13.12 25.7 8 37.07 10.28 39.34A98.68 98.68 0 0133 36.78z"/><path class="cls-3" d="M16.84 19.6c6.05 3.4 13.39 2.26 17.32.4 8.4-4 16.25 2.49 16.25 2.49"/></svg>