<?xml version="1.0" encoding="utf-8"?>
<!-- Generator: Adobe Illustrator 24.2.0, SVG Export Plug-In . SVG Version: 6.00 Build 0)  -->
<svg version="1.1" id="レイヤー_1" xmlns="http://www.w3.org/2000/svg" xmlns:xlink="http://www.w3.org/1999/xlink" x="0px"
	 y="0px" viewBox="0 0 65.9 65.9" style="enable-background:new 0 0 65.9 65.9;" xml:space="preserve">
<style type="text/css">
	.st0{enable-background:new    ;}
	.st1{fill:#b0bf24;}
	.st2{fill:none;stroke:#b0bf24;stroke-width:3.2;stroke-linecap:round;stroke-linejoin:round;}
</style>
<g class="st0">
	<path class="st1" d="M21.9,29.2h3.3c2,0,3.3,0.9,3.3,2.6v0c0,1.8-1.4,2.8-3.4,2.8h-0.8v2h-2.5V29.2z M25,32.9
		c0.6,0,1.1-0.3,1.1-0.8v0c0-0.5-0.4-0.8-1.1-0.8h-0.7v1.7H25z"/>
</g>
<g class="st0">
	<path class="st1" d="M29.3,29.2h2.8c3,0,4.4,1.5,4.4,3.7v0c0,2.2-1.5,3.8-4.5,3.8h-2.8V29.2z M31.8,31.4v3.1h0.4
		c1.1,0,1.9-0.5,1.9-1.5v0c0-1.1-0.7-1.5-1.9-1.5H31.8z"/>
</g>
<g class="st0">
	<path class="st1" d="M37.8,29.2H44v2.1h-3.7v0.9h3.5v1.9h-3.5v2.4h-2.5V29.2z"/>
</g>
<path class="st2" d="M14.3,58.1V7.8H43l8.7,9.2v41.1H14.3z"/>
<path class="st2" d="M42.2,7.8V17h8.6C50.8,17,42.2,7.8,42.2,7.8z"/>
</svg>
