<svg xmlns="http://www.w3.org/2000/svg" viewBox="0 0 974.75 1082.94"><defs><style>.cls-1{opacity:0.5;}.cls-2,.cls-3{fill:none;stroke-width:2px;}.cls-2,.cls-3,.cls-4{stroke:#b0bf24;}.cls-3{stroke-dasharray:12.06 12.06;}.cls-4{fill:#eaea92;}</style></defs><title>map</title><g id="Layer_2" data-name="Layer 2"><g id="レイヤー_1" data-name="レイヤー 1"><g id="AREA" class="cls-1"><path class="cls-2" d="M.08,537.88s2.09.18,6,.37"/><path class="cls-3" d="M18.12,538.63c58.57,1,247.31-6.81,380.51-140C536.8,260.45,540.08,62.48,538.49,12.1"/><path class="cls-2" d="M538.25,6.07c-.19-3.9-.37-6-.37-6"/></g><g class="cls-1"><g id="Hopporyodo"><path class="cls-4" d="M898,124.79h5.76l2.87-5.75,8.64-5,1.44-6.48L926,97.45l2.16-7.91,7.91.71,6.48-5.75,11.51-12.23,11.51-7.92h5l3.6-2.16-.72-10.07-2.88.72L961.28,60,953.36,68l-10.79,2.16-5.76-6.48v8.64l-7.91,7.91-.72,1.44-5.76,2.16-3.59,8.63-4.32,2.88-1.44,5.76-5.76,2.16,2.16,7.19L903,113.28v2.16l-2.87.72.72,2.88-2.16,1.44.72,5.75Z"/><path class="cls-4" d="M843.28,169.4l4.31,3.6h2.16v-7.92l2.16-3.59,5-2.88,3.59-6.48,1.44-4.31,5.76-4.32,1.44-5,6.47-2.16,5-3.59,5-2.88,1.43-4.32-6.47,2.16-11.51-3.6-7.92,13.67v2.88l-3.6,2.16L856.22,150l-4.31,3.6-.72,2.16-7.92,9.36v4.31Z"/><path class="cls-4" d="M892.92,166.52l2.88,2.16,9.35-6.47-3.59-3.6-5,1.44-3.6,3.59Z"/><path class="cls-4" d="M873.5,183.79h2.87v-3.6H873.5Z"/></g><g id="Hokkaido"><path class="cls-4" d="M626,319.78l2.88-.72V316.9l4.32-3.6,4.32-1.44-.72-6.47,7.19-5.76,2.88-4.32,3.6,2.16,12.23,4.32,6.47-5.76-3.59-5-7.2-2.16-8.63-10.07-3.6-.72-4.32,2.15L635.34,273l-2.88-.72L629.58,268v-2.16l2.16-2.15,2.88-8.64,2.88-2.88,5-.72,4.32.72,3.6,2.88,5,5.76,2.88,5H662l2.88-4.31,12.95-8.64,17.27-5,42.45,24.46,20.86,11.51,2.88-8.63V262.94l2.88-8.64,3.6-2.88,4.31-7.91,20.15-20.15,5-3.59,7.91.71,2.16,1.44,10.79-.72.72-5.75,2.16-.72,2.16,2.16,5.75,1.44,5.76-6.48,1.44-4.32,12.95-3.6,2.88-3.59,7.91-6.48V191l-3.59-1.44-5.76,7.2-10.07,2.88L839,195.3l2.87-.72-5-12.23,3.6,1.44v-3.6l-6.48-.72-3.6-5-.72-7.2,2.88-14.39,5-3.6V138.46l-2.88-.72L826,149.25,821,155l-7.2,8.63-9.35.72-6.48-2.16-6.47-8.63-2.16,4.32-3.6-5-11.51,2.88-4.32-2.88v-3.6l-9.35-3.6-17.27-13L731,121.19,721.67,109,710.16,93.85l-10.07-7.92-8.63-8.63H689.3v3.6l-8.64.72-2.16,3.6.72,7.19-2.15,2.16.71,6.47,7.92,12.24,2.88,9.35v11.51l-1.44,9.36-4.32,5.75,2.88,8.64-.72,5.75L683.54,168l-1.44,5.76-7.91,5.75-1.44,3.6.72,7.19,4.31,13.67-2.15,6.48-8.64,7.2-5.75-.72-3.6-3.6-5.76,1.44-7.19-2.88-3.6-4.32-7.2-.72L630.3,209l.72,5,6.47,10.79v4.32l-5,4.31L631,235.59l-2.16,6.48-4.32-2.88-4.31,5-8.64,3.59-1.44,4.32.72,10.07L606.56,268l5,7.92,6.48,4.31,5,8.64v6.47l-5,13.67,2.16,9.36Z"/><path class="cls-4" d="M662,100.33h5L666.28,96l-2.88-2.88-4.32,2.16v2.16Z"/><path class="cls-4" d="M653.33,89.54l2.16-2.88V82.34l-3.6.72Z"/><path class="cls-4" d="M597.92,273.73l-1.43,7.19-2.16,3.6-2.88-3.6,1.44-4.31Z"/></g><g id="Aomori"><path class="cls-4" d="M617.35,376.62V372.3l-2.88-1.44,1.44-5.75,4.32-4.32,10.07-2.88,2.16-11.51,2.16-2.16v-2.88l-2.16-1.44,1.44-9.35,6.48,2.16,4.31-.72L649,350.72l4.32,2.88,5.75-3.6v-6.48l6.48,3.6,3.59,3.6,3.6-2.16-.72-6.48,3.6-4.31-.72-6.48-4.32-3.6-5,4.32-6.48.72-5.75,2.88v-7.92l1.43-7.19,4.32-6.48h5.76l8.63,7.92,8.64-1.44L680,335.61l2.16,4.31v15.83L686.42,368l6.48,2.87.72,2.16-3.6,1.44-.72,2.16-11.51,2.88-12.95,7.19L662,384.53v-9.35l-8.63-1.44-5.76,3.6-13-3.6-4.32,2.16-8.63-.72Z"/></g><g id="Iwate"><path class="cls-4" d="M657.64,460.08l16.55,7.2,2.16,3.59,6.48-2.15,2.16.72,5.75-11.52,2.88-.72,2.88,1.44,5,1.44v-3.6l3.59-.72.72-3.59,1.44-2.16-.72-3.6,3.6-2.16L708,442.81l2.16-2.88-1.44-2.15v-3.6l4.32-2.88-2.16-1.44,2.16-6.47v-2.88l-2.16-1.44v-6.48l-1.44-4.31-.72-4.32v-2.88l-1.44-2.88-.72-2.16L703,394.6l.72-4.31-2.16-2.16v-5.76l-7.91-10.07-2.88,2.16-2.16,2.16-12.23,2.87L664.12,386,662,383.81l-4.31,2.88v5.76l-1.44,2.15,1.44,6.48.71,7.19-2.15,6.48v6.48l-2.88,8.63L649,432.74l1.44,6.47,5.76,6.48v2.88l-1.44,2.16,1.44,3.59Z"/></g><g id="Miyagi"><path class="cls-4" d="M637.5,519.08l8.63,1.44,1.44,2.16,7.92.72,2.87,5.76,6.48-5h2.88L667,513.33l5-8.64V497.5l7.92-2.16,1.44-2.88h4.31l6.48,7.2,1.44-1.44v-6.48h-2.88L692.9,486l-2.16-1.44.72-3.6-.72-6.48,2.88-1.44.72-4.31.72-4.32,2.88,1.44-1.44-7.2-5-2.16-6.48,13L682.83,468l-7.2,2.87-2.16-3.59-16.55-7.2-2.87.72-.72,2.16-5.76,2.88V468l3.6,6.47-.72,5.76-2.88-.72-1.44,2.88v2.16l2.16,1.43v4.32l.72,3.6-2.88,4.32-1.44,5v4.32L641.81,509l-.71,3.6-4.32,2.15Z"/></g><g id="Akita"><path class="cls-4" d="M617.35,376.62l10.07-1.44H631l3.6-1.44,13,2.88,5-3.6,9.35,2.16v8.63l-4.31,2.88v5.76l-1.44,2.16,1.44,5.75.71,8.64-2.15,5v7.2l-2.88,8.63L649,432.74l1.44,6.48,5.76,6.47.72,2.88-2.16,2.16,1.44,4.32.72,5-3.6.72-.72,2.16-5,2.88-6.47-5.76L631,457.2l-9.35-5h-4.32l6.48-14.39.72-17.27-2.88-5v-5.75H610.88l-2.16-2.16-.72-5h2.88l2.88,2.16,3.59-2.88v-2.88l3.6-5v-6.48l1.44-3.6Z"/></g><g id="Yamagata"><path class="cls-4" d="M616.63,451.45l5,.72,9.35,5,10.08,2.88,5.75,5,.72,2.88,3.6,5.75-1.44,6.48-2.16-.72-1.44,2.88v2.16l2.16,1.43.72,7.92-5,8.63.71,5L641.82,509l-1.44,3.6-4.32,2.15v2.88l1.44,2.16L634.62,522l1.44,7.91-2.88,1.44-20.86-3.59-5-3.6,3.6-10.79-2.16-1.44,2.88-5h2.87l3.6-3.6v-2.88l-5-4.31h-2.88l-.72-6.48-5-4.32,7.2-9.35,5.75-18.71Z"/></g><g id="Fukushima"><path class="cls-4" d="M613,527.72l20.15,3.59,2.88-1.44L634.62,522l2.88-2.88,8.63,1.44,1.44,2.16,7.92.72,2.87,5.76,6.48-5h2.88L672,534.91V545l.72,11.51,1.44,5-1.44,2.88-1.43,2.88v7.91l-7.2,8.64-7.91-2.16-2.16-2.16-7.2,6.48-5-4.32h-2.88l-2.88-7.91-6.48-5L626,568h-7.2l-12.23,7.2-2.88,2.15-7.19,3.6h-2.88l-2.16-1.44,1.44-2.16v-5.75l-3.6-6.48-1.44-2.88.72-2.15.72-2.88-1.44-2.16.72-3.6,12.23-5,4.32-2.16-1.44-2.16v-2.88l3.6-1.44,2.16-5.75Z"/></g><g id="Ibaraki"><path class="cls-4" d="M623.11,637.08,626,640l8.64.72,1.44,2.88H644l4.32-3.6h6.47l2.88,1.44,5.76,5.75H667l-10.8-18.7-.71-2.88-2.16-2.16.72-7.91,2.87-2.88v-2.16l-1.43-2.88,2.15-4.32,4.32-13,2.16-6.47-8.64-2.16-1.43-2.16-7.2,6.48-5-4.32h-2.87l-1.44,2.88v8.63l-.72,2.16,1.44,9.35-4.32,6.48h-2.16l-13.67,7.2h-2.88l-7.19.71,2.16,2.16,2.15,1.44.72,6.48,7.2,3.59Z"/></g><g id="Tochigi"><path class="cls-4" d="M592.89,580.24h3.6l7.91-2.88,2.88-2.88,11.51-7.19,7.2.72,3.59.72,6.48,5,2.88,7.19-1.44,3.6.72,8.63-.72,11.51-4.32,5.76-2.16.72-13.67,7.2H608l-6.48-.72-2.87-6.48v-5L600.8,599h-5l.72-2.88v-2.16L595.05,586Z"/></g><g id="Gumma"><path class="cls-4" d="M592.89,580.24l-2.16-1.44L585,577.36h-3.59l-2.88,6.48-3.6,4.32H572l-1.44,1.43-2.16,5.76-3.59.72-3.6-.72-7.2,6.48v8.63h4.32l5,2.16L562,619.09l.72,7.92.72,5,1.44,3.59,3.59,1.44,5-5.75,6.48-2.16,2.88-2.16.72-4.32,4.31-2.16h5l5.75,2.88,7.92.72h3.6v-2.88L608,618.38l-6.48-.72-2.88-7.2v-5l1.44-6.48h-4.31l.72-4.32L595.05,586Z"/></g><g id="Saitama"><path class="cls-4" d="M567.7,636.36l5-5,6.48-2.16,3.6-2.88V622l4.31-2.16,5.76.72,5.75,2.88,10.8.72.72-2.88,2.16,1.44.71,6.48,6.48,3.59,2.88,4.32.72,10.07H615.2l-5,1.44h-6.48l-7.91-.72-12.95-4.31L579.94,645l-7.92-.72-2.87-2.88Z"/></g><g id="Chiba"><path class="cls-4" d="M623.83,656.51l-.72-9.36-.72-10.07,2.88,2.88,9.35.72.72,2.88,8.63-.72,4.32-2.88h6.48l2.15.72,6.48,6.48h2.88l2.16,4.31-7.92.72L652.61,658l-2.16,8.63-.72,10.08-2.88,5.75-2.16,3.6-10.79,2.16-5.76,5.76-.72,2.15-2.87,2.16-2.88.72V693.2l1.44-5.75-1.44-5,1.44-4.32-2.16-.71V674.5l12.95-15.11v-2.16l-4.32-3.6Z"/></g><g id="Tokyo"><path class="cls-4" d="M579.94,644.28l2.88-1.44,12.95,4.31,7.19,1.44h7.2l4.31-1.44h7.92l1.44,9.36-7.92.72-5.75,1.44h-10.8l-10.07-1.44-.72-2.16-2.16-2.16-5.76-5Z"/><path class="cls-4" d="M600.8,711.19h5V709l-5-3.6Z"/><path class="cls-4" d="M594.33,717.67v2.88l.72-2.88Z"/><path class="cls-4" d="M597.92,722l2.16-1.44L597.2,722Z"/></g><g id="Kanagawa"><path class="cls-4" d="M588.57,656.51l11.51,2.16h10.08l5-2.16h8.64l-3.6,1.44-2.16,2.16v3.59l-4.32,3.6-.72,7.92,4.32,2.15-.72,4.32-4.32,2.88v-5l-2.15-3.6-10.08-1.44-4.31,2.88-3.6,1.44v3.6l-2.88,3.6-7.91-3.6.72-2.88v-6.47l-2.88-2.16V668l5-2.88,3.6-2.16.72-2.16v-4.31Z"/></g><g id="Nigata"><path class="cls-4" d="M569.86,589.59l2.16-1.43h2.88l3.6-4.32,2.88-6.48H585l6.48,1.44,1.44-2.16-.72-5.75-4.32-8.64,1.44-5-2.16-2.16,1.44-4.32,12.23-4.32,4.32-2.15L603,542.11v-2.88l4.32-2.16,2.16-5.76,3.59-2.87-5.75-4.32,3.59-10.79-2.15-1.44,2.88-5h2.15l3.6-3.6v-2.87L613,496.06h-2.87l-.72-7.2-5-3.59L603,488.86l-5,10.08v13.67l-23,16.55-3.6,3.59L568.42,545l-7.19,6.47-2.88,6.48L546.84,568h-5.76l-9.35,5.76-5,4.31L520.22,581l2.16,7.91,4.31-3.59,1.44-2.88h5.76l2.87,5,10.08-2.88,3.6-4.32,3.59-3.6h4.32l5,6.48Z"/><path class="cls-4" d="M544,531.31l7.2-.72,7.19-7.19.72-7.2-4.32,1.44v-6.47l1.44-3.6-.72-5.76-8.63,8.64-2.16,8.63L549,522v2.88Z"/></g><g id="Toyama"><path class="cls-4" d="M519.5,580.24l2.16,8.63.72,2.88v5.76l-5,8.63V609l-2.16,4.32-11.51-2.88-10.79.72-3.6,4.32-3.6,5-2.16-3.6h-5l-.72-7.19,1.43-2.88.72-15.83,2.16-5,2.88-2.16.72-2.88h5v8.63l2.16,3.6,9.35.72,2.88-1.44,4.31-8.63,4.32-3.6Z"/></g><g id="Ishikawa"><path class="cls-4" d="M490.72,581h-5l-.72,2.88L482.08,586l-2.15,5-.72,16.55-1.44,2.16.72,7.19-.72,4.32.72,3.6-2.16,1.44-.72,4.31-5,2.16-1.44-4.31-3.6-1.44h-6.47l-3.6-3.6L452.58,622l10.79-8.63L472,597.51l3.6-3.6,2.87-10.07L476.33,581l.72-7.2L474.17,568l1.44-3.6.72-5,7.19-3.59h4.32l14.39-7.92,2.88,4.32-4.32,4.31-.72,4.32-3.6,2.16-2.16-.72-5,5.76L485,566.57l-1.44,5.75,3.6,3.6,2.88-.72Z"/></g><g id="Fukui"><path class="cls-4" d="M452.58,622l2.88,1.44,2.88,3.6h6.48l3.59,1.44,2.16,5,7.2,11.52-.72,5L467,651.47h-8.63l-5,5.76-2.16.72-1.43,2.16-2.88,2.15-12.23,5-1.44,7.19L431,675.93l-2.88-2.16-10.07-2.15-1.44-3.6-1.44-6.48,2.88.72,2.16.72.72,2.88h2.87v-1.44H426v2.88l3.6-.72V663l2.16.72,2.16-1.44v-2.88l3.6-.71,3.59-2.16v-3.6H444l2.88,2.88-.72-7.2-5-10.79v-2.88l7.2-10.79Z"/></g><g id="Yamanashi"><path class="cls-4" d="M568.42,641.4l2.88,2.88h8.64l.72,3.59,7.91,6.48v6.48l-.72,2.15-9.35,5v2.16h-3.6l-5,1.44h-5L562,669.46h-3.6V681l-2.88,2.88-3.6-4.32-.71-3.6h-4.32v-5.75l-.72-4.32v-5.75L544,658V646.44l7.91-6.48,2.88,1.44,6.48,1.44Z"/></g><g id="Nagano"><path class="cls-4" d="M521.66,588.15l5-2.87.72-2.88h6.48l2.16,5,10.79-2.87,7.19-7.92h4.32l5,7.2,6.47,5.75-1.44,5.76-4.31.72-2.88-.72-7.91,7.19.71,7.2h3.6l5.76,2.88L562,619.81l.72,12.23,2.16,3.6,2.88,1.44.72,3.6-7.2,2.16-6.47-1.44L551.88,640,544,646.43V658l-2.15.72-2.16,7.91-.72,6.48-4.32,4.31-9.35,4.32L513,680.25l2.15-8.63,2.16-2.88-.72-4.32-2.88-2.16v-2.87l-3.59-5.76-5-5.76-.72-2.87,5.76-3.6,3.59-4.32,1.44-3.6-1.44-7.91,2.88-5.76-.72-3.59-.72-3.6,2.16-3.6v-2.88l5-8.63Z"/></g><g id="Gifu"><path class="cls-4" d="M453.3,657.23l5-5,7.91-.72L476.33,650l1.44-5.75-7.92-11.52,5.76-2.87v-3.6l2.88-1.44-.72-3.6v-4.31h5.75l2.16,3.59,3.6-5.75,2.88-3.6,11.51-.72,11.51,2.88,1.44,6.47-3.6,6.48,1.44,7.19-.72,3.6-4.32,5-5,2.88.72,2.15,5,6.48,3.6,5v3.6l2.88,2.87.72,3.6-2.16,2.88L513,680.25h-8.63l-10.07-2.87-7.92-4.32-10.07,1.44-5,7.19v2.88h-2.16l-2.88-2.88-4.31-.72-1.44-10.79Z"/></g><g id="Shizuoka"><path class="cls-4" d="M525.25,681.69l8.64-5,5-3.59.71-6.48,2.88-7.91L544,658l1.44,2.15.72,5.76.72,5v5h3.6l.72,3.6,4.31,4.32,2.88-2.88V669.46H562l2.88,2.16h5l4.32-1.44h4.32l2.88,2.88v8.63l7.19,4.32-.72,8.63L590,699l-7.19,11.51v4.32h-3.6l-2.16,2.87H574.9l-1.44-7.19-.72-17.27,4.32-.72-5-5.75-7.19.71-4.32,4.32-.72,5-7.19,2.88L549.72,709l-2.88,2.16-1.44,6.47-7.19-2.87-7.2.72-3.6,2.15-8.63-2.87h-7.91v-9.36l5.75-4.32L526,686.73Z"/></g><g id="Aichi"><path class="cls-4" d="M469.85,684.57l1.44-.72v-2.16l5-7.2,10.07-1.43,7.92,4.31,10.07,2.88H513l12.23,1.44.72,5.76-9.35,14.39-5.76,3.59v9.36h-5.75L495,719.11h-3.59V717l10.79-6.48-.72-2.88-10.79.72-2.16-1.44-.72-4.31-2.16,5,1.44,5-5-2.16v-4.32l-2.16-3.59V699l4.32-5-2.88-2.16-5.75,2.16Z"/></g><g id="Mie"><path class="cls-4" d="M461.94,680.25l4.31,1.44,2.16,2.88h2.16l4.32,8.63-2.16,3.6-1.44,8.64L467,709l-.72,7.2,7.2,5.75,5.76,3.6,5.75,3.6-.72,7.91-5,1.44,1.43-2.88h-7.19l-11.51,5.76h-4.32l-1.44,1.44v3.6l-3.6,1.44.72,7.91-7.91,5.76-3.6,10.07-7.91-6.48.72-5,4.31-2.88v-4.32l5.76-4.31v-9.36l.72-4.31-2.16-2.16v-4.32l6.48-.72,2.15-1.44-2.15-5-3.6-.72-2.88-3.6v-5l-2.16-1.44,1.44-3.6,3.6-4.31h6.47l3.6-2.88,2.16-4.32,2.16-1.44v-7.19Z"/></g><g id="Shiga"><path class="cls-4" d="M431,675.93l2.16-1.43.72-7.2,12.95-5,2.88-2.16,1.44-2.16h2.15l7.2,12.95L461.94,681l-1.44,5.76v7.91l-2.16.72-2.16,4.32-3.6,2.88h-6.47l-4.32,5-5-5-4.31-10.8Z"/></g><g id="Kyoto"><path class="cls-4" d="M414.45,661.55l3.6,10.07,10.07,2.16,2.88,2.15,1.44,16.55,4.31,10.08,5,5-.72,2.16-9.35,1.44L428.84,709l-.72-4.32-.72-6.47-4.32-.72v-2.88l-4.31-3.6-12.23-5-5.76-7.92-5.76-.72-3.59-2.88v-2.16H395l.72-2.15v-5.76L390,661.54l-1.44-4.31,5.75-.72,4.32-4.32H408l-2.87,10.07,3.59,1.44,1.44,3.6,2.88-.72Z"/></g><g id="Osaka"><path class="cls-4" d="M423.08,697.52l4.32.72.72,10.79,3.6,2.16-7.92,9.36-.72,9.35-18,5h-7.2l8.63-4.31,6.48-5.76,2.88-7.91L413,710.47l1.44-9.35-4.32-4.32v-2.88H413l5,5Z"/></g><g id="Hyogo"><path class="cls-4" d="M388.55,656.51l1.44,5.75,5.75,2.16v5.76l-1.44,2.16h-2.87v2.15l3.59,2.88,5.76.72,5.76,7.92,12.23,5,4.31,3.6v2.88l-5,1.44-5.76-5h-2.16v2.88l4.32,4.32L413,710.47l-6.48,1.44-5,4.32h-5l-18.71-10.08-11.51,3.6-6.47.72.71-5.76-2.87-4.31,2.16-11.51,5.75-4.32-.72-2.88,5.76-4.32.72-5-2.88-7.92-4.32-5,7.2-2.16Z"/><path class="cls-4" d="M377,734.93l5-4.31V727l10.08-7.91,1.43,2.87-3.59,3.6.72,12.23-6.48,3.6Z"/></g><g id="Nara"><path class="cls-4" d="M423.08,729.9l.72-10.08,7.92-8.63,8.63-1.44,2.88,2.16v5l2.88,3.6,3.6.71,2.15,5-2.15,1.44-6.48.72v4.32l2.16,2.87-.72,3.6v9.36l-6.48,3.59v5l-3.59,2.88H420.2l-.71-8.64v-5L426,740l-1.44-5v-4.31Z"/></g><g id="Wakayama"><path class="cls-4" d="M397.9,734.93h7.92l17.26-5,1.44.72v4.31l.72,5-6.47,7.2.72,4.31.72,8.64h13.67v5l7.19,6.48-2.16,5.76-8.63,7.91-3.6.72-7.19-4.32L413,778.83l-2.88-7.92-2.88-5-8.63-5.75-.72-5.76,2.16-1.44-.72-2.88-2.16-1.43.72-3.6V734.93Z"/></g><g id="Tottori"><path class="cls-4" d="M363.36,659.39l5,5,2.88,7.92-.72,5.75-5.76,3.6h-3.59l-5,.72-5-5.75-5-1.44-3.6,2.15h-7.2l-2.15-2.87h-3.6L313,690.33l-5.76-3.6.72-7.92,5.76-3.59V665.14l5.75.72,7.2-3.6,13.67,2.16Z"/></g><g id="Shimane"><path class="cls-4" d="M313.72,665.14v10.08L308,678.81l-.72,7.92-12.95-1.44-5.75,2.16-1.44,2.16v2.15l-3.6,5-5.76,3.6-7.19.72-4.32,1.44-2.88-.72-5,3.6-3.6,10.79L253.28,722l-1.44,6.48h-4.32l-7.91,2.88,1.44-6.48v-4.31l-2.16-3.6-3.6-3.6v-5l6.48-.72,21.58-18.7,6.48-3.6,5-7.2,7.91-3.6,3.6-3.59-2.16-5,20.15-7.19,7.91,1.44Z"/></g><g id="Okayama"><path class="cls-4" d="M312.28,690.33l16.55-15.84h4.32l2.15,2.16,7.2.72,2.88-2.15,5,1.43,5,5.76,5.76-1.44,3.59.72v2.88l-5.75,3.6-1.44,12.23,2.88,5-.72,5-5,2.88-2.16,3.6h-7.91l-1.44,1.44H349l-6.47,6.47h-4.32l-6.48-3.59-8.63,2.87-.72-2.16h-2.16l-2.88-4.31Z"/></g><g id="Hiroshima"><path class="cls-4" d="M251.84,728.46l2.16-7.2.72-5.75,2.88-10.07,5.75-3.6,2.88.72,4.32-2.16h7.19l5.76-3.6,3.6-5v-2.87l7.19-3.6,12.95,1.44,5.76,3.6,4.31,28.06,2.88,3.59-5.75,8.64-2.88-3.6L308,729.9v3.6l-6.48.72,3.6-5-2.16-1.44-4.31,2.88h-7.2l-7.91,5.76-6.48.71-1.44-5-2.88-3.6-5,.72-5.76,7.2-6.48-6.48Z"/><path class="cls-4" d="M297.17,738.53h3.6v-2.16l-.72-2.88Z"/><path class="cls-4" d="M273.43,742.85l4.31,2.16-.72-2.88v-3.6h-2.16Z"/></g><g id="Yamaguchi"><path class="cls-4" d="M235.29,708.31l-.72,5,4.32,3.6,2.16,4.31v3.6l-2.16,5.76,8.63-2.16h4.32l4.32,1.44,5.75,6.48-1.44,2.87v3.6l.72,5-4.31,3.6-.72,7.19-2.88,2.16v-7.2l-7.2-2.15-2.87-2.88-3.6,1.44v-5.76l-9.36,3.6-1.43-1.44H224.5l-1.44,1.44-1.44-3.6-4.32,5.76-5.75-.72-4.32-7.2L200,747.89l-3.6-10.8,2.88-1.43-.72-3.6-1.44-3.6,7.19-7.19,3.6-.72,3.6,2.87,1.44-2.15,2.88,2.15,5-.71,4.32-3.6,1.44-2.88,6.47-7.2Z"/><path class="cls-4" d="M260.47,752.2l-.71,2.88,2.15,1.44,8.64-1.44L272,752.2H260.47Z"/></g><g id="Tokushima"><path class="cls-4" d="M328.11,746.45h7.19l2.88-1.44,7.92.72,6.47-3.6h4.32l2.88-1.44h6.47l2.16-1.44,5-.72,2.88,2.88-.72,2.16-2.16,2.88v5.75l4.32,3.6v7.92l-7.2,5.75-7.19,2.88-3.6,7.19-7.2-2.87-2.87-5.76-2.88-.72-.72-5-2.88-2.87-5.76,1.43-2.15-2.15h-3.6l-3.6-3.6V746.45Z"/></g><g id="Kagawa"><path class="cls-4" d="M328.11,746.45h7.19l2.88-2.16,7.92.72,6.47-2.88h4.32l2.16-2.16,7.19.72,1.44-1.44-7.19-3.6-2.88-3.59h-2.88l-1.44-2.16-3.6-.72-9.35,2.16-.72,2.15-4.32,2.88h-7.91V740l1.44,2.16Z"/><path class="cls-4" d="M356.17,724.86l3.6-.72.72-2.16-.72-2.16h-2.88Z"/></g><g id="Ehime"><path class="cls-4" d="M328.11,746.45V758l-7.2,2.88-11.51.72-7.91,5-2.88,5-2.16,7.19L294.29,781l-5.75.72,1.43,2.88-.71,2.16-.72,4.32-7.92,8.63-9.35.72-3.6-3.6,6.47-2.16v-2.87L272,789.62h-5v-6.48L264.79,781l-10.07,5-4.32,1.44,5.76-6.48,7.91-2.16,3.6-4.31,10.07-4.32,5-5,4.31-13.67,6.48-4.31,2.16-2.88,2.88,2.16,3.59,7.19h7.2l8.63-2.16,5.76-.72Z"/></g><g id="Kochi"><path class="cls-4" d="M271.27,800.41,281.34,799l7.2-7.91,1.43-6.48-1.43-2.88h5.75l2.88-3.6,1.44-7.19,2.88-3.6,7.91-6.47h11.51l7.2-2.88,3.6,3.59H336l1.44,2.16,5.76-1.44,3.6,3.6v4.32l2.87.72,2.88,5.75,7.2,2.16-4.32,7.2-2.88,10.07-9.35-11.51-5-4.32-3.6-1.44-8.63.72-7.2,6.48-8.63,2.88-.72,6.47-7.91,9.36v2.88l-5-.72-.72,5.75-2.16,2.16v5.76l2.88,5-4.32-4.31h-3.6l-3.59,2.16-6.48-3.6V817l2.16-1.44-.72-4.32h-9.35l-.72-4.31Z"/></g><g id="Fukuoka"><path class="cls-4" d="M159,772.35l.72-5,3.6-2.87,3.6.71,2.88,2.16,2.87-.72-1.43-5,3.59-1.44,1.44-2.16.72-5,7.2-2.16,2.16-2.15,10.79,2.15,3.6-.71,4.31,16.54,4.32,1.44v2.88l-3.6,2.16-8.63.72-2.88,2.88-3.6,5.75v5.76l1.44,5-1.44,3.6h-2.16l-2.16-2.88h-4.31l-7.2,4.31-4.32,2.88v-4.31l-3.59-4.32,3.59-5.76,3.6-1.44,1.44-2.87-2.88-2.16-.72-2.16-3.59-4.32Z"/></g><g id="Saga"><path class="cls-4" d="M159,772.35l9.36,1.44,5,7.19,2.16.72-1.44,3.6-3.59.72-3.6,6.48-2.88-1.44h-2.88l-2.88,2.88,2.16,6.47V804L154,801.85l-1.44-2.16-3.6-1.44-5-10.07-2.16.72L140.32,786v-5h3.59l2.16-2.16-2.88-4.32,2.16-1.44,1.44-2.16,3.6-.71,2.16,3.59Z"/></g><g id="Nagasaki"><path class="cls-4" d="M143.91,781H141l-.72,5.76,1.44,2.16,2.15-.72,5,10.07,3.6,1.44.72,1.44,7.91,2.87-3.59,5.76h5.75l3.6,1.44v6.48l-1.44,3.59-7.2,1.44h-2.15v-2.87l1.43-5.76L154,812.64l-5,1.44-9.35,10.07-1.44-1.44,1.44-10.07L132.4,804l1.44-4.31,2.88-3.6,4.32,5v6.47l6.47.72.72-3.59-2.16-4.32-4.31-5h-2.88L136,788.9l-5-1.44,1.44-9.36,8.64,1.44Z"/><path class="cls-4" d="M129.52,776.67l2.16,1.43L127.36,786h-3.59v-2.88Z"/><path class="cls-4" d="M102.9,799.69l5-5,1.44,3.6-2.16,3.6-3.6,5,.72-4.32Z"/><path class="cls-4" d="M84.91,809h7.92l2.88,5.76-5,.72L87.79,817H82Z"/><path class="cls-4" d="M139.6,750.76V758l3.59-1.44V750l-2.15-.71Z"/><path class="cls-4" d="M118.73,722.7h4.32l2.16,2.16-3.6,7.2-2.88,2.87-2.88-2.15Z"/><path class="cls-4" d="M121.61,718.39h4.32v2.87l1.43-7.91,4.32-2.88,1.44-2.88-.72-5.75-2.16-1.44-5,2.16v5.75Z"/></g><g id="Kumamoto"><path class="cls-4" d="M170.54,801.13l5-3.6,6.48-3.6,4.31.72,1.44,1.44,3.6.72,1.44,2.88,5-1.44-.72-3.6,2.88-1.44,4.31.72,2.88,5,2.16,1.44v5l.72,9.35-7.92,7.91-2.87,2.16-.72,6.48.72,6.47.72,6.48-1.44,6.48-5,.72-2.16,2.15H181.33l-3.6-4.31-16.55,1.44L175.57,835v-3.6l5-7.2L172.69,822l4.32-4.32h4.32l-.72-2.88-6.48-5.75-2.88-2.88Z"/><path class="cls-4" d="M160.46,830.63l9.36-2.16v2.88l-2.16,2.16v2.87L161.18,835Z"/><path class="cls-4" d="M150.39,827l4.32-.72,2.87,1.44.72,10.79L150.39,845h-2.88v-2.88l2.88-1.44-2.16-2.88v-5Z"/></g><g id="Oita"><path class="cls-4" d="M191.4,796.09l.72-2.87-1.44-4.32.72-6.48,2.88-6.47,3.6-2.16,8.63-.72,2.88-2.88V768l4.32,2.88h8.63l5-5H231l5,6.48v5.76L233.85,781l-5.75,3.6h-3.6l.72,3.6,16.55,3.6-1.44,7.91,6.47,2.88-4.31,4.32,5,3.6-2.15,2.87V817h-3.6l-2.16,4.32-2.16-5.76-6.48.72-8.63,1.44-1.44-3.6-10.79-1.44-.72-12.23L207.23,799l-2.88-5-4.32-.72-2.87,1.44.72,3.59-5,1.44Z"/></g><g id="Miyazaki"><path class="cls-4" d="M181.33,853.65H191.4l2.88-2.16,4.32-.71L200,844.3v-7.2l-.72-6.47v-5.76l10.79-9.35v-2.88l10.79,2.16,1.44,2.88,15.11-2.16,2.16,5.75L231,829.91l1.43,4.31-3.59,2.88-7.2,15.83v7.2l-5.75,10.07,2.87,3.6-6.47,18-3.6,4.32-5.76-3.6h-2.15v-4.31l.71-5L195,881l-2.16-2.15.72-4.32-4.32-2.88-.72-3.6Z"/></g><g id="Kagoshima"><path class="cls-4" d="M161.18,850.78l16.55-1.44,2.88,4.31,7.91,13.67v4.32l4.32,2.16v5l1.44,2.15,7.19,2.16L200,888.91v3.6h-2.88l-2.88,3.59,4.32,7.2-7.2,3.6-.72,3.59-12.23,5.76L177,913.37l4.32-5.75,2.16-7.2-.72-6.48-4.32-2.87-2.16-5.76v-3.6l5.76,2.16,2.88-2.88V877.4l-5-1.44-2.88.72-4.32,5-3.59,8.64,2.16,5,3.59,7.92v2.88L172,908.34l-6.48-5.76-9.35-1.44-3.6-5.76v-2.87l5.75-2.16,2.16-2.88.72-4.32-.72-7.19-5-3.6.72-18,1.43-3.6h3.6Z"/><path class="cls-4" d="M184.21,953.67l5-1.44,1.44-7.92,2.16-2.16,2.16-8.63.72-4.32h-2.88l-5,7.92v5.75l-3.59,5v5.76Z"/><path class="cls-4" d="M159,952.23l6.48-4.32,7.19,4.32v4.31l-3.59,4.32h-6.48Z"/><path class="cls-4" d="M90.67,1073.1l6.48,5,6.47-1.44v-3.6l13.67-9.35v-2.88l-23,6.48v3.6Z"/><path class="cls-4" d="M90,1080.3l7.92,2.16-7.2-5.76Z"/><path class="cls-4" d="M129.52,1072.38l2.16,1.44,1.44-3.59Z"/></g><g id="Okinawa"><path class="cls-4" d="M320.05,219.74l5-3.6-.72-3.59,1.44-6.48,4.32-.72L328,202.47l.72-2.87,6.48-3.6,2.16-2.88,5.75-1.44-.72-3.6,4.32-1.43,4.32-4.32.72-3.6-.72-3.6-2.88-1.44-7.2,7.92-.72,4.32L328,184.49v2.16l5,5-11.51,7.2-.72,9.35-3.6,2.88v5.75Z"/><path class="cls-4" d="M268.24,202.47l4.32.72-.72,4.32Z"/><path class="cls-4" d="M191.25,291v10.08l9.36-2.88L194.13,296l-.72-2.88Z"/><path class="cls-4" d="M128.66,314.72l1.44,7.19,6.47-1.44-.72-5,4.32-5,.72-4.32H138l.72,2.88-5,5.76Z"/><path class="cls-4" d="M105.63,321.91H110l.72-5.75,7.91,1.43L120,319v2.16l-4.31,4.32-10.08-.72Z"/></g></g></g></g></svg>