<svg xmlns="http://www.w3.org/2000/svg" viewBox="0 0 1080 762.3"><defs><style>.cls-1{fill:none;}.cls-2,.cls-6{fill:#6d5231;}.cls-2{opacity:0.6;}.cls-3{font-size:16px;}.cls-3,.cls-5{fill:#fff;}.cls-3,.cls-5,.cls-6{font-family:Meiryo-Bold, Meiryo;font-weight:700;}.cls-4{fill:#b0bf24;}.cls-5{font-size:23.93px;}.cls-6{font-size:43.41px;}</style></defs><title>map_box</title><g id="Layer_2" data-name="Layer 2"><g id="Layer_5" data-name="Layer 5"><rect class="cls-1" y="0.3" width="1080" height="762"/></g><g id="Layer_2-2" data-name="Layer 2"><rect class="cls-2" x="892.91" width="187.09" height="172.49"/><rect class="cls-2" y="705.81" width="77.52" height="56.49"/><rect class="cls-2" x="79.47" y="496.19" width="76.97" height="58.2"/><rect class="cls-2" x="79.47" y="557.39" width="76.97" height="56.24"/><rect class="cls-2" x="159.45" y="496.19" width="75.28" height="58.2"/><rect class="cls-2" y="496.19" width="76.47" height="58.2"/><rect class="cls-2" y="557.39" width="76.47" height="56.24"/><rect class="cls-2" x="159.45" y="557.39" width="75.28" height="115.16"/><rect class="cls-2" y="616.63" width="156.45" height="55.92"/><rect class="cls-2" x="406.66" y="634.27" width="75.06" height="57.97"/><rect class="cls-2" x="328.61" y="634.27" width="75.06" height="57.97"/><rect class="cls-2" x="406.66" y="695.23" width="75.06" height="57.51"/><rect class="cls-2" x="328.61" y="695.23" width="75.06" height="57.51"/><rect class="cls-2" x="416.17" y="497.56" width="76.45" height="56.91"/><rect class="cls-2" x="416.17" y="557.47" width="76.45" height="56.91"/><rect class="cls-2" x="654.53" y="497.56" width="76.45" height="56.91"/><rect class="cls-2" x="813.43" y="437.65" width="76.45" height="116.83"/><rect class="cls-2" x="733.98" y="437.65" width="76.45" height="116.83"/><rect class="cls-2" x="733.98" y="557.47" width="76.45" height="56.91"/><rect class="cls-2" x="733.98" y="378.16" width="76.45" height="56.48"/><rect class="cls-2" x="336.72" y="557.47" width="76.45" height="56.91"/><rect class="cls-2" x="336.72" y="497.56" width="76.45" height="56.91"/><rect class="cls-2" x="972.34" y="497.56" width="76.16" height="56.91"/><rect class="cls-2" x="495.62" y="557.47" width="76.45" height="56.91"/><rect class="cls-2" x="893.22" y="197.37" width="155.28" height="57.54"/><rect class="cls-2" x="892.88" y="377.73" width="155.61" height="56.91"/><rect class="cls-2" x="972.34" y="437.65" width="76.16" height="56.91"/><rect class="cls-2" x="575.07" y="497.56" width="76.45" height="56.91"/><rect class="cls-2" x="495.62" y="497.56" width="76.45" height="56.91"/><rect class="cls-2" x="575.07" y="557.47" width="76.45" height="56.91"/><rect class="cls-2" x="972.34" y="557.47" width="76.16" height="116.89"/><rect class="cls-2" x="972.34" y="317.82" width="76.16" height="56.91"/><rect class="cls-2" x="893.22" y="317.82" width="76.12" height="56.91"/><rect class="cls-2" x="258.66" y="496.19" width="75.06" height="118.2"/><rect class="cls-2" x="893.22" y="257.9" width="76.12" height="56.91"/><rect class="cls-2" x="972.34" y="257.9" width="76.16" height="56.91"/><polygon class="cls-2" points="651.52 618.54 651.52 617.39 495.39 617.39 495.39 672.54 651.7 672.54 651.7 618.54 651.52 618.54"/><polygon class="cls-2" points="969.34 617.39 892.88 617.39 892.88 674.37 893.22 674.37 898.23 674.37 969.34 674.37 969.34 617.39"/><rect class="cls-2" x="814.38" y="617.39" width="75.5" height="56.98"/><rect class="cls-2" x="892.88" y="437.65" width="76.45" height="56.91"/><rect class="cls-2" x="654.53" y="557.47" width="76.45" height="56.91"/><rect class="cls-2" x="654.89" y="378.16" width="76.09" height="56.48"/><rect class="cls-2" x="654.89" y="437.65" width="76.09" height="56.91"/><rect class="cls-2" x="813.43" y="557.47" width="76.45" height="56.91"/><rect class="cls-2" x="892.88" y="557.47" width="76.45" height="56.91"/><rect class="cls-2" x="892.88" y="497.56" width="76.45" height="56.91"/><rect class="cls-2" x="813.43" y="378.16" width="76.45" height="56.48"/></g><g id="Layer_3" data-name="Layer 3"><text class="cls-3" transform="translate(963.55 87.08)">北海道</text><text class="cls-3" transform="translate(947.38 232.05)">青森県</text><text class="cls-3" transform="translate(986.03 291.15)">岩手県</text><text class="cls-3" transform="translate(906.82 291.15)">秋田県</text><text class="cls-3" transform="translate(906.82 351.37)">山形県</text><text class="cls-3" transform="translate(986.03 351.37)">宮青県</text><text class="cls-3" transform="translate(947.38 411.52)">福島県</text><text class="cls-3" transform="translate(828.46 411.52)">新潟県</text><text class="cls-3" transform="translate(986.03 532.18)">茨城県</text><text class="cls-3" transform="translate(986.03 472.26)">栃木県</text><text class="cls-3" transform="translate(906.82 472.26)">群馬県</text><text class="cls-3" transform="translate(906.82 532.18)">埼玉県</text><text class="cls-3" transform="translate(914.82 591.26)">東京</text><text class="cls-3" transform="translate(986.03 620.98)">千葉県</text><text class="cls-3" transform="translate(898.82 649.75)">神奈川県</text><text class="cls-3" transform="translate(828.46 591.26)">山梨県</text><text class="cls-3" transform="translate(748.75 498.03)">岐阜県</text><text class="cls-3" transform="translate(748.75 411.52)">富山県</text><text class="cls-3" transform="translate(668.94 411.52)">石川県</text><text class="cls-3" transform="translate(668.94 472.26)">福井県</text><text class="cls-3" transform="translate(587.4 532.18)">京都府</text><text class="cls-3" transform="translate(668.94 532.18)">滋賀県</text><text class="cls-3" transform="translate(511.09 591.26)">大阪府</text><text class="cls-3" transform="translate(15.48 738.62)">沖縄県</text><text class="cls-3" transform="translate(535.4 649.75)">和歌山県</text><text class="cls-3" transform="translate(430.84 532.18)">鳥取県</text><text class="cls-3" transform="translate(430.84 591.26)">岡山県</text><text class="cls-3" transform="translate(417.92 672.44)">香川県</text><text class="cls-3" transform="translate(417.92 726.34)">徳島県</text><text class="cls-3" transform="translate(344.8 726.34)">高知県</text><text class="cls-3" transform="translate(344.8 672.44)">愛媛県</text><text class="cls-3" transform="translate(354.5 591.26)">広島県</text><text class="cls-3" transform="translate(354.5 532.18)">島根県</text><text class="cls-3" transform="translate(274.19 558.47)">山口県</text><text class="cls-3" transform="translate(92.14 534.73)">福岡県</text><text class="cls-3" transform="translate(170.44 534.73)">大分県</text><text class="cls-3" transform="translate(170.44 620.98)">宮崎県</text><text class="cls-3" transform="translate(92.14 592.21)">熊本県</text><text class="cls-3" transform="translate(17.06 589.61)">長崎県</text><text class="cls-3" transform="translate(17.06 534.73)">佐賀県</text><text class="cls-3" transform="translate(44.19 651.9)">鹿児島県</text><text class="cls-3" transform="translate(511.09 532.18)">兵庫県</text><text class="cls-3" transform="translate(668.95 591.26)">三重県</text><text class="cls-3" transform="translate(828.46 498.03)">長野県</text><text class="cls-3" transform="translate(748.75 591.26)">愛知県</text><text class="cls-3" transform="translate(828.46 649.75)">静岡県</text><text class="cls-3" transform="translate(587.4 591.26)">奈良県</text></g><g id="Layer_4" data-name="Layer 4"><path class="cls-4" d="M137.51,34.94C261.32,6.78,308,48,312.79,80.54c5.24,35.32-16.45,48.22-46.3,57.1S216.75,142,203,151.39a36.85,36.85,0,0,0-15.11,21c-.68,2.7-2.13,3.95-6,1.06s-8.2-5.54-22.63-8.43-38.74,8.05-58,13.37S51.4,187.54,30.89,156,29.35,59.55,137.51,34.94Z"/><text class="cls-5" transform="translate(107.49 97.58) rotate(-14.13)">一番近い<tspan x="-35.9" y="42.39">サウナを探して</tspan></text><text class="cls-6" transform="translate(179.6 210.54)">都道府県からサウナを探す</text></g></g></svg>