<svg xmlns="http://www.w3.org/2000/svg" viewBox="0 0 1792 1792"><path d="M1496.86 1219.72c0 329.51-269 517.73-600.87 517.73s-600.87-188.22-600.87-517.73C295.13 702 564.15 702 896 702s600.86 6 600.86 517.72z" fill="#4e574e"/><path d="M896 1770.3c-373.08 0-633.67-226.41-633.67-550.6 0-550.53 307.78-550.53 633.67-550.53s633.67 0 633.67 550.53c0 324.19-260.59 550.6-633.67 550.6zm0-1035.47c-329.71 0-568 0-568 484.87 0 334.95 285.28 484.94 568 484.94s568-150 568-484.94c0-484.88-238.29-484.88-568-484.88z"/><path d="M1309.7 715.66C1210.89 666 1051.44 645.47 896 645c-155.45.51-314.89 21.08-413.71 70.7-163.16 123.8-168.82 388.07-154.6 420.12 20.8 46.9 45.14 53.29 69.67 71.35 30.11 22.15 19.32 123.31 104.41 143.15 70.4 16.41 29.49 71.53 117.36 102.25 42.47 14.85 74.17-2.89 107.24 36.45 29.36 34.9 85.49 68 169.63 68h1.24c84.14 0 139-33.09 168.38-68 33.09-39.34 64.78-21.6 107.25-36.45 87.87-30.72 47-85.83 117.36-102.25 85.08-19.85 74.28-121 104.4-143.15 24.52-18.05 48.87-24.45 69.67-71.35 14.23-32.09 8.57-296.36-154.6-420.16z" fill="#fff"/><path d="M897.2 1589.81c-82.43 0-153.39-29-196-79.67-12.38-14.79-21.3-15.57-42.81-17.33-13.8-1.13-31-2.55-50.09-9.27-58.51-20.38-74.5-53.56-85.12-75.49-8-16.41-10.33-21.44-28.87-25.75-73.51-17.12-93-78.82-105.78-119.64-3.33-10.33-8.28-26-11.53-29.79-3.75-2.69-8.35-5.59-12.95-8.49-20.52-13-46-29.29-66.44-75.28-18-40.68-15.07-323.13 164.78-459.61 132.1-66.93 328-77.05 433.51-77.33 105.63.28 301.55 10.4 428.48 74.15a34.9 34.9 0 015.16 3.18c179.89 136.51 182.86 418.91 164.82 459.59-20.45 46.06-46 62.26-66.58 75.35-4.53 2.9-9.13 5.8-13.73 9.13-2.41 3-7.29 18.68-10.61 29-12 38.35-32.26 102.59-105.71 119.71-18.61 4.32-20.94 9.34-28.94 25.75-10.61 21.93-26.6 55.12-85.12 75.49-19.1 6.72-36.3 8.14-50.09 9.27-21.51 1.77-30.42 2.55-42.88 17.33-25.03 29.82-83.48 79.7-193.5 79.7zm-1.27-912C726.48 678.36 581 702.84 497 745c-142.55 108.9-147.22 351.94-138.87 378.47 12 26.82 23.63 34.24 41.25 45.49 5.8 3.68 11.6 7.36 17.48 11.67 19.17 14.15 26.53 37.5 34.32 62.26 12.74 40.33 23.63 67.36 58.09 75.42 49.1 11.46 63 40.19 73.09 61.13 8.63 17.76 14.79 30.57 47.62 42.1 11.25 3.89 22.22 4.81 33.89 5.8 25.68 2.12 57.59 4.74 87.66 40.47 14.22 16.91 56.74 56.32 144.48 56.32 84.62 0 126.79-35.31 144.48-56.32 30.07-35.73 62-38.35 87.66-40.47 11.67-1 22.64-1.91 33.89-5.8 32.83-11.53 39-24.34 47.62-42.1 10.12-20.94 24-49.67 73.16-61.13 34.39-8.07 45.28-35.09 57.95-75.42 7.78-24.76 15.14-48 34.32-62.26 5.87-4.32 11.75-8 17.48-11.67 17.69-11.25 29.36-18.68 41.67-46.48 7.92-25.4 3.4-266-142-378.81-84.36-41.32-228.55-65.31-396.31-65.87z"/><path d="M1154.43 757.78c66.58 85.76 80.06 222.15-17.16 284.42-111.14 71.19-183.59-30.24-251.14-22.38h5.93c-67.54-7.86-140 93.57-251.14 22.38-97.22-62.27-83.73-198.67-17.16-284.42" fill="#fae7bb"/><path d="M1057.32 1094.32c-41.25 0-76.7-16.13-105.78-29.36-21-9.48-39.55-18-55.12-18.82a25.64 25.64 0 01-8.07.14c-15.64-1.56-37.57 7.78-61.7 18.68-49.32 22.43-117 53-200.16-.28-42.95-27.52-70.33-69.34-79.24-120.92-11.39-66.08 9.83-143.7 55.4-202.35l42.17 32.69C608.18 821.36 591 882.91 599.9 934.7c6.37 36.93 25 65.52 55.47 85 58.8 37.85 102.73 17.9 149.22-3.33 27.17-12.31 53.84-24.91 84.55-23.56 30.49-2 57.45 11.25 84.48 23.56 46.48 21.23 90.49 41.18 149.22 3.33 30.42-19.46 49.1-48 55.47-85 8.91-51.79-8.28-113.35-44.93-160.61l42.17-32.69c45.57 58.65 66.79 136.27 55.4 202.35-8.91 51.58-36.3 93.39-79.24 120.92-34.18 21.87-65.71 29.65-94.39 29.65z"/><path d="M805 879.27c0 18.48-16.52 33.46-36.9 33.46s-36.9-15-36.9-33.46 16.52-44 36.9-44 36.9 25.52 36.9 44zm242.2-5.66c0 18.48-16.52 33.46-36.9 33.46s-36.9-15-36.9-33.46 16.52-44 36.9-44 36.9 25.52 36.9 44z"/><path d="M1370.45 772.22c33.71-92-156.28-717.7-333-717.7-108.31 0-120.35 148.27-304.88 228.5C439 410.68 429.54 722.48 417.7 772.22c-4.85 20.39 235.76-46.13 476.38-46.13s469.16 65.81 476.37 46.13z" fill="#ffdc1d"/><path d="M427.75 809c-17 0-25.68-3.82-33.68-12.45-7.5-8.07-10.9-21.23-8.35-31.91 1.2-5 2.33-13.23 3.89-23.84 13.09-90.92 53.14-367.56 329.92-487.91 87-37.78 131.74-91.06 171.22-138C931 66.91 969.09 21.7 1037.51 21.7c52.5 0 105.85 38.28 158.7 113.84 125.3 179.29 236.74 561.64 205.11 648-12.45 33.75-41.18 29-147.66 11.75-88.8-14.5-223.09-36.37-359.57-36.37C756 759 617.73 781.31 526.17 796.1 476 804.23 446.72 809 427.75 809zm466.34-115.71c141.79 0 279.19 22.36 370.11 37.15 27.88 4.53 58.44 9.55 77.69 11.6.28-89.5-83.56-402.87-199.59-568.86-38.63-55.33-75.85-85.82-104.79-85.82-36.23 0-56.81 22.64-96.44 69.76-42 49.88-94.17 112-195.35 156-235 102.17-275.37 330.35-289.66 427.35 16.84-2.33 38.42-5.8 59.64-9.27 93.61-15.05 234.97-37.91 378.39-37.91z"/><path d="M901.87 629.83A32.81 32.81 0 01869 597V468.65a32.83 32.83 0 1165.66 0V597a32.81 32.81 0 01-32.79 32.83z"/><path d="M753.93 484.43a32.9 32.9 0 01-10.4-64.1c3.11-1 76.7-25.19 157.07-25.19s153.89 24.2 157 25.19a32.88 32.88 0 01-20.73 62.4c-.71-.21-66.93-21.93-136.27-21.93-69.83 0-135.63 21.72-136.27 21.93a33.34 33.34 0 01-10.4 1.7z"/></svg>