<svg xmlns="http://www.w3.org/2000/svg" viewBox="0 0 318.7 40.47"><defs><style>.cls-1{fill:#fff;}</style></defs><title>footer_logo</title><g id="Layer_2" data-name="Layer 2"><g id="Layer_2-2" data-name="Layer 2"><path class="cls-1" d="M15.7,28.6C10.18,28.6,5,24.47,5,16.83S8.24,4.24,15.23,4.24s7.46,6.09,7.46,6.09l1.79,0-.72-6.79s-2.86-1.12-8.91-1S0,6.38,0,16.36s8.63,14.3,15.65,14.08,7.41-1.57,7.41-1.57l2.09-6-1.81-.13S21.22,28.6,15.7,28.6Z"/><path class="cls-1" d="M245.16,28.6c-5.53,0-10.73-4.13-10.73-11.77s3.26-12.59,10.25-12.59,7.47,6.09,7.47,6.09l1.79,0-.72-6.79s-2.86-1.12-8.91-1-14.85,3.83-14.85,13.81,8.63,14.3,15.65,14.08,7.41-1.57,7.41-1.57l2.09-6-1.82-.13S250.68,28.6,245.16,28.6Z"/><path class="cls-1" d="M266.85,27.2V.13a48.94,48.94,0,0,1-6.74,1.77v1s3.08.2,3.08,1.57V26.58c0,1.87-3.08,2.14-3.08,2.14v1.15h9.25v-1.3S266.85,28.62,266.85,27.2Z"/><path class="cls-1" d="M49.17,26.51V16.26c0-4.63-5.4-6.82-9-4.3a26.19,26.19,0,0,0-2.63,2V.13A48.94,48.94,0,0,1,30.78,1.9v1s3.08.2,3.08,1.57V26.58c0,1.87-3.08,2.14-3.08,2.14v1.15H40v-1.3s-2.51.05-2.51-1.37V15.65c.62-.43,1.68-1.14,2.79-1.76a3.37,3.37,0,0,1,5,2.91v9.53c0,2-2.79,2.39-2.79,2.39v1.15H51.7v-1.2S49.17,28.4,49.17,26.51Z"/><circle class="cls-1" cx="61.52" cy="4.92" r="2.5" transform="translate(0.01 9.92) rotate(-9.22)"/><circle class="cls-1" cx="166.06" cy="4.92" r="2.5"/><circle class="cls-1" cx="180.06" cy="4.92" r="2.5"/><path class="cls-1" d="M63.67,27.08v-16A25.06,25.06,0,0,1,57.4,12.7v1.17s2.66-.15,2.66,1.69v11.1c0,1.59-3,2-3,2v1.22h9.51V28.65S63.67,28.42,63.67,27.08Z"/><path class="cls-1" d="M81.81,19.12s2.84-3.16,4.43-4.81a6.51,6.51,0,0,1,4.38-1.54V11.53H81.81V13s2.76.32,2.06,1.15S81.06,17.5,80,18.54a5.25,5.25,0,0,1-2.38,1.2V.13A48.94,48.94,0,0,1,70.85,1.9v1s3.08.2,3.08,1.57V26.58c0,1.87-3.08,2.14-3.08,2.14v1.15H80.1v-1.3s-2.51.05-2.51-1.37V20.77c.46,0,1.23,0,1.51.46.4.67,7.19,8.64,7.19,8.64h6v-1.3s-1.94-.07-2.63-.82S81.81,19.12,81.81,19.12Z"/><path class="cls-1" d="M107.09,12.92s2.79.28,2.26,2c-.27.87-1.93,5.15-3.61,9.43-1.19-2.88-3.39-8.18-3.88-9.43-.67-1.74,1.89-2,1.89-2V11.53h-9.2v1.29s2.14,0,2.66,1.1c.42.85,4.71,11.37,6.46,15.66l-1.56,3.92c-.94,2.39-3.33,2.93-3.8,4a2.13,2.13,0,0,0,3.9,1.72,32,32,0,0,0,1.4-4.46c.39-1.49,7.58-18.83,8.33-20.4a3.2,3.2,0,0,1,2.74-1.57V11.53h-7.59Z"/><path class="cls-1" d="M136.42,26.13V11.35a43,43,0,0,1-6.89,1v1.12s3-.1,3,1V25.65c-.74.46-1.68,1-2.67,1.5a3.34,3.34,0,0,1-4.75-3V11.35c-1.27.53-6.49,1-6.49,1v.95s2.46-.1,2.46.87v8.73c0,3.14.47,5.48,2.44,6.65,3.24,1.93,5.69.13,7.58-1l1.43-.91v2.8a50.18,50.18,0,0,1,6.69-1.65V27.6S136.42,27.68,136.42,26.13Z"/><path class="cls-1" d="M292,26.13V11.35a43,43,0,0,1-6.89,1v1.12s3-.1,3,1V25.65c-.74.46-1.68,1-2.66,1.5a3.33,3.33,0,0,1-4.75-3V11.35c-1.27.53-6.49,1-6.49,1v.95s2.46-.1,2.46.87v8.73c0,3.14.47,5.48,2.44,6.65,3.24,1.93,5.69.13,7.58-1,.55-.34,1-.64,1.42-.91v2.8a50.14,50.14,0,0,1,6.7-1.65V27.6S292,27.68,292,26.13Z"/><rect class="cls-1" x="145.21" y="19.24" width="9.58" height="2.51"/><path class="cls-1" d="M161.45,13.69s3,0,3,1.77v15.2c0,1.35-.57,4.31-1.74,5.4s-2.16.6-2.83,1a1.82,1.82,0,0,0-.55,2.36,1.55,1.55,0,0,0,2.39.5,17.51,17.51,0,0,0,3.75-4.63c1.5-2.51,2.59-4.85,2.59-7.58V11.11c-2,1-6.57,1.54-6.57,1.54Z"/><path class="cls-1" d="M181.93,27.08v-16a25.44,25.44,0,0,1-6.07,1.54v1.07s2.54.2,2.54,1.59v11c0,2.22-3,2.37-3,2.37v1.17h9.63V28.62S181.93,28.52,181.93,27.08Z"/><path class="cls-1" d="M208.16,26.68V16.18c0-6.22-6.7-5.25-8.49-4.15a37.6,37.6,0,0,0-3.41,2.41V11.11a25.44,25.44,0,0,1-6.07,1.54v1.07s2.54.2,2.54,1.59v11c0,2.22-3,2.37-3,2.37v1.17h9.63V28.62s-3.14-.1-3.14-1.54V16a35.17,35.17,0,0,1,3.14-1.9c2.09-1.12,5.2,1.24,5.2,3.53v8.76c0,2-2.76,2.14-2.76,2.14v1.37h8.93V28.65S208.16,28,208.16,26.68Z"/><path class="cls-1" d="M315,12.61a6.83,6.83,0,0,0-7.1-1,18.33,18.33,0,0,0-2.35,1V0C303.87,1.49,299,2,299,2v1s2.62-.07,2.62,1.23V28.46s1.09,1.1,4.48,1.64a10.9,10.9,0,0,0,8.72-2.2,10.58,10.58,0,0,0,3.88-8C318.7,16.16,317,14.36,315,12.61Zm-5,15.82c-1.86.2-4.41-.7-4.41-2.45V14.49a10,10,0,0,1,2.55-.92c1.66-.33,6.34,1.82,6.34,7S311.84,28.23,310,28.43Z"/></g></g></svg>