<svg width="34" height="20" xmlns="http://www.w3.org/2000/svg">
 <!-- Created with Method Draw - http://github.com/duopixel/Method-Draw/ -->
 <g>
  <title>background</title>
 </g>
 <g>
  <title>Layer 1</title>
  <path fill="#ffffff" stroke="null" id="svg_4" d="m17.65692,11.45346a3.35,3.35 0 1 0 6.7,0c0,-1.82 -1.81,-3.28 -3.35,-4.15c-1.54,0.87 -3.35,2.33 -3.35,4.15zm-13.59,0.04a3.35,3.35 0 1 0 6.7,0c0,-1.82 -1.81,-3.28 -3.35,-4.15c-1.57,0.87 -3.35,2.33 -3.35,4.15zm-3.5,-10.27l0,17.74l27.23,0l0,-17.74l-27.23,0zm27.26,4.32a13.74,13.74 0 0 0 -5.19,1c1.68,1.12 3.31,2.82 3.31,5a5.06,5.06 0 0 1 -5,5a5,5 0 0 1 -4.93,-5c0,-2.15 1.55,-3.85 3.23,-5a13.42,13.42 0 0 0 -10.07,0c1.68,1.12 3.23,2.82 3.23,5a5,5 0 0 1 -4.93,5a5.09,5.09 0 0 1 -5.06,-5c0,-2.15 1.67,-3.85 3.35,-5a13.69,13.69 0 0 0 -5.18,-1l0,-1.56a15.32,15.32 0 0 1 6.89,1.56a15.32,15.32 0 0 1 13.47,0a15.36,15.36 0 0 1 6.9,-1.56l-0.02,1.56z" class="cls-4"/>
  <path fill="#ffffff" stroke="null" id="svg_46" d="m30.8193,14.06346a2.46,2.46 0 1 1 -2.48,2.45a2.45,2.45 0 0 1 2.48,-2.45zm0,4.56a2.1,2.1 0 1 0 -2,-2.11a2,2 0 0 0 2,2.11zm-1,-3.54l1.15,0c0.69,0 1,0.27 1,0.82a0.75,0.75 0 0 1 -0.76,0.79l0.82,1.27l-0.48,0l-0.78,-1.24l-0.47,0l0,1.24l-0.45,0l-0.03,-2.88zm0.45,1.28l0.5,0c0.4,0 0.76,0 0.76,-0.48s-0.33,-0.44 -0.63,-0.44l-0.59,0l-0.04,0.92z" class="cls-4"/>
 </g>
</svg>