<svg xmlns="http://www.w3.org/2000/svg" viewBox="0 0 51 51"><defs><style>.cls-1{fill:#fff;}</style></defs><title>image2</title><g id="Layer_2" data-name="Layer 2"><g id="Layer_2-2" data-name="Layer 2"><path class="cls-1" d="M26.38,25h-.06c0-.12.06-.26.08-.38.85-3.76,1.45-6.48-4.35-13.31a.49.49,0,0,0-.7-.06.51.51,0,0,0-.06.71c.24.27.45.53.66.79a.24.24,0,0,0-.08.06l-8,7.93a.49.49,0,0,0,0,.7.51.51,0,0,0,.36.15.52.52,0,0,0,.35-.14l8-7.92a25.15,25.15,0,0,1,1.52,2.15L16.85,23a.5.5,0,0,0,0,.71.52.52,0,0,0,.35.14.54.54,0,0,0,.36-.14l7.05-7.12a10.66,10.66,0,0,1,1.13,2.79l0,0L20.66,24.6a.5.5,0,0,0,0,.71.52.52,0,0,0,.35.14.51.51,0,0,0,.36-.15l4.54-4.68a13.61,13.61,0,0,1-.49,3.79l-.18.84-.84.19c-3.6.83-6,1.38-12.48-4.05a.5.5,0,1,0-.64.76c6.88,5.75,9.59,5.13,13.34,4.26l.39-.08,0,.06a14.71,14.71,0,0,0-.47,4.74v0a10.05,10.05,0,0,0,1.54,4.15l0,.06a26.2,26.2,0,0,0,3.53,4.35.51.51,0,0,0,.36.15.49.49,0,0,0,.35-.15.49.49,0,0,0,0-.7c-.31-.32-.59-.62-.86-.92l7.56-7.5a.48.48,0,0,0,0-.7.49.49,0,0,0-.7,0l-7.53,7.46a22.7,22.7,0,0,1-1.65-2.15L34,28.41a.48.48,0,0,0,0-.7.5.5,0,0,0-.71,0l-6.6,6.6a9,9,0,0,1-1.07-3l4.49-4.27a.49.49,0,0,0,0-.7.5.5,0,0,0-.71,0L25.48,30A16.91,16.91,0,0,1,26,26.6l.11-.51L26.6,26c3.77-.84,6.5-1.44,12.44,4.28a.52.52,0,0,0,.35.14.5.5,0,0,0,.34-.86C33.41,23.44,30.31,24.13,26.38,25ZM25.5,0A25.5,25.5,0,1,0,51,25.5,25.53,25.53,0,0,0,25.5,0Zm0,50A24.38,24.38,0,0,1,8.55,43.16l9.3-9.31a5.83,5.83,0,0,1-.73-.68L7.84,42.45A24.48,24.48,0,0,1,42.45,7.84l-9.83,9.83a5.87,5.87,0,0,1,.72.69l9.82-9.82A24.48,24.48,0,0,1,25.5,50Z"/></g></g></svg>