<svg xmlns="http://www.w3.org/2000/svg" viewBox="0 0 51 51"><defs><style>.cls-1{fill:#fff;}</style></defs><title>image3</title><g id="Layer_2" data-name="Layer 2"><g id="Layer_2-2" data-name="Layer 2"><path class="cls-1" d="M32.21,28H27.77A18.69,18.69,0,0,1,29.31,21,8.45,8.45,0,0,0,30.1,18a4.6,4.6,0,0,0-9.2,0A8.45,8.45,0,0,0,21.69,21,18.69,18.69,0,0,1,23.23,28H18.79a3.26,3.26,0,0,0-3.25,3.25v3.55s0,.07,0,.1a.36.36,0,0,0,0,.09l0,0,1.19,1.81a1.61,1.61,0,0,0,1.34.72H32.84a1.61,1.61,0,0,0,1.34-.72l1.19-1.81s0,0,0,0a.36.36,0,0,0,0-.09s0-.07,0-.1V31.28A3.26,3.26,0,0,0,32.21,28Zm-9.59-7.44A7.63,7.63,0,0,1,21.9,18a3.6,3.6,0,0,1,7.2,0,7.63,7.63,0,0,1-.72,2.58A19.69,19.69,0,0,0,26.77,28H24.23A19.69,19.69,0,0,0,22.62,20.59ZM33.34,36.32a.6.6,0,0,1-.5.27H18.16a.6.6,0,0,1-.5-.27l-.68-1H34Zm1.12-2H16.54v-3A2.25,2.25,0,0,1,18.79,29H32.21a2.25,2.25,0,0,1,2.25,2.25ZM25.5,0A25.5,25.5,0,1,0,51,25.5,25.53,25.53,0,0,0,25.5,0Zm0,50A24.5,24.5,0,1,1,50,25.5,24.53,24.53,0,0,1,25.5,50Z"/></g></g></svg>