<svg xmlns="http://www.w3.org/2000/svg" viewBox="0 0 51 51"><defs><style>.cls-1{fill:#fff;}</style></defs><title>Asset 6</title><g id="Layer_2" data-name="Layer 2"><g id="Layer_2-2" data-name="Layer 2"><path class="cls-1" d="M18.09,19.63l.13,0,14.7-3.93a.48.48,0,0,0,.35-.61.51.51,0,0,0-.61-.36l-4.31,1.16a.32.32,0,0,0,0-.14A3,3,0,0,0,26.94,14a2.69,2.69,0,0,0-2.16-.24A2.87,2.87,0,0,0,23,17.31l-5,1.33a.51.51,0,0,0-.36.62A.5.5,0,0,0,18.09,19.63Zm7-4.94a1.74,1.74,0,0,1,1.37.16A2.06,2.06,0,0,1,27.38,16a.26.26,0,0,0,.05.09l-3.5.94A1.89,1.89,0,0,1,25.08,14.69Zm7.83,7.1H18.21a.5.5,0,0,0-.5.5.5.5,0,0,0,.5.5h14.7a.5.5,0,0,0,.5-.5A.51.51,0,0,0,32.91,21.79ZM22.73,34.46h0a.5.5,0,0,0,.47-.54l-.65-9.26a.49.49,0,0,0-.53-.47.5.5,0,0,0-.47.54L22.23,34A.5.5,0,0,0,22.73,34.46Zm6.3,0a.5.5,0,0,0,.5-.47l.65-9.26a.51.51,0,0,0-.47-.54.49.49,0,0,0-.53.47l-.65,9.26a.5.5,0,0,0,.47.54Zm-2.65-.31V24.54a.5.5,0,0,0-1,0v9.61a.5.5,0,0,0,1,0ZM32.45,23.4a.51.51,0,0,0-.56.43L30.23,36.38h-9L19.53,23.83A.51.51,0,0,0,19,23.4a.5.5,0,0,0-.43.56l1.72,13a.49.49,0,0,0,.49.43h9.91a.49.49,0,0,0,.5-.43l1.72-13A.5.5,0,0,0,32.45,23.4ZM25.5,0A25.5,25.5,0,1,0,51,25.5,25.53,25.53,0,0,0,25.5,0Zm0,50A24.38,24.38,0,0,1,8.55,43.16l7.61-7.62a3.9,3.9,0,0,1-.71-.59l0-.06L7.84,42.45A24.48,24.48,0,0,1,42.45,7.84l-6.87,6.87,0,0c.17.13.34.27.53.44s.11.13.17.2l6.85-6.86A24.48,24.48,0,0,1,25.5,50Z"/></g></g></svg>