<svg xmlns="http://www.w3.org/2000/svg" viewBox="0 0 51 51"><defs><style>.cls-1{fill:#fff;}</style></defs><title>image1</title><g id="Layer_2" data-name="Layer 2"><g id="Layer_2-2" data-name="Layer 2"><path class="cls-1" d="M30.13,25V15.35h.7a2.1,2.1,0,0,0,0-4.19H20.46a2.1,2.1,0,1,0,0,4.19h.41V25l-6.4,10.92a2.58,2.58,0,0,0,2.23,3.9H34.3a2.58,2.58,0,0,0,2.23-3.9ZM20.46,14.35a1.1,1.1,0,1,1,0-2.19H30.83a1.1,1.1,0,0,1,0,2.19ZM21.8,25.41a.45.45,0,0,0,.07-.25V15.35h7.26v2H26.75a.5.5,0,0,0-.5.5.51.51,0,0,0,.5.5h2.38v1.79H26.75a.5.5,0,0,0-.5.5.51.51,0,0,0,.5.5h2.38V23H26.75a.5.5,0,0,0-.5.5.51.51,0,0,0,.5.5h2.38v1.21a.45.45,0,0,0,.07.25l2.16,3.69H19.64ZM35.68,38a1.58,1.58,0,0,1-1.38.8H16.7a1.59,1.59,0,0,1-1.37-2.39l3.72-6.35H32l3.72,6.35A1.56,1.56,0,0,1,35.68,38ZM25.5,0A25.5,25.5,0,1,0,51,25.5,25.53,25.53,0,0,0,25.5,0Zm0,50A24.4,24.4,0,0,1,8.55,43.16l3.36-3.36a6,6,0,0,1-.68-.74L7.84,42.45A24.48,24.48,0,0,1,42.45,7.84L33.31,17l.19.15a3.86,3.86,0,0,1,.49.58l9.17-9.16A24.48,24.48,0,0,1,25.5,50Z"/></g></g></svg>