<?xml version="1.0" encoding="utf-8"?>
<!-- Generator: Adobe Illustrator 24.0.0, SVG Export Plug-In . SVG Version: 6.00 Build 0)  -->
<svg version="1.1" id="Layer_1" xmlns="http://www.w3.org/2000/svg" xmlns:xlink="http://www.w3.org/1999/xlink" x="0px" y="0px"
	 viewBox="0 0 729.6 92.7" style="enable-background:new 0 0 729.6 92.7;" xml:space="preserve">
<style type="text/css">
	.st0{fill:#FFFFFF;}
</style>
<title>Asset 1</title>
<g id="Layer_2_1_">
	<g id="Layer_2-2">
		<path class="st0" d="M35.9,65.5c-12.6,0-24.5-9.5-24.5-26.9S18.9,9.7,34.9,9.7s17.1,14,17.1,14l4.1-0.1L54.4,8.1
			c0,0-6.6-2.6-20.4-2.2S0,14.6,0,37.4s19.8,32.8,35.8,32.2s17-3.6,17-3.6l4.8-13.7l-4.2-0.3C53.5,52.1,48.6,65.5,35.9,65.5z"/>
		<path class="st0" d="M561.3,65.5c-12.6,0-24.5-9.5-24.5-26.9s7.5-28.8,23.5-28.8s17.1,14,17.1,14l4.1-0.1l-1.6-15.6
			c0,0-6.5-2.6-20.4-2.2s-34,8.8-34,31.6s19.8,32.8,35.8,32.2s17-3.6,17-3.6l4.8-13.7l-4.2-0.3C578.8,52.1,573.9,65.5,561.3,65.5z"
			/>
		<path class="st0" d="M610.9,62.3v-62c-5.2,2.1-15.4,4.1-15.4,4.1v2.4c0,0,7.1,0.5,7.1,3.6v50.5c0,4.3-7.1,4.9-7.1,4.9v2.6h21.2v-3
			C616.7,65.4,610.9,65.5,610.9,62.3z"/>
		<path class="st0" d="M112.6,60.7V37.2c0-10.6-12.4-15.6-20.6-9.8c-2.1,1.4-4.1,2.9-6,4.6V0.3c-5.3,2.1-15.5,4-15.5,4v2.4
			c0,0,7.1,0.5,7.1,3.6v50.5c0,4.3-7.1,4.9-7.1,4.9v2.6h21.2v-3c0,0-5.8,0.1-5.8-3.1V35.8c1.4-1,3.8-2.6,6.4-4
			c6.2-3.5,11.6,1.9,11.6,6.7v21.8c0,4.7-6.4,5.5-6.4,5.5v2.6h20.9v-2.8C118.4,65.6,112.6,65,112.6,60.7z"/>
		<circle class="st0" cx="140.8" cy="11.3" r="5.7"/>
		<circle class="st0" cx="380.2" cy="11.3" r="5.7"/>
		<circle class="st0" cx="412.2" cy="11.3" r="5.7"/>
		<path class="st0" d="M145.8,62V25.4c-4.6,1.9-9.4,3.1-14.4,3.7v2.7c0,0,6.1-0.3,6.1,3.9V61c0,3.6-6.8,4.6-6.8,4.6v2.8h21.8v-2.8
			C152.5,65.6,145.8,65.1,145.8,62z"/>
		<path class="st0" d="M187.3,43.8c0,0,6.5-7.2,10.1-11s10-3.5,10-3.5v-2.9h-20.1v3.3c0,0,6.3,0.7,4.7,2.6
			c-1.6,1.9-6.4,7.7-8.9,10.1c-1.6,1.4-3.4,2.3-5.4,2.7V0.3c-5.2,2.1-15.4,4-15.4,4v2.4c0,0,7.1,0.5,7.1,3.6v50.5
			c0,4.3-7.1,4.9-7.1,4.9v2.6h21.2v-3c0,0-5.8,0.1-5.8-3.1V47.5c1.1-0.1,2.8,0,3.4,1.1c0.9,1.5,16.5,19.8,16.5,19.8h13.7v-3
			c0,0-4.4-0.2-6-1.9S187.3,43.8,187.3,43.8z"/>
		<path class="st0" d="M245.2,29.6c0,0,6.4,0.6,5.2,4.5c-0.6,2-4.4,11.8-8.3,21.6c-2.7-6.6-7.8-18.7-8.9-21.6
			c-1.5-4,4.3-4.6,4.3-4.6v-3.1h-21.1v3c0,0,4.9,0.1,6.1,2.5c0.9,2,10.8,26,14.8,35.8l-3.6,9c-2.2,5.5-7.6,6.7-8.7,9.2
			c-0.8,2.6,0.5,5.3,3.1,6.2c2.2,0.7,4.7-0.2,5.8-2.3c0.9-1.7,2.3-6.8,3.2-10.2s17.4-43.1,19.1-46.7s6.3-3.6,6.3-3.6v-3h-17.4V29.6z
			"/>
		<path class="st0" d="M312.3,59.8V26c-4.5,1.5-15.8,2.3-15.8,2.3v2.6c0,0,6.8-0.2,6.8,2.3v25.5c-1.7,1-3.9,2.3-6.1,3.4
			c-5,2.5-10.9-1.5-10.9-6.8V26c-2.9,1.2-14.9,2.2-14.9,2.2v2.2c0,0,5.6-0.2,5.6,2v20c0,7.2,1.1,12.5,5.6,15.2
			c7.4,4.4,13,0.3,17.4-2.4c1.3-0.8,2.4-1.5,3.3-2.1v6.4c5-1.6,10.1-2.9,15.3-3.8v-2.6C318.7,63.2,312.3,63.4,312.3,59.8z"/>
		<path class="st0" d="M668.6,59.8V26c-4.5,1.5-15.8,2.3-15.8,2.3v2.6c0,0,6.8-0.2,6.8,2.3v25.5c-1.7,1-3.8,2.3-6.1,3.4
			c-5,2.5-10.9-1.5-10.9-6.8V26c-2.9,1.2-14.9,2.2-14.9,2.2v2.2c0,0,5.6-0.2,5.6,2v20c0,7.2,1.1,12.5,5.6,15.2
			c7.4,4.4,13,0.3,17.3-2.4c1.3-0.8,2.3-1.5,3.3-2.1v6.4c5-1.6,10.1-2.9,15.3-3.8v-2.6C674.9,63.2,668.6,63.4,668.6,59.8z"/>
		<rect x="332.4" y="44" class="st0" width="21.9" height="5.8"/>
		<path class="st0" d="M369.6,31.4c0,0,6.8,0.1,6.8,4v34.8c0,3.1-1.3,9.8-4,12.4s-5,1.4-6.5,2.3s-2.2,3-1.3,5.4s3.9,2.3,5.5,1.1
			c3.4-3,6.4-6.6,8.6-10.6c3.4-5.8,5.9-11.1,5.9-17.4v-38c-4.7,2.4-15,3.5-15,3.5L369.6,31.4z"/>
		<path class="st0" d="M416.5,62V25.4c-4.5,2.3-13.9,3.5-13.9,3.5v2.5c0,0,5.8,0.5,5.8,3.6v25.2c0,5.1-6.8,5.4-6.8,5.4v2.7h22v-2.9
			C423.6,65.5,416.5,65.3,416.5,62z"/>
		<path class="st0" d="M476.5,61.1V37c0-14.2-15.3-12-19.4-9.5c-2.7,1.7-5.3,3.5-7.8,5.5v-7.6c-4.5,2.3-13.9,3.5-13.9,3.5v2.5
			c0,0,5.8,0.5,5.8,3.6v25.2c0,5.1-6.8,5.4-6.8,5.4v2.7h22v-2.9c0,0-7.2-0.2-7.2-3.5V36.6c2.3-1.6,4.7-3,7.2-4.4
			c4.8-2.6,11.9,2.8,11.9,8.1v20c0,4.6-6.3,4.9-6.3,4.9v3.2h20.5v-2.8C482.5,65.6,476.5,64,476.5,61.1z"/>
		<path class="st0" d="M721.2,28.9c-4.5-4-10.6-4.4-16.3-2.3c-1.8,0.6-3.6,1.4-5.4,2.3V0c-3.9,3.4-15,4.5-15,4.5v2.2
			c0,0,6-0.2,6,2.8v55.7c0,0,2.5,2.5,10.3,3.8s15.7-1.1,20-5s8.9-9.6,8.9-18.2S725.7,32.9,721.2,28.9z M709.7,65.1
			c-4.3,0.4-10.1-1.6-10.1-5.6V33.2c1.8-1,3.8-1.7,5.8-2.1c3.8-0.8,14.5,4.2,14.5,16S713.9,64.6,709.7,65.1z"/>
	</g>
</g>
</svg>
