<svg xmlns="http://www.w3.org/2000/svg" viewBox="0 0 1024 1024"><defs><style>.cls-1{fill:#fff;}.cls-2{fill:#eca740;}</style></defs><title>Asset 3</title><g id="Layer_2" data-name="Layer 2"><g id="Layer_1-2" data-name="Layer 1"><circle class="cls-1" cx="512" cy="512" r="512"/><path class="cls-2" d="M512,25A487.13,487.13,0,0,1,701.55,960.74,487.13,487.13,0,0,1,322.45,63.26,483.84,483.84,0,0,1,512,25m0-25C229.23,0,0,229.23,0,512s229.23,512,512,512,512-229.23,512-512S794.77,0,512,0Z"/><path class="cls-2" d="M368.11,870.84a5.28,5.28,0,0,1-5.32,5.25c-.9,0-1.88,0-4.73-2.4-4.05-3.3-7.27-4.65-12.3-4.65-7.05,0-9.15,3.68-9.15,6.75,0,4.73,3.23,6.23,13.8,9.22,13.8,4,18.15,9.6,18.15,17.7,0,11.93-10.87,18.08-21.6,18.08-14.77,0-24.14-10.8-24.14-15.68a5.25,5.25,0,0,1,5.39-5.32c2.25,0,2.71.45,6.15,4.42a16.51,16.51,0,0,0,13.13,6.08c5.4,0,10.12-2.85,10.12-7.13,0-4.49-3.15-5.92-14.92-9.6-12.38-3.82-17.1-9.44-17.1-17.54,0-10,7.58-17,20.1-17C355.29,859,368.11,864.69,368.11,870.84Z"/><path class="cls-2" d="M385.39,901.21c.23,2.55,1.05,10.28,9,10.28,2.48,0,4.2-.68,6.53-4,1.8-2.63,2.85-3.23,4.95-3.23,2.62,0,4.27,2.48,4.27,4.95,0,5.55-6.82,11.63-16.05,11.63-6.52,0-18.74-3.45-18.74-22.43,0-17.54,9.67-23.84,18.14-23.84,9.45,0,17.18,7.65,17.18,18.29,0,5.4-1.43,8.4-5.48,8.4ZM399,892.37c1.57,0,1.95-.38,1.95-1,0-2.32-1.88-7.57-7.35-7.57-6.38,0-7.65,6.82-7.95,8.55Z"/><path class="cls-2" d="M456.31,907.29a15.35,15.35,0,0,0,1.35,6.15,9.82,9.82,0,0,1,.75,3.22c0,2-1.8,4.13-4.87,4.13-3.83,0-4.5-2.85-5-4.95a21.42,21.42,0,0,1-14.4,5c-10.88,0-16.87-6.82-16.87-15.22,0-6.6,4.05-15.68,20.77-15.68a25.86,25.86,0,0,1,8.7,1.35c-.08-2.17-.23-7.57-9.53-7.57a13.11,13.11,0,0,0-7.2,1.8c-4,2.33-4.5,2.55-5.62,2.55a5,5,0,0,1-4.72-5.1c0-5,8.32-8.47,18-8.47,18.6,0,18.6,13.27,18.6,19.27Zm-9.52-5.7c0-1.28-3.53-2.4-8.78-2.4-2.62,0-10.87,0-10.87,6.52,0,4.28,3.67,5.7,8.55,5.7,7.12,0,11.1-4.72,11.1-6.9Z"/><path class="cls-2" d="M493.59,889.89c0-13.65,7.57-30.9,27.15-30.9s27.07,17.33,27.07,30.9-7.57,30.9-27.07,30.9S493.59,903.39,493.59,889.89Zm11,0c0,9.07,4.5,20.47,16.12,20.47,11.93,0,16.13-11.77,16.13-20.47,0-9-4.35-20.47-16-20.47C509.41,869.42,504.54,880.14,504.54,889.89Z"/><path class="cls-2" d="M558,884.79a4.47,4.47,0,0,1,0-8.92h3.53v-8.18a4.61,4.61,0,0,1,4.8-4.65,4.52,4.52,0,0,1,4.57,4.58v8.25h8.85a4.47,4.47,0,0,1,0,8.92h-8.85V908c0,.9.23,2.33,1.5,2.33,1,0,1.88-.83,2.93-3.08,1.57-3.37,3-4.05,4.57-4.05a4.82,4.82,0,0,1,4.73,4.88c0,3.22-4.13,12.75-13,12.75-9.82,0-10.12-9.23-10.12-12.45V884.79Z"/><path class="cls-2" d="M593.49,884.79a4.47,4.47,0,0,1,0-8.92H597v-8.18a4.61,4.61,0,0,1,4.8-4.65,4.53,4.53,0,0,1,4.58,4.58v8.25h8.85a4.47,4.47,0,0,1,0,8.92h-8.85V908c0,.9.22,2.33,1.5,2.33,1.05,0,1.87-.83,2.92-3.08,1.58-3.37,3-4.05,4.58-4.05a4.81,4.81,0,0,1,4.72,4.88c0,3.22-4.12,12.75-13,12.75-9.83,0-10.13-9.23-10.13-12.45V884.79Z"/><path class="cls-2" d="M635.51,901.21c.22,2.55,1,10.28,9,10.28,2.47,0,4.2-.68,6.52-4,1.8-2.63,2.85-3.23,5-3.23,2.63,0,4.28,2.48,4.28,4.95,0,5.55-6.83,11.63-16,11.63-6.53,0-18.75-3.45-18.75-22.43,0-17.54,9.67-23.84,18.15-23.84,9.45,0,17.17,7.65,17.17,18.29,0,5.4-1.42,8.4-5.47,8.4Zm13.57-8.84c1.58,0,1.95-.38,1.95-1,0-2.32-1.87-7.57-7.35-7.57-6.37,0-7.65,6.82-7.95,8.55Z"/><path class="cls-2" d="M679.83,916.44c0,2.92-2.48,4.35-4.73,4.35a4.49,4.49,0,0,1-4.87-4.5V879a4.5,4.5,0,0,1,4.8-4.5c.67,0,4.8,0,4.8,5v2.32c4.42-7.27,10.64-7.27,12.22-7.27,3.6,0,8.7,1.65,8.7,5.92a4.21,4.21,0,0,1-4.35,4.5c-.83,0-4.13-.6-4.8-.6-5.25,0-11.77,11.17-11.77,13.12Z"/><path class="cls-2" d="M406.59,417.68c-1.34,0-2.64-.05-3.89-.15-4.82-.39-13.47-1.88-17.32-7.45-7.5-10.85,2.46-20.16,11.25-28.37,5-4.66-1.39-15-1.46-15.13a5.5,5.5,0,0,1,9.26-5.95,37.19,37.19,0,0,1,4.18,9.62c2.11,7.9.53,14.82-4.47,19.49-10.17,9.51-11.19,11.94-9.71,14.09.53.71,3.74,2.4,9.8,2.78,7,.44,17.16-1.1,22.71-6.87s11.51-19.52,7.93-30c-3.05-8.91-12.3-14.57-27.51-16.81A5.5,5.5,0,1,1,409,342c24.42,3.6,33.22,15.11,36.31,24.13,5.58,16.34-3.43,33.94-10.41,41.2C427.51,415,416.07,417.68,406.59,417.68Z"/><path class="cls-2" d="M325.72,491.57a96.2,96.2,0,0,1-11.65-.73,5.5,5.5,0,1,1,1.31-10.92c13.65,1.65,38.81,1.3,54.07-19.52,3.5-4.77,9.3-19.38,7.89-28-.32-2-1-3.3-2-4-3.72-2.63-7.48.37-18.52,12.06-2.44,2.58-5,5.24-7.75,8-17.07,16.94-53.87-5.39-58-8A5.5,5.5,0,0,1,297,431.2c8.59,5.38,35.16,18.68,44.41,9.5,2.67-2.64,5.12-5.24,7.5-7.76,5.35-5.66,10-10.55,14.7-13.49,6.41-4,12.52-4,18.17,0,2.39,1.69,5.46,5,6.47,11.2,2,12.41-5.24,29.93-9.88,36.26C371.23,476.58,355.44,491.57,325.72,491.57Z"/><path class="cls-2" d="M338,443.85c-7.92,0-17.63-1.28-24.63-6.45a21.77,21.77,0,0,1-8.81-15.52,1.94,1.94,0,0,1,0-.24c-.44-6.45,2.76-11.66,5-14.49-.7-5.89-1.27-19,6.44-25.64,3.78-3.24,8.66-4.38,14.56-3.39,1.77-5,5.39-11.91,12.4-15,6.1-2.72,13.11-1.92,20.89,2.36,4.78-2.44,14.06-5.91,22.16-1.54,7.61,4.11,11.42,13.68,11.33,28.46a5.5,5.5,0,1,1-11-.06c.06-10.11-1.91-16.75-5.56-18.72-4.44-2.4-12.14,1.61-14,2.82a5.48,5.48,0,0,1-6,0c-3.86-2.49-9.31-5.09-13.35-3.31-4.84,2.13-7.11,9.8-7.58,12.58a5.5,5.5,0,0,1-7.25,4.29c-3.12-1.09-7.28-2-9.45-.15-3.73,3.21-3.2,13.72-2.38,18a5.49,5.49,0,0,1-1.68,5.07c-1.05,1-3.79,4.4-3.63,7.84a10.63,10.63,0,0,0,4.39,7.76c7.92,5.84,24.16,4.35,29.75,3.28a5.5,5.5,0,1,1,2.06,10.81A78.58,78.58,0,0,1,338,443.85Z"/><path class="cls-2" d="M383.25,466.43a53.81,53.81,0,0,1-8.15-.66,5.5,5.5,0,1,1,1.69-10.87c8.76,1.35,15.24.13,19.26-3.64,6.14-5.77,5.28-16.17,5.27-16.28a5.54,5.54,0,0,1,3-5.44c6-3,2.69-14.42,2.66-14.54a5.5,5.5,0,1,1,10.49-3.29A35.59,35.59,0,0,1,418.92,422c-.08,6.63-2.39,12-6.57,15.37-.14,5.15-1.44,14.94-8.7,21.82C398.58,464,391.74,466.43,383.25,466.43Z"/><path class="cls-2" d="M376.43,413.68a5.5,5.5,0,0,1-5.18-3.65l-8.32-23.37A5.5,5.5,0,0,1,373.3,383l8.31,23.36a5.5,5.5,0,0,1-5.18,7.34Z"/><path class="cls-2" d="M360.46,416.42a5.48,5.48,0,0,1-3.85-1.57l-12.16-11.94a5.5,5.5,0,1,1,7.7-7.85L364.31,407a5.5,5.5,0,0,1-3.85,9.42Z"/><path class="cls-2" d="M347.91,426.64a5.45,5.45,0,0,1-1.68-.26l-16.05-5.13a5.5,5.5,0,0,1,3.35-10.48l16.05,5.13a5.5,5.5,0,0,1-1.67,10.74Z"/><circle class="cls-2" cx="300.74" cy="247.45" r="8.15"/><circle class="cls-2" cx="376.33" cy="247.45" r="8.15"/><path class="cls-2" d="M346.39,298.93s-15.53,1.84-15.39-12.52,3.84-30,11.8-30.68,11.08.86,12.86,10.17S361.31,297.68,346.39,298.93Z"/><path class="cls-2" d="M344.68,304.51c-3.3,0-9.27-.64-13.8-4.7-2.49-2.23-5.45-6.38-5.38-13.45.17-16.79,4.67-35.09,16.84-36.11,11.28-.94,16.53,3.16,18.72,14.62,2.13,11.16,3.76,25-2.55,33.34a15.79,15.79,0,0,1-11.58,6.19A20.74,20.74,0,0,1,344.68,304.51Zm1-43.41c-.65,0-1.44,0-2.42.11-2.21.19-6.59,9.27-6.75,25.26,0,3.58,1.29,4.76,1.72,5.15,2.24,2,6.5,2,7.52,1.84l.2,0a4.77,4.77,0,0,0,3.81-1.88c2.76-3.63,2.93-11.92.5-24.63-.82-4.3-1.7-5.23-1.95-5.41A4.86,4.86,0,0,0,345.67,261.1Z"/><path class="cls-2" d="M783.22,818.88c-1.74,0-3.5-.08-5.3-.24-25.65-2.28-56.88-21.06-92.81-55.84a515.82,515.82,0,0,1-45.68-50.6,8.5,8.5,0,1,1,13.47-10.36,511.42,511.42,0,0,0,44.19,48.9c32.54,31.45,61,49.08,82.34,51,10.18.9,18.56-1.78,25.62-8.2,5.82-5.28,8.17-11.16,7.41-18.49-4.2-40.6-97.32-103.71-132.84-124.61a8.5,8.5,0,1,1,8.61-14.65,704.76,704.76,0,0,1,67.31,46c46.43,36,71.27,66.84,73.83,91.54,1.31,12.63-3.15,24-12.88,32.83A48,48,0,0,1,783.22,818.88Z"/><path class="cls-2" d="M547.37,670.78a5.52,5.52,0,0,1-2-.37c-5.13-2-28.65-21.28-50.63-43.84-20.58-21.12-45.71-51.24-48.58-74.74-1.39-11.44,2.52-20.76,11.32-27,18.14-12.77,33.77-16.95,47.8-12.77,27.79,8.27,47.25,46.35,77.88,123.31A5.5,5.5,0,0,1,573,639.49c-28-70.46-47.62-109.94-70.79-116.84-10.74-3.2-22.93.37-38.34,11.22-5.23,3.68-7.41,8.61-6.84,15.51,1.27,15.63,17,39.78,44.17,68,22.63,23.46,44.92,41.14,48.3,42.82a5.5,5.5,0,0,1-2.08,10.59Zm2-10.63,0,0Z"/><path class="cls-2" d="M606.47,635.85a5.51,5.51,0,0,1-4.34-2.1c-3.41-4.36-12.82-31.41-18.94-56.77-6.18-25.6-11.74-60.19-3.19-79.63,4.22-9.61,11.62-15.09,21.4-15.85,19.88-1.55,33.9,2.42,42.88,12.13C662,512.76,659.56,550.87,648,623.86a5.5,5.5,0,0,1-10.87-1.72c10.51-66.45,13.47-105.43-.95-121-6.63-7.18-17.41-9.92-33.94-8.64-5.4.42-9.13,3.06-11.73,8.31-6.1,12.34-5.09,37.74,2.85,71.51,6.58,28,15.63,51.82,17.49,54.79a5.5,5.5,0,0,1-4.4,8.78Zm4.32-8.89.05.06Z"/><path class="cls-2" d="M521.63,714.41a199.87,199.87,0,0,1-98.35-25.33c-32.62-18.08-62.48-46-88.76-82.9-20.82-29.25-39.47-64.24-55.43-104-27.09-67.46-37-124.56-37.36-127a8.5,8.5,0,1,1,16.76-2.84c.1.57,10,58,36.51,123.8,15.47,38.45,33.47,72.2,53.5,100.31,24.77,34.77,52.72,60.92,83.05,77.73,54.55,30.23,118.06,30.8,188.77,1.71,26.19-10.67,46.06-27.29,59.09-49.41,11.59-19.7,17.06-42.91,15.81-67.11-1.23-23.56-8.94-46.77-21.74-65.36-13.38-19.45-31.44-32.94-52.23-39-13.73-3.73-26.73-6.28-38.2-8.54-34.21-6.73-61.24-12-72.22-41.65-10.58-28.52-45.34-30.71-45.69-30.73a8.5,8.5,0,0,1,.91-17c1.89.1,46.3,2.94,60.72,41.8,7.34,19.79,24.52,24,59.56,30.88,11.77,2.31,25.11,4.94,39.45,8.83l.15,0c24.62,7.16,45.91,23,61.56,45.71,14.55,21.15,23.32,47.47,24.7,74.12,1.43,27.54-4.84,54-18.13,76.61-14.75,25.06-38,44.6-67.3,56.52C589.93,706.83,554.81,714.41,521.63,714.41Z"/><path class="cls-2" d="M241.45,353a5.5,5.5,0,0,1-5.47-5c-.37-4.1-8.67-101,35.3-148.24,15.91-17.08,36.69-25.47,61.74-25,24.21.49,43.33,9.18,56.83,25.83,14.59,18,22.25,44.56,22.78,79a251.69,251.69,0,0,1-3.48,46,5.5,5.5,0,0,1-10.81-2.05c.14-.77,14.21-77.55-17-116-11.36-14-27.68-21.32-48.49-21.75-21.77-.44-39.77,6.78-53.45,21.45C238.72,250.81,246.85,346,246.94,347a5.51,5.51,0,0,1-5,6Z"/><path class="cls-2" d="M265.63,220.44a5.5,5.5,0,0,1-5.45-4.77c-.35-2.59-4.7-29.74-7-43.73a5.5,5.5,0,0,1,7.82-5.83l35.22,17a5.5,5.5,0,0,1-4.78,9.91l-25.73-12.42c2,12.29,5,31.3,5.32,33.62a5.49,5.49,0,0,1-4.72,6.18A6.11,6.11,0,0,1,265.63,220.44Z"/><path class="cls-2" d="M391.32,216.15a5.24,5.24,0,0,1-1.11-.12,5.49,5.49,0,0,1-4.28-6.49l5.12-24.81-16.09,9a5.5,5.5,0,1,1-5.37-9.6l26.59-14.85a5.49,5.49,0,0,1,8.07,5.91l-7.55,36.58A5.49,5.49,0,0,1,391.32,216.15Z"/></g></g></svg>