<svg xmlns="http://www.w3.org/2000/svg" viewBox="0 0 1024 1024"><defs>
<style>.cls-1{fill:#fff;}.cls-2{fill:#805db3;}</style></defs><title>stork-circle</title>
<g id="Layer_2" data-name="Layer 2">
<g id="design"><path class="cls-2" d="M300,726.06h-.06a8.5,8.5,0,0,1-8.44-8.26c-.05-1.92-1.19-47.5,8.87-105.35,5.92-34.07,14.53-65.26,25.58-92.71,13.95-34.64,31.87-63.43,53.27-85.57,35.57-36.79,80.89-55.6,134.7-55.92a8.5,8.5,0,0,1,.1,17c-49,.29-90.28,17.35-122.54,50.71-45.18,46.7-65.34,117.71-74.3,169.05-2.49,14.26-4.28,27.84-5.56,40.17a198.58,198.58,0,0,1,26.44-33c27.6-28.25,68.79-57,125.92-88,55.3-30,92.93-55.49,109.62-89.93,8.6-17.73,11.28-37.49,8.21-60.41C578.47,358.9,568.4,330.2,551,296.09c-28.61-56.19-34.41-93.48-17.73-114,18.22-22.38,54.87-12.7,56.42-12.27a8.5,8.5,0,0,1-4.45,16.4c-7.64-2-29.51-4.84-38.81,6.64-15.45,19.07,5.73,68,19.72,95.51,18.26,35.84,28.88,66.33,32.48,93.2,3.53,26.33.33,49.25-9.76,70.08-18.68,38.55-58.55,65.87-116.82,97.47-110.78,60-161.23,112.11-163.59,168.78A8.5,8.5,0,0,1,300,726.06Z"/><path class="cls-2" d="M408.26,854.89a8.51,8.51,0,0,1-8.48-7.94c0-.51-3.3-51.45-2.43-107.34,1.19-76.35,9.32-125.43,24.17-145.88a8.5,8.5,0,0,1,13.75,10c-25.81,35.54-22.12,186.83-18.52,242.12a8.51,8.51,0,0,1-7.93,9Z"/><path class="cls-2" d="M385.78,661.32a8.38,8.38,0,0,1-1.72-.18,26.82,26.82,0,0,1-21.92-25.41l17-.29v-.14c.09,1.77,1,7.67,8.34,9.19a8.5,8.5,0,0,1-1.7,16.83Z"/><path class="cls-2" d="M511.54,785.76h-.24A8.5,8.5,0,0,1,503,777c1-35-52.29-79.27-72.89-93.4a8.5,8.5,0,0,1,9.61-14c3.34,2.29,81.7,56.59,80.27,107.89A8.51,8.51,0,0,1,511.54,785.76Z"/><path class="cls-2" d="M478.27,764.82a5.51,5.51,0,0,1-4.73-8.3c.15-.26,9.56-16.7,5.62-34.64a5.5,5.5,0,1,1,10.74-2.36c4.91,22.32-6.4,41.78-6.89,42.6A5.52,5.52,0,0,1,478.27,764.82Z"/><path class="cls-2" d="M372.89,544.27a5.51,5.51,0,0,1-5.37-6.68c.18-.83,4.59-20.48,18.69-43.93,13-21.68,37.17-50.79,78.14-66.31a5.5,5.5,0,0,1,3.9,10.29c-58.81,22.28-81.21,74.8-87.74,94.58,28.35-4.18,53.93-13,76.11-26.16a179.65,179.65,0,0,0,50.19-44.38c23.68-30.47,30.52-59.11,30.59-59.4a5.5,5.5,0,0,1,10.71,2.49c-.29,1.27-7.47,31.3-32.61,63.66-23.18,29.83-66.62,67.19-142,75.8C373.31,544.25,373.1,544.27,372.89,544.27Z"/><path class="cls-2" d="M461,861.08a5.4,5.4,0,0,1-1.31-.16c-22.7-5.56-39-5.38-48.75-4.24-10.45,1.22-15.65,3.78-15.7,3.8a5.5,5.5,0,0,1-5-9.78c1-.5,24.27-12.19,72.11-.46A5.5,5.5,0,0,1,461,861.08Z"/><ellipse class="cls-2" cx="591.87" cy="197.51" rx="21.59" ry="32.67" transform="translate(1.63 399.83) rotate(-37.37)"/><path class="cls-2" d="M613.64,208.87c.87.87,105.6,91,105.6,91s2.33,5-3.5,3.5c-7.92-2.08-132.19-83.88-132.19-83.88Z"/><circle class="cls-1" cx="591.87" cy="192.95" r="8.15"/></g></g></svg>