<svg xmlns="http://www.w3.org/2000/svg" viewBox="0 0 1024 1024"><defs><style>.cls-1{fill:#fff;}.cls-2{fill:#ed2224;}</style></defs><title>Asset 10</title>
<g id="Layer_2" data-name="Layer 2"><g id="Layer_1-2" data-name="Layer 1">
<path class="cls-2" d="M249.48,486.52S312,454.16,307.56,394.3C307.56,394.3,352.79,498.49,249.48,486.52Z"/><path class="cls-2" d="M265,490a139.11,139.11,0,0,1-15.79-1,2.5,2.5,0,0,1-.86-4.71A132.16,132.16,0,0,0,278.49,461c19.42-20.11,28.36-42.49,26.58-66.53a2.5,2.5,0,0,1,4.78-1.18,141.37,141.37,0,0,1,8.31,28.44c3.82,21.13,1.3,38.43-7.29,50C301.87,483.87,286.47,490,265,490Zm-7.59-5.25c23.85,1.52,40.46-3.84,49.46-16,12.69-17.1,7.71-44.18,3-60.26-2.06,20-11.53,39.19-27.88,56.08A140.83,140.83,0,0,1,257.39,484.73Z"/><circle class="cls-2" cx="193.67" cy="417.91" r="8.15"/><path class="cls-2" d="M195.49,503.48c-14.08,0-28.85-.94-37.7-4.19-18.64-6.84-31.24-14.32-37.45-22.23l-.78-1C111.18,465.53,103,453.45,106,443.71c1-3.16,3.57-7.35,10.36-9.44,3.23-1,6.51-1.93,9.67-2.83,9.46-2.7,23.74-6.76,24.76-10.61,6-22.85,18.11-36.42,34.08-38.2,22.46-2.51,26.15-4.79,28-11.88.59-2.25,1.12-4.72,1.69-7.34,2.65-12.2,5.65-26,16.3-28.15,5.46-1.1,11.67,1.31,19,7.35a76.91,76.91,0,0,1,8.44,8.2A5.5,5.5,0,1,1,250,358c-6.63-7.7-14.24-12.46-16.92-11.93-3.59.72-6.27,13.07-7.71,19.7-.56,2.61-1.15,5.31-1.79,7.77-4.23,16.34-18.88,18-37.41,20.05-15,1.67-21.9,19.56-24.67,30.07-2.6,9.91-16.4,13.84-32.37,18.39-3.12.88-6.33,1.8-9.46,2.76-2.66.82-3,1.84-3.08,2.18-.78,2.51.6,8.41,11.62,22.27l.82,1c3.39,4.31,11.8,11.06,32.6,18.7,15,5.52,55.52,3.2,69.85,1.83a5.5,5.5,0,1,1,1,10.95C231.23,501.87,214,503.48,195.49,503.48Z"/><path class="cls-2" d="M770,760a107.55,107.55,0,0,1-18.39-1.48c-12.14-2.15-18.79-6.28-20.32-12.63-.94-3.85-.62-11.06,12-16.1,5.3-2.12,8.19-8.35,9.69-13.2,4-12.92,2.06-28.23-.94-32.69-7.77-11.52-36.51-41.81-54.58-45.73-4.13-.9-11.41-1.3-19.83-1.77-32-1.77-85.54-4.74-114.55-41.88a8.5,8.5,0,1,1,13.39-10.46c24.27,31.06,71.11,33.65,102.1,35.37,9.52.52,17.05.94,22.49,2.12,26.23,5.7,58.33,42.85,65.07,52.85s8.06,31.06,3.09,47.19c-2.78,9-7.31,16-13.26,20.42a101.59,101.59,0,0,0,24.27.51c29.19-2.78,53.33-12.34,60.05-23.78a82,82,0,0,1,6.56-9.11c4.73-6,9.21-11.6,9.3-18.94.12-9.32-6.67-21.57-20.2-36.41-11-12.1-16.57-18.17-19-24.68-2.9-7.81-.78-14.06,2.44-23.52,5.53-16.28,17-50.16,19.67-140,1-33.66-8.77-59.69-29.8-79.57-25.45-24-67.65-38.48-125.46-42.9-49-3.75-97.34.39-129.32,3.13-18.63,1.6-27.81,2.33-32.76,1.58-13.12-2-23-8.42-32.6-14.63-12-7.77-22.36-14.49-38.61-13.19-19.83,1.59-26.62,5.83-43,16.08-8.81,5.49-19.76,12.33-36.19,20.89-42.3,22-75,19.29-90.7,18-2.38-.2-4.43-.38-5.67-.38a8.5,8.5,0,0,1,0-17c2,0,4.23.2,7.1.44,14.12,1.19,43.49,3.66,81.41-16.1,15.85-8.26,26.49-14.9,35-20.24,17.24-10.76,26.73-16.69,50.69-18.61,22-1.76,36.45,7.61,49.2,15.88,8.45,5.47,16.42,10.64,25.91,12.08,3.18.48,15.6-.58,28.75-1.71,65.78-5.63,202.64-17.35,267.91,44.36,24.42,23.08,36.24,54.17,35.12,92.41-2.7,92.4-14.77,127.92-20.57,145-2.7,8-3.31,10.19-2.6,12.11,1.28,3.43,6.68,9.35,15.63,19.17,17,18.64,24.82,33.92,24.64,48.08-.17,13.14-7.27,22.1-13,29.29a67.36,67.36,0,0,0-5.22,7.15c-5.4,9.19-15.69,16.79-30.58,22.58-12.2,4.73-26.9,8-42.52,9.51C777.9,759.82,773.91,760,770,760Zm-23.39-12.92Z"/><path class="cls-2" d="M454.81,767.58c-6.85,0-13.09-.61-17.65-1.05-1.93-.19-3.93-.39-4.68-.39-1.15,0-3.2.05-5.78.11-46.39,1.08-65.31-1.28-72.34-9a15.71,15.71,0,0,1-3.68-13.78c2.7-14.42,23.08-30.47,42.09-40,7-3.49,9.06-17.41,5.86-39.21-2.92-19.87-10.33-46.57-22-79.35-8.83-24.73-16.89-38.51-26.14-44.67-8.33-5.56-18.42-5.56-33.69-5.56-34.55,0-53.92-15.44-54.73-16.1a8.5,8.5,0,0,1,10.7-13.21c.35.27,16,12.31,44,12.31,17,0,30.5,0,43.12,8.41s22.44,24.32,32.72,53.1c12.25,34.31,19.73,61.33,22.85,82.6,4.54,30.93-.39,49.54-15.08,56.89-21.19,10.59-31.47,23-32.85,27.26,2.05.85,8.11,2.59,24.31,3.27,12.7.54,26.33.22,34.47,0,2.7-.06,4.83-.11,6.18-.11,1.58,0,3.57.2,6.33.47,9.91,1,33.14,3.23,42.87-6.41,4-4,5.58-9.86,4.85-18.07-2.23-25.28,10.84-46.94,23.48-67.9,11.71-19.4,22.76-37.72,20.45-56.85a8.5,8.5,0,1,1,16.87-2c3,24.95-10.08,46.67-22.76,67.68-11.75,19.48-22.85,37.88-21.1,57.63,1.18,13.37-2.13,24-9.82,31.63C483.51,765.32,468,767.58,454.81,767.58Z"/><path class="cls-2" d="M583.65,720.64c-8.45,0-16.73-2.73-22.09-5a9.17,9.17,0,0,1-5.68-6.18c-1.54-5.89,3.09-11.75,8.44-18.54,2.47-3.13,7-8.88,7.21-11.1-4.2-6.92-19.23-24.53-24.74-30.81a5.5,5.5,0,1,1,8.26-7.25c.85,1,20.83,23.77,26.12,32.76,4.31,7.32-2.34,15.76-8.21,23.21a66.51,66.51,0,0,0-5.91,8.26c6,2.37,18.28,6.08,26.1,1.3,4.71-2.88,7.45-8.86,8.15-17.78,2.46-31.31-13.35-50.51-13.51-50.71a5.5,5.5,0,0,1,8.42-7.07c.77.91,18.87,22.89,16.06,58.65-1,12.62-5.49,21.47-13.38,26.29A28.79,28.79,0,0,1,583.65,720.64Zm-12-40.5h0Z"/><path class="cls-2" d="M662.17,731.57a26.05,26.05,0,0,1-10.89-2.23c-6.49-3-10.62-8.62-11-15s3-12.44,9.3-16.43c12.46-7.84,13.9-35.11,13.4-45a5.5,5.5,0,0,1,11-.56c.09,1.7,1.93,41.94-18.52,54.81-2.86,1.8-4.35,4.08-4.2,6.41s1.9,4.49,4.66,5.77c6.75,3.11,16.93.36,27.23-7.34,24.37-18.22,23.23-28.32,21.78-41.11-.29-2.58-.59-5.24-.7-8.07a5.5,5.5,0,1,1,11-.43c.1,2.42.36,4.77.64,7.27,1.93,17.07,1.18,30.73-26.12,51.15C678.41,729.26,669.05,731.57,662.17,731.57Z"/></g></g></svg>