<svg xmlns="http://www.w3.org/2000/svg" viewBox="0 0 1024 1024"><defs><style>.cls-1{fill:#fff;}.cls-2{fill:#64ab48;}</style></defs><title>green turtle circle</title><g id="Layer_2" data-name="Layer 2"><g id="back"><circle class="cls-1" cx="512" cy="512" r="512"/><path class="cls-2" d="M512,25A487.13,487.13,0,0,1,701.55,960.74,487.13,487.13,0,0,1,322.45,63.26,483.84,483.84,0,0,1,512,25m0-25C229.23,0,0,229.23,0,512s229.23,512,512,512,512-229.23,512-512S794.77,0,512,0Z"/></g><g id="design"><path class="cls-2" d="M304.27,731.41A8.51,8.51,0,0,1,296,725c-.47-1.85-11.55-46-12.21-103.94-.39-34.15,3-66,10-94.52,8.84-36,23.56-67.06,43.75-92.16,45.55-56.62,91.8-75.74,122.59-81.82,34-6.7,57.06.44,58,.75a8.5,8.5,0,0,1-5.15,16.2c-.17-.06-20.65-6.21-50.62-.06-39.8,8.16-78.39,34.3-111.6,75.59-23.38,29.06-51,83.16-50,175.82.64,55.92,11.58,99.51,11.69,99.94a8.49,8.49,0,0,1-8.24,10.6Z"/><path class="cls-2" d="M411.85,743.79l-5.33,0c-57.93-.66-102.09-11.74-103.94-12.21a8.5,8.5,0,0,1,4.19-16.48c.59.15,44.46,11.11,100.33,11.7,92.45,1,146.42-26.64,175.44-50,100.05-80.49,75.78-161.42,75.53-162.23a8.5,8.5,0,1,1,16.2-5.14c.31,1,7.44,24.05.74,58-6.07,30.78-25.2,77-81.82,122.58C568.1,710.23,537.09,725,501,733.79,474,740.43,444,743.79,411.85,743.79Z"/><path class="cls-2" d="M657,493.71a8.51,8.51,0,0,1-8.26-6.51c-9.76-40.53-31-71.13-63-91-23.82-14.73-44.63-17.6-44.83-17.62a8.5,8.5,0,0,1,2.21-16.86c1,.13,24.67,3.39,51.56,20,24.76,15.31,57.11,45.33,70.62,101.44A8.52,8.52,0,0,1,657,493.71Z"/><path class="cls-2" d="M505,367.1a8.5,8.5,0,0,1-7.48-12.52h0c.24-.45,23.7-45.42,2.32-93.34-9.18-20.59-25.4-39.11-48.19-55-25.7-17.95-60-32.75-102-44.07,2.41,15.81,10.35,45.06,36.4,65.53,8.68,6.81,17.52,12.63,26.08,18.26,31,20.42,60.36,39.7,47.71,91a8.5,8.5,0,0,1-16.51-4.08c9.77-39.58-10.24-52.75-40.54-72.68-8.85-5.82-18-11.84-27.24-19.1-43.86-34.45-44-87.93-44-90.19a8.5,8.5,0,0,1,10.53-8.19C434.32,165.33,492.65,203,515.52,254.57c24.67,55.65-1.85,106-3,108.06A8.51,8.51,0,0,1,505,367.1Z"/><path class="cls-2" d="M241.55,618.66A24.46,24.46,0,0,1,221.79,609c-8.36-10.57-29-18.49-36.2-20.65a8.5,8.5,0,0,1-4.57-13c17.37-25.18,37.63-39.2,60.22-41.66,33.26-3.62,58.56,19.55,59.62,20.54a8.5,8.5,0,0,1-11.57,12.45h0c-.2-.19-20.89-18.92-46.35-16.08-14.76,1.65-28.59,10.22-41.24,25.52,1.77.72,3.67,1.55,5.64,2.46,12.66,5.87,22,12.54,27.78,19.84,6.61,8.34,20.36-2.19,20.49-2.3a8.5,8.5,0,0,1,10.44,13.42A50.2,50.2,0,0,1,251.68,617,33.42,33.42,0,0,1,241.55,618.66Z"/><path class="cls-2" d="M876.17,695.57c-3.91,0-56.17-.83-90-44-7.25-9.24-13.27-18.39-19.09-27.24-19.93-30.3-33.1-50.32-72.69-40.55a8.5,8.5,0,1,1-4.07-16.5c51.26-12.65,70.54,16.67,91,47.71,5.63,8.55,11.45,17.4,18.26,26.08,20.58,26.19,49.76,34.07,65.54,36.44C853.72,635.49,838.91,601.2,821,575.49c-15.92-22.79-34.43-39-55-48.2-47.93-21.38-92.89,2.09-93.34,2.33a8.5,8.5,0,0,1-8.06-15c2.12-1.14,52.42-27.66,108.06-3,51.59,22.87,89.24,81.21,111.92,173.39a8.51,8.51,0,0,1-8.19,10.53Z"/><path class="cls-2" d="M447,847.67a8.39,8.39,0,0,1-2.83-.49,8.5,8.5,0,0,1-5.32-5.6c-2.16-7.22-10.08-27.83-20.64-36.19-9-7.15-11.89-17.77-8-29.89a50.29,50.29,0,0,1,7.46-14.37,8.5,8.5,0,1,1,13.42,10.44c-.41.54-10.52,14-2.29,20.49,7.29,5.77,14,15.12,19.84,27.78.91,2,1.73,3.87,2.46,5.63,15.29-12.64,23.86-26.48,25.52-41.23,2.85-25.46-15.9-46.15-16.09-46.36A8.5,8.5,0,0,1,473,726.31c1,1.07,24.17,26.37,20.54,59.63-2.46,22.59-16.48,42.85-41.66,60.22A8.54,8.54,0,0,1,447,847.67Z"/><path class="cls-2" d="M659.18,434.14a8.5,8.5,0,0,1-7.88-11.68,41.61,41.61,0,0,1,21.47-21.16,184.07,184.07,0,0,0,32.75-18.73c16.8-12.22,26.91-25.05,29.23-37.1,2.24-11.67-2.53-23.2-14.59-35.24-13-13-25.65-18.35-38.54-16.28-30,4.81-54.36,48.84-61.12,62.22-14,27.8-32.54,32.94-34.6,33.43l-4-16.53-.15,0c.52-.15,13.06-3.87,23.54-24.6,5.24-10.39,13.95-25.69,25.6-39.62,15.4-18.41,31.55-29.08,48-31.72,18.4-2.95,36.32,4.12,53.26,21,16.12,16.1,22.6,33.09,19.26,50.48-7.61,39.62-65.4,65.44-72,68.25a25.5,25.5,0,0,0-12.41,11.9A8.5,8.5,0,0,1,659.18,434.14Z"/><path class="cls-2" d="M538.72,556.73c2.85-10.63-1.18-25.68-9-33.46l-28-28c-7.78-7.78-22.83-11.81-33.46-9l-38.2,10.23c-10.63,2.85-21.65,13.87-24.5,24.5l-10.23,38.2c-2.85,10.63,1.18,25.68,9,33.46l28,28c7.78,7.78,22.83,11.81,33.46,9L504,619.43c10.63-2.85,21.65-13.87,24.5-24.5Z"/><path class="cls-2" d="M458.31,636.08c-10.84,0-22.72-4.35-29.87-11.49l-28-28c-9.18-9.19-13.75-26.22-10.39-38.77l10.24-38.21c3.36-12.55,15.83-25,28.38-28.38L466.91,481c12.55-3.36,29.58,1.21,38.77,10.39l28,28c9.19,9.19,13.75,26.22,10.39,38.77h0L533.8,596.36c-3.36,12.55-15.83,25-28.38,28.38L467.21,635A34.84,34.84,0,0,1,458.31,636.08ZM475.7,490.93a23,23,0,0,0-5.95.72l-38.2,10.24c-8.66,2.32-18.28,11.94-20.6,20.6l-10.24,38.2c-2.32,8.66,1.2,21.81,7.54,28.15l28,28c6.34,6.34,19.49,9.86,28.15,7.54l38.2-10.24c8.66-2.32,18.29-11.94,20.6-20.6l10.24-38.2c2.32-8.66-1.2-21.81-7.54-28.15l-28-28C492.9,494.18,483.63,490.93,475.7,490.93Zm63,65.8h0Z"/><path class="cls-2" d="M530.89,501.18a5.51,5.51,0,0,1-3.89-1.61l-18.7-18.71c-12-12-12-23.81-10.46-33.77,1.13-7.17,5.16-19.77,9.42-33.11,1.11-3.44,2.21-6.91,3.27-10.27,2.68-8.58,8.43-13.58,16.63-14.46,6.21-.67,12.72,1.15,18,2.61l2.46.67c12.61,3.34,38.6,13.65,56.06,31.11a5.5,5.5,0,0,1-7.78,7.78c-15.8-15.81-39.56-25.2-51.1-28.26l-2.59-.71c-15.62-4.35-19-2.22-21.15,4.54-1.06,3.39-2.17,6.87-3.28,10.34-4,12.36-8,25.14-9,31.47-1.17,7.4-1.56,15.36,7.37,24.28l18.7,18.71a5.5,5.5,0,0,1-3.89,9.39Z"/><path class="cls-2" d="M571.91,530.15c-7.95,0-16.66-2.34-25.49-11.17l-18.71-18.71a5.5,5.5,0,0,1,7.78-7.78l18.7,18.71c8.93,8.92,16.89,8.53,24.28,7.37,6.34-1,19.12-5.09,31.49-9,3.46-1.11,6.94-2.22,10.32-3.28,6.77-2.12,8.9-5.52,4.54-21.14-.25-.9-.49-1.76-.71-2.59-3.05-11.55-12.45-35.3-28.25-51.1a5.5,5.5,0,1,1,7.78-7.78c17.46,17.45,27.77,43.45,31.11,56.06.21.79.43,1.61.67,2.45,1.46,5.24,3.28,11.76,2.61,18-.89,8.19-5.89,13.94-14.46,16.63-3.36,1-6.82,2.16-10.27,3.26-13.34,4.26-25.94,8.29-33.11,9.42A52.59,52.59,0,0,1,571.91,530.15Z"/><path class="cls-2" d="M504.43,704a5.5,5.5,0,0,1-1.59-10.77c18.41-5.57,36-17,43.54-22.84l1.69-1.3c2.1-1.61,7.56-5.79,8.24-7.81a4.76,4.76,0,0,0-.83-.71c-1.85-1.32-3.75-2.69-5.63-4-6.63-4.77-13.48-9.71-17.22-11.53-4.25-2.07-9.67-4-20.18-.83l-21.59,6.53a5.5,5.5,0,0,1-3.19-10.53l21.59-6.53c13.67-4.14,21.92-1.58,28.18,1.47,4.6,2.23,11.51,7.22,18.84,12.5,1.86,1.35,3.74,2.7,5.57,4,4.47,3.18,5.46,6.83,5.51,9.34.12,7.14-6.93,12.54-12.61,16.88l-1.6,1.24C545,685.34,526,697.67,506,703.71A5.48,5.48,0,0,1,504.43,704Z"/><path class="cls-2" d="M466.9,711.59c-1.17,0-2.29-.05-3.35-.13l-1.74-.13c-6.3-.44-14.14-1-18.39-6.32-1.54-1.94-3.21-5.34-2.39-10.53l.38-2.5c2.25-14.51,4.22-26,7.32-31.23,4.4-7.37,12-12.48,23.86-16.08l14.27-4.31A5.5,5.5,0,1,1,490,650.88l-14.27,4.32c-11.95,3.62-15.76,8.11-17.59,11.18-2.26,3.79-4.53,18.5-5.9,27.28l-.39,2.52a3,3,0,0,0,.14,2c1.23,1.56,7.3,2,10.55,2.21l1.82.13c7.75.6,20-1.72,38.44-7.31A5.5,5.5,0,1,1,506,703.71C488.23,709.09,475.92,711.59,466.9,711.59Z"/><path class="cls-2" d="M581.5,648.17A14.29,14.29,0,0,1,576,647.1a56.4,56.4,0,0,1-8.14-4c-1.31-.75-2.94-1.69-5.42-3-.2-.11-20.06-11-20.06-23.91,0-8.49,12.3-53.45,13.53-57.45,2.59-8.41,9.41-14.51,18.71-16.74,5.62-1.35,44.73-10.62,49.32-11.55,6.63-1.35,15,1.55,20.22,7.05,4.08,4.24,5.66,9.37,4.46,14.44-.69,3.25-12.2,55.38-48.25,87.5C599.05,640.6,590.5,648.17,581.5,648.17Zm45.76-107.1a5.91,5.91,0,0,0-1.15.11c-4.22.85-42,9.8-48.94,11.46-5.5,1.32-9.32,4.62-10.75,9.28-2.21,7.17-13,48.46-13,54.22,0,3.22,7.21,10.4,14.3,14.23,2.59,1.4,4.29,2.38,5.65,3.16a45.78,45.78,0,0,0,6.87,3.4c3,1.23,9.31-2.49,12.74-5.65l.08-.07c33.69-30,44.74-81.14,44.85-81.66a1.16,1.16,0,0,1,0-.18c.33-1.35-.24-2.8-1.68-4.3A13.64,13.64,0,0,0,627.26,541.07Z"/><path class="cls-2" d="M381.47,543.08a5.52,5.52,0,0,1-5.27-7.1l6.53-21.58c3.18-10.51,1.24-15.93-.83-20.19-1.82-3.74-6.76-10.59-11.54-17.22-1.35-1.89-2.72-3.78-4-5.63a4.52,4.52,0,0,0-.72-.82c-2,.67-6.2,6.13-7.81,8.23-.44.59-.88,1.16-1.3,1.69-5.86,7.51-17.27,25.13-22.84,43.54a5.5,5.5,0,1,1-10.53-3.18c6-20,18.37-39,24.7-47.13.4-.5.81-1,1.24-1.6,4.34-5.67,9.78-12.71,16.88-12.6,2.51,0,6.17,1,9.34,5.5,1.3,1.83,2.65,3.7,4,5.56,5.28,7.33,10.27,14.26,12.5,18.85,3,6.27,5.61,14.51,1.47,28.18l-6.53,21.59A5.5,5.5,0,0,1,381.47,543.08Z"/><path class="cls-2" d="M329.72,586a12.36,12.36,0,0,1-7.88-2.61c-5.34-4.25-5.89-12.09-6.33-18.39,0-.59-.08-1.17-.13-1.74-.72-9.27,1.67-22.37,7.75-42.47A5.5,5.5,0,0,1,333.66,524c-5.59,18.48-7.91,30.7-7.31,38.44,0,.59.09,1.2.13,1.82.23,3.26.66,9.32,2.21,10.56a3,3,0,0,0,2,.13l2.52-.39c8.79-1.36,23.49-3.64,27.27-5.9,3.07-1.82,7.57-5.64,11.18-17.59L376,536.8A5.5,5.5,0,0,1,386.49,540l-4.32,14.27c-3.59,11.89-8.7,19.47-16.07,23.86-5.21,3.11-16.72,5.07-31.22,7.32l-2.51.39A18.11,18.11,0,0,1,329.72,586Z"/><path class="cls-2" d="M410.7,484.48c-12.9,0-23.79-19.87-23.9-20.07-1.34-2.47-2.27-4.1-3-5.41a58.13,58.13,0,0,1-4-8.14c-4.43-10.71,6.25-22.8,7.71-24.38,32.11-36,84.24-47.55,87.49-48.24,5.07-1.21,10.2.37,14.45,4.45,5.49,5.28,8.39,13.59,7.05,20.22-.93,4.59-10.2,43.7-11.55,49.32-2.23,9.31-8.33,16.13-16.74,18.71C464.15,472.17,419.19,484.48,410.7,484.48ZM477.29,389c-.69.14-51.72,11.21-81.65,44.85l-.08.09c-3.16,3.41-6.88,9.75-5.65,12.72a46.75,46.75,0,0,0,3.4,6.87c.79,1.37,1.76,3.06,3.16,5.66,3.83,7.08,11,14.3,14.23,14.3,5.76,0,47.05-10.84,54.22-13.05,4.67-1.44,8-5.26,9.28-10.76,1.66-6.94,10.61-44.72,11.46-48.94.53-2.57-.91-7.25-3.88-10.1-1.51-1.45-3-2-4.31-1.68l-.18,0Zm-1.13-5.39h0Z"/><path class="cls-2" d="M329.71,703.06a5.5,5.5,0,0,1-5.38-4.36c-.51-2.42-12.57-59.53-14.48-72.25-2-13.07,4.67-22.7,18.21-26.43,7.17-2,23.61-5.79,35.62-8.58l3.59-.84c14.42-3.36,27.42,10.18,31.69,14.62.24.26.44.46.59.61l10.9,10.9-7.78,7.78-10.9-10.9-.74-.76c-5.91-6.15-14.39-13.13-21.27-11.53l-3.59.83c-11.92,2.77-28.24,6.56-35.19,8.48-10.66,2.93-11,9.5-10.25,14.19,1.86,12.4,14.24,71,14.37,71.61a5.5,5.5,0,0,1-4.25,6.51A5.59,5.59,0,0,1,329.71,703.06Z"/><path class="cls-2" d="M405.16,717.72a29.06,29.06,0,0,1-4.38-.34c-12.72-1.91-69.83-14-72.25-14.48a5.5,5.5,0,0,1,2.27-10.77c.59.13,59.21,12.51,71.61,14.37,4.69.71,11.26.41,14.19-10.25,1.91-6.93,5.69-23.19,8.45-35.07l.86-3.71c.89-3.8-.4-10.57-11.53-21.27l-.76-.74-10.9-10.9a5.5,5.5,0,0,1,7.78-7.78l10.9,10.9.6.59c4.45,4.27,18,17.28,14.63,31.69l-.87,3.71c-2.78,12-6.59,28.36-8.55,35.5C423.91,711.14,416,717.72,405.16,717.72Z"/><circle class="cls-2" cx="672.63" cy="317.19" r="8.15"/><circle class="cls-2" cx="710.21" cy="354.76" r="8.15"/></g></g></svg>