<svg xmlns="http://www.w3.org/2000/svg" viewBox="0 0 428.26 693.7"><defs><style>.cls-1{fill:#805db3;}</style></defs><title>Asset 1</title><g id="Layer_2" data-name="Layer 2"><g id="design"><path class="cls-1" d="M307.22,214.2c-3.6-26.87-14.22-57.36-32.48-93.21-14-27.48-35.16-76.43-19.71-95.51,9.29-11.48,31.16-8.68,38.8-6.63a9.24,9.24,0,0,0,1.63.27,8.11,8.11,0,0,1,5-1.7c.24,0,.47,0,.7,0a8.5,8.5,0,0,0-2.84-15c-1.55-.42-38.21-10.1-56.42,12.28-16.69,20.51-10.89,57.79,17.72,114,17.37,34.1,27.44,62.81,30.78,87.74,3.07,22.92.39,42.68-8.21,60.42-16.69,34.44-54.32,59.94-109.62,89.93-57.13,31-98.32,59.76-125.92,88a198.53,198.53,0,0,0-26.44,33c1.27-12.22,3-25.67,5.5-39.82C34.62,396.53,54.78,325.39,100,278.6c32.27-33.37,73.51-50.45,122.58-50.73a8.5,8.5,0,1,0-.1-17c-53.82.31-99.14,19.13-134.71,55.92-21.4,22.13-39.32,50.92-53.27,85.56C23.46,379.8,14.85,411,8.93,445.07-1.13,502.92,0,548.5.06,550.41a8.5,8.5,0,0,0,8.44,8.26h.06a8.5,8.5,0,0,0,8.49-8.14c2.36-56.67,52.82-108.73,163.59-168.79,58.28-31.59,98.15-58.92,116.82-97.46C307.56,263.45,310.75,240.52,307.22,214.2Z"/><path class="cls-1" d="M116.82,687.51a8.5,8.5,0,0,1-8.47-8c0-.51-3.3-51.45-2.44-107.33,1.19-76.35,9.32-125.44,24.17-145.88a8.5,8.5,0,1,1,13.75,10C118,471.88,121.71,623.16,125.31,678.46a8.49,8.49,0,0,1-7.93,9Z"/><path class="cls-1" d="M94.34,493.93a8.43,8.43,0,0,1-1.72-.17,26.8,26.8,0,0,1-21.91-25.41l17-.3v-.13c.09,1.77,1,7.67,8.35,9.19a8.5,8.5,0,0,1-1.71,16.82Z"/><path class="cls-1" d="M220.1,618.37h-.24a8.5,8.5,0,0,1-8.26-8.73c1-35-52.28-79.28-72.88-93.4a8.5,8.5,0,1,1,9.61-14c3.33,2.28,81.69,56.59,80.26,107.89A8.49,8.49,0,0,1,220.1,618.37Z"/><path class="cls-1" d="M186.84,597.43a5.5,5.5,0,0,1-4.74-8.29c.15-.26,9.56-16.7,5.62-34.64a5.5,5.5,0,1,1,10.74-2.36c4.91,22.32-6.4,41.78-6.89,42.59A5.47,5.47,0,0,1,186.84,597.43Z"/><path class="cls-1" d="M81.45,376.88a5.5,5.5,0,0,1-5.37-6.68c.18-.82,4.59-20.47,18.69-43.93,13-21.68,37.17-50.78,78.14-66.3a5.5,5.5,0,1,1,3.9,10.28C118,292.53,95.6,345.05,89.07,364.84c28.36-4.18,53.93-13,76.11-26.17a179.77,179.77,0,0,0,50.19-44.37c23.68-30.48,30.52-59.12,30.59-59.4a5.5,5.5,0,0,1,10.72,2.49c-.3,1.26-7.48,31.3-32.62,63.66-23.17,29.82-66.62,67.19-142,75.8Z"/><path class="cls-1" d="M169.52,693.7a5.42,5.42,0,0,1-1.32-.16c-22.7-5.57-39-5.38-48.75-4.25-10.45,1.23-15.65,3.78-15.7,3.81a5.5,5.5,0,0,1-5-9.78c1-.5,24.27-12.2,72.11-.46a5.5,5.5,0,0,1-1.3,10.84Z"/><path class="cls-1" d="M322.2,41.48c.87.88,105.6,91,105.6,91s2.33,5-3.5,3.5c-7.92-2.08-132.19-83.88-132.19-83.88Z"/><path class="cls-1" d="M317.59,17c-11-14.34-27.52-20.1-37-12.86s-8.28,24.73,2.68,39.07,27.51,20.09,37,12.86S328.54,31.36,317.59,17Zm-17.16,16.7a8.15,8.15,0,1,1,8.15-8.15A8.15,8.15,0,0,1,300.43,33.72Z"/></g></g></svg>