<svg xmlns="http://www.w3.org/2000/svg" viewBox="0 0 1024 1024"><defs><style>.cls-1{fill:#fff;}.cls-2{fill:#64ab48;}</style></defs><title>green turtle icon text</title><g id="Layer_2" data-name="Layer 2"><g id="back"><circle class="cls-1" cx="512" cy="512" r="512"/><path class="cls-2" d="M512,25A487.13,487.13,0,0,1,701.55,960.74,487.13,487.13,0,0,1,322.45,63.26,483.84,483.84,0,0,1,512,25m0-25C229.23,0,0,229.23,0,512s229.23,512,512,512,512-229.23,512-512S794.77,0,512,0Z"/></g><g id="text"><path class="cls-2" d="M314.64,884.64c2.85,0,8.17,1.57,8.17,8.62v7.65c0,16-14.4,20-24.3,20-18.59,0-28.64-14-28.64-30,0-15.53,9.75-31.88,28-31.88,13.28,0,22.8,7.88,22.8,13.5,0,2.4-1.65,5.33-4.8,5.33-1.12,0-2.32-.08-5.47-3.3-3.9-3.9-6.68-5.33-11.78-5.33-12.52,0-18,11.1-18,21.3,0,11.77,7.05,19.72,18.29,19.72,11.78,0,13.5-7.8,13.5-9.37v-4.13a1.78,1.78,0,0,0-1.95-2h-13.2c-2.85,0-4.79-2.62-4.79-5.32a4.52,4.52,0,0,1,4.42-4.8Z"/><path class="cls-2" d="M342.92,916.44c0,2.92-2.47,4.35-4.72,4.35a4.5,4.5,0,0,1-4.88-4.5V879a4.5,4.5,0,0,1,4.8-4.5c.68,0,4.8,0,4.8,5v2.32c4.43-7.27,10.65-7.27,12.23-7.27,3.6,0,8.7,1.65,8.7,5.92a4.21,4.21,0,0,1-4.35,4.5c-.83,0-4.13-.6-4.8-.6-5.25,0-11.78,11.17-11.78,13.12Z"/><path class="cls-2" d="M378,901.21c.23,2.55,1.05,10.28,9,10.28,2.48,0,4.2-.68,6.53-4,1.8-2.63,2.85-3.23,4.95-3.23,2.62,0,4.27,2.48,4.27,4.95,0,5.55-6.82,11.63-16,11.63-6.52,0-18.75-3.45-18.75-22.43,0-17.54,9.68-23.84,18.15-23.84,9.45,0,17.18,7.65,17.18,18.29,0,5.4-1.43,8.4-5.48,8.4Zm13.58-8.84c1.57,0,1.95-.38,1.95-1,0-2.32-1.88-7.57-7.35-7.57-6.38,0-7.65,6.82-7.95,8.55Z"/><path class="cls-2" d="M420.33,901.21c.22,2.55,1.05,10.28,9,10.28,2.47,0,4.2-.68,6.52-4,1.8-2.63,2.85-3.23,4.95-3.23,2.63,0,4.28,2.48,4.28,4.95,0,5.55-6.83,11.63-16.05,11.63-6.53,0-18.75-3.45-18.75-22.43,0-17.54,9.68-23.84,18.15-23.84,9.45,0,17.17,7.65,17.17,18.29,0,5.4-1.42,8.4-5.47,8.4Zm13.57-8.84c1.58,0,2-.38,2-1,0-2.32-1.87-7.57-7.35-7.57-6.37,0-7.65,6.82-7.95,8.55Z"/><path class="cls-2" d="M491.79,915.84a4.82,4.82,0,0,1-4.8,4.95c-3.23,0-4.73-2.93-4.73-5V892.29c0-3.45-1.27-8.17-7.57-8.17a10.35,10.35,0,0,0-10.42,9.52v22.2a4.8,4.8,0,1,1-9.6-.08V887.19c0-1.35-.6-7.05-.6-8.25a4.43,4.43,0,0,1,4.8-4.42c3.37,0,4.8,2.77,5.62,4.8,1.2-1.28,4.5-4.8,12.75-4.8,8.7,0,14.55,5.55,14.55,13.57Z"/><path class="cls-2" d="M556.51,915.84a5,5,0,0,1-5.25,4.95,4.83,4.83,0,0,1-5.17-4.8v-45.3h-13a5,5,0,0,1-5.25-5.17,5.37,5.37,0,0,1,5.25-5.18h36.38a5.32,5.32,0,0,1,5.25,5.48c0,3.52-3.15,4.87-5.25,4.87h-13Z"/><path class="cls-2" d="M574.39,879.47a4.88,4.88,0,0,1,4.88-5c3.3,0,4.72,3.3,4.72,5V903c0,3.45,1.2,8.18,7.58,8.18A10.38,10.38,0,0,0,602,901.66V879.47a4.83,4.83,0,0,1,4.88-5c3.07,0,4.65,3,4.65,5v28.57c0,1.35.6,7,.6,8.25,0,2.18-1.5,4.43-4.8,4.43s-4.73-2.78-5.63-4.8c-1.2,1.27-4.5,4.8-12.67,4.8-8.78,0-14.63-5.48-14.63-13.5Z"/><path class="cls-2" d="M632.37,916.44c0,2.92-2.48,4.35-4.73,4.35a4.49,4.49,0,0,1-4.87-4.5V879a4.5,4.5,0,0,1,4.8-4.5c.67,0,4.8,0,4.8,5v2.32c4.42-7.27,10.65-7.27,12.22-7.27,3.6,0,8.7,1.65,8.7,5.92a4.2,4.2,0,0,1-4.35,4.5c-.82,0-4.12-.6-4.8-.6-5.25,0-11.77,11.17-11.77,13.12Z"/><path class="cls-2" d="M662.75,884.79a4.47,4.47,0,0,1,0-8.92h3.53v-8.18a4.61,4.61,0,0,1,4.8-4.65,4.53,4.53,0,0,1,4.57,4.58v8.25h8.85a4.47,4.47,0,0,1,0,8.92h-8.85V908c0,.9.23,2.33,1.5,2.33,1.05,0,1.87-.83,2.92-3.08,1.58-3.37,3-4.05,4.58-4.05a4.81,4.81,0,0,1,4.72,4.88c0,3.22-4.12,12.75-13,12.75-9.82,0-10.12-9.23-10.12-12.45V884.79Z"/><path class="cls-2" d="M697.62,864a4.92,4.92,0,0,1,4.73-5,4.81,4.81,0,0,1,4.87,4.88v52c0,1.8-1.42,4.88-4.57,4.88a5,5,0,0,1-5-5Z"/><path class="cls-2" d="M727.08,901.21c.22,2.55,1,10.28,9,10.28,2.47,0,4.19-.68,6.52-4,1.8-2.63,2.85-3.23,4.95-3.23,2.62,0,4.27,2.48,4.27,4.95,0,5.55-6.82,11.63-16.05,11.63-6.52,0-18.74-3.45-18.74-22.43,0-17.54,9.67-23.84,18.14-23.84,9.45,0,17.18,7.65,17.18,18.29,0,5.4-1.43,8.4-5.48,8.4Zm13.57-8.84c1.57,0,2-.38,2-1,0-2.32-1.88-7.57-7.35-7.57-6.37,0-7.65,6.82-8,8.55Z"/></g><g id="design"><path class="cls-2" d="M320.82,695.67a8.51,8.51,0,0,1-8.23-6.4c-.47-1.86-11.55-46-12.21-103.94-.39-34.15,3-66,10-94.52,8.84-36.06,23.56-67.06,43.75-92.16,45.54-56.62,91.8-75.75,122.58-81.82,34-6.7,57.07.44,58,.74a8.5,8.5,0,1,1-5.14,16.2c-.18,0-20.65-6.2-50.62-.06-39.8,8.17-78.39,34.3-111.61,75.59-23.38,29.07-51,83.17-50,175.83.64,55.92,11.58,99.51,11.69,99.94a8.52,8.52,0,0,1-6.14,10.34A9,9,0,0,1,320.82,695.67Z"/><path class="cls-2" d="M428.41,708.05l-5.34,0c-57.93-.66-102.09-11.74-103.94-12.21a8.5,8.5,0,0,1,4.19-16.48h0c.44.11,44.36,11.1,100.34,11.7,92.44.93,146.42-26.64,175.43-50,100.06-80.48,75.79-161.41,75.53-162.22a8.5,8.5,0,0,1,16.2-5.15c.31,1,7.45,24.06.75,58-6.08,30.79-25.2,77-81.82,122.59-25.1,20.19-56.11,34.91-92.17,43.75C490.51,704.69,460.53,708.05,428.41,708.05Z"/><path class="cls-2" d="M673.54,458a8.5,8.5,0,0,1-8.25-6.51c-9.76-40.53-31-71.14-63-91-23.82-14.73-44.63-17.6-44.84-17.62A8.5,8.5,0,0,1,559.64,326c1,.13,24.66,3.39,51.56,20,24.76,15.31,57.11,45.33,70.61,101.44a8.5,8.5,0,0,1-6.27,10.25A8.61,8.61,0,0,1,673.54,458Z"/><path class="cls-2" d="M521.6,331.36a8.36,8.36,0,0,1-4-1,8.49,8.49,0,0,1-3.45-11.5c.34-.65,23.65-45.52,2.32-93.33-9.19-20.59-25.4-39.11-48.19-55-25.7-17.95-60-32.75-102-44.07,2.41,15.81,10.34,45.06,36.4,65.52,8.68,6.82,17.52,12.64,26.08,18.27,31,20.41,60.35,39.7,47.71,91a8.5,8.5,0,0,1-16.51-4.08c9.77-39.58-10.25-52.75-40.55-72.68-8.84-5.82-18-11.84-27.23-19.1-43.87-34.45-44-87.93-44-90.19a8.49,8.49,0,0,1,10.53-8.19c92.18,22.67,150.52,60.33,173.39,111.91,24.67,55.65-1.85,105.95-3,108.06A8.48,8.48,0,0,1,521.6,331.36Z"/><path class="cls-2" d="M258.11,582.92a24.43,24.43,0,0,1-19.76-9.71c-8.4-10.62-29-18.5-36.2-20.64a8.5,8.5,0,0,1-4.58-13c17.37-25.19,37.64-39.21,60.23-41.67,33.26-3.62,58.56,19.56,59.62,20.55a8.5,8.5,0,0,1-11.57,12.45c-.26-.24-20.93-18.93-46.35-16.08-14.76,1.65-28.59,10.22-41.24,25.52,1.77.72,3.67,1.54,5.64,2.46,12.66,5.87,22,12.54,27.78,19.83,6.52,8.24,19.95-1.87,20.52-2.31a8.5,8.5,0,0,1,10.4,13.44,49.91,49.91,0,0,1-14.36,7.47A33.73,33.73,0,0,1,258.11,582.92Z"/><path class="cls-2" d="M892.73,659.83c-3.91,0-56.17-.83-90-44-7.26-9.24-13.27-18.39-19.1-27.24-19.93-30.3-33.09-50.32-72.68-40.55a8.5,8.5,0,1,1-4.07-16.5c51.26-12.65,70.54,16.67,91,47.71,5.62,8.55,11.44,17.4,18.26,26.07,20.46,26.06,49.71,34,65.53,36.41-11.32-42-26.13-76.33-44.07-102-15.92-22.8-34.43-39-55-48.2-47.92-21.38-92.88,2.09-93.33,2.33a8.5,8.5,0,0,1-8.06-15c2.11-1.14,52.42-27.67,108.06-3,51.59,22.87,89.24,81.21,111.92,173.39a8.51,8.51,0,0,1-8.19,10.53Z"/><path class="cls-2" d="M463.58,811.92a8.58,8.58,0,0,1-2.83-.48,8.5,8.5,0,0,1-5.32-5.6c-2.16-7.23-10.08-27.83-20.64-36.2-9-7.15-11.89-17.76-8-29.89a50.17,50.17,0,0,1,7.46-14.36,8.5,8.5,0,0,1,13.42,10.43c-.41.55-10.53,14-2.29,20.5,7.29,5.77,14,15.11,19.83,27.77.92,2,1.74,3.87,2.47,5.64,15.34-12.68,23.92-26.57,25.53-41.37,2.79-25.61-15.89-46-16.08-46.2a8.5,8.5,0,0,1,12.44-11.59c1,1.06,24.16,26.37,20.54,59.63-2.46,22.59-16.48,42.85-41.67,60.22A8.5,8.5,0,0,1,463.58,811.92Z"/><path class="cls-2" d="M675.74,398.4a8.5,8.5,0,0,1-7.88-11.68,41.61,41.61,0,0,1,21.47-21.16,185.53,185.53,0,0,0,32.75-18.73c16.8-12.22,26.91-25.05,29.22-37.1,2.25-11.67-2.52-23.2-14.58-35.24-13.05-13-25.66-18.35-38.55-16.28-30,4.81-54.35,48.84-61.11,62.22-14,27.8-32.54,32.94-34.6,33.43l-4-16.53-.16,0c.53-.15,13.07-3.87,23.54-24.6,5.25-10.39,14-25.69,25.61-39.63,15.4-18.4,31.54-29.07,48-31.71,18.4-3,36.31,4.12,53.25,21,16.13,16.1,22.61,33.09,19.27,50.48-7.62,39.62-65.41,65.43-72,68.25a25.44,25.44,0,0,0-12.41,11.89A8.5,8.5,0,0,1,675.74,398.4Z"/><path class="cls-2" d="M555.28,521c2.85-10.63-1.19-25.68-9-33.46l-28-28c-7.78-7.78-22.84-11.81-33.46-9l-38.2,10.23c-10.63,2.85-21.65,13.87-24.5,24.5L412,523.53c-2.84,10.62,1.19,25.68,9,33.46l28,28c7.77,7.77,22.83,11.81,33.46,9l38.2-10.23c10.62-2.85,21.65-13.87,24.49-24.5Z"/><path class="cls-2" d="M474.86,600.34c-10.83,0-22.72-4.35-29.86-11.5l-28-28c-9.19-9.19-13.75-26.22-10.39-38.77l10.24-38.21c3.36-12.55,15.83-25,28.38-28.38l38.2-10.24c12.56-3.36,29.59,1.2,38.78,10.39l28,28c9.19,9.19,13.76,26.22,10.39,38.77h0l-10.23,38.2C547,573.17,534.53,585.63,522,589l-38.2,10.23A34.48,34.48,0,0,1,474.86,600.34Zm17.39-145.15a23,23,0,0,0-5.94.72l-38.2,10.23c-8.66,2.32-18.29,11.95-20.61,20.61L417.27,525c-2.32,8.66,1.2,21.81,7.54,28.15l28,28c6.33,6.34,19.49,9.86,28.14,7.54l38.21-10.24c8.65-2.32,18.28-12,20.6-20.6L550,519.56h0c2.32-8.66-1.21-21.82-7.54-28.15l-28-28C509.45,458.44,500.19,455.19,492.25,455.19Zm63,65.8h0Z"/><path class="cls-2" d="M547.45,465.44a5.48,5.48,0,0,1-3.89-1.62l-18.7-18.7c-12-12-12-23.81-10.46-33.77,1.13-7.17,5.16-19.78,9.43-33.12,1.1-3.44,2.2-6.9,3.25-10.27,2.69-8.57,8.44-13.57,16.63-14.45,6.22-.67,12.73,1.14,18,2.6l2.45.68c12.61,3.34,38.61,13.65,56.07,31.1a5.5,5.5,0,0,1-7.78,7.78c-15.8-15.8-39.56-25.19-51.1-28.25l-2.59-.71c-15.62-4.35-19-2.22-21.15,4.54-1.06,3.39-2.17,6.86-3.28,10.33-3.95,12.36-8,25.15-9,31.48-1.17,7.39-1.56,15.36,7.36,24.28l18.71,18.71a5.51,5.51,0,0,1-3.89,9.39Z"/><path class="cls-2" d="M588.47,494.41c-8,0-16.67-2.34-25.5-11.17l-18.7-18.71a5.5,5.5,0,0,1,7.78-7.78l18.7,18.71c8.93,8.92,16.89,8.53,24.28,7.37,6.34-1,19.13-5.09,31.49-9,3.46-1.11,6.94-2.22,10.32-3.28,6.77-2.12,8.89-5.53,4.54-21.15-.25-.89-.49-1.76-.71-2.58-3.06-11.55-12.45-35.31-28.25-51.11a5.5,5.5,0,1,1,7.78-7.78C637.65,405.35,648,431.35,651.3,444c.21.78.44,1.6.68,2.45,1.46,5.24,3.27,11.76,2.6,18-.88,8.19-5.88,13.94-14.45,16.63-3.37,1.05-6.82,2.16-10.26,3.25-13.35,4.27-26,8.3-33.13,9.43A52.36,52.36,0,0,1,588.47,494.41Z"/><path class="cls-2" d="M521,668.21a5.5,5.5,0,0,1-1.59-10.77c18.41-5.57,36-17,43.54-22.84.53-.42,1.1-.85,1.69-1.3,2.1-1.61,7.56-5.79,8.24-7.81a4.76,4.76,0,0,0-.83-.71l-5.62-4c-6.63-4.79-13.49-9.73-17.23-11.55-4.26-2.07-9.68-4-20.18-.83l-21.59,6.53a5.5,5.5,0,0,1-3.19-10.53l21.59-6.53c13.67-4.13,21.91-1.58,28.18,1.47,4.6,2.23,11.52,7.23,18.85,12.51,1.86,1.34,3.73,2.69,5.56,4,4.47,3.18,5.46,6.83,5.51,9.34.12,7.14-6.94,12.54-12.61,16.88l-1.6,1.24c-8.11,6.33-27.16,18.66-47.13,24.7A5.53,5.53,0,0,1,521,668.21Z"/><path class="cls-2" d="M483.46,675.84c-1.18,0-2.29,0-3.35-.12l-1.74-.13c-6.3-.44-14.14-1-18.39-6.32-1.54-1.94-3.21-5.34-2.4-10.53l.39-2.51c2.25-14.51,4.21-26,7.32-31.23,4.4-7.37,12-12.47,23.86-16.07l14.27-4.31a5.5,5.5,0,1,1,3.18,10.52l-14.27,4.32c-11.95,3.62-15.76,8.11-17.59,11.18-2.26,3.78-4.54,18.49-5.9,27.27l-.39,2.52a3,3,0,0,0,.13,2c1.24,1.55,7.31,2,10.56,2.21l1.82.13c7.75.6,20-1.72,38.44-7.31A5.5,5.5,0,0,1,522.58,668C504.79,673.35,492.48,675.84,483.46,675.84Z"/><path class="cls-2" d="M598.06,612.42a14.36,14.36,0,0,1-5.52-1.06,57.48,57.48,0,0,1-8.14-4c-1.31-.75-2.94-1.69-5.41-3-.2-.1-20.07-11-20.07-23.9,0-8.49,12.31-53.45,13.54-57.45,2.59-8.41,9.41-14.52,18.71-16.75,5.62-1.34,44.71-10.61,49.32-11.54,6.62-1.34,14.94,1.55,20.22,7,4.08,4.24,5.66,9.37,4.45,14.44-.69,3.26-12.2,55.39-48.24,87.49C615.61,604.86,607.05,612.42,598.06,612.42Zm45.76-107.09a5.83,5.83,0,0,0-1.15.11c-4.23.85-42,9.8-48.94,11.46-5.5,1.32-9.32,4.62-10.76,9.28-2.21,7.17-13.05,48.46-13.05,54.22,0,3.22,7.22,10.4,14.3,14.23,2.6,1.4,4.3,2.38,5.66,3.16a46.75,46.75,0,0,0,6.87,3.4c3,1.23,9.31-2.49,12.73-5.65l.09-.08c33.76-30.05,44.74-81.13,44.84-81.65a1.16,1.16,0,0,0,0-.18c.34-1.35-.23-2.8-1.67-4.31A13.69,13.69,0,0,0,643.82,505.33Z"/><path class="cls-2" d="M398,507.34a5.51,5.51,0,0,1-5.27-7.1l6.53-21.59c3.18-10.5,1.24-15.92-.83-20.18-1.82-3.74-6.76-10.6-11.54-17.22-1.36-1.89-2.72-3.78-4-5.63a4.76,4.76,0,0,0-.71-.83c-2,.68-6.2,6.14-7.81,8.24-.45.59-.88,1.16-1.3,1.69-5.86,7.51-17.27,25.13-22.84,43.54a5.5,5.5,0,0,1-10.53-3.18c6-20,18.37-39,24.7-47.13l1.24-1.6c4.3-5.62,9.64-12.61,16.69-12.61h.19c2.51.05,6.16,1,9.34,5.51,1.3,1.83,2.65,3.7,4,5.56,5.29,7.33,10.28,14.25,12.51,18.85,3,6.27,5.61,14.51,1.47,28.18l-6.53,21.59A5.51,5.51,0,0,1,398,507.34Z"/><path class="cls-2" d="M346.28,550.29a12.4,12.4,0,0,1-7.89-2.61c-5.33-4.25-5.88-12.09-6.32-18.39-.05-.59-.09-1.17-.13-1.74-.72-9.27,1.67-22.37,7.75-42.47a5.5,5.5,0,0,1,10.53,3.18c-5.59,18.48-7.92,30.69-7.31,38.44,0,.59.09,1.2.13,1.82.23,3.25.65,9.32,2.21,10.56a3,3,0,0,0,2,.13l2.5-.39c8.79-1.36,23.51-3.64,27.29-5.9,3.07-1.83,7.56-5.64,11.18-17.59l4.32-14.27A5.5,5.5,0,1,1,403,504.24l-4.31,14.27c-3.6,11.88-8.7,19.46-16.08,23.86-5.2,3.11-16.72,5.07-31.23,7.32l-2.5.39A18,18,0,0,1,346.28,550.29Z"/><path class="cls-2" d="M427.26,448.73c-12.91,0-23.8-19.86-23.91-20.06-1.33-2.48-2.27-4.1-3-5.41a57.48,57.48,0,0,1-4-8.14c-4.43-10.71,6.26-22.8,7.72-24.38,32.11-36,84.24-47.55,87.49-48.24,5.07-1.21,10.2.37,14.44,4.45,5.5,5.28,8.39,13.59,7.05,20.22-.93,4.59-10.2,43.7-11.55,49.32-2.23,9.31-8.33,16.12-16.74,18.71C480.71,436.43,435.75,448.73,427.26,448.73Zm66.58-95.48c-.69.14-51.71,11.21-81.64,44.84l-.09.09c-3.15,3.42-6.87,9.76-5.64,12.73a46.75,46.75,0,0,0,3.4,6.87c.78,1.36,1.76,3.06,3.16,5.66,3.9,7.21,11,14.29,14.23,14.29,5.76,0,47.05-10.84,54.22-13,4.66-1.44,8-5.26,9.28-10.76,1.66-6.94,10.61-44.72,11.46-48.94.52-2.58-.91-7.25-3.89-10.11-1.5-1.44-2.95-2-4.3-1.67l-.19,0Zm-1.12-5.39h0Z"/><path class="cls-2" d="M346.27,667.32a5.5,5.5,0,0,1-5.38-4.36c-.51-2.43-12.57-59.53-14.48-72.25-2-13.07,4.67-22.71,18.21-26.43,7.13-2,23.5-5.77,35.44-8.55l3.76-.87c14.42-3.36,27.43,10.18,31.7,14.62.24.26.44.46.59.61L427,581l-7.78,7.78-10.9-10.9-.74-.76C401.68,571,393.2,564,386.32,565.57l-3.77.88c-11.85,2.76-28.09,6.53-35,8.43-10.66,2.94-11,9.51-10.25,14.2,1.86,12.4,14.24,71,14.36,71.6a5.5,5.5,0,0,1-4.24,6.52A5.59,5.59,0,0,1,346.27,667.32Z"/><path class="cls-2" d="M421.72,682a30.52,30.52,0,0,1-4.39-.33c-12.71-1.91-69.82-14-72.24-14.49a5.5,5.5,0,1,1,2.27-10.76c.59.13,59.21,12.51,71.61,14.37,4.69.7,11.26.41,14.19-10.25,1.9-6.92,5.68-23.15,8.43-35l.88-3.77c.88-3.8-.4-10.57-11.53-21.27l-.77-.75-10.89-10.89,7.77-7.78,10.9,10.9.61.59c4.45,4.27,18,17.27,14.63,31.69l-.88,3.78c-2.78,11.94-6.58,28.3-8.54,35.43C440.47,675.4,432.55,682,421.72,682Z"/><circle class="cls-2" cx="689.19" cy="281.44" r="8.15"/><circle class="cls-2" cx="726.77" cy="319.02" r="8.15"/></g></g></svg>