<svg xmlns="http://www.w3.org/2000/svg" viewBox="0 0 1024 1024"><defs><style>.cls-1{fill:#fff;}.cls-2{fill:#4da1d9;}</style></defs><title>Asset 6</title><g id="Layer_2" data-name="Layer 2"><g id="Layer_1-2" data-name="Layer 1"><circle class="cls-1" cx="512" cy="512" r="512"/><path class="cls-2" d="M512,25A487.13,487.13,0,0,1,701.55,960.74,487.13,487.13,0,0,1,322.45,63.26,483.84,483.84,0,0,1,512,25m0-25C229.23,0,0,229.23,0,512s229.23,512,512,512,512-229.23,512-512S794.77,0,512,0Z"/><circle class="cls-2" cx="701.6" cy="318.66" r="8.15"/><circle class="cls-2" cx="770.11" cy="318.66" r="8.15"/><path class="cls-2" d="M825.4,276.61a5.5,5.5,0,0,1-4.84-8.1c18.8-35,13-54.82,7.3-58.95s-19.58,1.64-30.21,9.52a61,61,0,0,0-6.34,5.77c-7,7-15.62,15.65-33.26,9.9-17.24-5.62-44.88-.41-53,2.12s-17.73-1.59-28.71-12.2l-.8-.78c-18.55-18.26-32.24-13.18-37.39-11.26a7.68,7.68,0,0,0-4.67,4.71c-2.38,6-1.27,16.88,3.15,30.73a173.19,173.19,0,0,0,8.15,20.63,5.5,5.5,0,0,1-9.89,4.82c-2-4.11-19.41-40.78-11.62-60.26a18.68,18.68,0,0,1,11.05-10.94c25.39-9.44,43.11,8,48.94,13.73l.72.71c7.43,7.17,14.07,10.77,17.8,9.61,7.13-2.23,38.15-9.09,59.67-2.08,11.23,3.66,15.54-.67,22.08-7.21a68.14,68.14,0,0,1,7.57-6.84c13.45-10,31.86-17.75,43.18-9.61,12.24,8.8,16.2,35.42-4,73.08A5.51,5.51,0,0,1,825.4,276.61Z"/><path class="cls-2" d="M703.94,419.6a5.82,5.82,0,0,1-1.09-.1,111.49,111.49,0,0,1-31.65-12.76c-21.75-12.89-35.44-31.54-39.58-53.93-9.84-53.08,33.89-96.64,35.75-98.47a5.5,5.5,0,0,1,7.7,7.86h0c-.41.41-41.4,41.35-32.64,88.61,8.61,46.46,62.05,57.79,62.58,57.9a5.5,5.5,0,0,1-1.07,10.89Z"/><path class="cls-2" d="M761.29,419.6a5.5,5.5,0,0,1-1.07-10.89c.53-.11,54-11.44,62.58-57.9,8.76-47.26-32.23-88.2-32.64-88.61a5.5,5.5,0,0,1,7.7-7.86c1.86,1.83,45.59,45.39,35.75,98.47-4.14,22.39-17.83,41-39.58,53.93a111.49,111.49,0,0,1-31.65,12.76A5.82,5.82,0,0,1,761.29,419.6Z"/><path class="cls-2" d="M737.05,377.18c-9.89,0-21.38-8.61-21.38-19.72,0-6.2,3.71-13.58,21.38-13.58s21.37,7.38,21.37,13.58C758.42,368.57,746.93,377.18,737.05,377.18Zm0-22.3c-6.21,0-10.38,1-10.38,2.58,0,3.37,4.75,8.72,10.38,8.72s10.37-5.35,10.37-8.72C747.42,355.92,743.25,354.88,737.05,354.88Z"/><path class="cls-2" d="M711,402.6a25.06,25.06,0,0,1-12.76-3.71C690,394,685,387.74,683.38,380.16c-2.56-12,4.71-22.39,5-22.82a5.5,5.5,0,0,1,9,6.38s-4.79,7-3.21,14.22c1,4.4,4.22,8.26,9.67,11.47,3.85,2.26,7.4,2.77,10.84,1.55,8.79-3.11,15.42-16.36,17.24-21.21a5.5,5.5,0,1,1,10.3,3.86,70.39,70.39,0,0,1-5.86,11.5c-5.31,8.41-11.37,13.87-18,16.22A21.73,21.73,0,0,1,711,402.6Z"/><path class="cls-2" d="M763.07,402.6a21.83,21.83,0,0,1-7.33-1.27c-6.63-2.35-12.69-7.81-18-16.22a70.79,70.79,0,0,1-5.85-11.5,5.5,5.5,0,0,1,10.3-3.87h0c1.84,4.86,8.51,18.15,17.25,21.23,3.44,1.21,7,.7,10.82-1.56,5.49-3.23,8.75-7.11,9.69-11.54,1.54-7.2-3.18-14.09-3.23-14.15a5.5,5.5,0,1,1,9-6.38c.32.43,7.59,10.83,5,22.82-1.62,7.58-6.62,13.88-14.87,18.73A25.06,25.06,0,0,1,763.07,402.6Z"/><path class="cls-2" d="M273.87,819.52c-18,0-38.1-3.93-60.19-13.92-35.2-15.93-51.37-52.44-48.06-108.53,2.69-45.61,17.1-95.35,28.69-135.32,3.27-11.29,6.36-22,8.66-30.85,18.08-69.75,22.93-88.49,125.28-217.52s215.86-61.67,253.15-39.54l3.23,1.91c25.79,15.18,34.67,3.16,35,2.64l-.11.18,14.4,9a29.06,29.06,0,0,1-15,11c-12.22,4.14-26.68,1.38-43-8.2l-3.28-2c-18.54-11-53-31.47-94.71-34.58-50.65-3.78-96.58,19.79-136.45,70.07C241.46,450.15,237.23,466.47,219.43,535.16c-2.37,9.14-5.49,19.91-8.8,31.32-11.34,39.15-25.46,87.88-28,131.59-2.89,49,9.57,79.13,38.1,92,33.4,15.11,65.23,16.4,94.6,3.85,22.69-9.71,38-25.17,45.06-33.53,14-16.55,5.79-38-1.53-45.35-8.09-8.1-34.92-13.31-57.35,5.58a8.53,8.53,0,0,1-.83.62c-5.91,3.84-11.72,8.21-17.33,12.44-15.1,11.36-29.37,22.09-44.51,22.09a8.5,8.5,0,1,1,0-17c9.46,0,21.52-9.07,34.29-18.68,5.71-4.29,11.61-8.73,17.84-12.82,29.61-24.59,66-18.18,79.92-4.26,13.71,13.72,22.2,45.11,2.46,68.38C361.87,784.92,327.25,819.51,273.87,819.52Z"/><path class="cls-2" d="M524.12,750.49H468.26c-62.35,0-134.94-96.32-147.86-120.94-3.12-5.93-7.14-8.16-12-6.62-8.06,2.55-18.13,15.87-15.3,37.48,3.09,23.54,1.23,37.52-5.83,44a12.73,12.73,0,0,1-11.09,3.32,8.5,8.5,0,0,1-.1-16.58c.89-2.21,2.67-9.42.17-28.52-1.74-13.22.14-25.7,5.43-36.09,5-9.83,12.86-17,21.59-19.81,12.86-4.08,25.19,1.64,32.16,14.93,6.42,12.24,27.07,40.82,52.87,66,30.2,29.53,58.59,45.8,79.94,45.8h53a15.56,15.56,0,0,0-1.53-8.78c-2.39-5.06-8.15-11.52-22.09-13.55-32.24-4.69-52.85-13.36-61.25-25.78a25.22,25.22,0,0,1-3.66-20.54c2.26-9.33,13.26-14.61,29.91-22.6,17.25-8.27,38.72-18.58,53.25-34.93,16.43-18.49,20.17-41,11.44-69-11.66-37.25-33.4-60.14-64.62-68a101.35,101.35,0,0,0-44.86-.77,8.5,8.5,0,0,1-4.27-16.45,116.76,116.76,0,0,1,52.55.55c25.94,6.36,60.43,25.34,77.42,79.62,10.52,33.62,5.49,62.32-14.95,85.33-16.8,18.91-41,30.51-58.61,39-7.92,3.8-18.7,9-20.83,11.7a8.09,8.09,0,0,0,1.31,6.58c2.54,3.76,12.47,13.08,49.61,18.49,27.94,4.06,39.4,23.32,38.23,39.49C537.58,743.79,531.88,750.49,524.12,750.49ZM279.87,691.12h0Z"/><path class="cls-2" d="M717.7,751.08c-8.14,0-17-.15-25.28-.61-31.16-1.71-59.19-44.75-73.13-70.25-16.44-30.09-61.23-81.78-61.68-82.3a8.5,8.5,0,1,1,12.83-11.15c1.89,2.17,46.44,53.6,63.77,85.3,20.53,37.55,42.64,60.52,59.14,61.43,23.42,1.29,52.9,0,53.2,0h.37c.65,0,1.44-.77,1.85-1.23,2.71-3,4.53-9.3,4.24-14.39-2.82-1.08-12.43-1.52-29.66,3.07A8.5,8.5,0,1,1,719,704.51c21.39-5.7,36.27-5.83,44.23-.37a15.12,15.12,0,0,1,6.63,11c1.1,10-2.36,21.73-8.41,28.48a19.27,19.27,0,0,1-14.29,6.88C745.4,750.56,732.79,751.08,717.7,751.08Z"/><path class="cls-2" d="M712.68,699.94a8.49,8.49,0,0,1-6.27-2.76c-1.25-1.37-30.59-34-26.7-76.91,2.56-28.17,18.7-53.72,48-75.93,83.24-63.16,82.58-137.29,82.57-138a8.5,8.5,0,1,1,17-.38c0,.87.35,21.6-10.63,50.74-10,26.53-31.76,65.63-78.66,101.21-25.25,19.16-39.15,40.62-41.3,63.78C693.37,657,718.71,685.44,719,685.72a8.51,8.51,0,0,1-6.29,14.22Z"/><path class="cls-2" d="M625.07,749.51c-4,0-8.43-.44-13.14-.89-2.23-.22-4.33-.42-6.23-.56-11.59-.81-25.81-7.64-27.72-35.63-1.35-19.9,8.21-80,8.62-82.52a5.5,5.5,0,0,1,10.86,1.74c-.1.61-9.78,61.37-8.5,80,1.48,21.79,10.7,24.94,17.51,25.41,2,.14,4.22.36,6.52.58,4.29.41,11.59,1.12,15.34.69-.22-.34-.51-.73-.86-1.19-2.32-3-4.73-5.78-7.06-8.51-9.31-10.9-18.1-21.19-11.47-31.91a5.5,5.5,0,0,1,9.36,5.79c-2.25,3.63,2.46,9.59,10.47,19,2.41,2.82,4.9,5.74,7.36,8.89,1.53,2,6.17,7.9,3,13.58C636.81,748.3,631.67,749.51,625.07,749.51Z"/><path class="cls-2" d="M704.88,299.53a5.52,5.52,0,0,1-4.61-2.49c-8.88-13.59-10.17-34-3.07-48.61,4-8.26,1.29-11.66,1.26-11.69a5.5,5.5,0,0,1,7.36-8.18c3.43,3.09,7.56,11.76,1.27,24.68-5.43,11.15-4.4,27.39,2.39,37.78a5.5,5.5,0,0,1-4.6,8.51Z"/><path class="cls-2" d="M727,290.28a5.48,5.48,0,0,1-4.35-2.13c-7.22-9.32-10.73-36.92-5.87-46.15,2.06-3.9.51-10.06-.27-12.11a5.5,5.5,0,0,1,10.27-4c.47,1.23,4.49,12.2-.27,21.2-2.37,4.5-.35,27.6,4.83,34.28a5.49,5.49,0,0,1-4.34,8.87Z"/><path class="cls-2" d="M767.34,299.53a5.5,5.5,0,0,1-4.6-8.51c6.79-10.39,7.82-26.63,2.4-37.78-6.29-12.92-2.17-21.59,1.26-24.68l7.36,8.18a1.15,1.15,0,0,0,.18-.18c-.12.14-3,3.48,1.09,11.87,7.09,14.58,5.8,35-3.08,48.61A5.49,5.49,0,0,1,767.34,299.53Z"/><path class="cls-2" d="M745.21,290.28a5.5,5.5,0,0,1-4.34-8.87c5.18-6.69,7.2-29.78,4.83-34.28-4.75-9-.74-20-.27-21.19a5.5,5.5,0,0,1,10.27,3.95c-.78,2.05-2.33,8.21-.27,12.11,4.86,9.23,1.36,36.83-5.86,46.15A5.5,5.5,0,0,1,745.21,290.28Z"/><path class="cls-2" d="M553.35,335.11c0,5.67-3.46,9.91-7.18,13.63s-8,6.14-13.63,6.14a19,19,0,0,1-14-5.78c-3.72-3.72-8.09-8.32-8.09-14s4.43-10.21,8.15-13.93,8.26-6.43,13.93-6.43a20.28,20.28,0,0,1,14.5,5.86A20.68,20.68,0,0,1,553.35,335.11Z"/><path class="cls-2" d="M532.54,360.38A24.47,24.47,0,0,1,514.66,353c-3.63-3.63-9.7-9.7-9.7-17.88s5.87-13.93,9.76-17.82c5.33-5.33,11.33-8,17.82-8a25.77,25.77,0,0,1,18.39,7.47,26,26,0,0,1,7.91,18.39c0,7.7-4.44,13.18-8.78,17.52C544.85,357.84,539.12,360.38,532.54,360.38Zm0-40.13c-3.57,0-6.76,1.53-10,4.82-2.92,2.91-6.54,6.54-6.54,10,0,3.34,3.2,6.82,6.48,10.1a13.47,13.47,0,0,0,10.1,4.17c3.66,0,6.57-1.36,9.74-4.53,3.34-3.34,5.56-6.27,5.56-9.74a15.1,15.1,0,0,0-4.69-10.61A14.85,14.85,0,0,0,532.54,320.25Z"/><path class="cls-2" d="M427.25,326.81c0,5.67-3.46,9.91-7.18,13.63s-8,6.14-13.63,6.14a19,19,0,0,1-14-5.78c-3.71-3.71-8.09-8.32-8.09-14s4.43-10.21,8.15-13.93,8.26-6.43,13.93-6.43a20.27,20.27,0,0,1,14.5,5.86A20.68,20.68,0,0,1,427.25,326.81Z"/><path class="cls-2" d="M406.44,352.08a24.47,24.47,0,0,1-17.88-7.39c-3.62-3.63-9.7-9.7-9.7-17.88s5.87-13.93,9.76-17.82c5.34-5.33,11.33-8,17.82-8a26.27,26.27,0,0,1,26.31,25.86c0,7.7-4.44,13.18-8.79,17.52C418.75,349.54,413,352.08,406.44,352.08Zm0-40.13c-3.56,0-6.75,1.53-10,4.82-2.91,2.91-6.54,6.54-6.54,10,0,3.34,3.2,6.82,6.48,10.1a13.44,13.44,0,0,0,10.1,4.17c3.66,0,6.57-1.36,9.74-4.53,3.34-3.34,5.57-6.27,5.57-9.74a15.11,15.11,0,0,0-4.7-10.61A14.85,14.85,0,0,0,406.44,312Z"/><path class="cls-2" d="M489,360.53c0,5.67-3.46,9.91-7.18,13.63s-8,6.13-13.63,6.13a19.07,19.07,0,0,1-14-5.77c-3.71-3.72-8.09-8.32-8.09-14s4.43-10.22,8.15-13.94,8.26-6.42,13.93-6.42a20.27,20.27,0,0,1,14.5,5.86A20.66,20.66,0,0,1,489,360.53Z"/><path class="cls-2" d="M468.14,385.79a24.46,24.46,0,0,1-17.88-7.38c-3.63-3.63-9.7-9.71-9.7-17.88s5.87-13.94,9.76-17.82c5.33-5.34,11.33-8,17.82-8a26.27,26.27,0,0,1,26.31,25.86c0,7.69-4.44,13.17-8.79,17.52C480.45,383.26,474.72,385.79,468.14,385.79Zm0-40.12c-3.56,0-6.76,1.53-10,4.81-2.91,2.92-6.54,6.54-6.54,10,0,3.34,3.2,6.82,6.48,10.1a13.46,13.46,0,0,0,10.1,4.16c3.66,0,6.57-1.35,9.74-4.52,3.34-3.34,5.57-6.28,5.57-9.74a15.07,15.07,0,0,0-4.7-10.61A14.85,14.85,0,0,0,468.14,345.67Z"/><path class="cls-2" d="M427.36,397.11c0,5.68-3.46,9.92-7.17,13.63s-8,6.14-13.63,6.14a19,19,0,0,1-14-5.78c-3.72-3.71-8.09-8.31-8.09-14s4.43-10.21,8.15-13.93,8.26-6.43,13.93-6.43a20.32,20.32,0,0,1,14.5,5.86A20.67,20.67,0,0,1,427.36,397.11Z"/><path class="cls-2" d="M406.56,422.38A24.47,24.47,0,0,1,388.68,415c-3.63-3.63-9.7-9.7-9.7-17.88s5.87-13.93,9.76-17.82c5.33-5.33,11.33-8,17.82-8a26.26,26.26,0,0,1,26.3,25.86c0,7.7-4.44,13.18-8.78,17.52C418.86,419.85,413.13,422.38,406.56,422.38Zm0-40.13c-3.57,0-6.76,1.53-10.05,4.82-2.91,2.91-6.53,6.54-6.53,10,0,3.35,3.2,6.83,6.48,10.1a13.44,13.44,0,0,0,10.1,4.17c3.65,0,6.57-1.35,9.74-4.53,3.34-3.34,5.56-6.27,5.56-9.74a15.1,15.1,0,0,0-4.69-10.61A14.85,14.85,0,0,0,406.56,382.25Z"/><path class="cls-2" d="M365.78,434.64c0,5.67-3.46,9.91-7.18,13.63s-8,6.14-13.63,6.14a19,19,0,0,1-14-5.78c-3.71-3.71-8.09-8.32-8.09-14s4.43-10.21,8.15-13.93,8.26-6.43,13.93-6.43a20.29,20.29,0,0,1,14.51,5.86A20.71,20.71,0,0,1,365.78,434.64Z"/><path class="cls-2" d="M345,459.91a24.45,24.45,0,0,1-17.87-7.39c-3.63-3.63-9.71-9.7-9.71-17.88s5.88-13.93,9.76-17.82c5.34-5.33,11.33-8,17.82-8a25.73,25.73,0,0,1,18.39,7.47,26,26,0,0,1,7.92,18.39c0,7.7-4.44,13.18-8.79,17.52C357.28,457.37,351.55,459.91,345,459.91Zm0-40.13c-3.56,0-6.75,1.53-10,4.82-2.91,2.91-6.54,6.54-6.54,10,0,3.34,3.21,6.82,6.48,10.1a13.49,13.49,0,0,0,10.1,4.17c3.66,0,6.57-1.36,9.74-4.53,3.35-3.34,5.57-6.27,5.57-9.74A15.14,15.14,0,0,0,355.59,424,14.86,14.86,0,0,0,345,419.78Z"/><path class="cls-2" d="M365.78,371.68c0,5.67-3.46,9.91-7.18,13.63s-8,6.13-13.63,6.13a19,19,0,0,1-14-5.77c-3.71-3.72-8.09-8.32-8.09-14s4.43-10.22,8.15-13.93,8.26-6.43,13.93-6.43a20.29,20.29,0,0,1,14.51,5.86A20.71,20.71,0,0,1,365.78,371.68Z"/><path class="cls-2" d="M345,396.94a24.44,24.44,0,0,1-17.87-7.38c-3.63-3.63-9.71-9.7-9.71-17.88s5.88-13.94,9.76-17.82c5.34-5.34,11.33-8,17.82-8a26.27,26.27,0,0,1,26.31,25.86c0,7.69-4.44,13.17-8.79,17.52C357.28,394.41,351.55,396.94,345,396.94Zm0-40.12c-3.56,0-6.75,1.53-10,4.82-2.91,2.91-6.54,6.53-6.54,10,0,3.34,3.21,6.82,6.48,10.1a13.48,13.48,0,0,0,10.1,4.16c3.66,0,6.57-1.35,9.74-4.52,3.35-3.34,5.57-6.28,5.57-9.74a15.1,15.1,0,0,0-4.69-10.61A14.86,14.86,0,0,0,345,356.82Z"/><path class="cls-2" d="M489,294c0,5.67-3.46,9.91-7.18,13.63s-8,6.14-13.63,6.14a19,19,0,0,1-14-5.78c-3.71-3.72-8.09-8.32-8.09-14s4.43-10.21,8.15-13.93,8.26-6.43,13.93-6.43a20.27,20.27,0,0,1,14.5,5.86A20.68,20.68,0,0,1,489,294Z"/><path class="cls-2" d="M468.14,319.3a24.47,24.47,0,0,1-17.88-7.39c-3.63-3.63-9.7-9.7-9.7-17.88s5.87-13.93,9.76-17.82c5.33-5.33,11.33-8,17.82-8A26.27,26.27,0,0,1,494.45,294c0,7.7-4.44,13.17-8.79,17.52C480.45,316.76,474.72,319.3,468.14,319.3Zm0-40.13c-3.56,0-6.76,1.53-10,4.82-2.91,2.91-6.54,6.53-6.54,10,0,3.34,3.2,6.82,6.48,10.1a13.47,13.47,0,0,0,10.1,4.17c3.66,0,6.57-1.36,9.74-4.53,3.34-3.34,5.57-6.27,5.57-9.74a15.11,15.11,0,0,0-4.7-10.61A14.85,14.85,0,0,0,468.14,279.17Z"/></g></g></svg>