<svg xmlns="http://www.w3.org/2000/svg" viewBox="0 0 1024 1024"><defs><style>.cls-1{fill:#fff;}.cls-2{fill:#ed2224;}</style></defs><title>Asset 11</title><g id="Layer_2" data-name="Layer 2"><g id="Layer_1-2" data-name="Layer 1"><circle class="cls-1" cx="512" cy="512" r="512"/><path class="cls-2" d="M512,25A487.13,487.13,0,0,1,701.55,960.74,487.13,487.13,0,0,1,322.45,63.26,483.84,483.84,0,0,1,512,25m0-25C229.23,0,0,229.23,0,512s229.23,512,512,512,512-229.23,512-512S794.77,0,512,0Z"/><path class="cls-2" d="M294.9,865.36H271.8l-4.2,11.7c-1.35,3.82-4.05,3.82-5,3.82-3.15,0-5.55-1.87-5.55-5.1a6.3,6.3,0,0,1,.45-2.4l18.45-48.14c.75-1.88,2.78-6.15,7.13-6.15,3,0,5.92,1.35,7.72,6.15l18.38,48.14a6.18,6.18,0,0,1,.52,2.18c0,.52-.15,5.4-5.85,5.4-2.77,0-4.12-2-4.8-3.9Zm-19.58-10.05h16.05l-8-23Z"/><path class="cls-2" d="M314.88,868.88a4.37,4.37,0,0,1,4.73-4.57c1.5,0,2.32.15,4.95,2.85,2.32,2.47,5,4.57,10.72,4.57,5.18,0,6.08-3.67,6.08-5,0-3.6-3.75-4.27-7.73-5-12-2.33-16.72-7-16.72-13.58,0-7,5.92-13.57,16.95-13.57,7.5,0,16.87,3.3,16.87,8.63a4.58,4.58,0,0,1-4.65,4.64c-1.2,0-2-.15-4.57-1.8s-4.43-2.54-7.5-2.54c-2.1,0-6.9.67-6.9,4.19,0,2,1.65,3.15,4.57,3.9,12,3.23,13.28,3.53,16,5.78,3.52,2.92,3.9,7.12,3.9,9.22,0,6.9-4.95,14.25-17.7,14.25C322.83,880.88,314.88,874,314.88,868.88Z"/><path class="cls-2" d="M372,825.09a6,6,0,1,1-6.07-6A6,6,0,0,1,372,825.09ZM370.77,876a4.79,4.79,0,0,1-4.95,4.87c-3,0-4.58-2.85-4.58-4.87V839.56a4.79,4.79,0,0,1,4.88-4.95c3.07,0,4.65,2.85,4.65,4.95Z"/><path class="cls-2" d="M419.15,867.38a15.14,15.14,0,0,0,1.35,6.15,10.08,10.08,0,0,1,.75,3.23c0,2-1.8,4.12-4.88,4.12-3.82,0-4.5-2.85-4.95-5a21.36,21.36,0,0,1-14.4,5c-10.87,0-16.87-6.83-16.87-15.23,0-6.6,4.05-15.67,20.77-15.67a25.59,25.59,0,0,1,8.7,1.35c-.07-2.18-.22-7.58-9.52-7.58a13.11,13.11,0,0,0-7.2,1.8c-4,2.33-4.5,2.55-5.63,2.55a5,5,0,0,1-4.72-5.1c0-5,8.32-8.47,18-8.47,18.6,0,18.6,13.27,18.6,19.27Zm-9.53-5.7c0-1.27-3.52-2.4-8.77-2.4-2.63,0-10.88,0-10.88,6.53,0,4.27,3.68,5.7,8.55,5.7,7.13,0,11.1-4.73,11.1-6.9Z"/><path class="cls-2" d="M429.34,844.88a4.47,4.47,0,0,1,0-8.92h3.53v-8.17a4.6,4.6,0,0,1,4.8-4.65,4.51,4.51,0,0,1,4.57,4.57V836h8.85a4.47,4.47,0,0,1,0,8.92h-8.85v23.18c0,.9.23,2.32,1.5,2.32,1.05,0,1.88-.82,2.93-3.07,1.57-3.38,3-4,4.57-4a4.8,4.8,0,0,1,4.72,4.87c0,3.23-4.12,12.75-13,12.75-9.82,0-10.12-9.22-10.12-12.45V844.88Z"/><path class="cls-2" d="M474.82,825.09a6,6,0,1,1-6.08-6A6,6,0,0,1,474.82,825.09ZM473.54,876a4.79,4.79,0,0,1-5,4.87c-3,0-4.57-2.85-4.57-4.87V839.56a4.79,4.79,0,0,1,4.87-4.95c3.08,0,4.65,2.85,4.65,4.95Z"/><path class="cls-2" d="M518.06,846.68a4.79,4.79,0,0,1-4.95,5.1c-1.57,0-2.55-.22-4.8-3.37-2-2.85-3.75-3.9-6.75-3.9-6.45,0-8.55,7.72-8.55,13.27,0,5.93,2.63,13.2,9.3,13.2,2.25,0,4.05-.3,6.68-3.75,1.65-2.25,2.85-3,4.72-3a4.5,4.5,0,0,1,4.73,4.8c0,3.3-6.15,11.93-16.35,11.93-9.9,0-19-8.18-19-23.33,0-8.55,3.23-23,19.43-23C509.21,834.61,518.06,840.16,518.06,846.68Z"/><path class="cls-2" d="M564.41,879.53c-6,0-8-3.52-8-9.37v-41c0-4.65,2.32-8.7,7.87-8.7h21c11,0,17.25,6.75,17.25,15.67a14.39,14.39,0,0,1-6.22,12.3c5.17,2.85,7.65,7.65,7.65,13.57,0,10.43-7.5,17.55-17.55,17.55ZM585.34,844a6.76,6.76,0,0,0,6.75-6.91c0-4.19-3.6-6.22-6.83-6.22H568.54c-1.35,0-1.73,1.13-1.73,2.25V844Zm-18.53,23a2.11,2.11,0,0,0,2.18,2.1h15c4.42,0,9.3-2,9.3-7.58a7.45,7.45,0,0,0-7-7.5H566.81Z"/><path class="cls-2" d="M614.27,824.11a4.92,4.92,0,0,1,4.73-5,4.81,4.81,0,0,1,4.87,4.87v52c0,1.8-1.42,4.87-4.57,4.87a5,5,0,0,1-5-5Z"/><path class="cls-2" d="M672.39,867.38a15.31,15.31,0,0,0,1.35,6.15,9.81,9.81,0,0,1,.75,3.23c0,2-1.8,4.12-4.87,4.12-3.83,0-4.5-2.85-5-5a21.38,21.38,0,0,1-14.4,5c-10.87,0-16.87-6.83-16.87-15.23,0-6.6,4.05-15.67,20.77-15.67a25.59,25.59,0,0,1,8.7,1.35c-.08-2.18-.23-7.58-9.53-7.58a13.05,13.05,0,0,0-7.19,1.8c-4,2.33-4.5,2.55-5.63,2.55a5,5,0,0,1-4.72-5.1c0-5,8.32-8.47,18-8.47,18.6,0,18.6,13.27,18.6,19.27Zm-9.52-5.7c0-1.27-3.53-2.4-8.78-2.4-2.62,0-10.87,0-10.87,6.53,0,4.27,3.68,5.7,8.55,5.7,7.12,0,11.1-4.73,11.1-6.9Z"/><path class="cls-2" d="M715.81,846.68a4.79,4.79,0,0,1-4.95,5.1c-1.57,0-2.55-.22-4.8-3.37-2-2.85-3.75-3.9-6.75-3.9-6.45,0-8.55,7.72-8.55,13.27,0,5.93,2.63,13.2,9.3,13.2,2.25,0,4.05-.3,6.68-3.75,1.65-2.25,2.85-3,4.72-3a4.5,4.5,0,0,1,4.73,4.8c0,3.3-6.15,11.93-16.35,11.93-9.9,0-19-8.18-19-23.33,0-8.55,3.23-23,19.43-23C707,834.61,715.81,840.16,715.81,846.68Z"/><path class="cls-2" d="M755.44,835.81a5,5,0,0,1,3.38-1.2c2.77,0,5.17,2,5.17,4.5a4.37,4.37,0,0,1-1.5,3.75l-13,11.17c2.77.6,4.5,3.3,4.8,3.83l9.9,15.52a5.55,5.55,0,0,1,.82,2.78,4.86,4.86,0,0,1-4.65,4.8c-2.77,0-3.75-1.65-4.87-3.45L747.19,864c-1.57-2.55-2.85-3.38-5.1-3.3l-7.57,6.52v9a4.59,4.59,0,0,1-4.88,4.65,4.67,4.67,0,0,1-4.72-4.8V823.89a4.81,4.81,0,0,1,5-4.8,4.59,4.59,0,0,1,4.65,4.65v30.52Z"/><path class="cls-2" d="M432.6,964.53c-6,0-8-3.52-8-9.37v-41c0-4.65,2.32-8.7,7.87-8.7h21c10.95,0,17.25,6.75,17.25,15.67a14.39,14.39,0,0,1-6.22,12.3c5.17,2.85,7.65,7.65,7.65,13.57,0,10.43-7.5,17.55-17.55,17.55ZM453.53,929a6.76,6.76,0,0,0,6.75-6.91c0-4.19-3.6-6.22-6.83-6.22H436.73c-1.35,0-1.73,1.13-1.73,2.25V929ZM435,952a2.11,2.11,0,0,0,2.18,2.1h15c4.42,0,9.3-2,9.3-7.58a7.45,7.45,0,0,0-7.05-7.5H435Z"/><path class="cls-2" d="M489.47,946.31c.23,2.55,1,10.27,9,10.27,2.48,0,4.2-.67,6.53-4.05,1.8-2.62,2.85-3.22,4.95-3.22,2.62,0,4.27,2.47,4.27,5,0,5.55-6.82,11.62-16.05,11.62-6.52,0-18.75-3.45-18.75-22.42,0-17.55,9.68-23.85,18.15-23.85,9.45,0,17.18,7.65,17.18,18.3,0,5.4-1.43,8.4-5.48,8.4Zm13.58-8.85c1.57,0,1.95-.38,1.95-1,0-2.32-1.88-7.57-7.35-7.57-6.38,0-7.65,6.82-7.95,8.55Z"/><path class="cls-2" d="M560.39,952.38a15.31,15.31,0,0,0,1.35,6.15,9.81,9.81,0,0,1,.75,3.23c0,2-1.8,4.12-4.87,4.12-3.83,0-4.5-2.85-5-5a21.38,21.38,0,0,1-14.4,5c-10.88,0-16.88-6.83-16.88-15.23,0-6.6,4.05-15.67,20.78-15.67a25.59,25.59,0,0,1,8.7,1.35c-.08-2.18-.23-7.58-9.53-7.58a13.11,13.11,0,0,0-7.2,1.8c-4,2.33-4.5,2.55-5.62,2.55a5,5,0,0,1-4.73-5.1c0-5,8.33-8.47,18-8.47,18.6,0,18.6,13.27,18.6,19.27Zm-9.52-5.7c0-1.27-3.53-2.4-8.78-2.4-2.62,0-10.87,0-10.87,6.53,0,4.27,3.67,5.7,8.55,5.7,7.12,0,11.1-4.73,11.1-6.9Z"/><path class="cls-2" d="M581.21,961.53c0,2.93-2.47,4.35-4.72,4.35a4.5,4.5,0,0,1-4.88-4.5V924.11a4.5,4.5,0,0,1,4.8-4.5c.68,0,4.8,0,4.8,4.95v2.32c4.43-7.27,10.65-7.27,12.23-7.27,3.6,0,8.7,1.65,8.7,5.93a4.22,4.22,0,0,1-4.35,4.5c-.83,0-4.13-.61-4.8-.61-5.25,0-11.78,11.18-11.78,13.13Z"/><path class="cls-2" d="M249.48,486.52S312,454.16,307.56,394.3C307.56,394.3,352.79,498.49,249.48,486.52Z"/><path class="cls-2" d="M265,490a139.11,139.11,0,0,1-15.79-1,2.5,2.5,0,0,1-.86-4.71A132.16,132.16,0,0,0,278.49,461c19.42-20.11,28.36-42.49,26.58-66.53a2.5,2.5,0,0,1,4.78-1.18,141.37,141.37,0,0,1,8.31,28.44c3.82,21.13,1.3,38.43-7.29,50C301.87,483.87,286.47,490,265,490Zm-7.59-5.25c23.85,1.52,40.46-3.84,49.46-16,12.69-17.1,7.71-44.18,3-60.26-2.06,20-11.53,39.19-27.88,56.08A140.83,140.83,0,0,1,257.39,484.73Z"/><circle class="cls-2" cx="193.67" cy="417.91" r="8.15"/><path class="cls-2" d="M195.49,503.48c-14.08,0-28.85-.94-37.7-4.19-18.64-6.84-31.24-14.32-37.45-22.23l-.78-1C111.18,465.53,103,453.45,106,443.71c1-3.16,3.57-7.35,10.36-9.44,3.23-1,6.51-1.93,9.67-2.83,9.46-2.7,23.74-6.76,24.76-10.61,6-22.85,18.11-36.42,34.08-38.2,22.46-2.51,26.15-4.79,28-11.88.59-2.25,1.12-4.72,1.69-7.34,2.65-12.2,5.65-26,16.3-28.15,5.46-1.1,11.67,1.31,19,7.35a76.91,76.91,0,0,1,8.44,8.2A5.5,5.5,0,1,1,250,358c-6.63-7.7-14.24-12.46-16.92-11.93-3.59.72-6.27,13.07-7.71,19.7-.56,2.61-1.15,5.31-1.79,7.77-4.23,16.34-18.88,18-37.41,20.05-15,1.67-21.9,19.56-24.67,30.07-2.6,9.91-16.4,13.84-32.37,18.39-3.12.88-6.33,1.8-9.46,2.76-2.66.82-3,1.84-3.08,2.18-.78,2.51.6,8.41,11.62,22.27l.82,1c3.39,4.31,11.8,11.06,32.6,18.7,15,5.52,55.52,3.2,69.85,1.83a5.5,5.5,0,1,1,1,10.95C231.23,501.87,214,503.48,195.49,503.48Z"/><path class="cls-2" d="M770,760a107.55,107.55,0,0,1-18.39-1.48c-12.14-2.15-18.79-6.28-20.32-12.63-.94-3.85-.62-11.06,12-16.1,5.3-2.12,8.19-8.35,9.69-13.2,4-12.92,2.06-28.23-.94-32.69-7.77-11.52-36.51-41.81-54.58-45.73-4.13-.9-11.41-1.3-19.83-1.77-32-1.77-85.54-4.74-114.55-41.88a8.5,8.5,0,1,1,13.39-10.46c24.27,31.06,71.11,33.65,102.1,35.37,9.52.52,17.05.94,22.49,2.12,26.23,5.7,58.33,42.85,65.07,52.85s8.06,31.06,3.09,47.19c-2.78,9-7.31,16-13.26,20.42a101.59,101.59,0,0,0,24.27.51c29.19-2.78,53.33-12.34,60.05-23.78a82,82,0,0,1,6.56-9.11c4.73-6,9.21-11.6,9.3-18.94.12-9.32-6.67-21.57-20.2-36.41-11-12.1-16.57-18.17-19-24.68-2.9-7.81-.78-14.06,2.44-23.52,5.53-16.28,17-50.16,19.67-140,1-33.66-8.77-59.69-29.8-79.57-25.45-24-67.65-38.48-125.46-42.9-49-3.75-97.34.39-129.32,3.13-18.63,1.6-27.81,2.33-32.76,1.58-13.12-2-23-8.42-32.6-14.63-12-7.77-22.36-14.49-38.61-13.19-19.83,1.59-26.62,5.83-43,16.08-8.81,5.49-19.76,12.33-36.19,20.89-42.3,22-75,19.29-90.7,18-2.38-.2-4.43-.38-5.67-.38a8.5,8.5,0,0,1,0-17c2,0,4.23.2,7.1.44,14.12,1.19,43.49,3.66,81.41-16.1,15.85-8.26,26.49-14.9,35-20.24,17.24-10.76,26.73-16.69,50.69-18.61,22-1.76,36.45,7.61,49.2,15.88,8.45,5.47,16.42,10.64,25.91,12.08,3.18.48,15.6-.58,28.75-1.71,65.78-5.63,202.64-17.35,267.91,44.36,24.42,23.08,36.24,54.17,35.12,92.41-2.7,92.4-14.77,127.92-20.57,145-2.7,8-3.31,10.19-2.6,12.11,1.28,3.43,6.68,9.35,15.63,19.17,17,18.64,24.82,33.92,24.64,48.08-.17,13.14-7.27,22.1-13,29.29a67.36,67.36,0,0,0-5.22,7.15c-5.4,9.19-15.69,16.79-30.58,22.58-12.2,4.73-26.9,8-42.52,9.51C777.9,759.82,773.91,760,770,760Zm-23.39-12.92Z"/><path class="cls-2" d="M454.81,767.58c-6.85,0-13.09-.61-17.65-1.05-1.93-.19-3.93-.39-4.68-.39-1.15,0-3.2.05-5.78.11-46.39,1.08-65.31-1.28-72.34-9a15.71,15.71,0,0,1-3.68-13.78c2.7-14.42,23.08-30.47,42.09-40,7-3.49,9.06-17.41,5.86-39.21-2.92-19.87-10.33-46.57-22-79.35-8.83-24.73-16.89-38.51-26.14-44.67-8.33-5.56-18.42-5.56-33.69-5.56-34.55,0-53.92-15.44-54.73-16.1a8.5,8.5,0,0,1,10.7-13.21c.35.27,16,12.31,44,12.31,17,0,30.5,0,43.12,8.41s22.44,24.32,32.72,53.1c12.25,34.31,19.73,61.33,22.85,82.6,4.54,30.93-.39,49.54-15.08,56.89-21.19,10.59-31.47,23-32.85,27.26,2.05.85,8.11,2.59,24.31,3.27,12.7.54,26.33.22,34.47,0,2.7-.06,4.83-.11,6.18-.11,1.58,0,3.57.2,6.33.47,9.91,1,33.14,3.23,42.87-6.41,4-4,5.58-9.86,4.85-18.07-2.23-25.28,10.84-46.94,23.48-67.9,11.71-19.4,22.76-37.72,20.45-56.85a8.5,8.5,0,1,1,16.87-2c3,24.95-10.08,46.67-22.76,67.68-11.75,19.48-22.85,37.88-21.1,57.63,1.18,13.37-2.13,24-9.82,31.63C483.51,765.32,468,767.58,454.81,767.58Z"/><path class="cls-2" d="M583.65,720.64c-8.45,0-16.73-2.73-22.09-5a9.17,9.17,0,0,1-5.68-6.18c-1.54-5.89,3.09-11.75,8.44-18.54,2.47-3.13,7-8.88,7.21-11.1-4.2-6.92-19.23-24.53-24.74-30.81a5.5,5.5,0,1,1,8.26-7.25c.85,1,20.83,23.77,26.12,32.76,4.31,7.32-2.34,15.76-8.21,23.21a66.51,66.51,0,0,0-5.91,8.26c6,2.37,18.28,6.08,26.1,1.3,4.71-2.88,7.45-8.86,8.15-17.78,2.46-31.31-13.35-50.51-13.51-50.71a5.5,5.5,0,0,1,8.42-7.07c.77.91,18.87,22.89,16.06,58.65-1,12.62-5.49,21.47-13.38,26.29A28.79,28.79,0,0,1,583.65,720.64Zm-12-40.5h0Z"/><path class="cls-2" d="M662.17,731.57a26.05,26.05,0,0,1-10.89-2.23c-6.49-3-10.62-8.62-11-15s3-12.44,9.3-16.43c12.46-7.84,13.9-35.11,13.4-45a5.5,5.5,0,0,1,11-.56c.09,1.7,1.93,41.94-18.52,54.81-2.86,1.8-4.35,4.08-4.2,6.41s1.9,4.49,4.66,5.77c6.75,3.11,16.93.36,27.23-7.34,24.37-18.22,23.23-28.32,21.78-41.11-.29-2.58-.59-5.24-.7-8.07a5.5,5.5,0,1,1,11-.43c.1,2.42.36,4.77.64,7.27,1.93,17.07,1.18,30.73-26.12,51.15C678.41,729.26,669.05,731.57,662.17,731.57Z"/></g></g></svg>