<svg xmlns="http://www.w3.org/2000/svg" viewBox="0 0 1024 1024"><defs><style>.cls-1{fill:#fff;}.cls-2{fill:#4da1d9;}</style></defs><title>Asset 7</title><g id="Layer_2" data-name="Layer 2"><g id="Layer_1-2" data-name="Layer 1"><circle class="cls-1" cx="512" cy="512" r="512"/><path class="cls-2" d="M512,25A487.13,487.13,0,0,1,701.55,960.74,487.13,487.13,0,0,1,322.45,63.26,483.84,483.84,0,0,1,512,25m0-25C229.23,0,0,229.23,0,512s229.23,512,512,512,512-229.23,512-512S794.77,0,512,0Z"/><path class="cls-2" d="M233.9,875.93a4.81,4.81,0,0,1-5,5,4.72,4.72,0,0,1-4.92-4.8V830.79H211.67a4.85,4.85,0,0,1-5-5.18,5.21,5.21,0,0,1,5-5.17h34.56a5.19,5.19,0,0,1,5,5.47,4.84,4.84,0,0,1-5,4.88H233.9Z"/><path class="cls-2" d="M244.34,868.88a4.26,4.26,0,0,1,4.49-4.57c1.43,0,2.21.15,4.7,2.85a12.16,12.16,0,0,0,10.19,4.57c4.92,0,5.77-3.67,5.77-5,0-3.6-3.56-4.27-7.34-5-11.4-2.33-15.88-7-15.88-13.58,0-7,5.63-13.57,16.1-13.57,7.12,0,16,3.3,16,8.63a4.49,4.49,0,0,1-4.42,4.64c-1.14,0-1.92-.15-4.35-1.8s-4.2-2.54-7.12-2.54c-2,0-6.55.67-6.55,4.19,0,2,1.56,3.15,4.34,3.9,11.4,3.23,12.61,3.53,15.18,5.78,3.34,2.92,3.7,7.12,3.7,9.22,0,6.9-4.7,14.25-16.81,14.25C251.9,880.88,244.34,874,244.34,868.88Z"/><path class="cls-2" d="M283.93,839.56a4.77,4.77,0,0,1,4.63-4.95c3.13,0,4.49,3.3,4.49,5v23.48c0,3.45,1.14,8.17,7.19,8.17,6.63,0,9.91-6.07,9.91-9.52v-22.2a4.72,4.72,0,0,1,4.63-4.95c2.92,0,4.41,3,4.41,5v28.58c0,1.35.57,7,.57,8.25a4.27,4.27,0,0,1-4.55,4.42c-3.14,0-4.49-2.77-5.35-4.8-1.14,1.28-4.27,4.8-12,4.8-8.33,0-13.89-5.47-13.89-13.5Z"/><path class="cls-2" d="M323.09,868.88a4.26,4.26,0,0,1,4.49-4.57c1.43,0,2.21.15,4.71,2.85a12.13,12.13,0,0,0,10.18,4.57c4.92,0,5.77-3.67,5.77-5,0-3.6-3.56-4.27-7.33-5-11.4-2.33-15.89-7-15.89-13.58,0-7,5.63-13.57,16.1-13.57,7.12,0,16,3.3,16,8.63a4.49,4.49,0,0,1-4.42,4.64c-1.14,0-1.92-.15-4.34-1.8s-4.21-2.54-7.13-2.54c-2,0-6.55.67-6.55,4.19,0,2,1.56,3.15,4.34,3.9,11.4,3.23,12.61,3.53,15.18,5.78,3.35,2.92,3.7,7.12,3.7,9.22,0,6.9-4.7,14.25-16.81,14.25C330.65,880.88,323.09,874,323.09,868.88Z"/><path class="cls-2" d="M398.22,875.93a4.72,4.72,0,0,1-4.63,5c-3.07,0-4.42-3.3-4.42-5V852c0-1.88-.71-7.43-7-7.43-7.06,0-10.12,7.2-10.12,11.18v20.17a4.78,4.78,0,0,1-4.7,5c-3.14,0-4.42-3.37-4.42-5V824.11a4.85,4.85,0,0,1,4.7-5c3,0,4.42,3.07,4.42,4.95v15.89a13.85,13.85,0,0,1,11.19-5.32c7.41,0,15,4.8,15,14.4Z"/><path class="cls-2" d="M415.82,825.09a5.74,5.74,0,1,1-5.77-6A5.87,5.87,0,0,1,415.82,825.09ZM414.61,876a4.66,4.66,0,0,1-4.7,4.87c-2.85,0-4.35-2.85-4.35-4.87V839.56a4.68,4.68,0,0,1,4.64-4.95c2.92,0,4.41,2.85,4.41,4.95Z"/><path class="cls-2" d="M474.66,875.93a4.72,4.72,0,0,1-4.63,5c-3.14,0-4.42-3.3-4.42-5V850.21c0-5.7-4.56-5.7-5.49-5.7-6.62,0-7.12,6.75-7.12,8.47v22.95a4.72,4.72,0,0,1-4.63,5c-3.14,0-4.49-3.3-4.49-5V850.21c0-5.7-4.49-5.7-5.49-5.7-6.55,0-7.05,6.75-7.05,8.47v22.95a4.72,4.72,0,0,1-4.63,5c-3.06,0-4.49-3.15-4.49-5V845.41c0-.83-.57-3.75-.92-5.85-.5-2.77,1.85-4.95,4.77-4.95,3.63,0,4.7,2.77,5.2,4.13,1.71-1.88,3.85-4.13,10.4-4.13,3.07,0,7,.68,9.48,4.2,1-1.2,3.35-4.2,10.68-4.2,8.34,0,12.83,4.58,12.83,11Z"/><path class="cls-2" d="M516.35,867.38a15.91,15.91,0,0,0,1.29,6.15,10.34,10.34,0,0,1,.71,3.23,4.33,4.33,0,0,1-4.63,4.12c-3.63,0-4.28-2.85-4.7-5a19.7,19.7,0,0,1-13.68,5c-10.33,0-16-6.83-16-15.23,0-6.6,3.85-15.67,19.73-15.67a23.26,23.26,0,0,1,8.27,1.35c-.07-2.18-.22-7.58-9.05-7.58a12,12,0,0,0-6.84,1.8c-3.85,2.33-4.27,2.55-5.34,2.55-2.43,0-4.49-2.32-4.49-5.1,0-5,7.91-8.47,17.1-8.47,17.66,0,17.66,13.27,17.66,19.27Zm-9-5.7c0-1.27-3.35-2.4-8.34-2.4-2.49,0-10.33,0-10.33,6.53,0,4.27,3.49,5.7,8.12,5.7,6.77,0,10.55-4.73,10.55-6.9Z"/><path class="cls-2" d="M547.07,824.41a5.12,5.12,0,0,1,5-5.32c3.28,0,4.85,3.3,4.85,5.32V866c0,2.4.28,3.15,2.06,3.15h20.09c3.57,0,4.92,2.63,4.92,5,0,3.75-2.42,5.32-4.49,5.32H555.33c-4.28,0-8.26-1-8.26-9.52Z"/><path class="cls-2" d="M594.84,861.31c.22,2.55,1,10.27,8.55,10.27,2.35,0,4-.67,6.2-4.05,1.71-2.62,2.71-3.22,4.7-3.22,2.5,0,4.06,2.47,4.06,5,0,5.55-6.48,11.62-15.24,11.62-6.2,0-17.81-3.45-17.81-22.42,0-17.55,9.19-23.85,17.24-23.85,9,0,16.31,7.65,16.31,18.3,0,5.4-1.35,8.4-5.2,8.4Zm12.9-8.85c1.5,0,1.85-.38,1.85-1,0-2.32-1.78-7.57-7-7.57-6.06,0-7.27,6.82-7.55,8.55Z"/><path class="cls-2" d="M660.83,857.78c0,9.83-4.07,23.1-19.38,23.1S622,867.61,622,857.78s4.13-23.17,19.45-23.17S660.83,848,660.83,857.78Zm-29.36,0c0,3.75.79,13.2,10,13.2s10-9.45,10-13.2-.85-13.27-10-13.27S631.47,854,631.47,857.78Z"/><path class="cls-2" d="M665.75,839.86c0-2.32,0-5.25,3.85-5.25,3.35,0,4.42,2.47,4.63,5.1,1.92-2.33,4.2-5.1,10.9-5.1,12.61,0,17.67,11.47,17.67,23.4,0,11.7-4.7,22.87-17.1,22.87-1.28,0-6.91,0-10.83-3.82v7.57c0,1.8-1.28,5-4.35,5a4.81,4.81,0,0,1-4.77-4.8Zm9.12,20.77c0,2.4.78,10.28,9.62,10.28,4.27,0,9-1.8,9-13.58,0-3.37-.72-8-3.14-10.5-1.49-1.57-3.49-2.17-6.27-2.17-6.48,0-9.26,5.85-9.26,10.57Z"/><path class="cls-2" d="M742.65,867.38a15.91,15.91,0,0,0,1.29,6.15,10.34,10.34,0,0,1,.71,3.23,4.33,4.33,0,0,1-4.63,4.12c-3.63,0-4.28-2.85-4.7-5a19.68,19.68,0,0,1-13.68,5c-10.33,0-16-6.83-16-15.23,0-6.6,3.85-15.67,19.73-15.67a23.26,23.26,0,0,1,8.27,1.35c-.07-2.18-.22-7.58-9.05-7.58a12,12,0,0,0-6.84,1.8c-3.85,2.33-4.27,2.55-5.34,2.55-2.43,0-4.49-2.32-4.49-5.1,0-5,7.91-8.47,17.1-8.47,17.66,0,17.66,13.27,17.66,19.27Zm-9-5.7c0-1.27-3.35-2.4-8.34-2.4-2.49,0-10.33,0-10.33,6.53,0,4.27,3.49,5.7,8.12,5.7,6.77,0,10.55-4.73,10.55-6.9Z"/><path class="cls-2" d="M758.89,876.53a4.29,4.29,0,0,1-4.49,4.35,4.38,4.38,0,0,1-4.63-4.5V839.11a4.37,4.37,0,0,1,4.56-4.5c.64,0,4.56,0,4.56,4.95v2.32c4.2-7.27,10.11-7.27,11.61-7.27,3.42,0,8.26,1.65,8.26,5.93,0,2.47-1.49,4.5-4.13,4.5-.78,0-3.92-.61-4.56-.61-5,0-11.18,11.18-11.18,13.13Z"/><path class="cls-2" d="M816.25,875.63c0,2.33,0,5.25-3.85,5.25-3.28,0-4.35-2.47-4.63-5.1-1.85,2.25-4.2,5.1-10.83,5.1-12.61,0-17.74-11.47-17.74-23.4,0-11.69,4.77-22.87,17.1-22.87,1.21,0,7,0,10.9,3.9V824c0-1.72,1.21-4.87,4.35-4.87a4.75,4.75,0,0,1,4.7,4.8Zm-9-20.77c0-1.2,0-10.28-9.55-10.28-2.42,0-9.12,0-9.12,13.28,0,5.55,1.36,13,8.91,13,8.34,0,9.76-7.65,9.76-10.65Z"/><path class="cls-2" d="M496,919.31a5,5,0,0,1-5.32,5.18c-2.93,0-3.75-1.43-4.28-2.25-2.4-4-4.57-7.43-12.67-7.43-16.2,0-16.88,16.27-16.88,20.25,0,7.2,2.78,20.1,16.43,20.1,7.57,0,10.2-3.53,12.15-7,1.27-2.33,2.25-4.13,5.32-4.13a5,5,0,0,1,5.25,4.73c0,3.15-4.05,17.17-22.65,17.17-20.85,0-27.6-17-27.6-30.75,0-16,8.78-31,27.53-31C488,904.09,496,913.69,496,919.31Z"/><path class="cls-2" d="M542,952.38a15.14,15.14,0,0,0,1.35,6.15,10.08,10.08,0,0,1,.75,3.23c0,2-1.8,4.12-4.88,4.12-3.82,0-4.5-2.85-5-5a21.35,21.35,0,0,1-14.39,5C509,966,503,959.13,503,950.73c0-6.6,4.05-15.67,20.77-15.67a25.59,25.59,0,0,1,8.7,1.35c-.07-2.18-.22-7.58-9.52-7.58a13.11,13.11,0,0,0-7.2,1.8c-4.05,2.33-4.5,2.55-5.62,2.55a5,5,0,0,1-4.73-5.1c0-5,8.32-8.47,18-8.47,18.6,0,18.6,13.27,18.6,19.27Zm-9.53-5.7c0-1.27-3.52-2.4-8.77-2.4-2.63,0-10.87,0-10.87,6.53,0,4.27,3.67,5.7,8.54,5.7,7.13,0,11.1-4.73,11.1-6.9Z"/><path class="cls-2" d="M552.19,929.88a4.47,4.47,0,0,1,0-8.92h3.53v-8.17a4.6,4.6,0,0,1,4.8-4.65,4.51,4.51,0,0,1,4.57,4.57V921h8.85a4.47,4.47,0,0,1,0,8.92h-8.85v23.18c0,.9.23,2.32,1.5,2.32,1,0,1.88-.82,2.93-3.07,1.57-3.38,3-4,4.57-4a4.81,4.81,0,0,1,4.73,4.87c0,3.23-4.13,12.75-13,12.75-9.82,0-10.12-9.22-10.12-12.45V929.88Z"/><circle class="cls-2" cx="701.6" cy="291.68" r="8.15"/><circle class="cls-2" cx="770.11" cy="291.68" r="8.15"/><path class="cls-2" d="M825.4,249.62a5.49,5.49,0,0,1-4.84-8.1c18.8-35,13-54.82,7.3-58.94s-19.58,1.63-30.21,9.51a60,60,0,0,0-6.34,5.78c-7,7-15.62,15.64-33.26,9.89-17.24-5.61-44.88-.41-53,2.12s-17.73-1.59-28.71-12.2l-.8-.78c-18.55-18.26-32.24-13.17-37.39-11.26a7.7,7.7,0,0,0-4.67,4.71c-2.38,6-1.27,16.88,3.15,30.73a172.35,172.35,0,0,0,8.15,20.63,5.5,5.5,0,0,1-9.89,4.83c-2-4.12-19.41-40.78-11.62-60.27a18.71,18.71,0,0,1,11.05-10.94c25.39-9.44,43.11,8,48.94,13.73l.72.71c7.43,7.18,14.07,10.77,17.8,9.61,7.13-2.22,38.15-9.09,59.67-2.08,11.23,3.66,15.54-.66,22.08-7.21a68.08,68.08,0,0,1,7.57-6.83c13.45-10,31.86-17.75,43.18-9.62,12.24,8.81,16.2,35.43-4,73.09A5.52,5.52,0,0,1,825.4,249.62Z"/><path class="cls-2" d="M703.94,392.62a5.84,5.84,0,0,1-1.09-.11,111.28,111.28,0,0,1-31.65-12.75c-21.75-12.9-35.44-31.55-39.58-53.93-9.84-53.09,33.89-96.64,35.75-98.47a5.5,5.5,0,1,1,7.7,7.85h0c-.41.41-41.4,41.35-32.64,88.61,8.61,46.46,62.05,57.79,62.58,57.9a5.5,5.5,0,0,1-1.07,10.9Z"/><path class="cls-2" d="M761.29,392.62a5.5,5.5,0,0,1-1.07-10.9c.53-.11,54-11.44,62.58-57.9,8.76-47.26-32.23-88.2-32.64-88.61a5.5,5.5,0,1,1,7.7-7.85c1.86,1.83,45.59,45.38,35.75,98.47-4.14,22.38-17.83,41-39.58,53.93a111.28,111.28,0,0,1-31.65,12.75A5.84,5.84,0,0,1,761.29,392.62Z"/><path class="cls-2" d="M737.05,350.19c-9.89,0-21.38-8.61-21.38-19.71,0-6.2,3.71-13.59,21.38-13.59s21.37,7.39,21.37,13.59C758.42,341.58,746.93,350.19,737.05,350.19Zm0-22.3c-6.21,0-10.38,1-10.38,2.59,0,3.36,4.75,8.71,10.38,8.71s10.37-5.35,10.37-8.71C747.42,328.93,743.25,327.89,737.05,327.89Z"/><path class="cls-2" d="M711,375.62a25.08,25.08,0,0,1-12.76-3.72c-8.25-4.85-13.26-11.15-14.87-18.72-2.56-12,4.71-22.39,5-22.83a5.5,5.5,0,1,1,9,6.38s-4.79,7-3.21,14.22c1,4.4,4.22,8.26,9.67,11.47,3.85,2.27,7.4,2.78,10.84,1.56,8.79-3.11,15.42-16.37,17.24-21.22a5.5,5.5,0,1,1,10.3,3.86,70,70,0,0,1-5.86,11.5c-5.31,8.42-11.37,13.88-18,16.23A22,22,0,0,1,711,375.62Z"/><path class="cls-2" d="M763.07,375.62a22.08,22.08,0,0,1-7.33-1.27c-6.63-2.35-12.69-7.81-18-16.23a70.35,70.35,0,0,1-5.85-11.5,5.5,5.5,0,1,1,10.3-3.86h0c1.84,4.86,8.51,18.14,17.25,21.22,3.44,1.21,7,.7,10.82-1.56,5.49-3.22,8.75-7.11,9.69-11.54,1.54-7.19-3.18-14.08-3.23-14.15a5.5,5.5,0,1,1,9-6.38c.32.44,7.59,10.84,5,22.83-1.62,7.57-6.62,13.87-14.87,18.72A25.08,25.08,0,0,1,763.07,375.62Z"/><path class="cls-2" d="M273.87,792.53c-18,0-38.1-3.93-60.19-13.92-35.2-15.92-51.37-52.44-48.06-108.53,2.69-45.61,17.1-95.35,28.69-135.32,3.27-11.29,6.36-22,8.66-30.85,18.08-69.75,22.93-88.49,125.28-217.52s215.86-61.67,253.15-39.53l3.23,1.91c25.79,15.17,34.67,3.15,35,2.63l-.11.18,14.4,9a29.11,29.11,0,0,1-15,11c-12.22,4.13-26.68,1.37-43-8.21l-3.28-1.94c-18.54-11-53-31.48-94.71-34.59-50.65-3.78-96.58,19.79-136.45,70.07C241.46,423.17,237.23,439.49,219.43,508.17c-2.37,9.14-5.49,19.91-8.8,31.32-11.34,39.16-25.46,87.88-28,131.6-2.89,49,9.57,79.13,38.1,92,33.4,15.11,65.23,16.41,94.6,3.85,22.69-9.7,38-25.17,45.06-33.53,14-16.55,5.79-38-1.53-45.35-8.09-8.09-34.92-13.31-57.35,5.58a8.53,8.53,0,0,1-.83.62c-5.91,3.85-11.72,8.22-17.33,12.44-15.1,11.36-29.37,22.09-44.51,22.09a8.5,8.5,0,0,1,0-17c9.46,0,21.52-9.07,34.29-18.67,5.71-4.3,11.61-8.74,17.84-12.82,29.61-24.6,66-18.18,79.92-4.26,13.71,13.71,22.2,45.11,2.46,68.37C361.87,757.93,327.25,792.53,273.87,792.53Z"/><path class="cls-2" d="M524.12,723.5H468.26c-62.35,0-134.94-96.32-147.86-120.94-3.12-5.93-7.14-8.16-12-6.62-8.06,2.55-18.13,15.87-15.3,37.48,3.09,23.54,1.23,37.52-5.83,44a12.7,12.7,0,0,1-11.09,3.32,8.5,8.5,0,0,1-.1-16.57c.89-2.22,2.67-9.42.17-28.53-1.74-13.22.14-25.7,5.43-36.09,5-9.82,12.86-17,21.59-19.81,12.86-4.07,25.19,1.65,32.16,14.93,6.42,12.24,27.07,40.82,52.87,66.05,30.2,29.53,58.59,45.79,79.94,45.79h53a15.56,15.56,0,0,0-1.53-8.78c-2.39-5.06-8.15-11.52-22.09-13.55-32.24-4.69-52.85-13.36-61.25-25.78a25.22,25.22,0,0,1-3.66-20.54c2.26-9.33,13.26-14.6,29.91-22.59,17.25-8.28,38.72-18.58,53.25-34.94,16.43-18.49,20.17-41.05,11.44-69-11.66-37.25-33.4-60.14-64.62-68a101.08,101.08,0,0,0-44.86-.76,8.5,8.5,0,0,1-4.27-16.46,116.93,116.93,0,0,1,52.55.55c25.94,6.36,60.43,25.34,77.42,79.63,10.52,33.61,5.49,62.32-14.95,85.33-16.8,18.91-41,30.5-58.61,39-7.92,3.8-18.7,9-20.83,11.7a8.11,8.11,0,0,0,1.31,6.59c2.54,3.75,12.47,13.08,49.61,18.48,27.94,4.06,39.4,23.32,38.23,39.49C537.58,716.81,531.88,723.5,524.12,723.5ZM279.87,664.13h0Z"/><path class="cls-2" d="M717.7,724.1c-8.14,0-17-.16-25.28-.61-31.16-1.72-59.19-44.76-73.13-70.26-16.44-30.08-61.23-81.78-61.68-82.3a8.5,8.5,0,1,1,12.83-11.15c1.89,2.18,46.44,53.6,63.77,85.3,20.53,37.56,42.64,60.52,59.14,61.43,23.42,1.29,52.9,0,53.2,0h.37c.65,0,1.44-.77,1.85-1.23,2.71-3,4.53-9.3,4.24-14.39-2.82-1.07-12.43-1.52-29.66,3.07A8.5,8.5,0,1,1,719,677.52c21.39-5.7,36.27-5.82,44.23-.37a15.12,15.12,0,0,1,6.63,11c1.1,10-2.36,21.74-8.41,28.48a19.27,19.27,0,0,1-14.29,6.88C745.4,723.58,732.79,724.1,717.7,724.1Z"/><path class="cls-2" d="M712.68,673a8.49,8.49,0,0,1-6.27-2.76c-1.25-1.37-30.59-34-26.7-76.9,2.56-28.18,18.7-53.73,48-75.94,83.24-63.15,82.58-137.29,82.57-138a8.5,8.5,0,0,1,17-.37c0,.86.35,21.6-10.63,50.73-10,26.54-31.76,65.63-78.66,101.21-25.25,19.17-39.15,40.62-41.3,63.78C693.37,630,718.71,658.45,719,658.73A8.51,8.51,0,0,1,712.68,673Z"/><path class="cls-2" d="M625.07,722.52c-4,0-8.43-.43-13.14-.89-2.23-.21-4.33-.42-6.23-.55-11.59-.81-25.81-7.65-27.72-35.63-1.35-19.91,8.21-80,8.62-82.53a5.5,5.5,0,0,1,10.86,1.74c-.1.61-9.78,61.38-8.5,80,1.48,21.78,10.7,24.93,17.51,25.41,2,.14,4.22.35,6.52.57,4.29.42,11.59,1.12,15.34.7-.22-.34-.51-.74-.86-1.2-2.32-3-4.73-5.78-7.06-8.51-9.31-10.9-18.1-21.19-11.47-31.91a5.5,5.5,0,0,1,9.36,5.79c-2.25,3.63,2.46,9.59,10.47,19,2.41,2.82,4.9,5.74,7.36,8.89,1.53,2,6.17,7.9,3,13.58C636.81,721.31,631.67,722.52,625.07,722.52Z"/><path class="cls-2" d="M704.88,272.55a5.5,5.5,0,0,1-4.61-2.5c-8.88-13.59-10.17-34-3.07-48.61,4-8.26,1.29-11.66,1.26-11.69a5.5,5.5,0,1,1,7.36-8.17c3.43,3.08,7.56,11.75,1.27,24.67-5.43,11.15-4.4,27.39,2.39,37.79a5.49,5.49,0,0,1-1.6,7.61A5.42,5.42,0,0,1,704.88,272.55Z"/><path class="cls-2" d="M727,263.29a5.48,5.48,0,0,1-4.35-2.13c-7.22-9.32-10.73-36.92-5.87-46.14,2.06-3.91.51-10.07-.27-12.12a5.5,5.5,0,0,1,10.27-4c.47,1.22,4.49,12.19-.27,21.2-2.37,4.49-.35,27.59,4.83,34.27a5.49,5.49,0,0,1-4.34,8.87Z"/><path class="cls-2" d="M767.34,272.55a5.51,5.51,0,0,1-4.6-8.51c6.79-10.4,7.82-26.64,2.4-37.79-6.29-12.92-2.17-21.59,1.26-24.67l7.36,8.17a1.33,1.33,0,0,0,.18-.17c-.12.13-3,3.48,1.09,11.86,7.09,14.58,5.8,35-3.08,48.61A5.48,5.48,0,0,1,767.34,272.55Z"/><path class="cls-2" d="M745.21,263.29a5.45,5.45,0,0,1-3.36-1.15,5.5,5.5,0,0,1-1-7.72c5.18-6.68,7.2-29.78,4.83-34.27-4.75-9-.74-20-.27-21.2a5.5,5.5,0,0,1,10.27,4c-.78,2.05-2.33,8.2-.27,12.11,4.86,9.22,1.36,36.82-5.86,46.14A5.5,5.5,0,0,1,745.21,263.29Z"/><path class="cls-2" d="M553.35,308.13c0,5.67-3.46,9.91-7.18,13.62s-8,6.14-13.63,6.14a19.07,19.07,0,0,1-14-5.77c-3.72-3.72-8.09-8.32-8.09-14s4.43-10.22,8.15-13.94,8.26-6.43,13.93-6.43a20.32,20.32,0,0,1,14.5,5.86A20.68,20.68,0,0,1,553.35,308.13Z"/><path class="cls-2" d="M532.54,333.39A24.43,24.43,0,0,1,514.66,326c-3.63-3.62-9.7-9.7-9.7-17.87s5.87-13.94,9.76-17.83c5.33-5.33,11.33-8,17.82-8a26.27,26.27,0,0,1,26.3,25.87c0,7.69-4.44,13.17-8.78,17.51C544.85,330.86,539.12,333.39,532.54,333.39Zm0-40.13c-3.57,0-6.76,1.53-10,4.82-2.92,2.91-6.54,6.54-6.54,10.05,0,3.34,3.2,6.82,6.48,10.1a13.46,13.46,0,0,0,10.1,4.16c3.66,0,6.57-1.35,9.74-4.52,3.34-3.34,5.56-6.28,5.56-9.74a15.1,15.1,0,0,0-4.69-10.62A14.85,14.85,0,0,0,532.54,293.26Z"/><path class="cls-2" d="M427.25,299.83c0,5.67-3.46,9.91-7.18,13.63s-8,6.13-13.63,6.13a19.07,19.07,0,0,1-14-5.77c-3.71-3.72-8.09-8.32-8.09-14s4.43-10.22,8.15-13.94,8.26-6.43,13.93-6.43a20.27,20.27,0,0,1,14.5,5.87A20.64,20.64,0,0,1,427.25,299.83Z"/><path class="cls-2" d="M406.44,325.09a24.46,24.46,0,0,1-17.88-7.38c-3.62-3.63-9.7-9.71-9.7-17.88s5.87-13.94,9.76-17.83c5.34-5.33,11.33-8,17.82-8a26.29,26.29,0,0,1,26.31,25.87c0,7.69-4.44,13.17-8.79,17.51C418.75,322.56,413,325.09,406.44,325.09Zm0-40.13c-3.56,0-6.75,1.54-10,4.82-2.91,2.91-6.54,6.54-6.54,10.05,0,3.34,3.2,6.82,6.48,10.1a13.46,13.46,0,0,0,10.1,4.16c3.66,0,6.57-1.35,9.74-4.52,3.34-3.34,5.57-6.28,5.57-9.74a15.11,15.11,0,0,0-4.7-10.62A14.85,14.85,0,0,0,406.44,285Z"/><path class="cls-2" d="M489,333.54c0,5.67-3.46,9.91-7.18,13.63s-8,6.14-13.63,6.14a19,19,0,0,1-14-5.78c-3.71-3.72-8.09-8.32-8.09-14s4.43-10.22,8.15-13.93,8.26-6.43,13.93-6.43a20.27,20.27,0,0,1,14.5,5.86A20.68,20.68,0,0,1,489,333.54Z"/><path class="cls-2" d="M468.14,358.81a24.47,24.47,0,0,1-17.88-7.39c-3.63-3.63-9.7-9.7-9.7-17.88s5.87-13.94,9.76-17.82c5.33-5.34,11.33-8,17.82-8a26.27,26.27,0,0,1,26.31,25.86c0,7.69-4.44,13.17-8.79,17.52C480.45,356.27,474.72,358.81,468.14,358.81Zm0-40.13c-3.56,0-6.76,1.53-10,4.82-2.91,2.91-6.54,6.53-6.54,10,0,3.34,3.2,6.82,6.48,10.1a13.47,13.47,0,0,0,10.1,4.17c3.66,0,6.57-1.36,9.74-4.53,3.34-3.34,5.57-6.27,5.57-9.74a15.09,15.09,0,0,0-4.7-10.61A14.85,14.85,0,0,0,468.14,318.68Z"/><path class="cls-2" d="M427.36,370.13c0,5.67-3.46,9.91-7.17,13.63s-8,6.13-13.63,6.13a19.07,19.07,0,0,1-14-5.77c-3.72-3.72-8.09-8.32-8.09-14s4.43-10.22,8.15-13.94,8.26-6.42,13.93-6.42a20.28,20.28,0,0,1,14.5,5.86A20.65,20.65,0,0,1,427.36,370.13Z"/><path class="cls-2" d="M406.56,395.39A24.46,24.46,0,0,1,388.68,388c-3.63-3.63-9.7-9.71-9.7-17.88s5.87-13.94,9.76-17.82c5.33-5.34,11.33-8,17.82-8a26.26,26.26,0,0,1,26.3,25.86c0,7.69-4.44,13.17-8.78,17.52C418.86,392.86,413.13,395.39,406.56,395.39Zm0-40.12c-3.57,0-6.76,1.53-10.05,4.81C393.6,363,390,366.62,390,370.13c0,3.34,3.2,6.82,6.48,10.1a13.46,13.46,0,0,0,10.1,4.16c3.65,0,6.57-1.35,9.74-4.52,3.34-3.34,5.56-6.28,5.56-9.74a15.06,15.06,0,0,0-4.69-10.61A14.85,14.85,0,0,0,406.56,355.27Z"/><path class="cls-2" d="M365.78,407.66c0,5.67-3.46,9.91-7.18,13.62s-8,6.14-13.63,6.14a19.07,19.07,0,0,1-14-5.77c-3.71-3.72-8.09-8.32-8.09-14s4.43-10.22,8.15-13.94,8.26-6.43,13.93-6.43a20.33,20.33,0,0,1,14.51,5.86A20.72,20.72,0,0,1,365.78,407.66Z"/><path class="cls-2" d="M345,432.92a24.41,24.41,0,0,1-17.87-7.39c-3.63-3.62-9.71-9.7-9.71-17.87s5.88-13.94,9.76-17.83c5.34-5.33,11.33-8,17.82-8a26.29,26.29,0,0,1,26.31,25.87c0,7.69-4.44,13.17-8.79,17.51C357.28,430.39,351.55,432.92,345,432.92Zm0-40.13c-3.56,0-6.75,1.53-10,4.82-2.91,2.91-6.54,6.54-6.54,10.05,0,3.34,3.21,6.82,6.48,10.1a13.48,13.48,0,0,0,10.1,4.16c3.66,0,6.57-1.35,9.74-4.52,3.35-3.34,5.57-6.28,5.57-9.74A15.14,15.14,0,0,0,355.59,397,14.86,14.86,0,0,0,345,392.79Z"/><path class="cls-2" d="M365.78,344.69c0,5.67-3.46,9.91-7.18,13.63s-8,6.14-13.63,6.14a19,19,0,0,1-14-5.78c-3.71-3.71-8.09-8.32-8.09-14s4.43-10.21,8.15-13.93,8.26-6.43,13.93-6.43a20.29,20.29,0,0,1,14.51,5.86A20.71,20.71,0,0,1,365.78,344.69Z"/><path class="cls-2" d="M345,370a24.45,24.45,0,0,1-17.87-7.39c-3.63-3.63-9.71-9.7-9.71-17.88s5.88-13.93,9.76-17.82c5.34-5.33,11.33-8,17.82-8a25.73,25.73,0,0,1,18.39,7.47,26,26,0,0,1,7.92,18.39c0,7.7-4.44,13.18-8.79,17.52C357.28,367.42,351.55,370,345,370Zm0-40.13c-3.56,0-6.75,1.53-10,4.82-2.91,2.91-6.54,6.54-6.54,10,0,3.34,3.21,6.82,6.48,10.1A13.49,13.49,0,0,0,345,359c3.66,0,6.57-1.36,9.74-4.53,3.35-3.34,5.57-6.27,5.57-9.74a15.14,15.14,0,0,0-4.69-10.61A14.86,14.86,0,0,0,345,329.83Z"/><path class="cls-2" d="M489,267.05c0,5.67-3.46,9.91-7.18,13.62s-8,6.14-13.63,6.14a19.07,19.07,0,0,1-14-5.77c-3.71-3.72-8.09-8.32-8.09-14s4.43-10.22,8.15-13.94,8.26-6.43,13.93-6.43a20.31,20.31,0,0,1,14.5,5.86A20.68,20.68,0,0,1,489,267.05Z"/><path class="cls-2" d="M468.14,292.31a24.43,24.43,0,0,1-17.88-7.39c-3.63-3.62-9.7-9.7-9.7-17.88s5.87-13.93,9.76-17.82c5.33-5.33,11.33-8,17.82-8A26.29,26.29,0,0,1,494.45,267c0,7.7-4.44,13.18-8.79,17.52C480.45,289.78,474.72,292.31,468.14,292.31Zm0-40.13c-3.56,0-6.76,1.53-10,4.82-2.91,2.91-6.54,6.54-6.54,10,0,3.35,3.2,6.83,6.48,10.11a13.46,13.46,0,0,0,10.1,4.16c3.66,0,6.57-1.35,9.74-4.52,3.34-3.35,5.57-6.28,5.57-9.75a15.11,15.11,0,0,0-4.7-10.61A14.85,14.85,0,0,0,468.14,252.18Z"/></g></g></svg>