<svg xmlns="http://www.w3.org/2000/svg" viewBox="0 0 1024 1024"><defs><style>.cls-1{fill:#fff;}.cls-2{fill:#805db3;}</style></defs><title>stork-circle-text</title><g id="Layer_2" data-name="Layer 2"><g id="back"><circle class="cls-1" cx="512" cy="512" r="512"/><path class="cls-2" d="M512,25A487.13,487.13,0,0,1,701.55,960.74,487.13,487.13,0,0,1,322.45,63.26,483.84,483.84,0,0,1,512,25m0-25C229.23,0,0,229.23,0,512s229.23,512,512,512,512-229.23,512-512S794.77,0,512,0Z"/></g><g id="text"><path class="cls-2" d="M450.15,870.84a5.28,5.28,0,0,1-5.32,5.25c-.9,0-1.88,0-4.73-2.4-4.05-3.3-7.27-4.65-12.3-4.65-7.05,0-9.15,3.68-9.15,6.75,0,4.73,3.23,6.23,13.8,9.22,13.8,4,18.15,9.6,18.15,17.7,0,11.93-10.87,18.08-21.6,18.08-14.77,0-24.15-10.8-24.15-15.68a5.26,5.26,0,0,1,5.4-5.32c2.25,0,2.7.45,6.15,4.42a16.51,16.51,0,0,0,13.13,6.08c5.4,0,10.12-2.85,10.12-7.13,0-4.49-3.15-5.92-14.92-9.6-12.38-3.82-17.1-9.44-17.1-17.54,0-10,7.57-17,20.1-17C437.33,859,450.15,864.69,450.15,870.84Z"/><path class="cls-2" d="M458.53,884.79a4.47,4.47,0,0,1,0-8.92h3.53v-8.18a4.61,4.61,0,0,1,4.8-4.65,4.52,4.52,0,0,1,4.57,4.58v8.25h8.85a4.47,4.47,0,0,1,0,8.92h-8.85V908c0,.9.23,2.33,1.5,2.33,1.05,0,1.88-.83,2.92-3.08,1.58-3.37,3-4.05,4.58-4.05a4.81,4.81,0,0,1,4.72,4.88c0,3.22-4.12,12.75-13,12.75-9.82,0-10.12-9.23-10.12-12.45V884.79Z"/><path class="cls-2" d="M531.21,897.69c0,9.82-4.27,23.1-20.4,23.1s-20.47-13.28-20.47-23.1,4.35-23.17,20.47-23.17S531.21,887.87,531.21,897.69Zm-30.9,0c0,3.75.83,13.2,10.5,13.2s10.5-9.45,10.5-13.2-.9-13.27-10.5-13.27S500.31,893.87,500.31,897.69Z"/><path class="cls-2" d="M550,916.44c0,2.92-2.48,4.35-4.73,4.35a4.49,4.49,0,0,1-4.87-4.5V879a4.5,4.5,0,0,1,4.8-4.5c.67,0,4.8,0,4.8,5v2.32c4.42-7.27,10.65-7.27,12.22-7.27,3.6,0,8.7,1.65,8.7,5.92a4.2,4.2,0,0,1-4.35,4.5c-.82,0-4.12-.6-4.8-.6-5.25,0-11.77,11.17-11.77,13.12Z"/><path class="cls-2" d="M608.29,875.72a5,5,0,0,1,3.37-1.2c2.78,0,5.18,2,5.18,4.5a4.42,4.42,0,0,1-1.5,3.75l-13,11.17c2.78.6,4.5,3.3,4.8,3.82l9.9,15.53a5.5,5.5,0,0,1,.83,2.77,4.85,4.85,0,0,1-4.65,4.8c-2.78,0-3.75-1.65-4.88-3.45L600,903.91c-1.58-2.55-2.85-3.37-5.1-3.3l-7.58,6.53v9a4.59,4.59,0,0,1-4.87,4.65,4.68,4.68,0,0,1-4.73-4.8v-52.2a4.81,4.81,0,0,1,5-4.8,4.59,4.59,0,0,1,4.65,4.65v30.53Z"/></g><g id="design"><path class="cls-2" d="M300,668h-.06a8.5,8.5,0,0,1-8.44-8.26c-.05-1.91-1.19-47.5,8.87-105.35,5.92-34.07,14.53-65.26,25.58-92.71,13.95-34.64,31.87-63.43,53.27-85.57,35.57-36.79,80.89-55.6,134.7-55.92a8.5,8.5,0,0,1,.1,17c-49.06.29-90.31,17.36-122.58,50.74-45.23,46.78-65.38,117.93-74.32,169.38-2.46,14.14-4.23,27.59-5.5,39.82a198.53,198.53,0,0,1,26.44-33c27.6-28.25,68.79-57,125.92-88,55.3-30,92.93-55.49,109.62-89.93,8.6-17.73,11.28-37.49,8.21-60.41C578.47,300.8,568.4,272.1,551,238c-28.61-56.19-34.41-93.47-17.73-114,18.22-22.39,54.87-12.71,56.42-12.28a8.5,8.5,0,0,1-4.45,16.4c-7.64-2-29.51-4.84-38.81,6.64-15.45,19.07,5.73,68,19.72,95.51,18.26,35.84,28.88,66.33,32.48,93.2,3.53,26.33.33,49.25-9.76,70.08-18.68,38.55-58.55,65.87-116.82,97.47C361.3,551.08,310.85,603.14,308.49,659.81A8.5,8.5,0,0,1,300,668Z"/><path class="cls-2" d="M408.26,796.79a8.51,8.51,0,0,1-8.48-7.94c0-.51-3.3-51.45-2.43-107.34,1.19-76.35,9.32-125.43,24.17-145.88a8.5,8.5,0,0,1,13.75,10c-25.81,35.55-22.12,186.83-18.52,242.12a8.51,8.51,0,0,1-7.93,9Z"/><path class="cls-2" d="M385.78,603.22a8.38,8.38,0,0,1-1.72-.18,26.81,26.81,0,0,1-21.92-25.4l17-.3v-.14c.09,1.77,1,7.67,8.34,9.19a8.5,8.5,0,0,1-1.7,16.83Z"/><path class="cls-2" d="M511.54,727.66h-.24a8.5,8.5,0,0,1-8.26-8.73c1-35-52.29-79.27-72.89-93.39a8.5,8.5,0,0,1,9.61-14c3.34,2.29,81.7,56.6,80.27,107.89A8.5,8.5,0,0,1,511.54,727.66Z"/><path class="cls-2" d="M478.27,706.72a5.51,5.51,0,0,1-4.73-8.3c.15-.25,9.56-16.69,5.62-34.63a5.5,5.5,0,1,1,10.74-2.37c4.91,22.32-6.4,41.78-6.89,42.6A5.52,5.52,0,0,1,478.27,706.72Z"/><path class="cls-2" d="M372.89,486.17a5.51,5.51,0,0,1-5.37-6.68c.18-.83,4.59-20.48,18.69-43.93,13-21.68,37.17-50.79,78.14-66.31a5.5,5.5,0,0,1,3.9,10.29c-58.81,22.28-81.21,74.8-87.74,94.59,28.35-4.19,53.93-13,76.11-26.17a179.65,179.65,0,0,0,50.19-44.38c23.68-30.47,30.52-59.11,30.59-59.4a5.5,5.5,0,0,1,10.71,2.49c-.29,1.27-7.47,31.3-32.61,63.66-23.18,29.83-66.62,67.19-142,75.8A4.21,4.21,0,0,1,372.89,486.17Z"/><path class="cls-2" d="M461,803a5.92,5.92,0,0,1-1.31-.15c-22.7-5.57-39-5.39-48.75-4.25-10.45,1.22-15.65,3.78-15.7,3.8a5.5,5.5,0,0,1-5-9.78c1-.5,24.27-12.19,72.11-.46A5.5,5.5,0,0,1,461,803Z"/><ellipse class="cls-2" cx="591.87" cy="139.41" rx="21.59" ry="32.67" transform="translate(36.9 387.91) rotate(-37.37)"/><path class="cls-2" d="M613.64,150.77c.87.87,105.6,91,105.6,91s2.33,5-3.5,3.5c-7.92-2.07-132.19-83.87-132.19-83.87Z"/><circle class="cls-1" cx="591.87" cy="134.85" r="8.15"/></g></g></svg>