<svg xmlns="http://www.w3.org/2000/svg" viewBox="0 0 295.25 222.4"><defs><style>.cls-1{fill:#e96093;}.cls-2{fill:#f7b52c;}.cls-3{fill:#5db6e7;}.cls-4{fill:#00a0de;}</style></defs><title>Asset 1</title><g id="Layer_2" data-name="Layer 2"><g id="design"><circle class="cls-1" cx="103.21" cy="13.86" r="13.86"/><circle class="cls-2" cx="192.57" cy="13.86" r="13.86"/><circle class="cls-3" cx="245.92" cy="35.57" r="13.86"/><circle class="cls-3" cx="48.18" cy="35.57" r="13.86"/><path class="cls-3" d="M95.79,135.85A129.69,129.69,0,0,1,95.6,112c.16-1.8.35-3.54.58-5.26-2.24-15-7.18-26.92-14.73-35.35-8.34-9.31-19.42-14-32.93-14-13.72,0-24.88,4.75-33.19,14.13S1.93,94.69.44,112.32a123.26,123.26,0,0,0,.18,23.05,8.76,8.76,0,0,0,17.4-2.1c-1-8.79-1.37-33.18,8.21-47.27V212.41c0,9,2.55,10,4.91,10S37,221,36.79,212.8s5.1-54,6.38-57,1.73-5.93,5-5.93,3.73,2.94,5,5.93,6.56,48.74,6.37,57,3.28,9.6,5.65,9.6,4.92-1,4.92-10V85.24c10.53,14.35,10.44,40.51,9.44,49.82a8.77,8.77,0,0,0,7.75,9.68c.33,0,.65,0,1,0a8.77,8.77,0,0,0,8.27-5.9A12.79,12.79,0,0,1,95.79,135.85Z"/><path class="cls-3" d="M294.7,113.21C293,95.06,287.8,81,279.19,71.38c-8.33-9.31-19.41-14-32.93-14-13.71,0-24.88,4.75-33.19,14.13-7.16,8.08-11.85,19.29-14,33.36q.63,3.87,1,8a133.66,133.66,0,0,1,0,24.58,14.55,14.55,0,0,1-.33,1.77,8.76,8.76,0,0,0,16-5.93C214.7,124.5,214.33,100.13,224,86V212.41c0,9,2.55,10,4.92,10s5.83-1.37,5.64-9.6,5.11-54,6.38-57,1.73-5.93,5-5.93,3.73,2.94,5,5.93,6.56,48.74,6.38,57,3.27,9.6,5.64,9.6,4.92-1,4.92-10V85.24c10.54,14.35,10.45,40.51,9.44,49.82a8.77,8.77,0,0,0,7.76,9.68c.32,0,.64,0,1,0a8.77,8.77,0,0,0,8.7-7.81A129.57,129.57,0,0,0,294.7,113.21Z"/><circle class="cls-4" cx="147.9" cy="36.9" r="13.86"/><path class="cls-4" d="M196.1,113.21c-1.68-18.15-6.89-32.22-15.5-41.83-8.34-9.31-19.42-14-32.94-14-13.71,0-24.87,4.75-33.18,14.13s-13.4,23.2-14.89,40.83a124.82,124.82,0,0,0,.17,23.05,8.77,8.77,0,0,0,17.41-2.11c-1.07-8.76-1.43-33.13,8.2-47.27V212.41c0,9,2.55,10,4.92,10s5.83-1.37,5.65-9.6,5.1-54,6.38-57,1.73-5.93,5-5.93,3.73,2.94,5,5.93,6.55,48.74,6.37,57,3.28,9.6,5.65,9.6,4.92-1,4.92-10V85.24c10.53,14.35,10.44,40.51,9.44,49.82a8.77,8.77,0,0,0,7.75,9.68c.33,0,.65,0,1,0a8.76,8.76,0,0,0,8.7-7.81A129.57,129.57,0,0,0,196.1,113.21Z"/></g></g></svg>