<svg xmlns="http://www.w3.org/2000/svg" viewBox="0 0 500 501.19"><defs><style>.cls-1{fill:#f7b52c;}.cls-2{fill:#00a0de;}.cls-3{fill:#5db6e7;}.cls-4{fill:#e96093;}</style></defs><title>cocototo logo</title><g id="Layer_2" data-name="Layer 2"><g id="レイヤー_1" data-name="レイヤー 1"><circle class="cls-1" cx="345.02" cy="26.7" r="25.51"/><path class="cls-1" d="M378.59,141.37a21,21,0,0,1-14.75-6A160.63,160.63,0,0,0,250.62,89h-1.54a21.05,21.05,0,0,1-.14-42.1h1.68a202.45,202.45,0,0,1,142.72,58.4,21,21,0,0,1-14.75,36.06Z"/><path class="cls-1" d="M378.64,120.37,364.17,135.6a21,21,0,0,0,29.37-30Z"/><path class="cls-1" d="M349.36,104.08a2.77,2.77,0,0,0-5.24-1.32L297.46,79a26.69,26.69,0,0,0-1-3,2.78,2.78,0,0,0-5.08,2.25c.2.45,18.64,45.48-49.13,118.31a2.76,2.76,0,0,0-.25,3.47,2.37,2.37,0,0,0,.32.39,2.78,2.78,0,0,0,3,.6c1.39-.57,30.44-12.7,49.55-32.37a115.47,115.47,0,0,1-12.92,29.23,2.68,2.68,0,0,0,.46,3.46,2.78,2.78,0,0,0,3.48.27C288.42,199.92,347.88,158.52,349.36,104.08Z"/><circle class="cls-2" cx="25.51" cy="342.15" r="25.51"/><circle class="cls-3" cx="26.7" cy="156.17" r="25.51"/><circle class="cls-2" cx="159.05" cy="25.51" r="25.51"/><path class="cls-2" d="M120.5,143.36a21,21,0,0,1-15.26-35.44l.52-.54A202.3,202.3,0,0,1,249,46.92h.17A21,21,0,0,1,249.29,89a160.58,160.58,0,0,0-113.67,48A21.2,21.2,0,0,1,120.5,143.36Z"/><path class="cls-3" d="M68,251.93l-21-.19v-1.17A202.45,202.45,0,0,1,105.45,107.7a21,21,0,0,1,30,29.53A160.61,160.61,0,0,0,89,250.57v1Z"/><path class="cls-2" d="M122.36,401.68a21,21,0,0,1-14.69-6l-.2-.19A202.42,202.42,0,0,1,46.92,252.09a21,21,0,0,1,20.89-21.2H68a21,21,0,0,1,21,20.89A160.57,160.57,0,0,0,137,365.5c.09.09.17.18.25.25a21.05,21.05,0,0,1-14.88,35.93Z"/><path class="cls-2" d="M192,77.22a1.63,1.63,0,0,0-2.73,1.62L160,88.36a15.28,15.28,0,0,0-1.65-.79,1.63,1.63,0,0,0-1.17,3c.26.11,26.65,11.16,28.75,69.6a1.61,1.61,0,0,0,1.33,1.54,1.53,1.53,0,0,0,.3,0,1.62,1.62,0,0,0,1.5-1c.34-.81,7.38-17.92,7.14-34A67.59,67.59,0,0,1,203,144.24a1.58,1.58,0,0,0,1.63,1.25,1.63,1.63,0,0,0,1.56-1.33C206.54,142.38,214.05,100.46,192,77.22Z"/><circle class="cls-4" cx="156.17" cy="474.49" r="25.51"/><path class="cls-4" d="M250.57,454.28a202.44,202.44,0,0,1-143-58.69,21,21,0,0,1,29.56-30,160.6,160.6,0,0,0,113.46,46.56h1c11.45.06,21.46,9.23,21.58,20.84a20.74,20.74,0,0,1-20.43,21.25Z"/><path class="cls-4" d="M171.52,415.51a1.59,1.59,0,0,0,1.54,1.63,1.58,1.58,0,0,0,1.44-.87l26.56,13.52a16.36,16.36,0,0,0,.58,1.68,1.58,1.58,0,0,0,2.89-1.28c-.11-.26-10.6-25.89,28-67.33a1.59,1.59,0,0,0,.15-2,2,2,0,0,0-.19-.22,1.57,1.57,0,0,0-1.71-.34c-.79.33-17.33,7.23-28.2,18.42a65.83,65.83,0,0,1,7.35-16.63,1.52,1.52,0,0,0-.26-2,1.59,1.59,0,0,0-2-.16C206.2,361,172.37,384.53,171.52,415.51Z"/><circle class="cls-3" cx="474.49" cy="345.02" r="25.51"/><circle class="cls-2" cx="342.15" cy="475.68" r="25.51"/><path class="cls-2" d="M251.8,454.27a21,21,0,0,1-.14-42.09,160.6,160.6,0,0,0,113.91-48,21.28,21.28,0,0,1,29.82-.51,20.83,20.83,0,0,1,.76,29.44l-.73.74A202.27,202.27,0,0,1,252,454.27Z"/><path class="cls-3" d="M381,399.51a21.06,21.06,0,0,1-15-35.79,160.6,160.6,0,0,0,46.21-113.09v-1.18a21.29,21.29,0,0,1,21.05-21.33,20.81,20.81,0,0,1,21,20.77v1.74A202.51,202.51,0,0,1,396,393.2,21,21,0,0,1,381,399.51Z"/><path class="cls-3" d="M403.72,342.47a2.39,2.39,0,0,0,2.45-2.32,2.36,2.36,0,0,0-1.31-2.18l20.42-40.1a22.63,22.63,0,0,0,2.53-.88,2.39,2.39,0,0,0-1.93-4.37c-.39.17-39.09,16-101.66-42.22a2.4,2.4,0,0,0-3-.21,1.75,1.75,0,0,0-.33.28,2.38,2.38,0,0,0-.52,2.59c.49,1.19,10.91,26.16,27.82,42.58a99.53,99.53,0,0,1-25.12-11.1,2.29,2.29,0,0,0-3,.39,2.41,2.41,0,0,0-.24,3C321.37,290.1,357,341.2,403.72,342.47Z"/><path class="cls-2" d="M293.34,423.11a2.12,2.12,0,0,0,3.41.12,3.39,3.39,0,0,0,.62-3.05L340.66,403a19.43,19.43,0,0,0,2.44,1.44,2.29,2.29,0,0,0,3.11-1.69,3.18,3.18,0,0,0-1.37-3.81c-.39-.19-39.41-20.17-42.52-125.82a2.83,2.83,0,0,0-2-2.8,2.1,2.1,0,0,0-.43,0,2.47,2.47,0,0,0-2.23,1.82c-.5,1.47-10.9,32.41-10.56,61.56a140.12,140.12,0,0,1-10-31.67,2.47,2.47,0,0,0-2.41-2.26,2.63,2.63,0,0,0-2.31,2.41C271.89,305.3,260.79,381.09,293.34,423.11Z"/><path class="cls-2" d="M78.17,296.79a1.79,1.79,0,0,0-.07,2.52,1.77,1.77,0,0,0,1.84.45L90.33,331.7a16.37,16.37,0,0,0-.87,1.8,1.79,1.79,0,0,0,3.33,1.29c.11-.3,12.17-29.08,75.93-31.37a1.78,1.78,0,0,0,1.69-1.47,1.66,1.66,0,0,0,0-.32,1.79,1.79,0,0,0-1.1-1.64c-.89-.37-19.56-8-37.15-7.79a74,74,0,0,1,19.11-7.39,1.71,1.71,0,0,0,1.36-1.78,1.79,1.79,0,0,0-1.45-1.71C149.27,281,103.53,272.77,78.17,296.79Z"/><path class="cls-3" d="M98.83,158.27a2.4,2.4,0,0,0-2.45,2.33,2.36,2.36,0,0,0,1.31,2.17l-20.41,40.1a24.18,24.18,0,0,0-2.53.88,2.39,2.39,0,0,0,1.93,4.37c.38-.17,39.08-16,101.66,42.22a2.4,2.4,0,0,0,3,.22,3,3,0,0,0,.33-.28,2.4,2.4,0,0,0,.52-2.6c-.49-1.19-10.91-26.15-27.82-42.57a98.8,98.8,0,0,1,25.12,11.1,2.29,2.29,0,0,0,3-.4,2.39,2.39,0,0,0,.24-3C181.19,210.64,145.61,159.55,98.83,158.27Z"/></g></g></svg>