<svg class="nav_icon" xmlns="http://www.w3.org/2000/svg" viewBox="0 0 26.43 49.48"><defs><style>.cls-1{fill:#00a0de;}</style></defs><title>Asset 6</title><g id="Layer_2" data-name="Layer 2"><g id="Layer_1-2" data-name="Layer 1"><path class="cls-1" d="M25.44,0H19.1C12,0,7.37,4.78,7.37,12.18v5.61H1a1,1,0,0,0-1,1v8.14a1,1,0,0,0,1,1H7.37V48.47a1,1,0,0,0,1,1h8.31a1,1,0,0,0,1-1V28h7.45a1,1,0,0,0,1-1V18.8a1,1,0,0,0-.29-.71,1,1,0,0,0-.7-.3H17.68V13c0-2.29.54-3.45,3.48-3.45h4.27a1,1,0,0,0,1-1V1A1,1,0,0,0,25.44,0Z"/></g></g></svg>