<svg xmlns="http://www.w3.org/2000/svg" viewBox="0 0 262.41 253.35"><defs><style>.cls-1{fill:#e96093;}.cls-2{fill:#5db6e7;}.cls-3{fill:#00a0de;}.cls-4{fill:#f7b52c;}</style></defs><title>Asset 1</title><g id="Layer_2" data-name="Layer 2"><g id="design"><circle class="cls-1" cx="108.92" cy="53.63" r="13.86"/><path class="cls-1" d="M108.92,168c3.28,0,3.74,2.94,5,5.94.49,1.15,1.57,8.59,2.71,17.78a82.65,82.65,0,0,0,14.24-2.49V103.29c10.53,14.35,10.44,40.51,9.44,49.83a8.76,8.76,0,0,0,7.75,9.67,8,8,0,0,0,1,.05,8.76,8.76,0,0,0,8.7-7.8,129.61,129.61,0,0,0,0-23.77C156,113.12,150.8,99,142.2,89.43c-8.34-9.3-19.42-14-32.94-14-13.71,0-24.88,4.76-33.18,14.13s-13.4,23.21-14.89,40.84a123.66,123.66,0,0,0,.17,23,8.77,8.77,0,0,0,17.41-2.1c-1-8.78-1.38-33.18,8.2-47.27v84.8a82,82,0,0,0,14.25,2.74c1.13-9.16,2.21-16.56,2.69-17.7C105.19,170.89,105.65,168,108.92,168Z"/><path class="cls-2" d="M109.5,219A109.5,109.5,0,1,1,219,109.5,109.62,109.62,0,0,1,109.5,219Zm0-196A86.5,86.5,0,1,0,196,109.5,86.59,86.59,0,0,0,109.5,23Z"/><path class="cls-3" d="M109.5,219A109.5,109.5,0,1,1,185.08,30.27a11.5,11.5,0,1,1-15.87,16.64A86.5,86.5,0,1,0,196,109.5a11.5,11.5,0,0,1,23,0A109.62,109.62,0,0,1,109.5,219Z"/><path class="cls-4" d="M177.14,50.09a11.46,11.46,0,0,1-7.93-3.18A86.12,86.12,0,0,0,109.5,23a11.5,11.5,0,0,1,0-23,109,109,0,0,1,75.58,30.27,11.5,11.5,0,0,1-7.94,19.82Z"/><path class="cls-3" d="M250.91,253.35a11.44,11.44,0,0,1-8.13-3.37l-64.55-64.55a11.5,11.5,0,0,1,16.26-16.26L259,233.72a11.5,11.5,0,0,1-8.13,19.63Z"/></g></g></svg>