<svg xmlns="http://www.w3.org/2000/svg" viewBox="0 0 252.51 260.57"><defs><style>.cls-1{fill:#00a0de;}.cls-2{fill:#5db6e7;}.cls-3{fill:#f7b52c;}.cls-4{fill:#e96093;}</style></defs><title>cart</title><g id="Layer_2" data-name="Layer 2"><g id="design"><path class="cls-1" d="M87.12,178a8,8,0,0,1-7.66-5.72c-1.21-4.05-29.74-99.65-37.68-131.72C35.52,15.25,9.44,16,8.34,16a8,8,0,0,1-.76-16C21.47-.64,49.75,6.14,57.31,36.71c7.85,31.7,37.18,130,37.48,131a8,8,0,0,1-5.38,10A7.89,7.89,0,0,1,87.12,178Z"/><path class="cls-1" d="M116,175a8,8,0,0,1-1.3-15.89c.42-.07,42.12-7,73.23-12.24,21.53-3.64,33.91-14.69,37.84-33.79.48-2.33.92-4.51,1.35-6.62,2.41-11.75,4.3-21,8.46-38.41a25.66,25.66,0,0,0,.95-7,45.53,45.53,0,0,0-5.58,0c-1.56.07-3.18.15-4.88.15H53.36a8,8,0,0,1,0-16H226c1.33,0,2.76-.07,4.15-.13,6.17-.28,13.85-.64,18.79,5.34s3.75,14.55,2.13,21.33c-4.09,17.12-6,26.28-8.34,37.89-.43,2.12-.88,4.31-1.36,6.64-3.67,17.84-15.48,40.37-50.84,46.34-31.14,5.27-72.86,12.18-73.28,12.25A8.4,8.4,0,0,1,116,175Z"/><path class="cls-1" d="M220.25,222.88H92.66c-16,0-29-12.64-29-28.18,0-15.1,12-29,27.36-31.59l42.87-7.3a8,8,0,1,1,2.68,15.77L93.7,178.89c-7.48,1.27-14,8.66-14,15.81,0,6.72,5.83,12.18,13,12.18H220.25a8,8,0,0,1,0,16Z"/><path class="cls-1" d="M121.11,143.45a8,8,0,0,1-7.71-5.89L98.77,84.22A8,8,0,0,1,114.2,80l14.63,53.34a8,8,0,0,1-5.59,9.83A8.27,8.27,0,0,1,121.11,143.45Z"/><path class="cls-1" d="M153.48,139.24a8,8,0,0,1-7.72-5.92L132.52,84.19A8,8,0,1,1,148,80l13.24,49.12a8,8,0,0,1-7.73,10.09Z"/><path class="cls-2" d="M185.42,132.48a8,8,0,0,1-7.72-5.92L166.28,84.19A8,8,0,1,1,181.73,80l11.42,42.37a8,8,0,0,1-7.73,10.08Z"/><circle class="cls-3" cx="199.85" cy="246.71" r="13.86"/><circle class="cls-4" cx="95.65" cy="246.71" r="13.86"/></g></g></svg>