<svg xmlns="http://www.w3.org/2000/svg" width="264" height="63.855" viewBox="0 0 264 63.855">
  <g id="Group_4" data-name="Group 4" transform="translate(-143.137 -233.547)">
    <g id="Group_1" data-name="Group 1" transform="translate(143.137 233.547)">
      <path id="Path_1" data-name="Path 1" d="M151.342,233.547l-8.2,25.685h22.474l2.5-8.2H154.2l2.854-9.275h24.258l2.854-8.2Z" transform="translate(-143.137 -233.547)" fill="#fff" fill-rule="evenodd"/>
      <path id="Path_2" data-name="Path 2" d="M188.906,270.3l-2.5,8.2h18.907l-1.784,5.708H184.626l-9.988,32.462h8.2l7.135-23.544h20.69l6.778-22.831Z" transform="translate(-159.655 -252.817)" fill="#fff" fill-rule="evenodd"/>
      <path id="Path_3" data-name="Path 3" d="M266.522,270.3l-7.135,22.831H275.44l1.07-3.567H264.738l4.994-15.7H281.5l1.07-3.567Z" transform="translate(-204.094 -252.817)" fill="#fff" fill-rule="evenodd"/>
      <path id="Path_4" data-name="Path 4" d="M304.022,270.3l-7.135,22.831H313.3l6.778-22.831Zm6.421,19.263h-8.562l4.994-15.7h8.2Z" transform="translate(-223.757 -252.817)" fill="#fff" fill-rule="evenodd"/>
      <path id="Path_5" data-name="Path 5" d="M358.324,270.3H342.272l-7.135,22.831H338.7l3.211-9.988h3.924l1.427,9.988h3.924l-1.427-9.988H354.4Zm-6.778,9.275h-8.561l1.784-5.708h8.562Z" transform="translate(-243.814 -252.817)" fill="#fff" fill-rule="evenodd"/>
      <path id="Path_6" data-name="Path 6" d="M379.772,270.3l-7.135,22.831h16.529l.951-3.567H378.345l1.784-6.421H391.9l1.07-3.567H381.2l1.784-5.708h11.772l1.07-3.567Z" transform="translate(-263.478 -252.817)" fill="#fff" fill-rule="evenodd"/>
      <path id="Path_7" data-name="Path 7" d="M427.772,270.3l-7.135,22.831h3.924l2.854-9.988H439.9l3.924-12.842Zm9.275,9.275h-8.562l1.784-5.708h8.562Z" transform="translate(-288.647 -252.817)" fill="#fff" fill-rule="evenodd"/>
      <path id="Path_8" data-name="Path 8" d="M469.443,270.3l-13.556,22.831h4.638l2.854-5.351H469.8l-.357,5.351h3.924l1.427-22.831Zm.713,13.912h-4.638l5.351-8.562Z" transform="translate(-307.13 -252.817)" fill="#fff" fill-rule="evenodd"/>
      <path id="Path_9" data-name="Path 9" d="M503.521,270.3l-7.135,22.831H512.44l1.07-3.567H501.738l4.994-15.7H518.5l1.07-3.567Z" transform="translate(-328.367 -252.817)" fill="#fff" fill-rule="evenodd"/>
      <path id="Path_10" data-name="Path 10" d="M541.021,270.3l-7.135,22.831h4.637l1.784-6.778,3.211-2.854,2.854,9.632h4.281l-3.924-12.842,10.345-9.988h-6.421l-7.491,7.135,2.14-7.135Z" transform="translate(-348.03 -252.817)" fill="#fff" fill-rule="evenodd"/>
    </g>
    <g id="Group_2" data-name="Group 2" transform="translate(349.441 264.17)">
      <path id="Path_11" data-name="Path 11" d="M579.6,307.829a6.67,6.67,0,0,1-1.709-.152,1.329,1.329,0,0,1-.759-.522,1.865,1.865,0,0,1-.26-1.083,7.5,7.5,0,0,1,.319-1.783l.729-2.64a10.119,10.119,0,0,1,.706-1.921,3.575,3.575,0,0,1,.87-1.122,2.667,2.667,0,0,1,1.06-.522,7.74,7.74,0,0,1,1.768-.153h2.457q1.9,0,2.408.587t.079,2.138c-.037.135-.066.238-.085.312s-.042.14-.063.2h-.892l.04-.143a2.167,2.167,0,0,0,.037-1.583q-.276-.451-1.286-.451h-3.379a3.189,3.189,0,0,0-1.114.163,1.823,1.823,0,0,0-.749.54,2.574,2.574,0,0,0-.391.637,10.175,10.175,0,0,0-.4,1.241l-.05.182-.66,2.386a9.4,9.4,0,0,0-.281,1.238,1.568,1.568,0,0,0,.04.635.826.826,0,0,0,.45.538,2.485,2.485,0,0,0,1.026.162h3.366a2.508,2.508,0,0,0,1.63-.44,3.172,3.172,0,0,0,.847-1.6l.073-.266h.892c-.017.06-.038.144-.062.249s-.045.183-.057.231a6.86,6.86,0,0,1-.549,1.449,2.968,2.968,0,0,1-.722.885,2.358,2.358,0,0,1-1.007.474,9.347,9.347,0,0,1-1.872.136Z" transform="translate(-576.876 -297.93)" fill="#fff" fill-rule="evenodd"/>
      <path id="Path_12" data-name="Path 12" d="M601.084,307.829a7.583,7.583,0,0,1-1.811-.153,1.482,1.482,0,0,1-.83-.523,1.808,1.808,0,0,1-.3-1.091,7.094,7.094,0,0,1,.306-1.779l.729-2.637a9.7,9.7,0,0,1,.712-1.919,3.445,3.445,0,0,1,.9-1.122,3,3,0,0,1,1.133-.519,8.645,8.645,0,0,1,1.882-.156h2.609a7.417,7.417,0,0,1,1.792.156,1.527,1.527,0,0,1,.843.519,1.763,1.763,0,0,1,.285,1.1,7.573,7.573,0,0,1-.319,1.826l-.746,2.7a8.917,8.917,0,0,1-.691,1.832,3.392,3.392,0,0,1-.893,1.1,2.9,2.9,0,0,1-1.115.523,8.713,8.713,0,0,1-1.894.153Zm5.5-8.839h-3.527a3.661,3.661,0,0,0-1.209.163,1.893,1.893,0,0,0-.787.539,2.547,2.547,0,0,0-.414.646,9.281,9.281,0,0,0-.411,1.244l-.047.169-.656,2.371a8.441,8.441,0,0,0-.276,1.244,1.537,1.537,0,0,0,.058.646.863.863,0,0,0,.488.539,2.9,2.9,0,0,0,1.118.162h3.527a3.679,3.679,0,0,0,1.209-.162,1.948,1.948,0,0,0,.793-.539,2.6,2.6,0,0,0,.394-.62,7.83,7.83,0,0,0,.377-1.12l.09-.325.695-2.513a7.014,7.014,0,0,0,.243-1.123,1.57,1.57,0,0,0-.052-.617.885.885,0,0,0-.5-.539A2.883,2.883,0,0,0,606.584,298.99Z" transform="translate(-588.027 -297.93)" fill="#fff" fill-rule="evenodd"/>
      <path id="Path_13" data-name="Path 13" d="M620.41,316.574l.483-1.748h1.2l-.483,1.748Z" transform="translate(-599.703 -306.79)" fill="#fff" fill-rule="evenodd"/>
      <path id="Path_14" data-name="Path 14" d="M628.724,316.574l.483-1.748h1.2l-.549,1.988a2.068,2.068,0,0,1-.491.938,1.077,1.077,0,0,1-.782.313h-.364l.225-.817h.216a.349.349,0,0,0,.26-.1.78.78,0,0,0,.164-.334l.066-.24Z" transform="translate(-603.801 -306.79)" fill="#fff" fill-rule="evenodd"/>
      <path id="Path_15" data-name="Path 15" d="M636.664,307.84l2.673-9.67h.966l-2.38,8.61h6.064l-.293,1.06Z" transform="translate(-608.226 -298.056)" fill="#fff" fill-rule="evenodd"/>
      <path id="Path_16" data-name="Path 16" d="M657.043,307.84h-.966l2.376-8.6H654.6l.3-1.075h8.68l-.3,1.075h-3.865Z" transform="translate(-617.633 -298.056)" fill="#fff" fill-rule="evenodd"/>
      <path id="Path_17" data-name="Path 17" d="M679.469,298.17a7.1,7.1,0,0,1,1.694.146,1.617,1.617,0,0,1,.828.477,1.791,1.791,0,0,1,.387,1.111,6.176,6.176,0,0,1-.28,1.792l-.724,2.62a7.451,7.451,0,0,1-.712,1.792,3.61,3.61,0,0,1-1,1.11,3.009,3.009,0,0,1-1.092.48,8.421,8.421,0,0,1-1.774.143h-5.864l2.674-9.67Zm.322,1.075h-5.517l-2.079,7.521h5.517a2.433,2.433,0,0,0,1.677-.523,3.75,3.75,0,0,0,.944-1.817l.782-2.828a2.771,2.771,0,0,0,.1-1.859Q680.937,299.244,679.792,299.245Z" transform="translate(-626.195 -298.056)" fill="#fff" fill-rule="evenodd"/>
      <path id="Path_18" data-name="Path 18" d="M694.631,316.574l.483-1.748h1.2l-.483,1.748Z" transform="translate(-638.622 -306.79)" fill="#fff" fill-rule="evenodd"/>
    </g>
  </g>
</svg>
