<svg xmlns="http://www.w3.org/2000/svg" width="222.424" height="53.799" viewBox="0 0 222.424 53.799">
  <g id="Group_3" data-name="Group 3" transform="translate(-143.137 -233.547)">
    <g id="Group_1" data-name="Group 1" transform="translate(143.137 233.547)">
      <path id="Path_1" data-name="Path 1" d="M150.05,233.547l-6.913,21.64h18.935l2.1-6.913H152.454l2.4-7.814H175.3l2.4-6.913Z" transform="translate(-143.137 -233.547)" fill="#0f1e5f" fill-rule="evenodd"/>
      <path id="Path_2" data-name="Path 2" d="M186.659,270.3l-2.1,6.913h15.929l-1.5,4.809H183.053l-8.415,27.35h6.913l6.011-19.836h17.432L210.7,270.3Z" transform="translate(-162.014 -255.57)" fill="#00689e" fill-rule="evenodd"/>
      <path id="Path_3" data-name="Path 3" d="M265.4,270.3l-6.011,19.235h13.525l.9-3.006H263.9L268.1,273.3h9.918l.9-3.006Z" transform="translate(-212.802 -255.57)" fill="#0f1e5f" fill-rule="evenodd"/>
      <path id="Path_4" data-name="Path 4" d="M302.9,270.3l-6.011,19.235h13.825l5.71-19.235Zm5.41,16.23h-7.213L305.3,273.3h6.913Z" transform="translate(-235.274 -255.57)" fill="#0f1e5f" fill-rule="evenodd"/>
      <path id="Path_5" data-name="Path 5" d="M354.673,270.3H341.148l-6.011,19.235h3.006l2.7-8.415h3.306l1.2,8.415h3.306l-1.2-8.415h3.907Zm-5.711,7.814h-7.213l1.5-4.809h7.213Z" transform="translate(-258.196 -255.57)" fill="#0f1e5f" fill-rule="evenodd"/>
      <path id="Path_6" data-name="Path 6" d="M378.648,270.3l-6.011,19.235h13.926l.8-3.006h-9.918l1.5-5.41h9.918l.9-3.006H379.85l1.5-4.809h9.918l.9-3.006Z" transform="translate(-280.668 -255.57)" fill="#0f1e5f" fill-rule="evenodd"/>
      <path id="Path_7" data-name="Path 7" d="M426.648,270.3l-6.011,19.235h3.306l2.4-8.415h10.519l3.306-10.82Zm7.814,7.814h-7.213l1.5-4.809h7.213Z" transform="translate(-309.433 -255.57)" fill="#0f1e5f" fill-rule="evenodd"/>
      <path id="Path_8" data-name="Path 8" d="M467.308,270.3l-11.421,19.235h3.907l2.4-4.508h5.41l-.3,4.508h3.306l1.2-19.235Zm.6,11.721H464l4.508-7.213Z" transform="translate(-330.557 -255.57)" fill="#0f1e5f" fill-rule="evenodd"/>
      <path id="Path_9" data-name="Path 9" d="M502.4,270.3l-6.011,19.235h13.525l.9-3.006h-9.918L505.1,273.3h9.918l.9-3.006Z" transform="translate(-354.827 -255.57)" fill="#0f1e5f" fill-rule="evenodd"/>
      <path id="Path_10" data-name="Path 10" d="M539.9,270.3l-6.011,19.235h3.907l1.5-5.71,2.705-2.4,2.4,8.115h3.607l-3.306-10.82,8.716-8.415h-5.41l-6.312,6.011,1.8-6.011Z" transform="translate(-377.3 -255.57)" fill="#0f1e5f" fill-rule="evenodd"/>
    </g>
    <g id="Group_2" data-name="Group 2" transform="translate(316.952 259.347)">
      <path id="Path_11" data-name="Path 11" d="M579.175,306.27a5.621,5.621,0,0,1-1.44-.128,1.12,1.12,0,0,1-.639-.44,1.572,1.572,0,0,1-.219-.912,6.318,6.318,0,0,1,.268-1.5l.614-2.224a8.519,8.519,0,0,1,.595-1.619,3.011,3.011,0,0,1,.733-.946,2.248,2.248,0,0,1,.893-.44,6.52,6.52,0,0,1,1.49-.129h2.07q1.6,0,2.029.495t.067,1.8c-.031.113-.055.2-.072.263s-.035.118-.053.169h-.751l.034-.121a1.825,1.825,0,0,0,.031-1.334q-.233-.38-1.083-.38h-2.847a2.687,2.687,0,0,0-.939.137,1.536,1.536,0,0,0-.631.455,2.168,2.168,0,0,0-.329.537,8.575,8.575,0,0,0-.341,1.046l-.042.153-.556,2.01a7.914,7.914,0,0,0-.237,1.043,1.32,1.32,0,0,0,.034.535.7.7,0,0,0,.379.453,2.094,2.094,0,0,0,.864.137h2.836a2.113,2.113,0,0,0,1.374-.371,2.672,2.672,0,0,0,.714-1.348l.062-.224h.751c-.014.051-.032.121-.052.21s-.038.154-.049.194a5.779,5.779,0,0,1-.463,1.221,2.5,2.5,0,0,1-.609.746,1.986,1.986,0,0,1-.849.4,7.874,7.874,0,0,1-1.577.114Z" transform="translate(-576.876 -297.93)" fill="#0f1e5f" fill-rule="evenodd"/>
      <path id="Path_12" data-name="Path 12" d="M600.62,306.27a6.387,6.387,0,0,1-1.526-.129,1.249,1.249,0,0,1-.7-.44,1.523,1.523,0,0,1-.254-.919,5.976,5.976,0,0,1,.258-1.5l.614-2.222a8.167,8.167,0,0,1,.6-1.617,2.9,2.9,0,0,1,.762-.945,2.528,2.528,0,0,1,.954-.437,7.282,7.282,0,0,1,1.586-.131h2.2a6.247,6.247,0,0,1,1.51.131,1.286,1.286,0,0,1,.71.437,1.486,1.486,0,0,1,.24.926,6.379,6.379,0,0,1-.268,1.538l-.629,2.271a7.512,7.512,0,0,1-.582,1.544,2.858,2.858,0,0,1-.752.924,2.446,2.446,0,0,1-.939.44,7.338,7.338,0,0,1-1.6.129Zm4.634-7.447h-2.972a3.084,3.084,0,0,0-1.018.137,1.594,1.594,0,0,0-.663.454,2.146,2.146,0,0,0-.349.544,7.811,7.811,0,0,0-.347,1.048l-.039.142-.553,2a7.117,7.117,0,0,0-.232,1.048,1.3,1.3,0,0,0,.049.544.727.727,0,0,0,.411.454,2.446,2.446,0,0,0,.942.137h2.972a3.1,3.1,0,0,0,1.018-.137,1.641,1.641,0,0,0,.668-.454,2.189,2.189,0,0,0,.332-.523,6.594,6.594,0,0,0,.318-.944l.076-.274.586-2.117a5.91,5.91,0,0,0,.2-.947,1.323,1.323,0,0,0-.044-.52.746.746,0,0,0-.417-.454A2.429,2.429,0,0,0,605.254,298.823Z" transform="translate(-589.619 -297.93)" fill="#0f1e5f" fill-rule="evenodd"/>
      <path id="Path_13" data-name="Path 13" d="M620.41,316.3l.407-1.473h1.014l-.407,1.473Z" transform="translate(-602.964 -308.055)" fill="#0f1e5f" fill-rule="evenodd"/>
      <path id="Path_14" data-name="Path 14" d="M628.646,316.3l.407-1.473h1.014L629.6,316.5a1.742,1.742,0,0,1-.414.79.907.907,0,0,1-.659.263h-.307l.19-.688h.182a.294.294,0,0,0,.219-.084.657.657,0,0,0,.138-.281l.056-.2Z" transform="translate(-607.648 -308.055)" fill="#0f1e5f" fill-rule="evenodd"/>
      <path id="Path_15" data-name="Path 15" d="M636.664,306.317l2.253-8.147h.814l-2.005,7.254h5.109l-.247.893Z" transform="translate(-612.705 -298.074)" fill="#0f1e5f" fill-rule="evenodd"/>
      <path id="Path_16" data-name="Path 16" d="M656.658,306.317h-.814l2-7.242H654.6l.25-.906h7.313l-.25.906H658.66Z" transform="translate(-623.455 -298.074)" fill="#0f1e5f" fill-rule="evenodd"/>
      <path id="Path_17" data-name="Path 17" d="M678.125,298.17a5.978,5.978,0,0,1,1.427.123,1.362,1.362,0,0,1,.7.4,1.509,1.509,0,0,1,.326.936,5.2,5.2,0,0,1-.236,1.51l-.61,2.207a6.279,6.279,0,0,1-.6,1.51,3.041,3.041,0,0,1-.843.935,2.535,2.535,0,0,1-.92.4,7.1,7.1,0,0,1-1.495.12h-4.94l2.253-8.147Zm.272.906h-4.648L672,305.412h4.648a2.05,2.05,0,0,0,1.413-.441,3.159,3.159,0,0,0,.8-1.531l.659-2.382a2.335,2.335,0,0,0,.084-1.566Q679.362,299.075,678.4,299.076Z" transform="translate(-633.24 -298.074)" fill="#0f1e5f" fill-rule="evenodd"/>
      <path id="Path_18" data-name="Path 18" d="M694.631,316.3l.407-1.473h1.015l-.407,1.473Z" transform="translate(-647.442 -308.055)" fill="#0f1e5f" fill-rule="evenodd"/>
    </g>
  </g>
</svg>
