<svg id="フリーダイヤルのアイコン_2_" data-name="フリーダイヤルのアイコン (2)" xmlns="http://www.w3.org/2000/svg" width="26.903" height="17.651" viewBox="0 0 26.903 17.651">
  <path id="Path_19" data-name="Path 19" d="M0,88.032v2.752a15.862,15.862,0,0,1,5.787,1.082q.478.189.927.4a14.666,14.666,0,0,1,2.19-.839,16.1,16.1,0,0,1,4.548-.647,15.868,15.868,0,0,1,5.812,1.082q.478.189.926.4a14.677,14.677,0,0,1,2.19-.839,16.112,16.112,0,0,1,4.523-.647V88.032Z" transform="translate(0 -88.032)" fill="#0053b1"/>
  <path id="Path_20" data-name="Path 20" d="M320.59,210.206a3.345,3.345,0,0,0,5.213,2.773,3.337,3.337,0,0,0,1.475-2.773,2.853,2.853,0,0,0-.215-1.051,4.634,4.634,0,0,0-.665-1.134,8.455,8.455,0,0,0-2.464-2.054,9.089,9.089,0,0,0-2.023,1.547,5.024,5.024,0,0,0-1.152,1.763A2.792,2.792,0,0,0,320.59,210.206Z" transform="translate(-303.745 -199.769)" fill="#0053b1"/>
  <path id="Path_21" data-name="Path 21" d="M23.463,175.464A6.746,6.746,0,0,1,25,177.853a4.528,4.528,0,0,1,.268,1.507,5.078,5.078,0,1,1-10.156,0,4.816,4.816,0,0,1,.582-2.226,7.572,7.572,0,0,1,1.534-1.977,10.556,10.556,0,0,1,1.1-.9c-.265-.1-.538-.188-.818-.271a14.386,14.386,0,0,0-4.058-.576,14.187,14.187,0,0,0-4.876.847,10.171,10.171,0,0,1,1.412,1.208,6.75,6.75,0,0,1,1.537,2.388,4.523,4.523,0,0,1,.268,1.507,5.078,5.078,0,1,1-10.156,0,4.818,4.818,0,0,1,.582-2.226,7.574,7.574,0,0,1,1.534-1.977,10.527,10.527,0,0,1,1.1-.9c-.266-.1-.538-.188-.818-.271A14.39,14.39,0,0,0,0,173.409v13.165H26.9V173.409a14.19,14.19,0,0,0-4.851.847A10.165,10.165,0,0,1,23.463,175.464Z" transform="translate(0 -168.923)" fill="#0053b1"/>
  <path id="Path_22" data-name="Path 22" d="M64.118,210.206a3.345,3.345,0,0,0,5.213,2.773,3.339,3.339,0,0,0,1.475-2.773,2.862,2.862,0,0,0-.215-1.051,4.649,4.649,0,0,0-.665-1.134,8.463,8.463,0,0,0-2.464-2.054,9.083,9.083,0,0,0-2.023,1.547,5.025,5.025,0,0,0-1.151,1.763A2.789,2.789,0,0,0,64.118,210.206Z" transform="translate(-60.749 -199.769)" fill="#0053b1"/>
</svg>
