<svg xmlns="http://www.w3.org/2000/svg" width="83.313" height="110.039" viewBox="0 0 83.313 110.039">
  <g id="Group_59" data-name="Group 59" transform="translate(-22.929 -132.679)">
    <g id="Group_56" data-name="Group 56" transform="translate(79.639 170.586)">
      <path id="Path_290" data-name="Path 290" d="M64.417,183.818a13.071,13.071,0,0,1-6.282-7.14,14.456,14.456,0,0,1-.759-3.79,8.121,8.121,0,0,1,.13-2.428q2.912-3.485,4.315-.708c.281.362.784-.146.506-.506-1.337-1.723-2-3.222-4-1.486-1.494,1.3-1.78,3.254-1.666,5.128a13.946,13.946,0,0,0,7.4,11.548.358.358,0,0,0,.362-.617Z" transform="translate(-56.638 -147.176)" fill="#9ab4d0"/>
      <path id="Path_291" data-name="Path 291" d="M60.746,176.471a33.469,33.469,0,0,1-1.469-6.556,13.482,13.482,0,0,1,.16-3.864q-.144-1.731,1.523-1.533a3.513,3.513,0,0,0,2.095-.781,10.317,10.317,0,0,1,.409-3.689c1.087-3.735,3.715-3.047,5.052-.215.2.416.814.054.619-.362-.752-1.588-2.074-5.067-4.236-3.642-2.947,1.943-2.788,7.677-2.061,10.518a.358.358,0,0,0,.69-.192A7.913,7.913,0,0,0,60.97,161.9a.362.362,0,0,0-.562.072c-2.843,4.808-1.829,9.584-.352,14.692a.358.358,0,0,0,.69-.19Z" transform="translate(-55.297 -155.02)" fill="#9ab4d0"/>
      <path id="Path_292" data-name="Path 292" d="M66.2,161.962c.527-3.264,2.421-7.438,3.472-2.177.479,2.4-.478,5.2-1.22,7.481a.362.362,0,0,0,.441.439,7.857,7.857,0,0,1,1.408-.34c4.835.384,3.291-.069,3.408,2.492.148,3.215-1.847,6.906-3.358,9.544a.358.358,0,0,0,.617.362c1.268-2.216,6.543-12.8,2.732-14.591-1.666-.781-2.6,1.713-4.017.619.015.012.728-4.547.734-5.158a23.145,23.145,0,0,0-.651-5.163.36.36,0,0,0-.6-.158,10.542,10.542,0,0,0-3.659,6.46c-.072.451.617.644.69.19Z" transform="translate(-50.585 -155.211)" fill="#9ab4d0"/>
      <path id="Path_293" data-name="Path 293" d="M72.909,170.831c1.66-1.575,3.777-2.835,3.918,0,.079,1.558-.934,3.743-1.563,4.971a39.562,39.562,0,0,1-5.136,7.209.36.36,0,0,0,.348.6c3.02-.691-1.718,6.681-4.414,4.738a.365.365,0,0,0-.434.057l-3.089-3.558c.106-.447-.584-.639-.69-.19-.343,1.454-.87,4.2.69,5.244,1.408.939,2.806-1.191,4.066-.283a.362.362,0,0,0,.36,0c2.658-1.38,6.819-3.25,5.636-6.877a.366.366,0,0,0-.439-.249c-1.723.4-.316-.436.473-1.413a28.826,28.826,0,0,0,3.247-4.914,14.663,14.663,0,0,0,1.721-7.88.364.364,0,0,0-.454-.345,9.415,9.415,0,0,0-4.746,2.386c-.335.316.172.821.506.5Z" transform="translate(-53.334 -146.533)" fill="#9ab4d0"/>
      <path id="Path_294" data-name="Path 294" d="M63.943,180.02a105.778,105.778,0,0,1,.434,13.383c-.015.461.7.459.715,0a106.091,106.091,0,0,0-.432-13.383c-.044-.454-.76-.458-.717,0Z" transform="translate(-51.654 -138.517)" fill="#9ab4d0"/>
      <path id="Path_295" data-name="Path 295" d="M66.051,180.227a34.058,34.058,0,0,0,.585,12.562c.106.448.8.257.69-.19a33.111,33.111,0,0,1-.585-12.184c.062-.449-.626-.644-.69-.188Z" transform="translate(-50.438 -138.319)" fill="#9ab4d0"/>
      <path id="Path_296" data-name="Path 296" d="M60.13,187.993c3.942.471,7.954.38,11.921.456,1.7.032,3.609-.1,5.3.1,2.138.259,4.953,1.157,1.289,1.721-3.58.548-7.752-.118-11.416.05-2.381.109-7.833,1.807-8.08-1.366-.035-.456-.752-.461-.715,0q-.131,1.151-.259,2.3a.36.36,0,0,0,.345.453,149.373,149.373,0,0,1,22.754-.609.363.363,0,0,0,.345-.453l-.384-2.487a.362.362,0,0,0-.345-.262c-6.867-.131-13.93.192-20.752-.624-.458-.056-.453.661,0,.715Z" transform="translate(-55.603 -133.333)" fill="#9ab4d0"/>
      <path id="Path_297" data-name="Path 297" d="M59.413,190.32a38.037,38.037,0,0,1,3.659,13,.363.363,0,0,0,.357.357,86.526,86.526,0,0,1,11.628.084c.458.035.456-.681,0-.715-2.323-.173-4.647-.276-6.975-.257-.663.005-2.9.36-3.493.1-1.341-.582-.69-.737-1.04-1.724-.68-1.926-.781-4.142-1.43-6.119a43.559,43.559,0,0,0-2.088-5.086c-.2-.416-.816-.054-.619.36Z" transform="translate(-54.77 -131.626)" fill="#9ab4d0"/>
      <path id="Path_298" data-name="Path 298" d="M73.617,189.421a47.273,47.273,0,0,0-3.826,14.132c-.049.456.668.453.717,0a45.967,45.967,0,0,1,3.726-13.77c.183-.417-.432-.782-.617-.362Z" transform="translate(-47.664 -131.996)" fill="#9ab4d0"/>
    </g>
    <g id="Group_57" data-name="Group 57" transform="translate(56.619 170.586)">
      <path id="Path_299" data-name="Path 299" d="M50.734,183.818a13.071,13.071,0,0,1-6.282-7.14,14.527,14.527,0,0,1-.76-3.79,8.177,8.177,0,0,1,.131-2.428q2.91-3.485,4.315-.708c.281.362.784-.146.5-.506-1.337-1.723-2-3.222-4-1.486-1.494,1.3-1.78,3.254-1.666,5.128a13.946,13.946,0,0,0,7.4,11.548.358.358,0,0,0,.362-.617Z" transform="translate(-42.955 -147.176)" fill="#9ab4d0"/>
      <path id="Path_300" data-name="Path 300" d="M47.062,176.471a33.713,33.713,0,0,1-1.469-6.556,13.544,13.544,0,0,1,.162-3.864q-.144-1.731,1.523-1.533a3.508,3.508,0,0,0,2.093-.781,10.318,10.318,0,0,1,.41-3.689c1.087-3.735,3.715-3.047,5.052-.215.2.416.814.054.619-.362-.752-1.588-2.076-5.067-4.238-3.642-2.946,1.943-2.788,7.677-2.059,10.518a.358.358,0,0,0,.69-.192,7.924,7.924,0,0,0-2.557-4.258.362.362,0,0,0-.562.072c-2.845,4.808-1.829,9.584-.353,14.692a.358.358,0,0,0,.69-.19Z" transform="translate(-41.614 -155.02)" fill="#9ab4d0"/>
      <path id="Path_301" data-name="Path 301" d="M52.52,161.962c.527-3.264,2.421-7.438,3.471-2.177.481,2.4-.478,5.2-1.218,7.481a.362.362,0,0,0,.441.439,7.858,7.858,0,0,1,1.408-.34c4.835.384,3.289-.069,3.408,2.492.148,3.215-1.849,6.906-3.358,9.544a.358.358,0,0,0,.617.362c1.268-2.216,6.543-12.8,2.732-14.591-1.667-.781-2.6,1.713-4.017.619.015.012.728-4.547.734-5.158a23.145,23.145,0,0,0-.651-5.163.361.361,0,0,0-.6-.158,10.532,10.532,0,0,0-3.657,6.46c-.072.451.617.644.69.19Z" transform="translate(-36.902 -155.211)" fill="#9ab4d0"/>
      <path id="Path_302" data-name="Path 302" d="M59.226,170.831c1.659-1.575,3.777-2.835,3.918,0,.079,1.558-.935,3.743-1.565,4.971a39.472,39.472,0,0,1-5.135,7.209.36.36,0,0,0,.348.6c3.02-.691-1.718,6.681-4.414,4.738a.365.365,0,0,0-.434.057l-3.089-3.558c.106-.447-.584-.639-.69-.19-.345,1.454-.871,4.2.69,5.244,1.408.939,2.806-1.191,4.065-.283a.365.365,0,0,0,.362,0c2.658-1.38,6.819-3.25,5.636-6.877a.367.367,0,0,0-.441-.249c-1.723.4-.315-.436.474-1.413a28.716,28.716,0,0,0,3.245-4.914,14.632,14.632,0,0,0,1.721-7.88.363.363,0,0,0-.453-.345,9.415,9.415,0,0,0-4.746,2.386c-.335.316.172.821.506.5Z" transform="translate(-39.651 -146.533)" fill="#9ab4d0"/>
      <path id="Path_303" data-name="Path 303" d="M50.26,180.02a105.777,105.777,0,0,1,.434,13.383c-.015.461.7.459.715,0a105.779,105.779,0,0,0-.434-13.383c-.044-.454-.759-.458-.715,0Z" transform="translate(-37.971 -138.517)" fill="#9ab4d0"/>
      <path id="Path_304" data-name="Path 304" d="M52.369,180.227a34.021,34.021,0,0,0,.585,12.562c.1.448.8.257.69-.19a33.075,33.075,0,0,1-.585-12.184c.062-.449-.626-.644-.69-.188Z" transform="translate(-36.756 -138.319)" fill="#9ab4d0"/>
      <path id="Path_305" data-name="Path 305" d="M46.446,187.993c3.943.471,7.956.38,11.923.456,1.7.032,3.609-.1,5.3.1,2.138.259,4.953,1.157,1.287,1.721-3.578.548-7.751-.118-11.415.05-2.381.109-7.835,1.807-8.08-1.366-.035-.456-.752-.461-.717,0q-.129,1.151-.257,2.3a.359.359,0,0,0,.345.453,149.373,149.373,0,0,1,22.754-.609.363.363,0,0,0,.345-.453q-.192-1.244-.385-2.487a.359.359,0,0,0-.345-.262c-6.866-.131-13.93.192-20.752-.624-.456-.056-.451.661,0,.715Z" transform="translate(-41.92 -133.333)" fill="#9ab4d0"/>
      <path id="Path_306" data-name="Path 306" d="M45.73,190.32a38.112,38.112,0,0,1,3.659,13,.363.363,0,0,0,.357.357,86.5,86.5,0,0,1,11.627.084c.459.035.458-.681,0-.715-2.322-.173-4.645-.276-6.973-.257-.663.005-2.9.36-3.493.1-1.343-.582-.69-.737-1.04-1.724-.68-1.926-.782-4.142-1.432-6.119a42.984,42.984,0,0,0-2.088-5.086c-.2-.416-.814-.054-.617.36Z" transform="translate(-41.087 -131.626)" fill="#9ab4d0"/>
      <path id="Path_307" data-name="Path 307" d="M59.934,189.421a47.174,47.174,0,0,0-3.826,14.132c-.049.456.668.453.715,0a46.02,46.02,0,0,1,3.728-13.77c.183-.417-.432-.782-.617-.362Z" transform="translate(-33.981 -131.996)" fill="#9ab4d0"/>
    </g>
    <g id="Group_58" data-name="Group 58" transform="translate(22.929 132.679)">
      <path id="Path_308" data-name="Path 308" d="M30.108,133.33l19.482,8.44c.419.182.782-.434.362-.617l-19.482-8.44c-.419-.182-.782.436-.362.617Z" transform="translate(-18.158 -132.679)" fill="#9ab4d0"/>
      <path id="Path_309" data-name="Path 309" d="M41.366,137.857c.5,32.752-.342,65.513.163,98.265a.358.358,0,0,0,.715,0c-.5-32.752.342-65.513-.163-98.265a.358.358,0,0,0-.715,0Z" transform="translate(-10.352 -129.382)" fill="#9ab4d0"/>
      <path id="Path_310" data-name="Path 310" d="M30.385,133.617c.695,34.529-.723,69.071-.029,103.6a.358.358,0,0,0,.715,0c-.695-34.527.723-69.069.029-103.6a.358.358,0,0,0-.715,0Z" transform="translate(-17.996 -132.275)" fill="#9ab4d0"/>
      <path id="Path_311" data-name="Path 311" d="M32.014,134.432c.693,34.527-.723,69.069-.029,103.6a.358.358,0,0,0,.715,0c-.695-34.529.723-69.071.029-103.6a.358.358,0,0,0-.715,0Z" transform="translate(-16.885 -131.719)" fill="#9ab4d0"/>
      <path id="Path_312" data-name="Path 312" d="M30.744,194.515c-.461.907-.855,2.4.261,3.025a1.3,1.3,0,0,0,1.936-.675.358.358,0,0,0-.69-.19c-.13.522-.865.37-1.112.044-.389-.513-.022-1.363.224-1.844.207-.409-.41-.772-.619-.36Z" transform="translate(-17.912 -90.61)" fill="#9ab4d0"/>
      <path id="Path_313" data-name="Path 313" d="M32.263,135.363q7.116,3.175,14.226,6.358c.417.185.782-.431.362-.617q-7.116-3.175-14.226-6.358c-.417-.185-.782.431-.362.617Z" transform="translate(-16.688 -131.293)" fill="#9ab4d0"/>
      <path id="Path_314" data-name="Path 314" d="M40.993,138.508c-.061,16.29-.2,32.58-.264,48.871-.062,16.135-1.164,32.747.19,48.847.037.454.754.459.715,0-1.354-16.1-.252-32.712-.188-48.847.062-16.29.2-32.58.262-48.871a.358.358,0,0,0-.715,0Z" transform="translate(-11.112 -128.938)" fill="#9ab4d0"/>
      <path id="Path_315" data-name="Path 315" d="M32.2,178.792q7.126-1.282,14.25-2.562c.453-.082.261-.772-.19-.69q-7.124,1.279-14.25,2.562c-.453.082-.261.772.19.69Z" transform="translate(-16.912 -103.438)" fill="#9ab4d0"/>
      <path id="Path_316" data-name="Path 316" d="M35.231,194.778q-5.476.257-10.955.518c-.458.022-.459.737,0,.715l10.955-.518c.459-.022.461-.737,0-.715Z" transform="translate(-22.245 -90.306)" fill="#9ab4d0"/>
      <path id="Path_317" data-name="Path 317" d="M24.732,195.581l-1.7,1.506a.361.361,0,0,0,.156.6c5.368,1.418,11.4.72,16.9.76,1.28.008,3.408.6,4.51-.321.631-.525.585-1.946.93-2.556a.36.36,0,0,0-.31-.537l-7.468.548c-.456.034-.459.75,0,.715.809-.059,6.437-1,6.761-.384,1.26,2.382-4.751,1.815-5.215,1.812l-7.914-.059c-1.274-.008-2.555.03-3.827-.039-1.327-.071-4.271.187-2.323-1.539.345-.306-.163-.811-.506-.506Z" transform="translate(-22.929 -90.133)" fill="#9ab4d0"/>
      <path id="Path_318" data-name="Path 318" d="M44.448,195.684c-3.064,1.245-6.5.018-9.389,1.8a.361.361,0,0,0,.18.666q7.805.343,15.607.69a.362.362,0,0,0,.31-.538,2.377,2.377,0,0,0-2.2-1.457c-.456-.059-.453.658,0,.715,2.175.276-1.243.426-1.708.405l-4.2-.185q-3.9-.174-7.8-.345l.182.666c2.8-1.723,6.236-.518,9.218-1.729.421-.172.236-.865-.19-.69Z" transform="translate(-14.769 -89.707)" fill="#9ab4d0"/>
    </g>
  </g>
</svg>
