<svg xmlns="http://www.w3.org/2000/svg" width="98.36" height="81.442" viewBox="0 0 98.36 81.442">
  <g id="Group_55" data-name="Group 55" transform="translate(-723.946 -326.876)">
    <path id="Path_264" data-name="Path 264" d="M765.863,388.6a.715.715,0,0,1-.153-.881c.247-.6.452-1.214.674-1.824.153-.427.1-.5-.339-.412-1.084.217-2.168.441-3.25.665-2.842.582-5.68,1.188-8.456,2.027a1.64,1.64,0,0,1-2.147-.714,44.4,44.4,0,0,0-3.149-3.75c-.914-1.009-1.791-2.05-2.757-3.009a8.289,8.289,0,0,1-.641-.738.457.457,0,0,1,.281-.8q2.987-.647,5.977-1.273c.332-.071.62.042.681.394.068.379-.212.5-.535.561-1.68.32-3.356.658-5.02,1.063a1.463,1.463,0,0,0-.141.054c.811.782,1.534,1.607,2.255,2.434.867.995,1.744,1.982,2.6,2.984.488.573.95,1.169,1.419,1.758a.532.532,0,0,0,.627.182c3.448-.952,6.936-1.727,10.445-2.413,2.7-.528,5.409-1.037,8.124-1.5,2.069-.356,4.129-.773,6.2-1.145,1.749-.316,3.5-.606,5.255-.91a1.729,1.729,0,0,0,.323-.127c-1.317-.676-2.611-1.341-3.9-2.008-1.334-.688-2.72-1.3-3.978-2.109a2.8,2.8,0,0,0-1.355-.427c-.2-.019-.467-.151-.424-.424.038-.252.12-.5.509-.457,2.081.231,3.405-1.36,4.028-2.878a9.913,9.913,0,0,0,.655-3.295c.028-.53.09-1.06.087-1.593a11.16,11.16,0,0,0-.422-3.042c-.08-.28-.064-.533.224-.627a.507.507,0,0,1,.676.328c.071.17-.016.4.222.514.085-.825.337-1.626.365-2.465a.643.643,0,0,0-.382-.634,5.357,5.357,0,0,0-1.028-.356,1.128,1.128,0,0,1-.83-1.105c-.092-2.3-.024-4.593-.108-6.886a22.042,22.042,0,0,0-.893-6.686,6.606,6.606,0,0,0-4.266-4.5,3.309,3.309,0,0,0-.95-.153.564.564,0,0,1-.587-.775c.1-.266.3-.219.474-.207a6.229,6.229,0,0,1,3.207,1.141,8.506,8.506,0,0,1,3.295,5.178,25.6,25.6,0,0,1,.561,4.131c.222,2.812.1,5.625.151,8.435a.593.593,0,0,0,.528.634,2.508,2.508,0,0,1,1.459.808,2.369,2.369,0,0,1,.219,1.841,31.4,31.4,0,0,1-.493,3.106c-.12.566.052,1.228-.492,1.678-.111.09-.047.255-.047.384a14.068,14.068,0,0,1-.434,3.53,5.87,5.87,0,0,1-3.1,4.06.95.95,0,0,0-.132.113c1.593.815,3.165,1.619,4.737,2.427,1.362.7,2.717,1.416,4.084,2.107a.48.48,0,0,1,.3.559.5.5,0,0,1-.467.4c-1.2.222-2.394.422-3.592.636q-3.136.558-6.269,1.122-3.164.562-6.328,1.119c-.509.092-1.018.181-1.523.288a.4.4,0,0,0-.36.276c-.2.615-.431,1.218-.655,1.826-.071.191-.125.3.184.243,1.5-.257,3-.509,4.5-.721,1-.139,2-.224,3-.3,4.011-.29,8.034-.2,12.052-.349,1.617-.059,3.222-.214,4.829-.368.346-.033.33-.16.191-.41-1.122-2.008-2.156-4.058-3.08-6.165-.353-.808-.719-1.614-1.077-2.42-.09-.2-.167-.276-.453-.247a36.863,36.863,0,0,1-4.36.1c-.62-.012-1.24-.047-1.859-.085a.633.633,0,0,1-.636-.441c-.1-.335.1-.554.495-.537.9.038,1.807.12,2.715.139a27.278,27.278,0,0,0,4.089-.2.571.571,0,0,1,.667.429,101.251,101.251,0,0,0,4.867,9.99c.007.012.028.012.04.019v.358a1.077,1.077,0,0,1-.636.269c-.511.049-1.021.106-1.527.188a35.642,35.642,0,0,1-3.91.33c-1.753.09-3.511.045-5.27.068-1.353.019-2.708.042-4.061.082-1.06.031-2.119.146-3.177.21-.983.059-1.954.205-2.929.311-1.087.118-2.166.313-3.243.5a7.691,7.691,0,0,0-1.831.363Z" transform="translate(29.233 19.723)" fill="#9ab4d0"/>
    <path id="Path_265" data-name="Path 265" d="M749.179,351.737a13.891,13.891,0,0,1-1.546-3.057.287.287,0,0,0-.281-.231,1.778,1.778,0,0,1-1.155-.627,4.513,4.513,0,0,1-1.141-4.5,2.4,2.4,0,0,1,.236-.528,1.65,1.65,0,0,1,2.239-.846c.094-.306-.071-.622.13-.947s.318-.629.764-.6c.059,0,.125-.073.184-.118a15.811,15.811,0,0,0,3.363-3.377,5.921,5.921,0,0,0,.978-2.041c.071-.283.189-.507.54-.467s.707.033.742.523a1.966,1.966,0,0,0,.768,1.367,9.422,9.422,0,0,0,3.332,1.683,14.617,14.617,0,0,0-.907-2.147.5.5,0,0,1,.09-.683c.233-.184.507-.212.651.075,1.159,2.34,3.344,3.332,5.578,4.261.344.141.7.262,1.042.394.667.295,1.334.582,1.994.888.552.257.594.462.205.98a2.284,2.284,0,0,1,1.628,1.643c.29-2.974.526-5.946-.474-8.852a9.694,9.694,0,0,0-5.816-6.259,6.28,6.28,0,0,0-2.09-.431c-.106,0-.21-.017-.313-.024a.429.429,0,0,1-.46-.485c.014-.339.217-.467.535-.457a8.194,8.194,0,0,1,3.08.674,10.8,10.8,0,0,1,6.137,7.306,16.166,16.166,0,0,1,.436,7.037,5.759,5.759,0,0,0,.825,3.853c.174.3.3.589-.08.8-.358.2-.575-.012-.749-.32a7.389,7.389,0,0,1-.707-1.683,1.683,1.683,0,0,0-.174-.434,4.834,4.834,0,0,1-.919,3.285,2.525,2.525,0,0,1-1.631,1.065c-.179.016-.182.167-.226.288a14.1,14.1,0,0,1-.759,1.7,13.642,13.642,0,0,1-3.012,3.714,18.385,18.385,0,0,1-1.779,1.19c-.424.229-.811.049-.811-.37,0-.276.2-.372.4-.486a11.479,11.479,0,0,0,5.255-6.629c.158-.523.318-.617.8-.408.236.1.375-.028.516-.137a3.641,3.641,0,0,0,1.016-3.907,1.4,1.4,0,0,0-.351-.511.49.49,0,0,0-.749-.019,1.628,1.628,0,0,1-.676.422c-.469.132-.766-.09-.749-.57a10.28,10.28,0,0,1,.1-1.291.4.4,0,0,0-.3-.518A36.145,36.145,0,0,1,761,339.218c-.481-.264-.94-.573-1.409-.86-.033-.014-.085-.047-.094-.038-.047.042-.026.092.012.134.031.563-.186.756-.7.643a11.8,11.8,0,0,1-3.5-1.414,4.635,4.635,0,0,1-1.716-1.676c-.151.278-.276.535-.422.778a15.561,15.561,0,0,1-4.3,4.485.678.678,0,0,0-.356.766,3.953,3.953,0,0,1,.038.712c0,.464-.266.683-.714.57a1.506,1.506,0,0,1-.683-.408.505.505,0,0,0-.811.045,2.109,2.109,0,0,0-.526,1.522,3.6,3.6,0,0,0,1.07,2.7c.224.224.431.4.811.214.363-.174.556.1.657.448a11.12,11.12,0,0,0,1.874,3.679,11.382,11.382,0,0,0,3.325,2.941c.535.311.516.309.3.9a2.413,2.413,0,0,0-.009.973,14.532,14.532,0,0,1-.115,2.538c-.038.3-.193.521-.526.476-.316-.042-.433-.25-.4-.577a14.958,14.958,0,0,0,.047-3.344c-.019-.148,0-.28-.16-.379a13.314,13.314,0,0,1-3.443-3.207l0,.009Zm17.437-9.969c-.172-.118-.321-.285-.488-.191-.1.057-.066.252-.021.4Zm2.005,1.869c.026.035.042.082.078.1.087.052.028-.042.05-.057l-.061-.092Z" transform="translate(28.388 0)" fill="#9ab4d0"/>
    <path id="Path_266" data-name="Path 266" d="M760.467,373.237a2.631,2.631,0,0,1-.427-1.093c-.163-.485-.243-1-.45-1.468-.021-.108.007-.233-.106-.309l.024-.014c-.669-2.345-1.324-4.7-2.01-7.037-.922-3.139-1.756-6.306-2.866-9.389a1.4,1.4,0,0,1-.061-.167,1.681,1.681,0,0,0-1.772-1.39c-3.012-.255-6.014-.636-9.024-.929-2.833-.276-5.668-.509-8.5-.749-2.776-.233-5.555-.45-8.331-.679a4.786,4.786,0,0,0-1.555.061c-.511.127-.568.25-.408.764a53.421,53.421,0,0,0,3,7.153q2.57,5.352,5.166,10.69a2.243,2.243,0,0,1,.1.2.482.482,0,0,1-.245.676c-.311.141-.5-.021-.634-.3-.556-1.169-1.126-2.331-1.68-3.5-1.746-3.7-3.634-7.332-5.267-11.086a33.467,33.467,0,0,1-1.334-3.547c-.356-1.159-.028-1.716,1.152-1.97a11.456,11.456,0,0,1,3.382.04c2.048.17,4.1.337,6.146.514,2.939.255,5.878.5,8.814.782,2.981.288,5.958.615,8.937.926.37.038.738.1,1.108.132a1.74,1.74,0,0,1,1.572,1.251c.613,1.536,1.131,3.1,1.593,4.69q1.824,6.271,3.646,12.547l.78,2.859C761.091,373.284,760.792,373.289,760.467,373.237Z" transform="translate(0 30.061)" fill="#9ab4d0"/>
    <path id="Path_267" data-name="Path 267" d="M741.179,367.982c-.141.045-.2.174-.278.276-.177.214-.377.3-.618.123a.5.5,0,0,1-.144-.676,1.844,1.844,0,0,1,.245-.318,45.8,45.8,0,0,1,5.517-5.534c.134-.118.269-.236.4-.358.017-.014.012-.052.021-.1-.377-.059-.756-.111-1.131-.179-.53-.092-.662-.4-.358-.853a31.651,31.651,0,0,1,2.675-3.632,2.329,2.329,0,0,0,.582-2.463,56.473,56.473,0,0,1-1.24-6.306,2.005,2.005,0,0,1-.038-.443.479.479,0,0,1,.49-.481c.28-.021.391.151.431.405.255,1.6.533,3.2.862,4.793q.895,4.33,2.208,8.552c.031.1.064.2.1.3a.424.424,0,0,1-.295.6.443.443,0,0,1-.606-.3c-.174-.521-.335-1.049-.488-1.577-.283-.983-.556-1.97-.848-3.007-.964,1.148-1.819,2.321-2.687,3.58.5.073.954.134,1.4.2.25.038.514.061.589.382.064.28-.1.441-.287.6a1.435,1.435,0,0,0-.452.478c.985.163,1.935.328,2.885.476a84.011,84.011,0,0,0,9.5,1.044c1.386.057,2.771.066,4.157-.012.108-.007.273.042.292-.123.04-.344.328-.445.559-.592a23.221,23.221,0,0,1,3.834-1.9,2.42,2.42,0,0,1,2.411.271,13.779,13.779,0,0,1,3.325,3.024,2.588,2.588,0,0,1,.514.983,1.184,1.184,0,0,1-.207,1.1,1.212,1.212,0,0,0-.207.434.482.482,0,0,1-.848.2c-.156-.174-.207-.068-.309.014a.375.375,0,0,1-.575-.049,22,22,0,0,0-2.472-2.26.444.444,0,0,1-.094-.672.455.455,0,0,1,.707-.04,19.974,19.974,0,0,1,2.661,2.449c.578-1.037.566-1.046-.229-1.961A13.5,13.5,0,0,0,770.34,362a1.549,1.549,0,0,0-1.48-.189,20.749,20.749,0,0,0-3.686,1.8c-.224.139-.417.349-.712.346a.114.114,0,0,0-.127.1c-.078.474-.433.443-.785.46a58.244,58.244,0,0,1-10.428-.594c-2.185-.292-4.36-.653-6.533-1.02a.542.542,0,0,0-.535.082,45.959,45.959,0,0,0-4.784,4.819,1.046,1.046,0,0,0-.1.191Z" transform="translate(21.871 27.348)" fill="#9ab4d0"/>
    <path id="Path_268" data-name="Path 268" d="M757.644,339.585a2.735,2.735,0,0,1,1.32-.5c.323-.017.618.042.655.436s-.191.5-.554.511a1.628,1.628,0,0,0-1.214.669,14.721,14.721,0,0,0-1.574,2.64q-1.852,3.539-3.7,7.079c-.04.075-.075.155-.13.269a4.915,4.915,0,0,0,1.511-.257,6.976,6.976,0,0,1,6.16,1.046,7.134,7.134,0,0,1,1.317,1.266c.188.226.313.469.019.691a.5.5,0,0,1-.749-.1,6.113,6.113,0,0,0-1.914-1.581,6.039,6.039,0,0,0-4.468-.41,9.552,9.552,0,0,1-2.42.368c-.733-.007-.907-.306-.573-.954q1.449-2.793,2.892-5.585c.017-.045.078-.092.017-.139s-.092.021-.132.049a12.134,12.134,0,0,0-3.917.754,5.91,5.91,0,0,0-3.726,3.226,76.348,76.348,0,0,0-3.483,8.691q-2.012,5.819-3.879,11.687c-.021.071-.052.141-.075.212a.455.455,0,0,1-.629.325c-.3-.1-.358-.328-.269-.61.389-1.2.766-2.409,1.167-3.608,1.5-4.471,2.882-8.984,4.652-13.36.542-1.339,1.124-2.656,1.775-3.947a6.536,6.536,0,0,1,4.1-3.481,12.23,12.23,0,0,1,3.688-.813c.6.007.716.111.818.726a.767.767,0,0,0,.271-.382q.735-1.4,1.461-2.811a12.826,12.826,0,0,1,1.412-2.027l-.01.007c.1.049.141-.031.191-.092Z" transform="translate(19.192 16.561)" fill="#9ab4d0"/>
    <path id="Path_269" data-name="Path 269" d="M756.157,363.23c.026.584-.276.655-.721.629q-6.766-.392-13.461-1.44-6.981-1.082-13.819-2.847c-.342-.09-.617-.2-.518-.615s.427-.389.749-.306q4.885,1.276,9.851,2.182,5.1.937,10.256,1.5c2.357.255,4.716.445,7.082.594a.786.786,0,0,1,.53.212c0-.483.306-.627.693-.733q4.818-1.336,9.629-2.7c.16-.045.358-.045.478-.243-2.458-.273-4.9-.547-7.336-.82l-3.554-.394a1.913,1.913,0,0,1-.309-.052.475.475,0,0,1-.358-.584c.035-.288.238-.349.49-.323,1.228.132,2.458.262,3.688.4l7.685.865c.28.031.563.057.844.094.516.068.672.408.394.863a2.5,2.5,0,0,1-1.577,1.018c-1.456.427-2.917.837-4.379,1.251-1.831.518-3.667,1.035-5.5,1.56A.785.785,0,0,1,756.157,363.23Z" transform="translate(4.979 41.259)" fill="#9ab4d0"/>
    <path id="Path_270" data-name="Path 270" d="M754.341,344.443a2.053,2.053,0,0,0,1.336-1.275,3.169,3.169,0,0,0,.12-.335.44.44,0,0,1,.549-.332.419.419,0,0,1,.377.509,9.687,9.687,0,0,0,.332,3.537.432.432,0,0,1-.316.594.442.442,0,0,1-.606-.361,10.487,10.487,0,0,1-.306-1.574c-.017-.144.016-.3-.111-.436a2.744,2.744,0,0,1-1.437.643.923.923,0,0,1-.94-1.376c.434-.914.912-1.808,1.4-2.694a2.1,2.1,0,0,1,2.335-1.105,17.926,17.926,0,0,1,2.649.615.939.939,0,0,1,.771.874c.351,5.977,2.137,11.592,4.282,17.124a69.211,69.211,0,0,1,3.276,10.1c.066.3.054.54-.238.683-.332.165-.587,0-.683-.45a56.156,56.156,0,0,0-2.114-7.051c-.931-2.6-1.984-5.164-2.88-7.782a47.455,47.455,0,0,1-2.533-12.16.458.458,0,0,0-.389-.5,13.135,13.135,0,0,0-2.486-.521,1.149,1.149,0,0,0-1.169.655c-.448.839-.87,1.694-1.3,2.543l.016.108Z" transform="translate(39.713 18.083)" fill="#9ab4d0"/>
    <path id="Path_271" data-name="Path 271" d="M745.615,343.155a14.558,14.558,0,0,1,.021,2.583,11.941,11.941,0,0,1-.679,2.352c-.064.181-.116.368-.172.551a5.492,5.492,0,0,0-.033,4.572,3.457,3.457,0,0,0,2.906,2,10.211,10.211,0,0,0,2.18,0c.648-.049.738.061.627.7-.01.064.031.073.054.1l.007-.007c-.123-.09-.158,0-.191.092l.01-.007a10.544,10.544,0,0,1-2.984.014,4.5,4.5,0,0,1-3.912-3.848,7.633,7.633,0,0,1,.493-4.159,8.43,8.43,0,0,0,.811-3c0-.891-.1-1.784-.132-2.675a16.939,16.939,0,0,1,.818-6.568,15.149,15.149,0,0,1,7.028-8.09,6.419,6.419,0,0,1,3.172-.8,1.473,1.473,0,0,1,.354.031.436.436,0,0,1,.344.5.394.394,0,0,1-.436.408c-2.338-.047-4.11,1.141-5.727,2.642a13.592,13.592,0,0,0-4.35,7.525A20.148,20.148,0,0,0,745.615,343.155Z" transform="translate(26.317 0.124)" fill="#9ab4d0"/>
    <path id="Path_272" data-name="Path 272" d="M759.466,336.655a3.634,3.634,0,0,1,.629-.632.786.786,0,0,1,.8-.09.7.7,0,0,1,.375.7,12.555,12.555,0,0,1-.292,1.987,26.085,26.085,0,0,0-.252,6.014.34.34,0,0,0,.224.332.4.4,0,0,1,.233.615.474.474,0,0,1-.686.212,14.207,14.207,0,0,0-4.115-1.3.618.618,0,0,0-.686.266,33.758,33.758,0,0,0-2.024,3,.727.727,0,0,0-.123.745.449.449,0,0,1-.271.592c-.281.132-.455-.047-.582-.264a1.185,1.185,0,0,1-.054-1.075c.108-.276.245-.537.382-.832a.51.51,0,0,1-.606-.58c0-.226-.163-.377-.273-.549-.082-.125-.182-.236-.264-.361a1.185,1.185,0,0,1-.021-1.558,1.405,1.405,0,0,1,1.727-.205,3.36,3.36,0,0,1,.943,1.03c.191-.236.37-.452.542-.672a1.25,1.25,0,0,1,1.226-.483,13.252,13.252,0,0,1,3.158.773c.229.087.323.085.306-.2a27.671,27.671,0,0,1,.431-6.542.923.923,0,0,0,0-.17c-.229.132-.269.356-.351.54a15.466,15.466,0,0,0-1.082,4.544c-.031.252-.05.5-.089.754a.47.47,0,0,1-.577.419c-.311-.028-.372-.24-.342-.514s.04-.535.061-.8c.019-.1.042-.2.054-.3A13.485,13.485,0,0,1,759.466,336.655Zm-6.122,9.813c.191-.276.309-.441.417-.61.071-.106.245-.236.165-.335-.271-.33-.41-.764-.787-1a.408.408,0,0,0-.532-.021c-.2.177,0,.328.089.457A2.23,2.23,0,0,1,753.343,346.468Z" transform="translate(37.494 12.188)" fill="#9ab4d0"/>
    <path id="Path_273" data-name="Path 273" d="M754.65,344.239c.669-.012.759.075.778.764a56.975,56.975,0,0,0,.952,8.022q1,5.854,2.043,11.7a7.9,7.9,0,0,0,1.306,3.434,3.384,3.384,0,0,0,2.394,1.482.475.475,0,0,1,.483.568c-.04.349-.292.4-.6.361a4.572,4.572,0,0,1-3.495-2.562,10.547,10.547,0,0,1-1.068-3.391c-.806-4.621-1.612-9.24-2.39-13.864a43.747,43.747,0,0,1-.57-5.6,1.3,1.3,0,0,1,.175-.926Z" transform="translate(41.419 23.544)" fill="#9ab4d0"/>
    <path id="Path_274" data-name="Path 274" d="M740.556,355.929c1.9.179,3.794.368,5.694.537,3.474.311,6.954.476,10.438.608.761.031,1.52.031,2.281.033.342,0,.608.092.615.481s-.271.49-.6.481c-1.534-.04-3.071-.05-4.6-.094-1.136-.035-2.274-.085-3.408-.17-2.578-.193-5.149-.438-7.723-.669-.683-.061-1.362-.151-2.046-.217-.662-.064-.8-.266-.589-.9.019-.064-.021-.073-.05-.1Z" transform="translate(22.486 39.409)" fill="#9ab4d0"/>
    <path id="Path_275" data-name="Path 275" d="M747.66,339.972a.442.442,0,0,1,.422.57,4.611,4.611,0,0,0,.846,3.552c1.167,1.833,2.51,3.547,3.592,5.437.754,1.32,1.492,2.644,2.145,4.013.033.068.068.132.094.2a.461.461,0,0,1-.247.634c-.278.137-.474.028-.61-.252q-.873-1.782-1.85-3.514c-1.091-1.932-2.38-3.74-3.634-5.569a6.909,6.909,0,0,1-1.365-3.49,4.375,4.375,0,0,1,.123-1.237A.42.42,0,0,1,747.66,339.972Z" transform="translate(31.338 17.767)" fill="#9ab4d0"/>
    <path id="Path_276" data-name="Path 276" d="M754.776,357.8a32.85,32.85,0,0,1-4.431,1.079,1.473,1.473,0,0,1-.7-.026c-.252-.071-.422-.217-.4-.443a.518.518,0,0,1,.493-.49,17.267,17.267,0,0,0,4.685-1.037c.851-.295,1.282-.007,1.339.9.021.363.17.384.441.3.071-.021.141-.047.21-.073.818-.309.879-.563.276-1.155-.179-.177-.375-.337-.566-.5a.5.5,0,0,1-.078-.749c.205-.269.443-.158.662.012a5.7,5.7,0,0,1,.99.9,1.221,1.221,0,0,1-.245,1.984,2.8,2.8,0,0,1-1.808.582c-.613-.031-.851-.243-.867-.853C754.774,358.116,754.776,358,754.776,357.8Z" transform="translate(34.319 38.765)" fill="#9ab4d0"/>
    <path id="Path_277" data-name="Path 277" d="M750.6,353.126c-.356-.009-.528-.271-.4-.655.53-1.657,1.11-3.295,1.713-4.923a14.621,14.621,0,0,1,2.093-4.115c.1-.127.207-.255.318-.372a.416.416,0,0,1,.632-.045.439.439,0,0,1,.094.636c-.137.2-.3.37-.445.559a14.8,14.8,0,0,0-1.958,4.084c-.523,1.454-1.021,2.915-1.523,4.376C751.035,352.933,750.917,353.133,750.6,353.126Z" transform="translate(35.563 21.727)" fill="#9ab4d0"/>
    <path id="Path_278" data-name="Path 278" d="M751.5,336.364c.639.064,1.275.12,1.909.2a.575.575,0,0,1,.561.49,2.687,2.687,0,0,1-2.189,3.108,2.309,2.309,0,0,1-2.347-1.739,8.126,8.126,0,0,0-.349-1.275c-.146-.285.073-.544.42-.584C750.172,336.487,750.839,336.428,751.5,336.364Zm.061,2.875a1.64,1.64,0,0,0,1.454-1.459c.049-.245.016-.335-.25-.365a12.659,12.659,0,0,0-1.914-.054c-.688.021-.719.064-.521.707a2.018,2.018,0,0,0,.386.747A1.147,1.147,0,0,0,751.564,339.239Z" transform="translate(34.046 12.872)" fill="#9ab4d0"/>
    <path id="Path_279" data-name="Path 279" d="M742.583,354.058a12.482,12.482,0,0,0-2.366,1.1c-.205.12-.408.245-.61.37-.25.153-.493.165-.655-.106a.464.464,0,0,1,.153-.7,14.393,14.393,0,0,1,2.239-1.2,10.154,10.154,0,0,1,2.317-.778,2.536,2.536,0,0,1,.443-.033.5.5,0,0,1,.511.287.523.523,0,0,1-.158.6q-1.382,1.456-2.752,2.927c-.245.259-.49.518-.733.782-.21.231-.453.306-.7.085a.464.464,0,0,1,.01-.74c.712-.761,1.426-1.518,2.137-2.279A.374.374,0,0,0,742.583,354.058Zm.125,0c-.009-.007-.016-.024-.028-.024s-.019.014-.028.024c.01.007.019.024.028.024S742.7,354.072,742.708,354.063Z" transform="translate(20.228 35.058)" fill="#9ab4d0"/>
    <path id="Path_280" data-name="Path 280" d="M747.6,341.757a4.206,4.206,0,0,1-2.621-5.05.478.478,0,0,1,.627-.4c.344.083.363.337.3.632a3.24,3.24,0,0,0,2.628,4.1c.172.04.351.059.526.085a8.4,8.4,0,0,0,1.414.146c.354.021.634.134.62.537s-.325.429-.646.412A12.9,12.9,0,0,1,747.6,341.757Z" transform="translate(28.334 12.763)" fill="#9ab4d0"/>
    <path id="Path_281" data-name="Path 281" d="M758.143,338.9a5.526,5.526,0,0,1-.87,3.045,2.789,2.789,0,0,1-.881.874.4.4,0,0,1-.589-.106.443.443,0,0,1,.038-.643c1.555-1.414,1.619-3.134,1.046-4.991-.021-.073-.057-.139-.075-.21a.43.43,0,0,1,.257-.587.444.444,0,0,1,.62.266A5.875,5.875,0,0,1,758.143,338.9Z" transform="translate(43.056 12.71)" fill="#9ab4d0"/>
    <path id="Path_282" data-name="Path 282" d="M756.979,346.714c-.422.078-.688-.229-1-.412A8.691,8.691,0,0,1,753,343.4c-.047-.075-.094-.151-.139-.229a.477.477,0,1,1,.82-.478,8.439,8.439,0,0,0,1.449,1.808,11.372,11.372,0,0,0,1.694,1.23c.5.33.526.533.141,1Z" transform="translate(39.099 21.06)" fill="#9ab4d0"/>
    <path id="Path_283" data-name="Path 283" d="M752.538,343.714a1.445,1.445,0,0,1,.233-.825,20.442,20.442,0,0,1,1.885-2.708.473.473,0,1,1,.735.582,25.776,25.776,0,0,0-1.532,2.14,6.677,6.677,0,0,0-.339.627.363.363,0,0,0,.137.533.437.437,0,0,1,.116.662c-.16.24-.408.217-.643.123A1.138,1.138,0,0,1,752.538,343.714Z" transform="translate(38.785 17.723)" fill="#9ab4d0"/>
    <path id="Path_284" data-name="Path 284" d="M755.2,344.338a7.528,7.528,0,0,1,.973.087c.339.057.535.226.485.561-.052.351-.32.427-.641.365a4.35,4.35,0,0,0-3.419.773.465.465,0,0,1-.707-.066c-.212-.271-.085-.516.146-.693a5.147,5.147,0,0,1,3.163-1.028Z" transform="translate(37.759 23.688)" fill="#9ab4d0"/>
    <path id="Path_285" data-name="Path 285" d="M750.929,334.909a3.593,3.593,0,0,1-.247,1.4,1.578,1.578,0,0,0,.054,1.046c.038.158.108.309.148.467a.456.456,0,0,1-.276.587.411.411,0,0,1-.587-.247,2.9,2.9,0,0,1-.233-2.159,2.87,2.87,0,0,0,.158-1.624c-.066-.337-.038-.667.375-.728s.53.25.566.589C750.91,334.461,750.915,334.685,750.929,334.909Z" transform="translate(34.881 9.181)" fill="#9ab4d0"/>
    <path id="Path_286" data-name="Path 286" d="M752.408,340.536c-.05-.361.144-.537.46-.658a3.562,3.562,0,0,0,2.18-2.262c.106-.306.271-.518.613-.424.379.1.391.415.285.721a4.625,4.625,0,0,1-2.42,2.722c-.052.026-.1.061-.146.092C753.023,340.833,752.658,340.984,752.408,340.536Z" transform="translate(38.603 13.965)" fill="#9ab4d0"/>
    <path id="Path_287" data-name="Path 287" d="M752.43,355.381a.444.444,0,0,1,.726-.382c.716.549,1.407,1.136,2.1,1.72.21.177.141.4,0,.6a.379.379,0,0,1-.58.12c-.721-.568-1.426-1.159-2.133-1.746A.338.338,0,0,1,752.43,355.381Z" transform="translate(38.638 38.012)" fill="#9ab4d0"/>
    <path id="Path_288" data-name="Path 288" d="M751.451,334.6a1.728,1.728,0,0,0,0-.4.908.908,0,0,1,.41-1c.474-.358.891-.17.976.412a2.573,2.573,0,0,1-.335,1.711.542.542,0,0,1-.608.342c-.285-.061-.351-.295-.391-.535C751.467,334.956,751.467,334.777,751.451,334.6Z" transform="translate(37.268 8.334)" fill="#9ab4d0"/>
    <path id="Path_289" data-name="Path 289" d="M749.389,333.946a2.515,2.515,0,0,1-.408,1.44.5.5,0,0,1-.566.262.46.46,0,0,1-.37-.448c-.045-.415-.087-.829-.1-1.244a.955.955,0,0,1,.382-.731.7.7,0,0,1,.7-.172c.273.087.311.337.337.58C749.382,333.737,749.384,333.84,749.389,333.946Z" transform="translate(32.564 8.333)" fill="#9ab4d0"/>
  </g>
</svg>
