<svg id="レイヤー_1" data-name="レイヤー 1" xmlns="http://www.w3.org/2000/svg" viewBox="0 0 65.92 65.92"><defs><style>.cls-1{fill:none;stroke:#afbf36;stroke-linecap:round;stroke-linejoin:round;stroke-width:2.5px}</style></defs><path class="cls-1" d="M27 6.46l-1.93.92a8.14 8.14 0 007.82 6.79 8.15 8.15 0 007.83-6.79l-1.93-.92"/><path class="cls-1" d="M38.79 6.46a14.74 14.74 0 01-5.79.92 16.09 16.09 0 01-6-.92"/><path id="SVGID" class="cls-1" d="M38.79 6.46a14.74 14.74 0 01-5.79.92 16.09 16.09 0 01-6-.92"/><path class="cls-1" d="M49.84 9.29l-9.12-1.91-1.89-.9a16.25 16.25 0 01-5.86.94A16.19 16.19 0 0127 6.45l-1.9.9-9.16 1.94-13 4 2.24 10.25 1.22-.12 8.68.46-.71 35.59h37l-.67-35.59 8.82-.46 1.22.12L63 13.29zm-33.92.03c1 3.19 1 11.39-.88 14.72M49.81 9.32c-1 3.19-1 11.39.88 14.72"/><path d="M20.78 27.37l.73-.87a2.46 2.46 0 001.53.57c.36 0 .55-.12.55-.32s-.15-.3-.8-.46c-1-.23-1.79-.51-1.79-1.48 0-.88.7-1.52 1.83-1.52a3 3 0 012 .63l-.65.93a2.37 2.37 0 00-1.33-.47c-.32 0-.47.13-.47.3 0 .21.16.31.82.46 1.08.24 1.76.59 1.76 1.47 0 1-.76 1.54-1.91 1.54a3.33 3.33 0 01-2.27-.78zm6.27-4.06h1.27l2 4.77h-1.4l-.34-.85h-1.82l-.34.85H25zm1.15 2.89l-.52-1.34-.54 1.34zm2.42-.2v-2.66H32V26c0 .69.34 1 .87 1s.88-.31.88-1v-2.66H35V26a2 2 0 01-2.22 2.2 2 2 0 01-2.16-2.2zm5.31-2.66h1.22l2 2.51v-2.51h1.3v4.74h-1.19l-2-2.6v2.6h-1.3zm7.01-.03h1.27l2 4.77h-1.4l-.33-.85h-1.84l-.34.85h-1.37zm1.15 2.89l-.53-1.34L43 26.2z" fill="#afbf36"/></svg>