<svg id="レイヤー_1" data-name="レイヤー 1" xmlns="http://www.w3.org/2000/svg" viewBox="0 0 65.92 65.92"><defs><style>.cls-3{fill:#afbf36}</style></defs><path d="M31.53 41.39a8.6 8.6 0 01-4-.89 3.09 3.09 0 01-2 .7h-3a3.11 3.11 0 01-2.71-1.57 3.14 3.14 0 01-2.72 1.57h-3a2.91 2.91 0 01-1.66-.54 8.61 8.61 0 01-3.44.71 10.32 10.32 0 01-6.87-2.48 3.1 3.1 0 01-.32-4.35l.51-.61a5.81 5.81 0 01-.76-3c0-3.78 2.92-6.43 7.09-6.43A13.13 13.13 0 0115 26.34a6.16 6.16 0 013.51-1.71h2.73a5.19 5.19 0 013 1.42 4.24 4.24 0 012.62-1.34h2.86a3.19 3.19 0 011.9.63 3.13 3.13 0 011.89-.63h8.12a3.1 3.1 0 012.1.81 3.13 3.13 0 012.11-.81h2.8a3.14 3.14 0 012.93 2l.35-.36a3.11 3.11 0 012.79-1.74h2.69a3.12 3.12 0 012.88 1.91l4.36 10.31a3.14 3.14 0 01-2.88 4.35h-3A3.14 3.14 0 0156 39.63a3.11 3.11 0 01-2.71 1.57h-3a2.62 2.62 0 01-.83-.14 3.13 3.13 0 01-.9.14h-2.44a3.16 3.16 0 01-2.19-.9 3.09 3.09 0 01-2.19.9h-2.81a3.07 3.07 0 01-2.49-1.26 8.27 8.27 0 01-4.91 1.45z" fill="#fff"/><path d="M2.76 38.14A9.29 9.29 0 009 40.37a7.29 7.29 0 003.68-.9 2.11 2.11 0 001.52.73h3a2.14 2.14 0 002-1.34l.2-.51h1.07l.2.51a2.14 2.14 0 002 1.34h3a2.13 2.13 0 001.77-1h0a7.34 7.34 0 004.16 1.15 6.8 6.8 0 005.31-2.16 2.1 2.1 0 002.09 2h2.81a2.13 2.13 0 002.07-1.64l.64.82a2.14 2.14 0 001.67.82h2.47a2.24 2.24 0 00.9-.21 2.16 2.16 0 00.83.21h3a2.14 2.14 0 002-1.34l.2-.51h1.07l.2.51a2.13 2.13 0 002 1.34h3a2.12 2.12 0 002-3l-4.5-10.26a2.14 2.14 0 00-2-1.3h-2.69a2.13 2.13 0 00-2 1.31l-2 2.09v-1.2a2.12 2.12 0 00-2.13-2.12h-2.8a2.14 2.14 0 00-2 1.47l-.51-.65a2.11 2.11 0 00-1.67-.82h-8.1a2.12 2.12 0 00-1.89 1.16 2.13 2.13 0 00-1.9-1.16h-2.86c-1.18 0-2.67 1.85-2.67 1.85a4.43 4.43 0 00-2.9-1.93h-2.73a6.16 6.16 0 00-3.43 2 11.65 11.65 0 00-6.47-2.09C5 25.53 2.52 27.75 2.52 31a4.55 4.55 0 001 3l-1 1.21a2.11 2.11 0 00.24 2.93z" fill="none" stroke="#0647ea" stroke-miterlimit="10" stroke-width=".2"/><path class="cls-3" d="M8.61 25.53a11.65 11.65 0 016.47 2.09 6.16 6.16 0 013.43-2h2.73a4.43 4.43 0 012.9 1.93s1.49-1.85 2.67-1.85h2.86a2.13 2.13 0 011.9 1.16 2.12 2.12 0 011.89-1.16h8.12a2.11 2.11 0 011.67.82l.51.65a2.14 2.14 0 012-1.47h2.8a2.12 2.12 0 012.13 2.12V29l2-2.09a2.13 2.13 0 012-1.31h2.71a2.14 2.14 0 012 1.3l4.35 10.31a2.12 2.12 0 01-2 3h-3a2.13 2.13 0 01-2-1.34l-.2-.51h-1.08l-.2.51a2.14 2.14 0 01-2 1.34h-3a2.16 2.16 0 01-.83-.21 2.24 2.24 0 01-.9.21h-2.42a2.14 2.14 0 01-1.67-.82l-.64-.82a2.13 2.13 0 01-2.07 1.64h-2.81a2.1 2.1 0 01-2.09-2 6.8 6.8 0 01-5.31 2.16 7.34 7.34 0 01-4.16-1.15 2.13 2.13 0 01-1.77 1h-3a2.14 2.14 0 01-2-1.34l-.2-.51h-1.09l-.2.51a2.14 2.14 0 01-2 1.34h-3a2.11 2.11 0 01-1.52-.73 7.29 7.29 0 01-3.68.9 9.29 9.29 0 01-6.2-2.23 2.11 2.11 0 01-.23-3l1-1.21a4.55 4.55 0 01-1-3c0-3.21 2.5-5.43 6.09-5.43m0-2C3.92 23.53.52 26.66.52 31a6.88 6.88 0 00.57 2.83L1 33.9a4.1 4.1 0 00.43 5.74A11.32 11.32 0 009 42.37a10 10 0 003.46-.59 3.91 3.91 0 001.74.42h3a4.13 4.13 0 002.72-1 4.09 4.09 0 002.71 1h3a4.14 4.14 0 002-.55 9.9 9.9 0 003.88.74 9.57 9.57 0 004.75-1.16 4.05 4.05 0 002.65 1h2.81a4.12 4.12 0 002.19-.63 4.08 4.08 0 002.19.63h2.47a3.8 3.8 0 00.89-.11 3.71 3.71 0 00.84.11h3a4.09 4.09 0 002.71-1 4.13 4.13 0 002.72 1h3a4.13 4.13 0 003.8-5.74L61.2 26.16a4.12 4.12 0 00-3.8-2.53h-2.73A4.16 4.16 0 0051.59 25a4.14 4.14 0 00-3-1.29h-2.8a4.09 4.09 0 00-2.11.57 4.14 4.14 0 00-2.1-.57h-8.12a4.18 4.18 0 00-1.89.45 4.22 4.22 0 00-1.9-.45h-2.86a4.49 4.49 0 00-2.65 1 5.54 5.54 0 00-2.92-1.12h-2.73a6.43 6.43 0 00-3.61 1.51 14.32 14.32 0 00-6.29-1.61z"/><path class="cls-3" d="M4.16 36.55l1.58-1.89a5.3 5.3 0 003.32 1.23c.78 0 1.19-.26 1.19-.7 0-.44-.34-.66-1.74-1-2.18-.5-3.86-1.11-3.86-3.21 0-1.91 1.5-3.28 4-3.28a6.45 6.45 0 014.17 1.3l-1.42 2a5 5 0 00-2.86-1c-.69 0-1 .28-1 .66 0 .47.35.67 1.79 1 2.33.51 3.8 1.27 3.8 3.18 0 2.09-1.66 3.34-4.14 3.34a7.24 7.24 0 01-4.83-1.63zm14.35-8.79h2.73l4.36 10.31h-3l-.73-1.84h-4l-.73 1.84h-3zM21 34l-1.14-2.9L18.7 34zm5.81-.42v-5.75h2.86v5.69c0 1.48.75 2.18 1.89 2.18s1.9-.67 1.9-2.1v-5.77h2.87v5.68c0 3.29-1.89 4.75-4.8 4.75s-4.72-1.48-4.72-4.68zm12.12-5.75h2.65l4.21 5.41v-5.41h2.8v10.24h-2.47l-4.38-5.61v5.61h-2.81zm15.73-.07h2.74l4.36 10.31h-3L58 36.23h-4l-.73 1.84h-3zM57.15 34L56 31.12 54.86 34z"/></svg>