<svg xmlns="http://www.w3.org/2000/svg" viewBox="0 0 62.07 88.05"><defs><style>.cls-1{fill:#e4c61a;}.cls-2{fill:#bca11b;}.cls-3,.cls-7{fill:#fff;}.cls-4{fill:#fae146;}.cls-5{fill:#d6b71e;}.cls-6{fill:#00c3ff;}.cls-7{stroke:#00c3ff;stroke-linecap:round;stroke-linejoin:bevel;stroke-width:2px;}</style></defs><title>Asset 21</title><g id="Layer_2" data-name="Layer 2"><g id="Layer_1-2" data-name="Layer 1"><circle class="cls-1" cx="30.91" cy="29.05" r="29.05"/><circle class="cls-2" cx="30.79" cy="28.59" r="23.57"/><circle class="cls-3" cx="30.79" cy="28.59" r="21.07"/><circle class="cls-4" cx="30.79" cy="29.59" r="21.07"/><path class="cls-5" d="M29.9,40.13v-8a10.62,10.62,0,0,1-5.51-3.25,8.14,8.14,0,0,1-1.75-5.28,7.46,7.46,0,0,1,2-5.28,8,8,0,0,1,5.28-2.47v-1.9h2.78v1.9a8.3,8.3,0,0,1,4.85,2.08,8.05,8.05,0,0,1,2.3,4.59L35,23.13a3.89,3.89,0,0,0-2.3-3.07v7.49q4.6,1.24,6.27,3.23a7.67,7.67,0,0,1,1.67,5.09,8.54,8.54,0,0,1-2.1,5.85,9.27,9.27,0,0,1-5.84,2.91v3.59H29.9V44.73a8.9,8.9,0,0,1-5.39-2.48,10.12,10.12,0,0,1-2.64-5.84l5-.54A6.51,6.51,0,0,0,28,38.52,5.22,5.22,0,0,0,29.9,40.13ZM29.9,20a3.66,3.66,0,0,0-1.8,1.3,3.37,3.37,0,0,0-.67,2A3.19,3.19,0,0,0,28,25.22a4.15,4.15,0,0,0,1.86,1.41Zm2.78,20.4A3.91,3.91,0,0,0,35,39.06a3.75,3.75,0,0,0,.9-2.5,3.37,3.37,0,0,0-.76-2.21,4.8,4.8,0,0,0-2.48-1.43Z"/><path class="cls-3" d="M35.09,78.07a5.57,5.57,0,0,1-5.56-5.57v-5a27.39,27.39,0,0,1-5.42-.81v4.48a3.88,3.88,0,0,1-7.76,0V63.42a30.62,30.62,0,0,1-6.86-5.64V60a4,4,0,0,1-4,4h-.2a4,4,0,0,1-4-4V42.71c0-.24,0-.49,0-.73a5.09,5.09,0,0,0,0-.86c-.09-.79-.19-1.71-.22-2.64,0-.17,0-.35,0-.54a7.35,7.35,0,0,1,.24-2.84,4.73,4.73,0,0,1,2.07-2,5.49,5.49,0,0,1,2.75-.75,5.64,5.64,0,0,1,4,1.73,8.29,8.29,0,0,1,6-2.67,8.19,8.19,0,0,1,5.65,2.29,7.62,7.62,0,0,1,4-1.11,7.7,7.7,0,0,1,3.28.73,10,10,0,0,1,16.69,1.38,7.58,7.58,0,0,1,3.2-.7l.74,0a6.67,6.67,0,0,1,10.53.22l.1.13A3.58,3.58,0,0,1,61,35.6a4.16,4.16,0,0,1,0,1.49l0,.14a4.49,4.49,0,0,0-.06.48c0,.46,0,1-.08,1.51l-.06.71c0,.19,0,.37,0,.56a8.41,8.41,0,0,1-.16,1.63,35.86,35.86,0,0,1-1.14,4A35.13,35.13,0,0,1,56,53.29a33.7,33.7,0,0,1-3.27,4.29v6.09a3.38,3.38,0,0,1-3.38,3.38h-.55a3.38,3.38,0,0,1-3.38-3.38v-.09a29.08,29.08,0,0,1-4.72,2.23V72.5A5.58,5.58,0,0,1,35.09,78.07Z"/><path class="cls-6" d="M36.94,30.44a9,9,0,0,1,8.34,5.66A6.47,6.47,0,0,1,48.93,35a6.78,6.78,0,0,1,1.2.11,5.66,5.66,0,0,1,9.26-.26,3.23,3.23,0,0,1,.63,1A3.19,3.19,0,0,1,60,37c0,.24-.06.48-.08.69,0,.73-.09,1.48-.14,2.22a12.54,12.54,0,0,1-.16,2,34.46,34.46,0,0,1-1.1,3.85,34.09,34.09,0,0,1-3.41,7,32.14,32.14,0,0,1-3.43,4.45v6.48a2.38,2.38,0,0,1-2.38,2.38h-.55a2.37,2.37,0,0,1-2.38-2.38V61.77a28.11,28.11,0,0,1-6.72,3.34v7.4a4.57,4.57,0,0,1-9.13,0v-6a26.88,26.88,0,0,1-7.42-1.16v5.79a2.88,2.88,0,0,1-5.76,0v-8.3A30.16,30.16,0,0,1,8.49,55V60a3,3,0,0,1-3,3h-.2a3,3,0,0,1-3-3V42.72a14.21,14.21,0,0,0,0-1.72c-.1-.85-.19-1.69-.21-2.54a9.06,9.06,0,0,1,.15-3A4,4,0,0,1,3.84,34a4.54,4.54,0,0,1,2.25-.6,4.79,4.79,0,0,1,4,2.31,7.34,7.34,0,0,1,6-3.26A7.24,7.24,0,0,1,21.64,35a6.66,6.66,0,0,1,7.71-.38,9,9,0,0,1,7.59-4.19m0-2a10.9,10.9,0,0,0-8.19,3.66,8.87,8.87,0,0,0-3-.52,8.52,8.52,0,0,0-3.86.9,9.1,9.1,0,0,0-11.85.23,6.46,6.46,0,0,0-7.2-.49A5.61,5.61,0,0,0,.34,34.74,8.13,8.13,0,0,0,0,38c0,.18,0,.35,0,.51,0,1,.13,1.92.22,2.73a4,4,0,0,1,0,.67c0,.27,0,.54,0,.82V60a5.05,5.05,0,0,0,5,5h.2a5,5,0,0,0,5-4.81A31.08,31.08,0,0,0,15.35,64v7.17a4.88,4.88,0,0,0,9.76,0V67.92a27.9,27.9,0,0,0,3.42.5v4.09a6.57,6.57,0,0,0,13.13,0v-6a30.51,30.51,0,0,0,3-1.36,4.38,4.38,0,0,0,4.13,2.92h.55a4.39,4.39,0,0,0,4.38-4.38V58a34.31,34.31,0,0,0,3.11-4.13,35.15,35.15,0,0,0,3.61-7.42,37.26,37.26,0,0,0,1.18-4.07,10.17,10.17,0,0,0,.18-1.82c0-.17,0-.35,0-.52s0-.47.05-.7c0-.51.09-1,.09-1.58,0-.1,0-.22,0-.34l0-.17a4.84,4.84,0,0,0,0-1.85,4.44,4.44,0,0,0-.87-1.6L61,33.64A7.68,7.68,0,0,0,49.24,33h-.31a8.66,8.66,0,0,0-2.78.45,10.91,10.91,0,0,0-9.21-5Z"/><path class="cls-3" d="M19.86,87.05a4.25,4.25,0,0,1-4.24-4.24V81.33a4.24,4.24,0,0,1,8.48,0v1.48A4.24,4.24,0,0,1,19.86,87.05Z"/><path class="cls-6" d="M19.86,78.08a3.25,3.25,0,0,1,3.24,3.25v1.48a3.24,3.24,0,0,1-6.48,0V81.33a3.25,3.25,0,0,1,3.24-3.25m0-2a5.25,5.25,0,0,0-5.24,5.25v1.48a5.24,5.24,0,0,0,10.48,0V81.33a5.25,5.25,0,0,0-5.24-5.25Z"/><rect class="cls-3" x="45.37" y="68.26" width="7.31" height="11.29" rx="3.58"/><path class="cls-6" d="M49.11,69.26a2.57,2.57,0,0,1,2.57,2.58V76a2.57,2.57,0,0,1-2.57,2.57H49A2.58,2.58,0,0,1,46.37,76V71.84A2.58,2.58,0,0,1,49,69.26h.16m0-2H49a4.59,4.59,0,0,0-4.58,4.58V76A4.58,4.58,0,0,0,49,80.55h.16A4.58,4.58,0,0,0,53.68,76V71.84a4.58,4.58,0,0,0-4.57-4.58Z"/><path class="cls-7" d="M41.39,44.83a5.8,5.8,0,0,0,10.25,0"/><path class="cls-7" d="M19.06,44.83a5.81,5.81,0,0,1-10.26,0"/><path class="cls-7" d="M33.7,55.85a3.24,3.24,0,0,1-6.21-.12"/><circle class="cls-3" cx="20.01" cy="10.15" r="5.93"/><circle class="cls-3" cx="37.97" cy="9.43" r="2.63"/><circle class="cls-3" cx="43.42" cy="25.35" r="1.86"/></g></g></svg>