<svg xmlns="http://www.w3.org/2000/svg" viewBox="0 0 148.47 89.95"><defs><style>.cls-1{fill:#afbf36;}</style></defs><title>Asset 6</title><g id="Layer_2" data-name="Layer 2"><g id="Layer_1-2" data-name="Layer 1"><path class="cls-1" d="M70.47,22l-15.2-2.77c0,5.94-5.53,10.92-12.44,10.92S30.4,25.32,30.4,19.24L15.2,22,1.38,35.82,12.44,46.88,18,41.35V53.79h-11A6.91,6.91,0,0,0,2.76,66.22a6.92,6.92,0,0,0,0,11.06A6.91,6.91,0,0,0,6.91,89.71h30.4a6.92,6.92,0,0,0,4.15-1.38H55.63V76.25H67.71V41.35l5.52,5.53L84.29,35.82ZM2.76,60.7a4.08,4.08,0,0,1,4.15-4.15h30.4a4.15,4.15,0,0,1,0,8.29H6.91A4.08,4.08,0,0,1,2.76,60.7Zm0,11A4.08,4.08,0,0,1,6.91,67.6h30.4a4.15,4.15,0,0,1,0,8.29H6.91A4.07,4.07,0,0,1,2.76,71.75ZM37.31,87H6.91a4.15,4.15,0,1,1,0-8.29h30.4a4.15,4.15,0,0,1,0,8.29Z"/><polygon class="cls-1" points="57.68 87.31 66.68 78.3 57.68 78.3 57.68 87.31"/><path class="cls-1" d="M42.83,15.1a1.3,1.3,0,0,0-1.38,1.38v1.66l-10,2.48.56,2.77,10.83-2.71,10.63,2.66.67-2.68-10-2.5v-.44A7,7,0,0,0,49.74,11a6.91,6.91,0,1,0-13.81,0h2.76A4.15,4.15,0,0,1,47,11,4.08,4.08,0,0,1,42.83,15.1Z"/><rect class="cls-1" x="5.53" y="59.31" width="33.16" height="2.76"/><rect class="cls-1" x="5.53" y="70.37" width="31.78" height="2.76"/><rect class="cls-1" x="5.53" y="81.42" width="31.78" height="2.76"/></g><g id="Layer_2-2" data-name="Layer 2"><path class="cls-1" d="M140,8.43a30.71,30.71,0,0,0-2.49-2.21A28.83,28.83,0,0,0,90.81,28.83v8.8a3.94,3.94,0,0,0,3.93,3.93h8.8c.32.43.64.85,1,1.25a19.83,19.83,0,0,0,8,5.63V61.21L98.38,86A2.63,2.63,0,0,0,100.67,90h37.94A2.63,2.63,0,0,0,140.9,86L126.77,61.2V48.44a20,20,0,0,0,8-5.63c.35-.4.67-.82,1-1.25h8.78a3.93,3.93,0,0,0,3.95-3.93v-8.8A28.82,28.82,0,0,0,140,8.43Zm-8.2,31.87a16.13,16.13,0,0,1-7.55,4.92,1.93,1.93,0,0,0-1.37,1.85V56h-6.57V47.07A1.94,1.94,0,0,0,115,45.22a16.13,16.13,0,0,1-11.42-15.39V28H135.7v1.85A16.15,16.15,0,0,1,131.84,40.3Z"/></g></g></svg>