<svg xmlns="http://www.w3.org/2000/svg" viewBox="0 0 302.33 204.15"><defs><style>.cls-1{fill:#fff}</style></defs><g id="Contours"><path class="cls-1" d="M110 126.82c5.33-.17 8.58-4.08 8.58-9.67s-8.67-8.67-8.67-8.67zm-95-10.49c-5.33.17-8.58 4.08-8.58 9.67s8.67 8.67 8.67 8.67z"/><path class="cls-1" d="M16.73 102.77c1.56 22.71-13.78 84.59 41.14 87.06 0 0 30.39.89 36.06-4.49s9.72-14.17 10.84-21.14 0-71.52 0-71.52l-15.2 1.47-28.12-3.96H29zm152.9 8.77c.34 4.2-6 8.69-7.65 14-2.13 6.72.34 14.59 1.86 22.61 3.78 20 25.23 41.23 79.9 44.65 0 0 34.67-20.26 36.74-28.62 2.69-10.81 12.84-21.18 14.32-28.18 2.17-10.12-8.71-1.6-9.77-10.12-1.52-12.23-10.88-24.47-10.88-24.47l-18 1.47L222.72 99h-38.51z"/><path d="M120 84.06c-5.59-2.55-7.39-.9-11.53-6.77-6.93-9.82-7.2-20.52-10.86-31.47-5.5-16.48-15.31-27-30.33-30.06 2.42-3.25 3.56-8.69-.85-11.91-6.07-4.43-17.13-.94-13.66 7.48a14.27 14.27 0 002.33 3.57h-.69c-9.74.55-21.28 10.49-27.41 17.35C17.75 42.7 14.11 55.86 11.48 69.3c-1.59 8.15-2.21 13-6 20.38C2.68 95.22 1 98.7 7 101.7c2.67 1.35 6.17-.06 7.24 3.32a12.35 12.35 0 00-.24 4.57c.11 1.6.19 3.18.25 4.75-3.86-3-7.7-1.46-10.11 4.47-3.69 9.11.13 18.34 9.87 19.37a135.37 135.37 0 002.71 25.11c3.87 18.91 19.53 27.84 37.9 29.52 2.37.22 22.51-3.71 15.22-6.31-3-1.07-8.28 1.23-11.72 1.11a60 60 0 01-13.36-2c-19.29-5.32-24.88-20.15-26.38-38.56-.3-3.7-.41-44.32 1.72-44.32h-1.07c3.33-2.41 6-5.23 11.11-6.41 11.62-2.64 24.8-4.32 36.6-2.2 11.52 2.06 20.51 6.12 32.61 4.52 1-.14 3-.21 5.51-.32-1.45 12.63 2.44 30.87 1.92 43.1-.36 8.51-.34 19.12-3.27 27.07-2.13 5.78-8 11.15-9.59 16.84-1.5 5.33 1.07 5.85 4.59 1.91 3.25-3.62 7.13-11 8.75-15.48 4.4-12.25 4.92-27.23 4.53-41.34 8.77-1.56 13.21-15.42 4.72-20.42-3.66-2.15-5.69-2.83-6-2-.46-3.33-1.08-6.61-1.49-9.85 8.15-.5 17.8-1.72 15.94-6.07-1.53-3.69-.53-5.99-4.96-8.02zM14.29 117.4c.06 3.59 0 7.18-.16 10.86-.08 1.7-.12 3.37-.14 5-9.04-2.26-8.12-12.92.3-15.86zM61.91 11.95a38.34 38.34 0 00-3.45-3.31c5.17-1.16 4.47.79 3.45 3.31zm51.29 100.76c5.57 7 1.12 8.79-1.52 14-.18-4.67-.42-9.22-.63-13.49-.07-1.47-.22-2.92-.41-4.37a17.2 17.2 0 002.56 3.86z"/><path d="M72.32 116.79c-2.88-7.39-4.71 6.07-4.84 6.27-4.32 6.6-3.69-1.59-5.78-3.45-5.22-4.62-4.16 8.6-2.33 11 6.07 7.94 15.43-7.42 12.95-13.82zM39.6 98.84c-11.79-.87-5.19 15.7 3 11.09 5.31-2.93 2.78-10.64-3-11.09zm53.4 3.34c-1.49-4-7.5-4.71-9.88-.88-5.56 8.92 13.55 11.57 9.88.88zm3 51.62c-5.42-8.67-18.83-9.74-28.05-11.1-5.14-.76-14.2-2.18-19.2.25-1.78.87-1 2.2-2.06 3.09-6 4.81-14.14 17-3 22.41 8.27 4 21.61-8.21 28.9-2 4.51 3.84 2.82 15.23 2.54 20.46-.15 2.85-1.64 7.33-1.13 10 1 5.38 8.41 8.85 12.26 3.67 3.2-4.31 1-17.06 1.89-22.31.57-3.49 1.14-6.42 3.47-9 4.69-5.38 9.58-7.09 4.38-15.47zm-7.37 11.4c-2 2.34-2.52 5.4-3.16 8.37-1.56 7.27-1.68 14.71-2.76 22-.94 2.59-2.42 3.42-3.84.75-.63-1.18.76-6.07.86-7.81.34-6.43.8-16.5-1.74-22.51-4.22-10-16.32-4.67-24.26-2.71-3.77.93-7.83 3-10.16-1.33s1.89-9.58 5.55-11.77c9.11-5.45 42.83-4.6 44.34 9 .47 4.64-2.71 3.45-4.87 6.01zm130.74-23.91c-5.85 0-9.73-4.07-14.82-4.24-7.43-.25-14.08 10.71-11.27 17.36 3.89 9.21 19.26 5 27 6.07 2.71.39 9.33 1.26 10.94 4.14 1.74 3.12-1 6.53.28 10.43 2.3 6.77 8.33-3.52 9.49-5.92a43.59 43.59 0 014.88-8.21c2.48-3.29 5-6.58 4.31-11.32-1.85-13.16-21.88-8.34-30.81-8.31zM244.84 154c-.79 3.48-3.41 5.22-4.93 8.38-1.64 3.42-1.22 9-4.87 11.25-3.24-4.52 3.53-9.7.9-14.3a4.66 4.66 0 00-2.79 3.38c-5.83-9.74-21.55-6.07-30.79-6.5-8.92-.41-7.81-11.39-.26-13.4 4.66-1.24 9.1 2.73 13.89 3.05 5.11.34 10.35-.74 15.46-.95 6.55-.21 15.46.09 13.39 9.09z"/><path d="M289.85 125.94c-1-5.57-5.5-12.86-7.35-16a33.36 33.36 0 00-4-6.07 7.94 7.94 0 002-2.85c2.68-6.3-3.72-10.54-7.78-14.2-6-5.37-8.52-10.29-10.45-18.16-2.92-11.86-2.89-26.6-14-34.31a28.38 28.38 0 00-11.51-4.69c2.37-3.27 3.43-8.61-.93-11.8-6.07-4.43-17.13-.94-13.66 7.48a15.93 15.93 0 003.62 4.89 20.87 20.87 0 00-10.78 7.32c-7.6 9.81-9.17 23-15.26 33.61-3.4 5.92-7.31 8.51-12.62 12.49-6.62 5-7.85 7.53-10.62 14.21-.05.13-.12.26-.19.4-1.12 1.61-2.71 3.63-4.35 5.8-3 3.67-6.53 8-7.38 11.4-1.83 0-3.83 1.12-5.61 3.62-3.24 4.55-2 15.16 2.86 16.75-1.8 2.77-1.35 8.88-1.1 11.38.9 9.08 7 16.06 12.74 22.69 15.69 18.12 38.11 22.76 61.18 24a49.89 49.89 0 0033.42-11 54.71 54.71 0 0015-18.59c2.08-4.38 2.85-11.09 4.65-16.59 2.74 1.25 6.06 0 8.27-4.46 2.71-5.49-.55-16.8-6.15-17.32zM231.37 26a38.32 38.32 0 00-3.45-3.31c5.17-1.2 4.47.74 3.45 3.31zm3.86 163.74c-19.91-.65-44.1-7.5-57.43-22.59a57.15 57.15 0 01-9.4-13.4c-3.05-6.22-2.48-14.86-3.38-18a9.62 9.62 0 002.54-1.49c.28-.22-6.12-4.39-5.77-7.58.57-5.18 5-4.44 8.65-3.18a10.39 10.39 0 00-1.29-5.11 20.35 20.35 0 012-5.68c2.9-4.35 7.06-10.7 11.9-13 6.13-3 18.25-1 25.11-1.35 3.47-.17 8.38-.37 10.15 3.33 1.26 2.63-.9 5.93.33 8.91 4.27-1.87 2.34-10.22 6.87-10.54 3.91-.28 2.82 6.49 4.21 9.32 5-6 .21-7.32 10.17-6.54 5.35.42 10.56 1.87 15.85 2.34 4.39.38 12.24 2.34 18.1 1a69.43 69.43 0 003.87 6.28c2.87 5 5.25 10.09 8.1 15a12 12 0 00-1.48 1.38c-.13.14 1.68 1 3.55 2.32l.42.3.31.48.14-.15c1.55 1.18 2.93 2.6 3 4.06.3 5.6-4.58 5.61-8.64 4.91a12.32 12.32 0 001.26 3.72c-4.63 23.06-23.46 46.05-49.14 45.21z"/><path d="M243.75 111.95c-.5 6.22 8.68 5.94 9.89.39 1.36-6.34-9.37-6.72-9.89-.39zm-43.75 1.5c6.55 1.4 10.12-8.23 3.29-9.35-4.88-.79-9.11 8.12-3.29 9.35zm19.49 18.05c5.71 1.08 13.65-7.64 7.4-12-1.71 2.3-1.31 8.34-4.83 8.92-4.6.77-4-8.43-6.74-8.26-5.32.36 1.39 10.75 4.17 11.34z"/><path class="cls-1" d="M63.1 19.34c-11.37 0-20.45 32.27-23.2 40.45C37.46 67 35.87 74.24 37.17 82c1.74 10.35 9 4.83 17.09 4.42a47.73 47.73 0 0117.06 2c3.83 1.23 8.76 5.86 11.93 3.73 5.6-3.76 1.78-23.12.08-27.89-5.47-15.31-13.75-30.01-20.23-44.92zm177.49 72.55c-7.57-6.58-5.74-19.48-6.26-28.41-.33-5.65-1.28-11.34-.9-17 .24-3.6 2.44-8-.34-10.63C231.42 41.49 208 90.8 208.32 91c3.16 1.91 12.33-.31 16.14.17 5.39.68 9.95 3.62 14.84 4.7a3 3 0 00-.75-3.41z"/></g></svg>