<svg id="about_us" xmlns="http://www.w3.org/2000/svg" xmlns:xlink="http://www.w3.org/1999/xlink" width="72.578" height="335.371" viewBox="0 0 72.578 335.371">
  <defs>
    <clipPath id="clip-path">
      <rect id="矩形_433" data-name="矩形 433" width="72.578" height="335.371" fill="#c6efef"/>
    </clipPath>
  </defs>
  <g id="组_883" data-name="组 883" clip-path="url(#clip-path)">
    <path id="路径_1799" data-name="路径 1799" d="M4.668.5,4.76,4.865A2.551,2.551,0,0,0,6.043,7.482C7.05,8.04,11.812,9.7,19.049,11.689l29.946,8.253c8.154,2.22,14.1,3.807,20.884,5.4v5.714c-5.954,1.506-11.082,2.936-15.937,4.362L27.29,43.269c-8.151,2.381-15.661,4.6-22.53,6.9l-.092,6.982H2.195V29.7H4.668l.092,7.853,21.247-5.791V16.609L16.391,14.07c-7.968-2.142-9.524-2.62-10.348-2.62-.917,0-1.283.636-1.283,2.143l-.092,5.4H2.195V.5Zm24,30.47,25.46-6.824-25.46-6.824Z" fill="#c6efef"/>
    <path id="路径_1800" data-name="路径 1800" d="M4.668.5,4.76,4.865A2.551,2.551,0,0,0,6.043,7.482C7.05,8.04,11.812,9.7,19.049,11.689l29.946,8.253c8.154,2.22,14.1,3.807,20.884,5.4v5.714c-5.954,1.506-11.082,2.936-15.937,4.362L27.29,43.269c-8.151,2.381-15.661,4.6-22.53,6.9l-.092,6.982H2.195V29.7H4.668l.092,7.853,21.247-5.791V16.609L16.391,14.07c-7.968-2.142-9.524-2.62-10.348-2.62-.917,0-1.283.636-1.283,2.143l-.092,5.4H2.195V.5Zm24,30.47,25.46-6.824-25.46-6.824Z" fill="#c6efef"/>
    <path id="路径_1801" data-name="路径 1801" d="M68.687,58.677c.55,9.127.823,10.4,3.3,14.6l-.824,1.191c-4.214-.158-8.793-.236-15.48-.236H39.012c4.307,3.649,6.137,7.14,6.137,11.425,0,8.966-9.433,15.789-21.8,15.789-12.639,0-22.714-7.3-22.714-16.583,0-4.2,1.466-6.666,6.23-11.108l-5.313.238L.637,72.8c1.1-4.6,1.283-6.188,1.741-14.125H4.485v5.159H66.579L66.4,58.677ZM10.071,74.231c-3.845,2.617-4.852,4.123-4.852,7.14,0,5.633,6.043,8.65,17.584,8.65,12.089,0,17.857-2.7,17.857-8.173A8.062,8.062,0,0,0,37.822,75.9a5.891,5.891,0,0,0-4.12-1.665Z" fill="#c6efef"/>
    <path id="路径_1802" data-name="路径 1802" d="M68.687,58.677c.55,9.127.823,10.4,3.3,14.6l-.824,1.191c-4.214-.158-8.793-.236-15.48-.236H39.012c4.307,3.649,6.137,7.14,6.137,11.425,0,8.966-9.433,15.789-21.8,15.789-12.639,0-22.714-7.3-22.714-16.583,0-4.2,1.466-6.666,6.23-11.108l-5.313.238L.637,72.8c1.1-4.6,1.283-6.188,1.741-14.125H4.485v5.159H66.579L66.4,58.677ZM10.071,74.231c-3.845,2.617-4.852,4.123-4.852,7.14,0,5.633,6.043,8.65,17.584,8.65,12.089,0,17.857-2.7,17.857-8.173A8.062,8.062,0,0,0,37.822,75.9a5.891,5.891,0,0,0-4.12-1.665Z" fill="#c6efef"/>
    <path id="路径_1803" data-name="路径 1803" d="M.822,127.246c0-11.505,9.159-19.677,21.981-19.677,13.1,0,22.347,8.25,22.347,19.836,0,11.663-8.885,19.519-22.164,19.519C9.8,146.924.822,138.99.822,127.246m2.29.078c0,2.62,1.648,4.843,4.579,6.033,3.572,1.426,9.158,2.22,15.3,2.22,6.227,0,11.723-.794,15.386-2.22,2.93-1.19,4.579-3.413,4.579-6.033,0-5.553-6.869-8.411-19.965-8.411-13.005,0-19.874,2.858-19.874,8.411" fill="#c6efef"/>
    <path id="路径_1804" data-name="路径 1804" d="M.822,127.246c0-11.505,9.159-19.677,21.981-19.677,13.1,0,22.347,8.25,22.347,19.836,0,11.663-8.885,19.519-22.164,19.519C9.8,146.924.822,138.99.822,127.246Zm2.29.078c0,2.62,1.648,4.843,4.579,6.033,3.572,1.426,9.158,2.22,15.3,2.22,6.227,0,11.723-.794,15.386-2.22,2.93-1.19,4.579-3.413,4.579-6.033,0-5.553-6.869-8.411-19.965-8.411C9.981,118.913,3.112,121.771,3.112,127.324Z" fill="#c6efef"/>
    <path id="路径_1805" data-name="路径 1805" d="M41.3,151.063h2.472c0,5.711.459,9.837,1.834,13.806l-.917,1.032c-5.037-.239-10.165-.4-18.318-.4H15.108c-7.144,0-9.617,1.426-9.617,5.475,0,3.253,1.193,5.156,5.5,8.489H41.4l-.093-5.4h2.472c0,6.586.459,10.238,1.834,14.6l-.824,1.032H4.577l.09,4.6H2.195A56.283,56.283,0,0,0,.547,180.42l.824-.871,6.593.077C2.47,174.787.912,171.692.912,167.25a11.7,11.7,0,0,1,6.413-10.476c2.563-1.268,5.128-1.665,10.9-1.665l23.174.4Z" fill="#c6efef"/>
    <path id="路径_1806" data-name="路径 1806" d="M41.3,151.063h2.472c0,5.711.459,9.837,1.834,13.806l-.917,1.032c-5.037-.239-10.165-.4-18.318-.4H15.108c-7.144,0-9.617,1.426-9.617,5.475,0,3.253,1.193,5.156,5.5,8.489H41.4l-.093-5.4h2.472c0,6.586.459,10.238,1.834,14.6l-.824,1.032H4.577l.09,4.6H2.195A56.283,56.283,0,0,0,.547,180.42l.824-.871,6.593.077C2.47,174.787.912,171.692.912,167.25a11.7,11.7,0,0,1,6.413-10.476c2.563-1.268,5.128-1.665,10.9-1.665l23.174.4Z" fill="#c6efef"/>
    <path id="路径_1807" data-name="路径 1807" d="M43.226,197.574c1.373,4.523,2.655,6.666,5.22,8.885,2.841,2.462,5.679,3.653,11.175,4.763v1.506c-3.482-.077-7.51-.238-10.168-.238l-5.678-.078v8.411H41.119v-8.411l-22.988-.081c-6.6,0-9.158.081-10.623.555-1.924.636-2.841,1.826-2.841,3.491,0,2.065.917,3.572,3.482,6.192l-1.741,1.426c-3.937-3.491-5.5-6.585-5.5-10.95,0-4.84,2.107-8.409,6.138-10.235,2.014-.951,4.03-1.271,7.692-1.271,1.831,0,4.672.081,7.052.081l19.325.316v-4.362Z" fill="#c6efef"/>
    <path id="路径_1808" data-name="路径 1808" d="M43.226,197.574c1.373,4.523,2.655,6.666,5.22,8.885,2.841,2.462,5.679,3.653,11.175,4.763v1.506c-3.482-.077-7.51-.238-10.168-.238l-5.678-.078v8.411H41.119v-8.411l-22.988-.081c-6.6,0-9.158.081-10.623.555-1.924.636-2.841,1.826-2.841,3.491,0,2.065.917,3.572,3.482,6.192l-1.741,1.426c-3.937-3.491-5.5-6.585-5.5-10.95,0-4.84,2.107-8.409,6.138-10.235,2.014-.951,4.03-1.271,7.692-1.271,1.831,0,4.672.081,7.052.081l19.325.316v-4.362Z" fill="#c6efef"/>
    <path id="路径_1809" data-name="路径 1809" d="M41.3,258.368h2.472c0,5.711.459,9.837,1.834,13.806l-.917,1.032c-5.037-.239-10.165-.4-18.318-.4H15.108c-7.144,0-9.617,1.426-9.617,5.475,0,3.253,1.193,5.156,5.5,8.489H41.4l-.093-5.4h2.472c0,6.586.459,10.235,1.834,14.6l-.824,1.032H4.577l.09,4.6H2.195A56.283,56.283,0,0,0,.547,287.725l.824-.871,6.593.077C2.47,282.092.912,279,.912,274.555a11.7,11.7,0,0,1,6.413-10.476c2.563-1.268,5.128-1.665,10.9-1.665l23.174.4Z" fill="#c6efef"/>
    <path id="路径_1810" data-name="路径 1810" d="M41.3,258.368h2.472c0,5.711.459,9.837,1.834,13.806l-.917,1.032c-5.037-.239-10.165-.4-18.318-.4H15.108c-7.144,0-9.617,1.426-9.617,5.475,0,3.253,1.193,5.156,5.5,8.489H41.4l-.093-5.4h2.472c0,6.586.459,10.235,1.834,14.6l-.824,1.032H4.577l.09,4.6H2.195A56.283,56.283,0,0,0,.547,287.725l.824-.871,6.593.077C2.47,282.092.912,279,.912,274.555a11.7,11.7,0,0,1,6.413-10.476c2.563-1.268,5.128-1.665,10.9-1.665l23.174.4Z" fill="#c6efef"/>
    <path id="路径_1811" data-name="路径 1811" d="M2.926,307.26a39.316,39.316,0,0,0,8.792.632c1.651,0,3.39-.077,5.038-.077v2.062c-3.755.158-5.769.793-8.424,2.619-3.3,2.22-4.948,5.079-4.948,8.489,0,4.446,2.841,7.776,6.779,7.776,3.206,0,4.945-1.9,6.686-7.3,1.465-4.762,3.023-7.936,4.761-9.682,2.017-2.142,5.589-3.41,9.434-3.41,8.061,0,14.1,5.394,14.1,12.538,0,2.855-.551,4.362-3.113,8.966l2.106,1.587-.368,1.029c-3.3-.235-5.037-.316-6.959-.316-1.741,0-3.572.081-5.313.081l-.275-1.826c3.755-.478,5.5-.952,7.327-2.143a8.984,8.984,0,0,0,4.123-7.378c0-3.969-2.658-6.824-6.23-6.824-3.755,0-5.4,1.823-7.693,8.488-1.831,5.159-2.655,6.824-4.579,8.889a13.186,13.186,0,0,1-9.25,3.41c-8.334,0-14.013-5.714-14.013-13.963,0-4.127.734-6.111,3.938-10.554l-2.38-1.745Z" fill="#c6efef"/>
    <path id="路径_1812" data-name="路径 1812" d="M2.926,307.26a39.316,39.316,0,0,0,8.792.632c1.651,0,3.39-.077,5.038-.077v2.062c-3.755.158-5.769.793-8.424,2.619-3.3,2.22-4.948,5.079-4.948,8.489,0,4.446,2.841,7.776,6.779,7.776,3.206,0,4.945-1.9,6.686-7.3,1.465-4.762,3.023-7.936,4.761-9.682,2.017-2.142,5.589-3.41,9.434-3.41,8.061,0,14.1,5.394,14.1,12.538,0,2.855-.551,4.362-3.113,8.966l2.106,1.587-.368,1.029c-3.3-.235-5.037-.316-6.959-.316-1.741,0-3.572.081-5.313.081l-.275-1.826c3.755-.478,5.5-.952,7.327-2.143a8.984,8.984,0,0,0,4.123-7.378c0-3.969-2.658-6.824-6.23-6.824-3.755,0-5.4,1.823-7.693,8.488-1.831,5.159-2.655,6.824-4.579,8.889a13.186,13.186,0,0,1-9.25,3.41c-8.334,0-14.013-5.714-14.013-13.963,0-4.127.734-6.111,3.938-10.554l-2.38-1.745Z" fill="#c6efef"/>
  </g>
</svg>
