<svg xmlns="http://www.w3.org/2000/svg" width="239.314" height="93.443" viewBox="0 0 239.314 93.443">
  <g id="check-new-left02" transform="translate(0 -264.153)">
    <g id="组_861" data-name="组 861">
      <g id="组_956" data-name="组 956">
        <path id="路径_1532" data-name="路径 1532" d="M230.638,271.075a4.729,4.729,0,0,0,7.187,0,6.11,6.11,0,0,0,.734-6.922H229.9a6.114,6.114,0,0,0,.737,6.921" fill="#fff8b0"/>
        <path id="路径_1533" data-name="路径 1533" d="M200.085,271.075a4.729,4.729,0,0,0,7.187,0,6.11,6.11,0,0,0,.734-6.922h-8.658a6.114,6.114,0,0,0,.737,6.921" fill="#fff8b0"/>
        <path id="路径_1534" data-name="路径 1534" d="M222.547,280.064a4.729,4.729,0,0,0-7.187,0,6.1,6.1,0,0,0,0,7.985,4.729,4.729,0,0,0,7.186,0,6.1,6.1,0,0,0,0-7.986" fill="#fff8b0"/>
        <path id="路径_1535" data-name="路径 1535" d="M237.824,297.037a4.729,4.729,0,0,0-7.187,0,6.1,6.1,0,0,0,0,7.985,4.73,4.73,0,0,0,7.187,0,6.1,6.1,0,0,0,0-7.986" fill="#fff8b0"/>
        <path id="路径_1536" data-name="路径 1536" d="M169.531,271.075a4.729,4.729,0,0,0,7.187,0,6.106,6.106,0,0,0,.734-6.922h-8.658a6.114,6.114,0,0,0,.737,6.921" fill="#fff8b0"/>
        <path id="路径_1537" data-name="路径 1537" d="M191.995,280.064a4.73,4.73,0,0,0-7.188,0,6.1,6.1,0,0,0,0,7.985,4.729,4.729,0,0,0,7.186,0,6.1,6.1,0,0,0,0-7.986" fill="#fff8b0"/>
        <path id="路径_1538" data-name="路径 1538" d="M207.271,297.037a4.729,4.729,0,0,0-7.187,0,6.1,6.1,0,0,0,0,7.985,4.729,4.729,0,0,0,7.186,0,6.1,6.1,0,0,0,0-7.986" fill="#fff8b0"/>
        <path id="路径_1539" data-name="路径 1539" d="M222.547,314.01a4.729,4.729,0,0,0-7.187,0,6.1,6.1,0,0,0,0,7.985,4.729,4.729,0,0,0,7.186,0,6.1,6.1,0,0,0,0-7.986" fill="#fff8b0"/>
        <path id="路径_1540" data-name="路径 1540" d="M237.824,330.983a4.729,4.729,0,0,0-7.187,0,6.1,6.1,0,0,0,0,7.985,4.73,4.73,0,0,0,7.187,0,6.1,6.1,0,0,0,0-7.986" fill="#fff8b0"/>
        <path id="路径_1541" data-name="路径 1541" d="M138.979,271.075a4.728,4.728,0,0,0,7.186,0,6.106,6.106,0,0,0,.734-6.922h-8.658a6.112,6.112,0,0,0,.738,6.921" fill="#fff8b0"/>
        <path id="路径_1542" data-name="路径 1542" d="M161.44,280.064a4.729,4.729,0,0,0-7.187,0,6.1,6.1,0,0,0,0,7.985,4.729,4.729,0,0,0,7.186,0,6.1,6.1,0,0,0,0-7.986" fill="#fff8b0"/>
        <path id="路径_1543" data-name="路径 1543" d="M176.717,297.037a4.729,4.729,0,0,0-7.187,0,6.1,6.1,0,0,0,0,7.985,4.729,4.729,0,0,0,7.186,0,6.1,6.1,0,0,0,0-7.986" fill="#fff8b0"/>
        <path id="路径_1544" data-name="路径 1544" d="M191.995,314.01a4.73,4.73,0,0,0-7.188,0,6.1,6.1,0,0,0,0,7.985,4.729,4.729,0,0,0,7.186,0,6.1,6.1,0,0,0,0-7.986" fill="#fff8b0"/>
        <path id="路径_1545" data-name="路径 1545" d="M207.271,330.983a4.729,4.729,0,0,0-7.187,0,6.1,6.1,0,0,0,0,7.985,4.729,4.729,0,0,0,7.186,0,6.1,6.1,0,0,0,0-7.986" fill="#fff8b0"/>
        <path id="路径_1546" data-name="路径 1546" d="M222.547,347.957a4.729,4.729,0,0,0-7.187,0,6.1,6.1,0,0,0,0,7.985,4.729,4.729,0,0,0,7.186,0,6.1,6.1,0,0,0,0-7.986" fill="#fff8b0"/>
        <path id="路径_1547" data-name="路径 1547" d="M108.426,271.075a4.729,4.729,0,0,0,7.187,0,6.108,6.108,0,0,0,.734-6.922h-8.658a6.114,6.114,0,0,0,.737,6.921" fill="#fff8b0"/>
        <path id="路径_1548" data-name="路径 1548" d="M130.888,280.064a4.729,4.729,0,0,0-7.187,0,6.1,6.1,0,0,0,0,7.985,4.729,4.729,0,0,0,7.186,0,6.1,6.1,0,0,0,0-7.986" fill="#fff8b0"/>
        <path id="路径_1549" data-name="路径 1549" d="M146.164,297.037a4.729,4.729,0,0,0-7.187,0,6.1,6.1,0,0,0,0,7.985,4.73,4.73,0,0,0,7.187,0,6.1,6.1,0,0,0,0-7.986" fill="#fff8b0"/>
        <path id="路径_1550" data-name="路径 1550" d="M161.44,314.01a4.729,4.729,0,0,0-7.187,0,6.1,6.1,0,0,0,0,7.985,4.729,4.729,0,0,0,7.186,0,6.1,6.1,0,0,0,0-7.986" fill="#fff8b0"/>
        <path id="路径_1551" data-name="路径 1551" d="M176.717,330.983a4.729,4.729,0,0,0-7.187,0,6.1,6.1,0,0,0,0,7.985,4.729,4.729,0,0,0,7.186,0,6.1,6.1,0,0,0,0-7.986" fill="#fff8b0"/>
        <path id="路径_1552" data-name="路径 1552" d="M191.995,347.957a4.73,4.73,0,0,0-7.188,0,6.1,6.1,0,0,0,0,7.985,4.729,4.729,0,0,0,7.186,0,6.1,6.1,0,0,0,0-7.986" fill="#fff8b0"/>
        <path id="路径_1553" data-name="路径 1553" d="M77.873,271.075a4.729,4.729,0,0,0,7.187,0,6.108,6.108,0,0,0,.734-6.922H77.136a6.114,6.114,0,0,0,.737,6.921" fill="#fff8b0"/>
        <path id="路径_1554" data-name="路径 1554" d="M100.335,280.064a4.729,4.729,0,0,0-7.187,0,6.1,6.1,0,0,0,0,7.985,4.73,4.73,0,0,0,7.187,0,6.1,6.1,0,0,0,0-7.986" fill="#fff8b0"/>
        <path id="路径_1555" data-name="路径 1555" d="M115.611,297.037a4.729,4.729,0,0,0-7.187,0,6.1,6.1,0,0,0,0,7.985,4.729,4.729,0,0,0,7.186,0,6.1,6.1,0,0,0,0-7.986" fill="#fff8b0"/>
        <path id="路径_1556" data-name="路径 1556" d="M130.888,314.01a4.729,4.729,0,0,0-7.187,0,6.1,6.1,0,0,0,0,7.985,4.729,4.729,0,0,0,7.186,0,6.1,6.1,0,0,0,0-7.986" fill="#fff8b0"/>
        <path id="路径_1557" data-name="路径 1557" d="M146.164,330.983a4.729,4.729,0,0,0-7.187,0,6.1,6.1,0,0,0,0,7.985,4.73,4.73,0,0,0,7.187,0,6.1,6.1,0,0,0,0-7.986" fill="#fff8b0"/>
        <path id="路径_1558" data-name="路径 1558" d="M161.44,347.957a4.729,4.729,0,0,0-7.187,0,6.1,6.1,0,0,0,0,7.985,4.729,4.729,0,0,0,7.186,0,6.1,6.1,0,0,0,0-7.986" fill="#fff8b0"/>
        <path id="路径_1559" data-name="路径 1559" d="M47.32,271.075a4.729,4.729,0,0,0,7.187,0,6.106,6.106,0,0,0,.734-6.922H46.583a6.114,6.114,0,0,0,.737,6.921" fill="#fff8b0"/>
        <path id="路径_1560" data-name="路径 1560" d="M69.782,280.064a4.729,4.729,0,0,0-7.187,0,6.1,6.1,0,0,0,0,7.985,4.73,4.73,0,0,0,7.187,0,6.1,6.1,0,0,0,0-7.986" fill="#fff8b0"/>
        <path id="路径_1561" data-name="路径 1561" d="M85.059,297.037a4.729,4.729,0,0,0-7.187,0,6.1,6.1,0,0,0,0,7.985,4.729,4.729,0,0,0,7.186,0,6.1,6.1,0,0,0,0-7.986" fill="#fff8b0"/>
        <path id="路径_1562" data-name="路径 1562" d="M100.335,314.01a4.729,4.729,0,0,0-7.187,0,6.1,6.1,0,0,0,0,7.985,4.73,4.73,0,0,0,7.187,0,6.1,6.1,0,0,0,0-7.986" fill="#fff8b0"/>
        <path id="路径_1563" data-name="路径 1563" d="M115.611,330.983a4.729,4.729,0,0,0-7.187,0,6.1,6.1,0,0,0,0,7.985,4.729,4.729,0,0,0,7.186,0,6.1,6.1,0,0,0,0-7.986" fill="#fff8b0"/>
        <path id="路径_1564" data-name="路径 1564" d="M130.888,347.957a4.729,4.729,0,0,0-7.187,0,6.1,6.1,0,0,0,0,7.985,4.729,4.729,0,0,0,7.186,0,6.1,6.1,0,0,0,0-7.986" fill="#fff8b0"/>
        <path id="路径_1565" data-name="路径 1565" d="M15.653,269.214a5.742,5.742,0,0,0,1.113,1.861,4.729,4.729,0,0,0,7.187,0,6.111,6.111,0,0,0,.734-6.923H20.208Z" fill="#fff8b0"/>
        <path id="路径_1566" data-name="路径 1566" d="M39.228,280.064a4.729,4.729,0,0,0-7.187,0,6.1,6.1,0,0,0,0,7.985,4.729,4.729,0,0,0,7.186,0,6.1,6.1,0,0,0,0-7.986" fill="#fff8b0"/>
        <path id="路径_1567" data-name="路径 1567" d="M54.506,297.037a4.729,4.729,0,0,0-7.187,0,6.1,6.1,0,0,0,0,7.985,4.729,4.729,0,0,0,7.186,0,6.1,6.1,0,0,0,0-7.986" fill="#fff8b0"/>
        <path id="路径_1568" data-name="路径 1568" d="M69.782,314.01a4.729,4.729,0,0,0-7.187,0,6.1,6.1,0,0,0,0,7.985,4.73,4.73,0,0,0,7.187,0,6.1,6.1,0,0,0,0-7.986" fill="#fff8b0"/>
        <path id="路径_1569" data-name="路径 1569" d="M85.059,330.983a4.729,4.729,0,0,0-7.187,0,6.1,6.1,0,0,0,0,7.985,4.729,4.729,0,0,0,7.186,0,6.1,6.1,0,0,0,0-7.986" fill="#fff8b0"/>
        <path id="路径_1570" data-name="路径 1570" d="M100.335,347.957a4.729,4.729,0,0,0-7.187,0,6.1,6.1,0,0,0,0,7.985,4.73,4.73,0,0,0,7.187,0,6.1,6.1,0,0,0,0-7.986" fill="#fff8b0"/>
        <path id="路径_1571" data-name="路径 1571" d="M1.49,288.049a4.729,4.729,0,0,0,7.187,0,6.094,6.094,0,0,0,0-7.985A5.057,5.057,0,0,0,7,278.828l-6.625,7.36a5.73,5.73,0,0,0,1.115,1.861" fill="#fff8b0"/>
        <path id="路径_1572" data-name="路径 1572" d="M23.952,297.037a4.729,4.729,0,0,0-7.187,0,6.1,6.1,0,0,0,0,7.985,4.729,4.729,0,0,0,7.186,0,6.1,6.1,0,0,0,0-7.986" fill="#fff8b0"/>
        <path id="路径_1573" data-name="路径 1573" d="M39.228,314.01a4.729,4.729,0,0,0-7.187,0,6.1,6.1,0,0,0,0,7.985,4.729,4.729,0,0,0,7.186,0,6.1,6.1,0,0,0,0-7.986" fill="#fff8b0"/>
        <path id="路径_1574" data-name="路径 1574" d="M54.506,330.983a4.729,4.729,0,0,0-7.187,0,6.1,6.1,0,0,0,0,7.985,4.729,4.729,0,0,0,7.186,0,6.1,6.1,0,0,0,0-7.986" fill="#fff8b0"/>
        <path id="路径_1575" data-name="路径 1575" d="M69.782,347.957a4.729,4.729,0,0,0-7.187,0,6.1,6.1,0,0,0,0,7.985,4.73,4.73,0,0,0,7.187,0,6.1,6.1,0,0,0,0-7.986" fill="#fff8b0"/>
        <path id="路径_1576" data-name="路径 1576" d="M8.676,314.01a4.729,4.729,0,0,0-7.187,0,6.1,6.1,0,0,0,0,7.985,4.73,4.73,0,0,0,7.187,0,6.1,6.1,0,0,0,0-7.986" fill="#fff8b0"/>
        <path id="路径_1577" data-name="路径 1577" d="M23.952,330.983a4.729,4.729,0,0,0-7.187,0,6.1,6.1,0,0,0,0,7.985,4.729,4.729,0,0,0,7.186,0,6.1,6.1,0,0,0,0-7.986" fill="#fff8b0"/>
        <path id="路径_1578" data-name="路径 1578" d="M39.228,347.957a4.729,4.729,0,0,0-7.187,0,6.1,6.1,0,0,0,0,7.985,4.729,4.729,0,0,0,7.186,0,6.1,6.1,0,0,0,0-7.986" fill="#fff8b0"/>
        <path id="路径_1579" data-name="路径 1579" d="M8.676,347.957a4.729,4.729,0,0,0-7.187,0,6.1,6.1,0,0,0,0,7.985,4.73,4.73,0,0,0,7.187,0,6.1,6.1,0,0,0,0-7.986" fill="#fff8b0"/>
      </g>
    </g>
  </g>
</svg>
