<svg xmlns="http://www.w3.org/2000/svg" width="181.237" height="127.423" viewBox="0 0 181.237 127.423">
  <g id="check-new-right" transform="translate(-625.765 0)">
    <path id="路径_1657" data-name="路径 1657" d="M797.758,73.377c-.032-.07-.064-.139-.1-.209.028.069.055.139.081.207a.052.052,0,0,1,.017,0m8.427,13.6a.79.79,0,0,1,.817.75c-.072,1.12-1.783.667-2.52.817-2.163.158-4.2.186-6.3.461-2.735.414-5.361,1.038-8.078,1.491-8.7,1.436-17.41,3.191-25.109,7.3-5.875,2.784-10.162,7.328-14.055,12.1-2.008,2.717-4.5,5.193-5.646,8.339a1.042,1.042,0,0,1-1.494.093,22.638,22.638,0,0,0-2.233-.828,66.157,66.157,0,0,0-15.451-2.415,107.813,107.813,0,0,0-20.58,1.249c-2.382.373-4.806.537-7.146,1.115-2.2.6-4.24,1.389-6.364,2.146a44.461,44.461,0,0,0-9.264,4.663.831.831,0,0,1-1.484.614c-2.412-4.662-4.453-9.511-6.567-14.3-2.829-7.159-5.623-14.307-9.049-21.241-3.806-9.009-7.531-18.127-12.584-26.619a43.412,43.412,0,0,0-4.213-7.049c-.44-.743-1.219-1.323-1.573-2.087-.07-.426.277-.754.552-1.053,3.491-3.638,7.341-7.147,12.082-9.379a49.966,49.966,0,0,1,21.482-5.715c6.639-.291,13.438-.515,19.922,1.036,3.244.848,6.7.932,9.815,2.182a8.411,8.411,0,0,1,1.158.571c.187-.336.409-.659.5-.877,2.159-3.9,6.192-6.339,9.751-9.06a85.536,85.536,0,0,1,8.006-6.169,54.233,54.233,0,0,1,9.006-4.412c5.284-2.625,11.05-4.13,16.81-5.582,3.532-1.043,7.35-.865,10.986-1.289,1.307-.026,7.9-1.339,7.544.471a.264.264,0,0,1-.011.049,25.922,25.922,0,0,1,2,3.485c2.44,4.449,3.178,9.521,5.237,14.1,1.8,5.182,4.7,9.943,6.626,15.078.583,1.495,1.054,3.019,1.488,4.553,1.032,2.389,1.973,4.816,3,7.213,1.482,3.267,2.659,6.546,4.049,9.822,1.324,2.708,2.516,5.473,3.81,8.194,1.709,3.072,3.044,6.227,4.592,9.352.136.275.295.549.406.836l.081,0" fill="#feea8e"/>
    <path id="路径_1658" data-name="路径 1658" d="M626.582,47.675a.857.857,0,0,1-.565-.208.707.707,0,0,1-.025-1.06c.552-.53,1.075-1.125,1.582-1.7.3-.336.591-.671.9-1a11.56,11.56,0,0,1,3.843-2.606l1.069-.462c1.409-.606,2.739-1.177,4.068-1.889a40.543,40.543,0,0,1,6.19-2.8c1.916-.645,3.894-1.155,5.808-1.648,1.769-.456,3.6-.928,5.345-1.5a31.2,31.2,0,0,1,8.841-1.51c1.682-.025,3.405-.2,5.071-.36a57.14,57.14,0,0,1,5.76-.372c.988.007,2.079-.029,3.194-.061,3.311-.095,7.061-.2,9.843.574,2.4.294,4.815.62,7.189.969a.762.762,0,0,1,.678.86.819.819,0,0,1-.937.622c-2.382-.351-4.809-.678-7.214-.972a.876.876,0,0,1-.135-.028c-2.526-.723-6.162-.619-9.373-.526-1.134.033-2.228.057-3.251.062a48.964,48.964,0,0,0-5.579.364c-1.7.168-3.463.341-5.219.368a29.294,29.294,0,0,0-8.319,1.424c-1.8.588-3.656,1.067-5.453,1.53-1.883.486-3.83.988-5.686,1.613a38.8,38.8,0,0,0-5.93,2.688c-1.392.745-2.755,1.331-4.2,1.952l-1.061.458a9.946,9.946,0,0,0-3.3,2.223c-.295.318-.581.643-.869.969-.527.6-1.072,1.218-1.671,1.794a.858.858,0,0,1-.591.231"/>
    <path id="路径_1659" data-name="路径 1659" d="M660.677,127.423A.84.84,0,0,1,660,127.1a4.033,4.033,0,0,1-.6-1.284l-.1-.313a8.338,8.338,0,0,0-.622-1.269c-.187-.335-.375-.671-.535-1.025-.425-.942-.807-1.914-1.175-2.854-.385-.981-.783-1.995-1.226-2.959-.806-1.755-1.549-3.564-2.269-5.314-.848-2.064-1.724-4.2-2.7-6.242-.516-1.078-1.055-2.156-1.6-3.237-1.34-2.685-2.725-5.461-3.791-8.266-.467-1.228-.921-2.46-1.376-3.692l-.55-1.488a27.54,27.54,0,0,0-1.276-2.787c-.334-.664-.668-1.328-.966-2.01-.911-2.084-1.655-4.257-2.375-6.358-.488-1.424-.993-2.9-1.542-4.315-.445-1.152-.784-2.313-1.112-3.435a25.278,25.278,0,0,0-1.954-5.221c-.775-1.417-1.586-2.76-2.35-4.015a7.972,7.972,0,0,1-.787-1.983,7.559,7.559,0,0,0-.554-1.5,39.579,39.579,0,0,1-3.481-8.191.746.746,0,0,1,.585-.915.823.823,0,0,1,1,.537A38.2,38.2,0,0,0,632,56.86a8.711,8.711,0,0,1,.669,1.778,6.818,6.818,0,0,0,.637,1.642c.773,1.269,1.593,2.629,2.383,4.073a26.687,26.687,0,0,1,2.072,5.505c.32,1.094.651,2.226,1.075,3.323.558,1.444,1.067,2.929,1.559,4.366.711,2.074,1.447,4.219,2.334,6.249.288.659.61,1.3.932,1.94A28.935,28.935,0,0,1,645,88.669l.551,1.49c.453,1.228.906,2.455,1.371,3.679,1.04,2.739,2.41,5.482,3.734,8.135.543,1.088,1.085,2.173,1.6,3.257,1,2.082,1.883,4.235,2.739,6.318.713,1.736,1.451,3.532,2.245,5.26.46,1,.865,2.034,1.257,3.034.362.923.737,1.878,1.148,2.787.143.316.311.615.479.915a9.581,9.581,0,0,1,.722,1.491l.008.024a18.488,18.488,0,0,1,4.417-3.949c1.768-.829,3.522-1.793,5.218-2.725q1.016-.56,2.032-1.109a44.943,44.943,0,0,1,13.631-4.682c.808-.133,1.613-.275,2.416-.416a54.137,54.137,0,0,1,9.421-1.072c.961.007,1.925,0,2.888-.008,2.482-.019,5.049-.035,7.578.154,3.091.23,6.044.534,9.028.929.674.089,1.33.243,1.965.392a14.956,14.956,0,0,0,2.035.384c.105.01.445.018.908.03,4.92.137,5.2.273,5.48.775a.769.769,0,0,1-.048.8.862.862,0,0,1-1.133.211,1,1,0,0,1-.082-.057c-.772-.132-3.369-.2-4.267-.229-.521-.015-.9-.026-1.018-.037a16.562,16.562,0,0,1-2.281-.424c-.62-.145-1.206-.283-1.792-.361-2.95-.39-5.87-.691-8.927-.918-2.456-.183-4.987-.166-7.434-.149-.97.007-1.941.013-2.909.008a47.449,47.449,0,0,0-9.1,1.046c-.81.142-1.622.285-2.438.418a43.177,43.177,0,0,0-13.092,4.5c-.674.362-1.345.731-2.017,1.1-1.72.945-3.5,1.923-5.315,2.775-1.7.795-4.222,3.923-4.568,4.474a.763.763,0,0,1-.356.4.878.878,0,0,1-.415.1"/>
    <path id="路径_1660" data-name="路径 1660" d="M727.143,114.9a.878.878,0,0,1-.421-.107.717.717,0,0,1-.279-1.03,18.147,18.147,0,0,0,1.4-2.815,11.721,11.721,0,0,1,3.068-4.782c.883-.718,1.718-1.538,2.527-2.333a30.14,30.14,0,0,1,3.487-3.083,80.019,80.019,0,0,1,14.932-8.656,84.745,84.745,0,0,1,11.621-4.141c1.575-.419,3.193-.719,4.758-1.009a52.644,52.644,0,0,0,5.474-1.218,72.93,72.93,0,0,1,10.936-2.139,35.847,35.847,0,0,1,4.442-.422,5.469,5.469,0,0,0,.737-.088l.184-.029c-.33-.623-.692-1.249-1.069-1.9-.586-1.012-1.192-2.058-1.685-3.13-.307-.668-.65-1.35-1-2.041a29.353,29.353,0,0,1-2.14-4.984c-.495-1.737-1.087-3.467-1.66-5.14-.272-.795-.545-1.591-.81-2.395a15,15,0,0,0-.859-1.95c-.2-.4-.4-.8-.581-1.215-.755-1.722-1.354-3.534-1.882-5.133-.924-2.795-1.88-5.577-2.836-8.359-1.5-4.35-3.041-8.848-4.43-13.323-.3-.968-.578-1.934-.853-2.9a50.565,50.565,0,0,0-2.47-7.235c-.86-1.887-1.632-3.835-2.379-5.72-.516-1.3-1.033-2.6-1.578-3.89-.384-.905-.825-1.748-1.253-2.562A20.982,20.982,0,0,1,760.6,6.632a18.011,18.011,0,0,0-1.65-4.091.721.721,0,0,1,.341-1.014.854.854,0,0,1,1.1.312,19.2,19.2,0,0,1,1.8,4.445A19.572,19.572,0,0,0,764,10.526c.44.841.9,1.709,1.3,2.669.55,1.3,1.07,2.608,1.591,3.922.74,1.867,1.506,3.8,2.351,5.653a52.442,52.442,0,0,1,2.542,7.433c.273.951.547,1.907.844,2.864,1.383,4.456,2.926,8.943,4.417,13.284.958,2.787,1.917,5.574,2.842,8.374.518,1.569,1.106,3.348,1.834,5.008.172.391.362.772.551,1.153a16.042,16.042,0,0,1,.937,2.139c.264.8.535,1.59.8,2.379.579,1.691,1.177,3.439,1.682,5.211a28.413,28.413,0,0,0,2.043,4.734c.355.706.706,1.4,1.02,2.087.464,1.01,1.053,2.026,1.622,3.008s1.15,1.984,1.621,3a.7.7,0,0,1-.112.761.855.855,0,0,1-.781.272,3.453,3.453,0,0,0-1.005.077,7.029,7.029,0,0,1-.987.11,34.366,34.366,0,0,0-4.228.4,70.52,70.52,0,0,0-10.673,2.081,53.915,53.915,0,0,1-5.659,1.263c-1.532.284-3.116.578-4.626.98a83.008,83.008,0,0,0-11.38,4.058,78.423,78.423,0,0,0-14.622,8.479,28.486,28.486,0,0,0-3.3,2.927c-.834.819-1.7,1.666-2.637,2.431a10.473,10.473,0,0,0-2.631,4.211,19.851,19.851,0,0,1-1.521,3.037.835.835,0,0,1-.7.363"/>
    <path id="路径_1661" data-name="路径 1661" d="M697.765,33.166a.877.877,0,0,1-.394-.093.719.719,0,0,1-.321-1.019c.242-.4.49-.849.749-1.313a18.618,18.618,0,0,1,3.279-4.685,11.126,11.126,0,0,1,1.056-.826c.181-.13.362-.26.534-.394.558-.433,1.075-.9,1.623-1.4.593-.535,1.206-1.089,1.872-1.591,2.654-2,4.912-3.661,7.3-5.254,3.127-2.085,6.216-4.107,9.629-5.936,2.733-1.464,5.586-2.751,8.345-4q1.111-.5,2.224-1.009c5.433-2.482,11.728-3.661,17.17-4.486.58-.088,1.155-.219,1.73-.349.712-.161,1.447-.327,2.2-.42.166-.02.4-.07.654-.125,1.094-.231,2.332-.493,3.09.027a.711.711,0,0,1,.164,1.05.867.867,0,0,1-1.144.151,6.815,6.815,0,0,0-1.743.234c-.317.067-.6.125-.8.15a20.523,20.523,0,0,0-2.024.389c-.6.136-1.224.277-1.856.372-5.322.808-11.468,1.957-16.707,4.35q-1.116.51-2.232,1.011c-2.733,1.234-5.56,2.51-8.243,3.947-3.347,1.793-6.4,3.792-9.491,5.854-2.359,1.571-4.594,3.214-7.226,5.2-.609.459-1.169.966-1.763,1.5-.545.492-1.109,1-1.713,1.47-.188.146-.385.288-.582.43a9.6,9.6,0,0,0-.908.7,17.626,17.626,0,0,0-2.981,4.308c-.266.478-.522.937-.771,1.354a.833.833,0,0,1-.717.388"/>
    <path id="路径_1662" data-name="路径 1662" d="M677.757,88.992c-.208-.65-.469-1.426-.741-2.077-.3-.715-.759-1.661-1.31-2.672l.793-.4a5.852,5.852,0,0,0,7.577,2.728c2.567-.9,4-2.833,3.333-4.43a2.252,2.252,0,0,0-1.662-1.294c-.863-.226-1.565-.22-4.092.092a15.444,15.444,0,0,1-5.067-.021,4.83,4.83,0,0,1-3.406-2.705c-1.055-2.521.834-5.429,4.294-6.649a10.142,10.142,0,0,1,4.654-.508l.556-.967.6-.092c.235.713.444,1.29.708,1.921.316.756.689,1.492,1.1,2.386l-.821.41a5.054,5.054,0,0,0-2.231-2.347,5.663,5.663,0,0,0-4.318-.141c-2.176.767-3.337,2.43-2.73,3.879a2.392,2.392,0,0,0,1.983,1.374,14.6,14.6,0,0,0,3.668-.111,16.345,16.345,0,0,1,5.225.013,4.378,4.378,0,0,1,3.3,2.6c1.187,2.836-.844,5.939-4.778,7.326a11.09,11.09,0,0,1-5.466.481l-.4,1.2Z"/>
    <path id="路径_1663" data-name="路径 1663" d="M700.415,81.7c-4.046,1.427-7.8.339-9.03-2.6-1.257-3,.757-6.149,4.83-7.585,4.1-1.447,7.717-.383,8.992,2.663,1.266,3.025-.663,6.068-4.792,7.524m-.192-.535a2.383,2.383,0,0,0,1.681-1.8,7.487,7.487,0,0,0-.687-3.784,8.154,8.154,0,0,0-2.258-3.254,2.711,2.711,0,0,0-2.561-.3c-1.952.688-2.3,2.618-1.04,5.622,1.248,2.983,2.912,4.205,4.865,3.516"/>
    <path id="路径_1664" data-name="路径 1664" d="M708.526,77.829l1.889-.69c-.331-.944-.725-1.962-1.209-3.118L704.573,62.95l-1.824.691-.238-.567a13.692,13.692,0,0,0,4.957-2.616l.542.147c.294.933.732,2.056,1.163,3.085l5.064,12.1,1.85-.628.238.567L708.763,78.4Z"/>
    <path id="路径_1665" data-name="路径 1665" d="M727.023,61.664c-.606.237-.692.413-.893,2.075l-.646,6.182a27.013,27.013,0,0,0-.166,3.048l-1.507.531a30.034,30.034,0,0,0-2.246-2.076l-4.234-3.691c-.706-.618-1.451-1.248-2.25-1.858l-1.516.51-.237-.567,7.255-2.558.237.567-1.861.68,5.651,5.24.572-5.674a3.974,3.974,0,0,0,.011-1.426c-.08-.189-.347-.216-.682-.1l-1.068.353-.239-.567,4.465-1.574.237.567Z"/>
    <path id="路径_1666" data-name="路径 1666" d="M744.755,63.029c-.642,2.445-1.933,3.72-4.752,4.714-3.989,1.406-7.742.319-8.973-2.622-1.214-2.9.831-6.2,4.709-7.567a7.611,7.611,0,0,1,5.283-.079,4.14,4.14,0,0,1,2.371,1.84.472.472,0,0,1-.076.509,18.015,18.015,0,0,1-3.471,1.344l-5.246,1.85.176.42c1.328,3.172,3.172,4.137,5.991,3.144,1.813-.64,2.587-1.467,3.26-3.609Zm-4.822-2.494c-1.041-2.333-2.216-3.076-3.918-2.476-1.758.62-2.3,2.088-1.579,4.414Z"/>
    <path id="路径_1667" data-name="路径 1667" d="M749.359,47.182l-.22-.525c3.174-1.216,3.724-1.506,4.957-2.616l.534.053c.411,1.133.865,2.371,1.41,3.673L760.9,59.385l1.786-.63.219.526-.53.187a20.957,20.957,0,0,0-4.185,1.934l-.451-.083-.727-1.431a5.319,5.319,0,0,1-.443.855,5.81,5.81,0,0,1-3.009,2.219c-3.237,1.141-6.434-.071-7.612-2.886a5.385,5.385,0,0,1,3.468-7.322,5.735,5.735,0,0,1,3.07-.238,5.475,5.475,0,0,1,1.737.785l-2.866-6.848Zm5.684,8.073a2.756,2.756,0,0,0-1.487-1.718A3.226,3.226,0,0,0,751.2,53.5a2.59,2.59,0,0,0-1.655,1.476,5.27,5.27,0,0,0,.323,3.526c1.073,2.564,2.713,3.576,4.694,2.878a2.849,2.849,0,0,0,2.062-2.343Z"/>
  </g>
</svg>
