<svg xmlns="http://www.w3.org/2000/svg" width="153.612" height="106.379" viewBox="0 0 153.612 106.379">
  <g id="check-new-left01" transform="translate(-0.777 -186.887)">
    <path id="路径_1591" data-name="路径 1591" d="M65.295,273.119c.234,2.414.125,6.949-3.508,5.531-8.75-5.359-18.418-8.722-27.965-12.34-4.257-1.332-8.281-2.5-12.656-2.39A44.554,44.554,0,0,0,9.7,271.935c-1.886,1.641-4.125.075-3.656-2.289a84.716,84.716,0,0,0-.477-8.578c-.136-4.687-.707-9.34-.836-14.027a2.014,2.014,0,0,1,2.868-1.8c1.754-.082,3.136,1.582,4.746,2.16a44.815,44.815,0,0,0,7.636,3.1c6.375-5.836,13.645-10.477,20.383-15.848,3.2-2.562,6.3-5.258,9.4-7.941,2.629-1.938,6.656-6.672,10.109-5.883,2.106.9,1.594,3.551,1.649,5.4-.02,4.078-.1,8.164.125,12.239.414,8.48,1.96,16.836,2.945,25.254.34,3.121.547,6.261.707,9.4" fill="#feea8e"/>
    <path id="路径_1592" data-name="路径 1592" d="M2.005,269.824a.749.749,0,0,1-.748-.7A235.135,235.135,0,0,1,1.2,239.969a.75.75,0,1,1,1.5.09,233.693,233.693,0,0,0,.054,28.967.75.75,0,0,1-.7.8l-.048,0"/>
    <path id="路径_1593" data-name="路径 1593" d="M14.7,247.851a.741.741,0,0,1-.345-.084c-4.6-2.377-8.7-4.641-12.541-6.921a.75.75,0,1,1,.766-1.29c3.688,2.19,7.621,4.364,12.008,6.643a298.67,298.67,0,0,1,39-29.232.75.75,0,0,1,.8,1.271A297.179,297.179,0,0,0,15.2,247.662a.748.748,0,0,1-.5.189"/>
    <path id="路径_1594" data-name="路径 1594" d="M57.179,275.518a.735.735,0,0,1-.371-.1c-13.305-7.6-27.981-11.9-41.887-15.4-3.6,3.354-7.241,6.848-10.769,10.228a.75.75,0,0,1-1.038-1.083c3.629-3.478,7.381-7.074,11.083-10.521a.753.753,0,0,1,.693-.179c14.127,3.54,29.073,7.887,42.662,15.649a.75.75,0,0,1-.373,1.4"/>
    <path id="路径_1595" data-name="路径 1595" d="M57.576,275.606a.751.751,0,0,1-.746-.68c-1.711-18.194-2.545-36.686-2.478-54.96a.78.78,0,0,1,.753-.747.749.749,0,0,1,.747.753c-.066,18.225.765,36.667,2.472,54.814a.751.751,0,0,1-.677.817c-.024,0-.048,0-.071,0"/>
    <path id="路径_1596" data-name="路径 1596" d="M66.3,223.382a.75.75,0,0,1-.45-1.351l46.746-35a.75.75,0,1,1,.9,1.2l-46.747,35a.754.754,0,0,1-.449.149"/>
    <path id="路径_1597" data-name="路径 1597" d="M64.619,213.906a.75.75,0,0,1-.457-1.345l12.6-9.662a.75.75,0,0,1,.912,1.191l-12.6,9.661a.744.744,0,0,1-.456.155"/>
    <path id="路径_1598" data-name="路径 1598" d="M121.638,293.266a.752.752,0,0,1-.288-.058l-53.9-22.464a.75.75,0,1,1,.577-1.385l53.9,22.465a.75.75,0,0,1-.289,1.442"/>
    <path id="路径_1599" data-name="路径 1599" d="M83.01,286.68a.758.758,0,0,1-.3-.061l-14.58-6.278a.75.75,0,0,1,.592-1.379l14.581,6.28a.75.75,0,0,1-.3,1.438"/>
    <path id="路径_1600" data-name="路径 1600" d="M90.521,237.354a1.732,1.732,0,0,1-1.713,1.878,3.677,3.677,0,0,1-1.547-.442,5.055,5.055,0,0,0-2.209-.469c-2.9,0-4.639,2.154-4.639,5.773,0,3.562,1.739,5.689,4.667,5.689,1.049,0,1.049,0,2.927-.856a2.54,2.54,0,0,1,.94-.221,1.85,1.85,0,0,1,1.712,1.933c0,1.795-2.348,3.093-5.579,3.093-5.551,0-9.2-3.867-9.2-9.75,0-5.661,3.756-9.611,9.142-9.611,3.286,0,5.5,1.215,5.5,2.983"/>
    <path id="路径_1601" data-name="路径 1601" d="M96.49,245.723v5a3.48,3.48,0,0,1-.276,1.768,2.132,2.132,0,0,1-3.673,0,3.142,3.142,0,0,1-.277-1.768v-13.34a3.477,3.477,0,0,1,.277-1.768,2.132,2.132,0,0,1,3.673,0,3.145,3.145,0,0,1,.276,1.768v4.558h7.844v-4.558a3.479,3.479,0,0,1,.276-1.768,2.132,2.132,0,0,1,3.673,0,3.145,3.145,0,0,1,.276,1.768v13.34a3.469,3.469,0,0,1-.276,1.768,2.132,2.132,0,0,1-3.673,0,3.143,3.143,0,0,1-.276-1.768v-5Z"/>
    <path id="路径_1602" data-name="路径 1602" d="M115.5,242.133h3.535a2.844,2.844,0,0,1,1.574.248,1.907,1.907,0,0,1,0,3.287,2.844,2.844,0,0,1-1.574.248H115.5v3.563h3.949a2.84,2.84,0,0,1,1.574.249,1.906,1.906,0,0,1,0,3.286,2.785,2.785,0,0,1-1.574.249h-5.109c-2.209.11-3.176-.857-3.066-3.066v-12.29c0-1.271.083-1.63.443-2.127a2.355,2.355,0,0,1,2.1-.939h5.634a2.851,2.851,0,0,1,1.574.248,1.907,1.907,0,0,1,0,3.287,2.785,2.785,0,0,1-1.574.249H115.5Z"/>
    <path id="路径_1603" data-name="路径 1603" d="M137.566,237.354a1.732,1.732,0,0,1-1.713,1.878,3.677,3.677,0,0,1-1.547-.442,5.055,5.055,0,0,0-2.209-.469c-2.9,0-4.639,2.154-4.639,5.773,0,3.562,1.739,5.689,4.667,5.689,1.049,0,1.049,0,2.927-.856a2.545,2.545,0,0,1,.94-.221,1.85,1.85,0,0,1,1.712,1.933c0,1.795-2.348,3.093-5.579,3.093-5.551,0-9.2-3.867-9.2-9.75,0-5.661,3.756-9.611,9.142-9.611,3.286,0,5.5,1.215,5.5,2.983"/>
    <path id="路径_1604" data-name="路径 1604" d="M143.563,250.722a3.493,3.493,0,0,1-.276,1.768,2.133,2.133,0,0,1-3.674,0,3.152,3.152,0,0,1-.277-1.768v-13.34a3.477,3.477,0,0,1,.277-1.768,2.16,2.16,0,0,1,1.85-1.049,2.115,2.115,0,0,1,1.824,1.049,3.154,3.154,0,0,1,.276,1.768V242.1L149,236c.995-1.105,1.519-1.436,2.292-1.436a1.97,1.97,0,0,1,1.961,2.043c0,.829-.22,1.216-1.242,2.265l-4.447,4.5,5.606,5.939c1.023,1.077,1.216,1.435,1.216,2.237a1.862,1.862,0,0,1-1.961,1.988c-.911,0-1.3-.22-2.347-1.38l-6.518-7.154Z"/>
  </g>
</svg>
