<svg xmlns="http://www.w3.org/2000/svg" xmlns:xlink="http://www.w3.org/1999/xlink" width="123" height="122" viewBox="0 0 123 122">
  <defs>
    <clipPath id="clip-path">
      <rect width="123" height="122" fill="none"/>
    </clipPath>
  </defs>
  <g id="circle_group" clip-path="url(#clip-path)">
    <g transform="translate(2502 -3063)">
      <circle id="椭圆_10" data-name="椭圆 10" cx="6" cy="6" r="6" transform="translate(-2502 3063)" fill="#c6efef"/>
    </g>
    <g transform="translate(2529 -3063)">
      <circle id="椭圆_10-2" data-name="椭圆 10" cx="6" cy="6" r="6" transform="translate(-2502 3063)" fill="#c6efef"/>
    </g>
    <g transform="translate(2556 -3063)">
      <circle id="椭圆_10-3" data-name="椭圆 10" cx="6" cy="6" r="6" transform="translate(-2502 3063)" fill="#c6efef"/>
    </g>
    <g transform="translate(2583 -3063)">
      <circle id="椭圆_10-4" data-name="椭圆 10" cx="6" cy="6" r="6" transform="translate(-2502 3063)" fill="#c6efef"/>
    </g>
    <g transform="translate(2610 -3063)">
      <circle id="椭圆_10-5" data-name="椭圆 10" cx="6" cy="6" r="6" transform="translate(-2502 3063)" fill="#c6efef"/>
    </g>
    <g transform="translate(2502 -3036)">
      <circle id="椭圆_10-6" data-name="椭圆 10" cx="6" cy="6" r="6" transform="translate(-2502 3063)" fill="#c6efef"/>
    </g>
    <g transform="translate(2529 -3036)">
      <circle id="椭圆_10-7" data-name="椭圆 10" cx="6" cy="6" r="6" transform="translate(-2502 3063)" fill="#c6efef"/>
    </g>
    <g transform="translate(2556 -3036)">
      <circle id="椭圆_10-8" data-name="椭圆 10" cx="6" cy="6" r="6" transform="translate(-2502 3063)" fill="#c6efef"/>
    </g>
    <g transform="translate(2583 -3036)">
      <circle id="椭圆_10-9" data-name="椭圆 10" cx="6" cy="6" r="6" transform="translate(-2502 3063)" fill="#c6efef"/>
    </g>
    <g transform="translate(2610 -3036)">
      <circle id="椭圆_10-10" data-name="椭圆 10" cx="6" cy="6" r="6" transform="translate(-2502 3063)" fill="#c6efef"/>
    </g>
    <g transform="translate(2502 -3009)">
      <circle id="椭圆_10-11" data-name="椭圆 10" cx="6" cy="6" r="6" transform="translate(-2502 3063)" fill="#c6efef"/>
    </g>
    <g transform="translate(2529 -3009)">
      <circle id="椭圆_10-12" data-name="椭圆 10" cx="6" cy="6" r="6" transform="translate(-2502 3063)" fill="#c6efef"/>
    </g>
    <g transform="translate(2556 -3009)">
      <circle id="椭圆_10-13" data-name="椭圆 10" cx="6" cy="6" r="6" transform="translate(-2502 3063)" fill="#c6efef"/>
    </g>
    <g transform="translate(2583 -3009)">
      <circle id="椭圆_10-14" data-name="椭圆 10" cx="6" cy="6" r="6" transform="translate(-2502 3063)" fill="#c6efef"/>
    </g>
    <g transform="translate(2610 -3009)">
      <circle id="椭圆_10-15" data-name="椭圆 10" cx="6" cy="6" r="6" transform="translate(-2502 3063)" fill="#c6efef"/>
    </g>
    <g transform="translate(2502 -2982)">
      <circle id="椭圆_10-16" data-name="椭圆 10" cx="6" cy="6" r="6" transform="translate(-2502 3063)" fill="#c6efef"/>
    </g>
    <g transform="translate(2529 -2982)">
      <circle id="椭圆_10-17" data-name="椭圆 10" cx="6" cy="6" r="6" transform="translate(-2502 3063)" fill="#c6efef"/>
    </g>
    <g transform="translate(2556 -2982)">
      <circle id="椭圆_10-18" data-name="椭圆 10" cx="6" cy="6" r="6" transform="translate(-2502 3063)" fill="#c6efef"/>
    </g>
    <g transform="translate(2583 -2982)">
      <circle id="椭圆_10-19" data-name="椭圆 10" cx="6" cy="6" r="6" transform="translate(-2502 3063)" fill="#c6efef"/>
    </g>
    <g transform="translate(2610 -2982)">
      <circle id="椭圆_10-20" data-name="椭圆 10" cx="6" cy="6" r="6" transform="translate(-2502 3063)" fill="#c6efef"/>
    </g>
    <g transform="translate(2502 -2955)">
      <circle id="椭圆_10-21" data-name="椭圆 10" cx="6" cy="6" r="6" transform="translate(-2502 3063)" fill="#c6efef"/>
    </g>
    <g transform="translate(2529 -2955)">
      <circle id="椭圆_10-22" data-name="椭圆 10" cx="6" cy="6" r="6" transform="translate(-2502 3063)" fill="#c6efef"/>
    </g>
    <g transform="translate(2556 -2955)">
      <circle id="椭圆_10-23" data-name="椭圆 10" cx="6" cy="6" r="6" transform="translate(-2502 3063)" fill="#c6efef"/>
    </g>
    <g transform="translate(2583 -2955)">
      <circle id="椭圆_10-24" data-name="椭圆 10" cx="6" cy="6" r="6" transform="translate(-2502 3063)" fill="#c6efef"/>
    </g>
    <g transform="translate(2610 -2955)">
      <circle id="椭圆_10-25" data-name="椭圆 10" cx="6" cy="6" r="6" transform="translate(-2502 3063)" fill="#c6efef"/>
    </g>
  </g>
</svg>
