<svg xmlns="http://www.w3.org/2000/svg" xmlns:xlink="http://www.w3.org/1999/xlink" width="134" height="134" viewBox="0 0 134 134">
  <defs>
    <clipPath id="clip-path">
      <rect id="矩形_440" data-name="矩形 440" width="134" height="134" transform="translate(2257 13793)" fill="#fff" stroke="#707070" stroke-width="1"/>
    </clipPath>
    <clipPath id="clip-path-2">
      <rect width="400" height="400" fill="none"/>
    </clipPath>
  </defs>
  <g id="content09-circlegroup" transform="translate(-2257 -13793)" clip-path="url(#clip-path)">
    <g id="重复网格_31" data-name="重复网格 31" transform="translate(2381.756 13639) rotate(45)" clip-path="url(#clip-path-2)">
      <g transform="translate(2502 -3063)">
        <circle id="椭圆_10" data-name="椭圆 10" cx="6" cy="6" r="6" transform="translate(-2502 3063)" fill="#c6efef"/>
      </g>
      <g transform="translate(2529 -3063)">
        <circle id="椭圆_10-2" data-name="椭圆 10" cx="6" cy="6" r="6" transform="translate(-2502 3063)" fill="#c6efef"/>
      </g>
      <g transform="translate(2556 -3063)">
        <circle id="椭圆_10-3" data-name="椭圆 10" cx="6" cy="6" r="6" transform="translate(-2502 3063)" fill="#c6efef"/>
      </g>
      <g transform="translate(2583 -3063)">
        <circle id="椭圆_10-4" data-name="椭圆 10" cx="6" cy="6" r="6" transform="translate(-2502 3063)" fill="#c6efef"/>
      </g>
      <g transform="translate(2610 -3063)">
        <circle id="椭圆_10-5" data-name="椭圆 10" cx="6" cy="6" r="6" transform="translate(-2502 3063)" fill="#c6efef"/>
      </g>
      <g transform="translate(2637 -3063)">
        <circle id="椭圆_10-6" data-name="椭圆 10" cx="6" cy="6" r="6" transform="translate(-2502 3063)" fill="#c6efef"/>
      </g>
      <g transform="translate(2664 -3063)">
        <circle id="椭圆_10-7" data-name="椭圆 10" cx="6" cy="6" r="6" transform="translate(-2502 3063)" fill="#c6efef"/>
      </g>
      <g transform="translate(2691 -3063)">
        <circle id="椭圆_10-8" data-name="椭圆 10" cx="6" cy="6" r="6" transform="translate(-2502 3063)" fill="#c6efef"/>
      </g>
      <g transform="translate(2718 -3063)">
        <circle id="椭圆_10-9" data-name="椭圆 10" cx="6" cy="6" r="6" transform="translate(-2502 3063)" fill="#c6efef"/>
      </g>
      <g transform="translate(2745 -3063)">
        <circle id="椭圆_10-10" data-name="椭圆 10" cx="6" cy="6" r="6" transform="translate(-2502 3063)" fill="#c6efef"/>
      </g>
      <g transform="translate(2772 -3063)">
        <circle id="椭圆_10-11" data-name="椭圆 10" cx="6" cy="6" r="6" transform="translate(-2502 3063)" fill="#c6efef"/>
      </g>
      <g transform="translate(2799 -3063)">
        <circle id="椭圆_10-12" data-name="椭圆 10" cx="6" cy="6" r="6" transform="translate(-2502 3063)" fill="#c6efef"/>
      </g>
      <g transform="translate(2826 -3063)">
        <circle id="椭圆_10-13" data-name="椭圆 10" cx="6" cy="6" r="6" transform="translate(-2502 3063)" fill="#c6efef"/>
      </g>
      <g transform="translate(2853 -3063)">
        <circle id="椭圆_10-14" data-name="椭圆 10" cx="6" cy="6" r="6" transform="translate(-2502 3063)" fill="#c6efef"/>
      </g>
      <g transform="translate(2880 -3063)">
        <circle id="椭圆_10-15" data-name="椭圆 10" cx="6" cy="6" r="6" transform="translate(-2502 3063)" fill="#c6efef"/>
      </g>
      <g transform="translate(2502 -3036)">
        <circle id="椭圆_10-16" data-name="椭圆 10" cx="6" cy="6" r="6" transform="translate(-2502 3063)" fill="#c6efef"/>
      </g>
      <g transform="translate(2529 -3036)">
        <circle id="椭圆_10-17" data-name="椭圆 10" cx="6" cy="6" r="6" transform="translate(-2502 3063)" fill="#c6efef"/>
      </g>
      <g transform="translate(2556 -3036)">
        <circle id="椭圆_10-18" data-name="椭圆 10" cx="6" cy="6" r="6" transform="translate(-2502 3063)" fill="#c6efef"/>
      </g>
      <g transform="translate(2583 -3036)">
        <circle id="椭圆_10-19" data-name="椭圆 10" cx="6" cy="6" r="6" transform="translate(-2502 3063)" fill="#c6efef"/>
      </g>
      <g transform="translate(2610 -3036)">
        <circle id="椭圆_10-20" data-name="椭圆 10" cx="6" cy="6" r="6" transform="translate(-2502 3063)" fill="#c6efef"/>
      </g>
      <g transform="translate(2637 -3036)">
        <circle id="椭圆_10-21" data-name="椭圆 10" cx="6" cy="6" r="6" transform="translate(-2502 3063)" fill="#c6efef"/>
      </g>
      <g transform="translate(2664 -3036)">
        <circle id="椭圆_10-22" data-name="椭圆 10" cx="6" cy="6" r="6" transform="translate(-2502 3063)" fill="#c6efef"/>
      </g>
      <g transform="translate(2691 -3036)">
        <circle id="椭圆_10-23" data-name="椭圆 10" cx="6" cy="6" r="6" transform="translate(-2502 3063)" fill="#c6efef"/>
      </g>
      <g transform="translate(2718 -3036)">
        <circle id="椭圆_10-24" data-name="椭圆 10" cx="6" cy="6" r="6" transform="translate(-2502 3063)" fill="#c6efef"/>
      </g>
      <g transform="translate(2745 -3036)">
        <circle id="椭圆_10-25" data-name="椭圆 10" cx="6" cy="6" r="6" transform="translate(-2502 3063)" fill="#c6efef"/>
      </g>
      <g transform="translate(2772 -3036)">
        <circle id="椭圆_10-26" data-name="椭圆 10" cx="6" cy="6" r="6" transform="translate(-2502 3063)" fill="#c6efef"/>
      </g>
      <g transform="translate(2799 -3036)">
        <circle id="椭圆_10-27" data-name="椭圆 10" cx="6" cy="6" r="6" transform="translate(-2502 3063)" fill="#c6efef"/>
      </g>
      <g transform="translate(2826 -3036)">
        <circle id="椭圆_10-28" data-name="椭圆 10" cx="6" cy="6" r="6" transform="translate(-2502 3063)" fill="#c6efef"/>
      </g>
      <g transform="translate(2853 -3036)">
        <circle id="椭圆_10-29" data-name="椭圆 10" cx="6" cy="6" r="6" transform="translate(-2502 3063)" fill="#c6efef"/>
      </g>
      <g transform="translate(2880 -3036)">
        <circle id="椭圆_10-30" data-name="椭圆 10" cx="6" cy="6" r="6" transform="translate(-2502 3063)" fill="#c6efef"/>
      </g>
      <g transform="translate(2502 -3009)">
        <circle id="椭圆_10-31" data-name="椭圆 10" cx="6" cy="6" r="6" transform="translate(-2502 3063)" fill="#c6efef"/>
      </g>
      <g transform="translate(2529 -3009)">
        <circle id="椭圆_10-32" data-name="椭圆 10" cx="6" cy="6" r="6" transform="translate(-2502 3063)" fill="#c6efef"/>
      </g>
      <g transform="translate(2556 -3009)">
        <circle id="椭圆_10-33" data-name="椭圆 10" cx="6" cy="6" r="6" transform="translate(-2502 3063)" fill="#c6efef"/>
      </g>
      <g transform="translate(2583 -3009)">
        <circle id="椭圆_10-34" data-name="椭圆 10" cx="6" cy="6" r="6" transform="translate(-2502 3063)" fill="#c6efef"/>
      </g>
      <g transform="translate(2610 -3009)">
        <circle id="椭圆_10-35" data-name="椭圆 10" cx="6" cy="6" r="6" transform="translate(-2502 3063)" fill="#c6efef"/>
      </g>
      <g transform="translate(2637 -3009)">
        <circle id="椭圆_10-36" data-name="椭圆 10" cx="6" cy="6" r="6" transform="translate(-2502 3063)" fill="#c6efef"/>
      </g>
      <g transform="translate(2664 -3009)">
        <circle id="椭圆_10-37" data-name="椭圆 10" cx="6" cy="6" r="6" transform="translate(-2502 3063)" fill="#c6efef"/>
      </g>
      <g transform="translate(2691 -3009)">
        <circle id="椭圆_10-38" data-name="椭圆 10" cx="6" cy="6" r="6" transform="translate(-2502 3063)" fill="#c6efef"/>
      </g>
      <g transform="translate(2718 -3009)">
        <circle id="椭圆_10-39" data-name="椭圆 10" cx="6" cy="6" r="6" transform="translate(-2502 3063)" fill="#c6efef"/>
      </g>
      <g transform="translate(2745 -3009)">
        <circle id="椭圆_10-40" data-name="椭圆 10" cx="6" cy="6" r="6" transform="translate(-2502 3063)" fill="#c6efef"/>
      </g>
      <g transform="translate(2772 -3009)">
        <circle id="椭圆_10-41" data-name="椭圆 10" cx="6" cy="6" r="6" transform="translate(-2502 3063)" fill="#c6efef"/>
      </g>
      <g transform="translate(2799 -3009)">
        <circle id="椭圆_10-42" data-name="椭圆 10" cx="6" cy="6" r="6" transform="translate(-2502 3063)" fill="#c6efef"/>
      </g>
      <g transform="translate(2826 -3009)">
        <circle id="椭圆_10-43" data-name="椭圆 10" cx="6" cy="6" r="6" transform="translate(-2502 3063)" fill="#c6efef"/>
      </g>
      <g transform="translate(2853 -3009)">
        <circle id="椭圆_10-44" data-name="椭圆 10" cx="6" cy="6" r="6" transform="translate(-2502 3063)" fill="#c6efef"/>
      </g>
      <g transform="translate(2880 -3009)">
        <circle id="椭圆_10-45" data-name="椭圆 10" cx="6" cy="6" r="6" transform="translate(-2502 3063)" fill="#c6efef"/>
      </g>
      <g transform="translate(2502 -2982)">
        <circle id="椭圆_10-46" data-name="椭圆 10" cx="6" cy="6" r="6" transform="translate(-2502 3063)" fill="#c6efef"/>
      </g>
      <g transform="translate(2529 -2982)">
        <circle id="椭圆_10-47" data-name="椭圆 10" cx="6" cy="6" r="6" transform="translate(-2502 3063)" fill="#c6efef"/>
      </g>
      <g transform="translate(2556 -2982)">
        <circle id="椭圆_10-48" data-name="椭圆 10" cx="6" cy="6" r="6" transform="translate(-2502 3063)" fill="#c6efef"/>
      </g>
      <g transform="translate(2583 -2982)">
        <circle id="椭圆_10-49" data-name="椭圆 10" cx="6" cy="6" r="6" transform="translate(-2502 3063)" fill="#c6efef"/>
      </g>
      <g transform="translate(2610 -2982)">
        <circle id="椭圆_10-50" data-name="椭圆 10" cx="6" cy="6" r="6" transform="translate(-2502 3063)" fill="#c6efef"/>
      </g>
      <g transform="translate(2637 -2982)">
        <circle id="椭圆_10-51" data-name="椭圆 10" cx="6" cy="6" r="6" transform="translate(-2502 3063)" fill="#c6efef"/>
      </g>
      <g transform="translate(2664 -2982)">
        <circle id="椭圆_10-52" data-name="椭圆 10" cx="6" cy="6" r="6" transform="translate(-2502 3063)" fill="#c6efef"/>
      </g>
      <g transform="translate(2691 -2982)">
        <circle id="椭圆_10-53" data-name="椭圆 10" cx="6" cy="6" r="6" transform="translate(-2502 3063)" fill="#c6efef"/>
      </g>
      <g transform="translate(2718 -2982)">
        <circle id="椭圆_10-54" data-name="椭圆 10" cx="6" cy="6" r="6" transform="translate(-2502 3063)" fill="#c6efef"/>
      </g>
      <g transform="translate(2745 -2982)">
        <circle id="椭圆_10-55" data-name="椭圆 10" cx="6" cy="6" r="6" transform="translate(-2502 3063)" fill="#c6efef"/>
      </g>
      <g transform="translate(2772 -2982)">
        <circle id="椭圆_10-56" data-name="椭圆 10" cx="6" cy="6" r="6" transform="translate(-2502 3063)" fill="#c6efef"/>
      </g>
      <g transform="translate(2799 -2982)">
        <circle id="椭圆_10-57" data-name="椭圆 10" cx="6" cy="6" r="6" transform="translate(-2502 3063)" fill="#c6efef"/>
      </g>
      <g transform="translate(2826 -2982)">
        <circle id="椭圆_10-58" data-name="椭圆 10" cx="6" cy="6" r="6" transform="translate(-2502 3063)" fill="#c6efef"/>
      </g>
      <g transform="translate(2853 -2982)">
        <circle id="椭圆_10-59" data-name="椭圆 10" cx="6" cy="6" r="6" transform="translate(-2502 3063)" fill="#c6efef"/>
      </g>
      <g transform="translate(2880 -2982)">
        <circle id="椭圆_10-60" data-name="椭圆 10" cx="6" cy="6" r="6" transform="translate(-2502 3063)" fill="#c6efef"/>
      </g>
      <g transform="translate(2502 -2955)">
        <circle id="椭圆_10-61" data-name="椭圆 10" cx="6" cy="6" r="6" transform="translate(-2502 3063)" fill="#c6efef"/>
      </g>
      <g transform="translate(2529 -2955)">
        <circle id="椭圆_10-62" data-name="椭圆 10" cx="6" cy="6" r="6" transform="translate(-2502 3063)" fill="#c6efef"/>
      </g>
      <g transform="translate(2556 -2955)">
        <circle id="椭圆_10-63" data-name="椭圆 10" cx="6" cy="6" r="6" transform="translate(-2502 3063)" fill="#c6efef"/>
      </g>
      <g transform="translate(2583 -2955)">
        <circle id="椭圆_10-64" data-name="椭圆 10" cx="6" cy="6" r="6" transform="translate(-2502 3063)" fill="#c6efef"/>
      </g>
      <g transform="translate(2610 -2955)">
        <circle id="椭圆_10-65" data-name="椭圆 10" cx="6" cy="6" r="6" transform="translate(-2502 3063)" fill="#c6efef"/>
      </g>
      <g transform="translate(2637 -2955)">
        <circle id="椭圆_10-66" data-name="椭圆 10" cx="6" cy="6" r="6" transform="translate(-2502 3063)" fill="#c6efef"/>
      </g>
      <g transform="translate(2664 -2955)">
        <circle id="椭圆_10-67" data-name="椭圆 10" cx="6" cy="6" r="6" transform="translate(-2502 3063)" fill="#c6efef"/>
      </g>
      <g transform="translate(2691 -2955)">
        <circle id="椭圆_10-68" data-name="椭圆 10" cx="6" cy="6" r="6" transform="translate(-2502 3063)" fill="#c6efef"/>
      </g>
      <g transform="translate(2718 -2955)">
        <circle id="椭圆_10-69" data-name="椭圆 10" cx="6" cy="6" r="6" transform="translate(-2502 3063)" fill="#c6efef"/>
      </g>
      <g transform="translate(2745 -2955)">
        <circle id="椭圆_10-70" data-name="椭圆 10" cx="6" cy="6" r="6" transform="translate(-2502 3063)" fill="#c6efef"/>
      </g>
      <g transform="translate(2772 -2955)">
        <circle id="椭圆_10-71" data-name="椭圆 10" cx="6" cy="6" r="6" transform="translate(-2502 3063)" fill="#c6efef"/>
      </g>
      <g transform="translate(2799 -2955)">
        <circle id="椭圆_10-72" data-name="椭圆 10" cx="6" cy="6" r="6" transform="translate(-2502 3063)" fill="#c6efef"/>
      </g>
      <g transform="translate(2826 -2955)">
        <circle id="椭圆_10-73" data-name="椭圆 10" cx="6" cy="6" r="6" transform="translate(-2502 3063)" fill="#c6efef"/>
      </g>
      <g transform="translate(2853 -2955)">
        <circle id="椭圆_10-74" data-name="椭圆 10" cx="6" cy="6" r="6" transform="translate(-2502 3063)" fill="#c6efef"/>
      </g>
      <g transform="translate(2880 -2955)">
        <circle id="椭圆_10-75" data-name="椭圆 10" cx="6" cy="6" r="6" transform="translate(-2502 3063)" fill="#c6efef"/>
      </g>
      <g transform="translate(2502 -2928)">
        <circle id="椭圆_10-76" data-name="椭圆 10" cx="6" cy="6" r="6" transform="translate(-2502 3063)" fill="#c6efef"/>
      </g>
      <g transform="translate(2529 -2928)">
        <circle id="椭圆_10-77" data-name="椭圆 10" cx="6" cy="6" r="6" transform="translate(-2502 3063)" fill="#c6efef"/>
      </g>
      <g transform="translate(2556 -2928)">
        <circle id="椭圆_10-78" data-name="椭圆 10" cx="6" cy="6" r="6" transform="translate(-2502 3063)" fill="#c6efef"/>
      </g>
      <g transform="translate(2583 -2928)">
        <circle id="椭圆_10-79" data-name="椭圆 10" cx="6" cy="6" r="6" transform="translate(-2502 3063)" fill="#c6efef"/>
      </g>
      <g transform="translate(2610 -2928)">
        <circle id="椭圆_10-80" data-name="椭圆 10" cx="6" cy="6" r="6" transform="translate(-2502 3063)" fill="#c6efef"/>
      </g>
      <g transform="translate(2637 -2928)">
        <circle id="椭圆_10-81" data-name="椭圆 10" cx="6" cy="6" r="6" transform="translate(-2502 3063)" fill="#c6efef"/>
      </g>
      <g transform="translate(2664 -2928)">
        <circle id="椭圆_10-82" data-name="椭圆 10" cx="6" cy="6" r="6" transform="translate(-2502 3063)" fill="#c6efef"/>
      </g>
      <g transform="translate(2691 -2928)">
        <circle id="椭圆_10-83" data-name="椭圆 10" cx="6" cy="6" r="6" transform="translate(-2502 3063)" fill="#c6efef"/>
      </g>
      <g transform="translate(2718 -2928)">
        <circle id="椭圆_10-84" data-name="椭圆 10" cx="6" cy="6" r="6" transform="translate(-2502 3063)" fill="#c6efef"/>
      </g>
      <g transform="translate(2745 -2928)">
        <circle id="椭圆_10-85" data-name="椭圆 10" cx="6" cy="6" r="6" transform="translate(-2502 3063)" fill="#c6efef"/>
      </g>
      <g transform="translate(2772 -2928)">
        <circle id="椭圆_10-86" data-name="椭圆 10" cx="6" cy="6" r="6" transform="translate(-2502 3063)" fill="#c6efef"/>
      </g>
      <g transform="translate(2799 -2928)">
        <circle id="椭圆_10-87" data-name="椭圆 10" cx="6" cy="6" r="6" transform="translate(-2502 3063)" fill="#c6efef"/>
      </g>
      <g transform="translate(2826 -2928)">
        <circle id="椭圆_10-88" data-name="椭圆 10" cx="6" cy="6" r="6" transform="translate(-2502 3063)" fill="#c6efef"/>
      </g>
      <g transform="translate(2853 -2928)">
        <circle id="椭圆_10-89" data-name="椭圆 10" cx="6" cy="6" r="6" transform="translate(-2502 3063)" fill="#c6efef"/>
      </g>
      <g transform="translate(2880 -2928)">
        <circle id="椭圆_10-90" data-name="椭圆 10" cx="6" cy="6" r="6" transform="translate(-2502 3063)" fill="#c6efef"/>
      </g>
      <g transform="translate(2502 -2901)">
        <circle id="椭圆_10-91" data-name="椭圆 10" cx="6" cy="6" r="6" transform="translate(-2502 3063)" fill="#c6efef"/>
      </g>
      <g transform="translate(2529 -2901)">
        <circle id="椭圆_10-92" data-name="椭圆 10" cx="6" cy="6" r="6" transform="translate(-2502 3063)" fill="#c6efef"/>
      </g>
      <g transform="translate(2556 -2901)">
        <circle id="椭圆_10-93" data-name="椭圆 10" cx="6" cy="6" r="6" transform="translate(-2502 3063)" fill="#c6efef"/>
      </g>
      <g transform="translate(2583 -2901)">
        <circle id="椭圆_10-94" data-name="椭圆 10" cx="6" cy="6" r="6" transform="translate(-2502 3063)" fill="#c6efef"/>
      </g>
      <g transform="translate(2610 -2901)">
        <circle id="椭圆_10-95" data-name="椭圆 10" cx="6" cy="6" r="6" transform="translate(-2502 3063)" fill="#c6efef"/>
      </g>
      <g transform="translate(2637 -2901)">
        <circle id="椭圆_10-96" data-name="椭圆 10" cx="6" cy="6" r="6" transform="translate(-2502 3063)" fill="#c6efef"/>
      </g>
      <g transform="translate(2664 -2901)">
        <circle id="椭圆_10-97" data-name="椭圆 10" cx="6" cy="6" r="6" transform="translate(-2502 3063)" fill="#c6efef"/>
      </g>
      <g transform="translate(2691 -2901)">
        <circle id="椭圆_10-98" data-name="椭圆 10" cx="6" cy="6" r="6" transform="translate(-2502 3063)" fill="#c6efef"/>
      </g>
      <g transform="translate(2718 -2901)">
        <circle id="椭圆_10-99" data-name="椭圆 10" cx="6" cy="6" r="6" transform="translate(-2502 3063)" fill="#c6efef"/>
      </g>
      <g transform="translate(2745 -2901)">
        <circle id="椭圆_10-100" data-name="椭圆 10" cx="6" cy="6" r="6" transform="translate(-2502 3063)" fill="#c6efef"/>
      </g>
      <g transform="translate(2772 -2901)">
        <circle id="椭圆_10-101" data-name="椭圆 10" cx="6" cy="6" r="6" transform="translate(-2502 3063)" fill="#c6efef"/>
      </g>
      <g transform="translate(2799 -2901)">
        <circle id="椭圆_10-102" data-name="椭圆 10" cx="6" cy="6" r="6" transform="translate(-2502 3063)" fill="#c6efef"/>
      </g>
      <g transform="translate(2826 -2901)">
        <circle id="椭圆_10-103" data-name="椭圆 10" cx="6" cy="6" r="6" transform="translate(-2502 3063)" fill="#c6efef"/>
      </g>
      <g transform="translate(2853 -2901)">
        <circle id="椭圆_10-104" data-name="椭圆 10" cx="6" cy="6" r="6" transform="translate(-2502 3063)" fill="#c6efef"/>
      </g>
      <g transform="translate(2880 -2901)">
        <circle id="椭圆_10-105" data-name="椭圆 10" cx="6" cy="6" r="6" transform="translate(-2502 3063)" fill="#c6efef"/>
      </g>
      <g transform="translate(2502 -2874)">
        <circle id="椭圆_10-106" data-name="椭圆 10" cx="6" cy="6" r="6" transform="translate(-2502 3063)" fill="#c6efef"/>
      </g>
      <g transform="translate(2529 -2874)">
        <circle id="椭圆_10-107" data-name="椭圆 10" cx="6" cy="6" r="6" transform="translate(-2502 3063)" fill="#c6efef"/>
      </g>
      <g transform="translate(2556 -2874)">
        <circle id="椭圆_10-108" data-name="椭圆 10" cx="6" cy="6" r="6" transform="translate(-2502 3063)" fill="#c6efef"/>
      </g>
      <g transform="translate(2583 -2874)">
        <circle id="椭圆_10-109" data-name="椭圆 10" cx="6" cy="6" r="6" transform="translate(-2502 3063)" fill="#c6efef"/>
      </g>
      <g transform="translate(2610 -2874)">
        <circle id="椭圆_10-110" data-name="椭圆 10" cx="6" cy="6" r="6" transform="translate(-2502 3063)" fill="#c6efef"/>
      </g>
      <g transform="translate(2637 -2874)">
        <circle id="椭圆_10-111" data-name="椭圆 10" cx="6" cy="6" r="6" transform="translate(-2502 3063)" fill="#c6efef"/>
      </g>
      <g transform="translate(2664 -2874)">
        <circle id="椭圆_10-112" data-name="椭圆 10" cx="6" cy="6" r="6" transform="translate(-2502 3063)" fill="#c6efef"/>
      </g>
      <g transform="translate(2691 -2874)">
        <circle id="椭圆_10-113" data-name="椭圆 10" cx="6" cy="6" r="6" transform="translate(-2502 3063)" fill="#c6efef"/>
      </g>
      <g transform="translate(2718 -2874)">
        <circle id="椭圆_10-114" data-name="椭圆 10" cx="6" cy="6" r="6" transform="translate(-2502 3063)" fill="#c6efef"/>
      </g>
      <g transform="translate(2745 -2874)">
        <circle id="椭圆_10-115" data-name="椭圆 10" cx="6" cy="6" r="6" transform="translate(-2502 3063)" fill="#c6efef"/>
      </g>
      <g transform="translate(2772 -2874)">
        <circle id="椭圆_10-116" data-name="椭圆 10" cx="6" cy="6" r="6" transform="translate(-2502 3063)" fill="#c6efef"/>
      </g>
      <g transform="translate(2799 -2874)">
        <circle id="椭圆_10-117" data-name="椭圆 10" cx="6" cy="6" r="6" transform="translate(-2502 3063)" fill="#c6efef"/>
      </g>
      <g transform="translate(2826 -2874)">
        <circle id="椭圆_10-118" data-name="椭圆 10" cx="6" cy="6" r="6" transform="translate(-2502 3063)" fill="#c6efef"/>
      </g>
      <g transform="translate(2853 -2874)">
        <circle id="椭圆_10-119" data-name="椭圆 10" cx="6" cy="6" r="6" transform="translate(-2502 3063)" fill="#c6efef"/>
      </g>
      <g transform="translate(2880 -2874)">
        <circle id="椭圆_10-120" data-name="椭圆 10" cx="6" cy="6" r="6" transform="translate(-2502 3063)" fill="#c6efef"/>
      </g>
      <g transform="translate(2502 -2847)">
        <circle id="椭圆_10-121" data-name="椭圆 10" cx="6" cy="6" r="6" transform="translate(-2502 3063)" fill="#c6efef"/>
      </g>
      <g transform="translate(2529 -2847)">
        <circle id="椭圆_10-122" data-name="椭圆 10" cx="6" cy="6" r="6" transform="translate(-2502 3063)" fill="#c6efef"/>
      </g>
      <g transform="translate(2556 -2847)">
        <circle id="椭圆_10-123" data-name="椭圆 10" cx="6" cy="6" r="6" transform="translate(-2502 3063)" fill="#c6efef"/>
      </g>
      <g transform="translate(2583 -2847)">
        <circle id="椭圆_10-124" data-name="椭圆 10" cx="6" cy="6" r="6" transform="translate(-2502 3063)" fill="#c6efef"/>
      </g>
      <g transform="translate(2610 -2847)">
        <circle id="椭圆_10-125" data-name="椭圆 10" cx="6" cy="6" r="6" transform="translate(-2502 3063)" fill="#c6efef"/>
      </g>
      <g transform="translate(2637 -2847)">
        <circle id="椭圆_10-126" data-name="椭圆 10" cx="6" cy="6" r="6" transform="translate(-2502 3063)" fill="#c6efef"/>
      </g>
      <g transform="translate(2664 -2847)">
        <circle id="椭圆_10-127" data-name="椭圆 10" cx="6" cy="6" r="6" transform="translate(-2502 3063)" fill="#c6efef"/>
      </g>
      <g transform="translate(2691 -2847)">
        <circle id="椭圆_10-128" data-name="椭圆 10" cx="6" cy="6" r="6" transform="translate(-2502 3063)" fill="#c6efef"/>
      </g>
      <g transform="translate(2718 -2847)">
        <circle id="椭圆_10-129" data-name="椭圆 10" cx="6" cy="6" r="6" transform="translate(-2502 3063)" fill="#c6efef"/>
      </g>
      <g transform="translate(2745 -2847)">
        <circle id="椭圆_10-130" data-name="椭圆 10" cx="6" cy="6" r="6" transform="translate(-2502 3063)" fill="#c6efef"/>
      </g>
      <g transform="translate(2772 -2847)">
        <circle id="椭圆_10-131" data-name="椭圆 10" cx="6" cy="6" r="6" transform="translate(-2502 3063)" fill="#c6efef"/>
      </g>
      <g transform="translate(2799 -2847)">
        <circle id="椭圆_10-132" data-name="椭圆 10" cx="6" cy="6" r="6" transform="translate(-2502 3063)" fill="#c6efef"/>
      </g>
      <g transform="translate(2826 -2847)">
        <circle id="椭圆_10-133" data-name="椭圆 10" cx="6" cy="6" r="6" transform="translate(-2502 3063)" fill="#c6efef"/>
      </g>
      <g transform="translate(2853 -2847)">
        <circle id="椭圆_10-134" data-name="椭圆 10" cx="6" cy="6" r="6" transform="translate(-2502 3063)" fill="#c6efef"/>
      </g>
      <g transform="translate(2880 -2847)">
        <circle id="椭圆_10-135" data-name="椭圆 10" cx="6" cy="6" r="6" transform="translate(-2502 3063)" fill="#c6efef"/>
      </g>
      <g transform="translate(2502 -2820)">
        <circle id="椭圆_10-136" data-name="椭圆 10" cx="6" cy="6" r="6" transform="translate(-2502 3063)" fill="#c6efef"/>
      </g>
      <g transform="translate(2529 -2820)">
        <circle id="椭圆_10-137" data-name="椭圆 10" cx="6" cy="6" r="6" transform="translate(-2502 3063)" fill="#c6efef"/>
      </g>
      <g transform="translate(2556 -2820)">
        <circle id="椭圆_10-138" data-name="椭圆 10" cx="6" cy="6" r="6" transform="translate(-2502 3063)" fill="#c6efef"/>
      </g>
      <g transform="translate(2583 -2820)">
        <circle id="椭圆_10-139" data-name="椭圆 10" cx="6" cy="6" r="6" transform="translate(-2502 3063)" fill="#c6efef"/>
      </g>
      <g transform="translate(2610 -2820)">
        <circle id="椭圆_10-140" data-name="椭圆 10" cx="6" cy="6" r="6" transform="translate(-2502 3063)" fill="#c6efef"/>
      </g>
      <g transform="translate(2637 -2820)">
        <circle id="椭圆_10-141" data-name="椭圆 10" cx="6" cy="6" r="6" transform="translate(-2502 3063)" fill="#c6efef"/>
      </g>
      <g transform="translate(2664 -2820)">
        <circle id="椭圆_10-142" data-name="椭圆 10" cx="6" cy="6" r="6" transform="translate(-2502 3063)" fill="#c6efef"/>
      </g>
      <g transform="translate(2691 -2820)">
        <circle id="椭圆_10-143" data-name="椭圆 10" cx="6" cy="6" r="6" transform="translate(-2502 3063)" fill="#c6efef"/>
      </g>
      <g transform="translate(2718 -2820)">
        <circle id="椭圆_10-144" data-name="椭圆 10" cx="6" cy="6" r="6" transform="translate(-2502 3063)" fill="#c6efef"/>
      </g>
      <g transform="translate(2745 -2820)">
        <circle id="椭圆_10-145" data-name="椭圆 10" cx="6" cy="6" r="6" transform="translate(-2502 3063)" fill="#c6efef"/>
      </g>
      <g transform="translate(2772 -2820)">
        <circle id="椭圆_10-146" data-name="椭圆 10" cx="6" cy="6" r="6" transform="translate(-2502 3063)" fill="#c6efef"/>
      </g>
      <g transform="translate(2799 -2820)">
        <circle id="椭圆_10-147" data-name="椭圆 10" cx="6" cy="6" r="6" transform="translate(-2502 3063)" fill="#c6efef"/>
      </g>
      <g transform="translate(2826 -2820)">
        <circle id="椭圆_10-148" data-name="椭圆 10" cx="6" cy="6" r="6" transform="translate(-2502 3063)" fill="#c6efef"/>
      </g>
      <g transform="translate(2853 -2820)">
        <circle id="椭圆_10-149" data-name="椭圆 10" cx="6" cy="6" r="6" transform="translate(-2502 3063)" fill="#c6efef"/>
      </g>
      <g transform="translate(2880 -2820)">
        <circle id="椭圆_10-150" data-name="椭圆 10" cx="6" cy="6" r="6" transform="translate(-2502 3063)" fill="#c6efef"/>
      </g>
      <g transform="translate(2502 -2793)">
        <circle id="椭圆_10-151" data-name="椭圆 10" cx="6" cy="6" r="6" transform="translate(-2502 3063)" fill="#c6efef"/>
      </g>
      <g transform="translate(2529 -2793)">
        <circle id="椭圆_10-152" data-name="椭圆 10" cx="6" cy="6" r="6" transform="translate(-2502 3063)" fill="#c6efef"/>
      </g>
      <g transform="translate(2556 -2793)">
        <circle id="椭圆_10-153" data-name="椭圆 10" cx="6" cy="6" r="6" transform="translate(-2502 3063)" fill="#c6efef"/>
      </g>
      <g transform="translate(2583 -2793)">
        <circle id="椭圆_10-154" data-name="椭圆 10" cx="6" cy="6" r="6" transform="translate(-2502 3063)" fill="#c6efef"/>
      </g>
      <g transform="translate(2610 -2793)">
        <circle id="椭圆_10-155" data-name="椭圆 10" cx="6" cy="6" r="6" transform="translate(-2502 3063)" fill="#c6efef"/>
      </g>
      <g transform="translate(2637 -2793)">
        <circle id="椭圆_10-156" data-name="椭圆 10" cx="6" cy="6" r="6" transform="translate(-2502 3063)" fill="#c6efef"/>
      </g>
      <g transform="translate(2664 -2793)">
        <circle id="椭圆_10-157" data-name="椭圆 10" cx="6" cy="6" r="6" transform="translate(-2502 3063)" fill="#c6efef"/>
      </g>
      <g transform="translate(2691 -2793)">
        <circle id="椭圆_10-158" data-name="椭圆 10" cx="6" cy="6" r="6" transform="translate(-2502 3063)" fill="#c6efef"/>
      </g>
      <g transform="translate(2718 -2793)">
        <circle id="椭圆_10-159" data-name="椭圆 10" cx="6" cy="6" r="6" transform="translate(-2502 3063)" fill="#c6efef"/>
      </g>
      <g transform="translate(2745 -2793)">
        <circle id="椭圆_10-160" data-name="椭圆 10" cx="6" cy="6" r="6" transform="translate(-2502 3063)" fill="#c6efef"/>
      </g>
      <g transform="translate(2772 -2793)">
        <circle id="椭圆_10-161" data-name="椭圆 10" cx="6" cy="6" r="6" transform="translate(-2502 3063)" fill="#c6efef"/>
      </g>
      <g transform="translate(2799 -2793)">
        <circle id="椭圆_10-162" data-name="椭圆 10" cx="6" cy="6" r="6" transform="translate(-2502 3063)" fill="#c6efef"/>
      </g>
      <g transform="translate(2826 -2793)">
        <circle id="椭圆_10-163" data-name="椭圆 10" cx="6" cy="6" r="6" transform="translate(-2502 3063)" fill="#c6efef"/>
      </g>
      <g transform="translate(2853 -2793)">
        <circle id="椭圆_10-164" data-name="椭圆 10" cx="6" cy="6" r="6" transform="translate(-2502 3063)" fill="#c6efef"/>
      </g>
      <g transform="translate(2880 -2793)">
        <circle id="椭圆_10-165" data-name="椭圆 10" cx="6" cy="6" r="6" transform="translate(-2502 3063)" fill="#c6efef"/>
      </g>
      <g transform="translate(2502 -2766)">
        <circle id="椭圆_10-166" data-name="椭圆 10" cx="6" cy="6" r="6" transform="translate(-2502 3063)" fill="#c6efef"/>
      </g>
      <g transform="translate(2529 -2766)">
        <circle id="椭圆_10-167" data-name="椭圆 10" cx="6" cy="6" r="6" transform="translate(-2502 3063)" fill="#c6efef"/>
      </g>
      <g transform="translate(2556 -2766)">
        <circle id="椭圆_10-168" data-name="椭圆 10" cx="6" cy="6" r="6" transform="translate(-2502 3063)" fill="#c6efef"/>
      </g>
      <g transform="translate(2583 -2766)">
        <circle id="椭圆_10-169" data-name="椭圆 10" cx="6" cy="6" r="6" transform="translate(-2502 3063)" fill="#c6efef"/>
      </g>
      <g transform="translate(2610 -2766)">
        <circle id="椭圆_10-170" data-name="椭圆 10" cx="6" cy="6" r="6" transform="translate(-2502 3063)" fill="#c6efef"/>
      </g>
      <g transform="translate(2637 -2766)">
        <circle id="椭圆_10-171" data-name="椭圆 10" cx="6" cy="6" r="6" transform="translate(-2502 3063)" fill="#c6efef"/>
      </g>
      <g transform="translate(2664 -2766)">
        <circle id="椭圆_10-172" data-name="椭圆 10" cx="6" cy="6" r="6" transform="translate(-2502 3063)" fill="#c6efef"/>
      </g>
      <g transform="translate(2691 -2766)">
        <circle id="椭圆_10-173" data-name="椭圆 10" cx="6" cy="6" r="6" transform="translate(-2502 3063)" fill="#c6efef"/>
      </g>
      <g transform="translate(2718 -2766)">
        <circle id="椭圆_10-174" data-name="椭圆 10" cx="6" cy="6" r="6" transform="translate(-2502 3063)" fill="#c6efef"/>
      </g>
      <g transform="translate(2745 -2766)">
        <circle id="椭圆_10-175" data-name="椭圆 10" cx="6" cy="6" r="6" transform="translate(-2502 3063)" fill="#c6efef"/>
      </g>
      <g transform="translate(2772 -2766)">
        <circle id="椭圆_10-176" data-name="椭圆 10" cx="6" cy="6" r="6" transform="translate(-2502 3063)" fill="#c6efef"/>
      </g>
      <g transform="translate(2799 -2766)">
        <circle id="椭圆_10-177" data-name="椭圆 10" cx="6" cy="6" r="6" transform="translate(-2502 3063)" fill="#c6efef"/>
      </g>
      <g transform="translate(2826 -2766)">
        <circle id="椭圆_10-178" data-name="椭圆 10" cx="6" cy="6" r="6" transform="translate(-2502 3063)" fill="#c6efef"/>
      </g>
      <g transform="translate(2853 -2766)">
        <circle id="椭圆_10-179" data-name="椭圆 10" cx="6" cy="6" r="6" transform="translate(-2502 3063)" fill="#c6efef"/>
      </g>
      <g transform="translate(2880 -2766)">
        <circle id="椭圆_10-180" data-name="椭圆 10" cx="6" cy="6" r="6" transform="translate(-2502 3063)" fill="#c6efef"/>
      </g>
      <g transform="translate(2502 -2739)">
        <circle id="椭圆_10-181" data-name="椭圆 10" cx="6" cy="6" r="6" transform="translate(-2502 3063)" fill="#c6efef"/>
      </g>
      <g transform="translate(2529 -2739)">
        <circle id="椭圆_10-182" data-name="椭圆 10" cx="6" cy="6" r="6" transform="translate(-2502 3063)" fill="#c6efef"/>
      </g>
      <g transform="translate(2556 -2739)">
        <circle id="椭圆_10-183" data-name="椭圆 10" cx="6" cy="6" r="6" transform="translate(-2502 3063)" fill="#c6efef"/>
      </g>
      <g transform="translate(2583 -2739)">
        <circle id="椭圆_10-184" data-name="椭圆 10" cx="6" cy="6" r="6" transform="translate(-2502 3063)" fill="#c6efef"/>
      </g>
      <g transform="translate(2610 -2739)">
        <circle id="椭圆_10-185" data-name="椭圆 10" cx="6" cy="6" r="6" transform="translate(-2502 3063)" fill="#c6efef"/>
      </g>
      <g transform="translate(2637 -2739)">
        <circle id="椭圆_10-186" data-name="椭圆 10" cx="6" cy="6" r="6" transform="translate(-2502 3063)" fill="#c6efef"/>
      </g>
      <g transform="translate(2664 -2739)">
        <circle id="椭圆_10-187" data-name="椭圆 10" cx="6" cy="6" r="6" transform="translate(-2502 3063)" fill="#c6efef"/>
      </g>
      <g transform="translate(2691 -2739)">
        <circle id="椭圆_10-188" data-name="椭圆 10" cx="6" cy="6" r="6" transform="translate(-2502 3063)" fill="#c6efef"/>
      </g>
      <g transform="translate(2718 -2739)">
        <circle id="椭圆_10-189" data-name="椭圆 10" cx="6" cy="6" r="6" transform="translate(-2502 3063)" fill="#c6efef"/>
      </g>
      <g transform="translate(2745 -2739)">
        <circle id="椭圆_10-190" data-name="椭圆 10" cx="6" cy="6" r="6" transform="translate(-2502 3063)" fill="#c6efef"/>
      </g>
      <g transform="translate(2772 -2739)">
        <circle id="椭圆_10-191" data-name="椭圆 10" cx="6" cy="6" r="6" transform="translate(-2502 3063)" fill="#c6efef"/>
      </g>
      <g transform="translate(2799 -2739)">
        <circle id="椭圆_10-192" data-name="椭圆 10" cx="6" cy="6" r="6" transform="translate(-2502 3063)" fill="#c6efef"/>
      </g>
      <g transform="translate(2826 -2739)">
        <circle id="椭圆_10-193" data-name="椭圆 10" cx="6" cy="6" r="6" transform="translate(-2502 3063)" fill="#c6efef"/>
      </g>
      <g transform="translate(2853 -2739)">
        <circle id="椭圆_10-194" data-name="椭圆 10" cx="6" cy="6" r="6" transform="translate(-2502 3063)" fill="#c6efef"/>
      </g>
      <g transform="translate(2880 -2739)">
        <circle id="椭圆_10-195" data-name="椭圆 10" cx="6" cy="6" r="6" transform="translate(-2502 3063)" fill="#c6efef"/>
      </g>
      <g transform="translate(2502 -2712)">
        <circle id="椭圆_10-196" data-name="椭圆 10" cx="6" cy="6" r="6" transform="translate(-2502 3063)" fill="#c6efef"/>
      </g>
      <g transform="translate(2529 -2712)">
        <circle id="椭圆_10-197" data-name="椭圆 10" cx="6" cy="6" r="6" transform="translate(-2502 3063)" fill="#c6efef"/>
      </g>
      <g transform="translate(2556 -2712)">
        <circle id="椭圆_10-198" data-name="椭圆 10" cx="6" cy="6" r="6" transform="translate(-2502 3063)" fill="#c6efef"/>
      </g>
      <g transform="translate(2583 -2712)">
        <circle id="椭圆_10-199" data-name="椭圆 10" cx="6" cy="6" r="6" transform="translate(-2502 3063)" fill="#c6efef"/>
      </g>
      <g transform="translate(2610 -2712)">
        <circle id="椭圆_10-200" data-name="椭圆 10" cx="6" cy="6" r="6" transform="translate(-2502 3063)" fill="#c6efef"/>
      </g>
      <g transform="translate(2637 -2712)">
        <circle id="椭圆_10-201" data-name="椭圆 10" cx="6" cy="6" r="6" transform="translate(-2502 3063)" fill="#c6efef"/>
      </g>
      <g transform="translate(2664 -2712)">
        <circle id="椭圆_10-202" data-name="椭圆 10" cx="6" cy="6" r="6" transform="translate(-2502 3063)" fill="#c6efef"/>
      </g>
      <g transform="translate(2691 -2712)">
        <circle id="椭圆_10-203" data-name="椭圆 10" cx="6" cy="6" r="6" transform="translate(-2502 3063)" fill="#c6efef"/>
      </g>
      <g transform="translate(2718 -2712)">
        <circle id="椭圆_10-204" data-name="椭圆 10" cx="6" cy="6" r="6" transform="translate(-2502 3063)" fill="#c6efef"/>
      </g>
      <g transform="translate(2745 -2712)">
        <circle id="椭圆_10-205" data-name="椭圆 10" cx="6" cy="6" r="6" transform="translate(-2502 3063)" fill="#c6efef"/>
      </g>
      <g transform="translate(2772 -2712)">
        <circle id="椭圆_10-206" data-name="椭圆 10" cx="6" cy="6" r="6" transform="translate(-2502 3063)" fill="#c6efef"/>
      </g>
      <g transform="translate(2799 -2712)">
        <circle id="椭圆_10-207" data-name="椭圆 10" cx="6" cy="6" r="6" transform="translate(-2502 3063)" fill="#c6efef"/>
      </g>
      <g transform="translate(2826 -2712)">
        <circle id="椭圆_10-208" data-name="椭圆 10" cx="6" cy="6" r="6" transform="translate(-2502 3063)" fill="#c6efef"/>
      </g>
      <g transform="translate(2853 -2712)">
        <circle id="椭圆_10-209" data-name="椭圆 10" cx="6" cy="6" r="6" transform="translate(-2502 3063)" fill="#c6efef"/>
      </g>
      <g transform="translate(2880 -2712)">
        <circle id="椭圆_10-210" data-name="椭圆 10" cx="6" cy="6" r="6" transform="translate(-2502 3063)" fill="#c6efef"/>
      </g>
      <g transform="translate(2502 -2685)">
        <circle id="椭圆_10-211" data-name="椭圆 10" cx="6" cy="6" r="6" transform="translate(-2502 3063)" fill="#c6efef"/>
      </g>
      <g transform="translate(2529 -2685)">
        <circle id="椭圆_10-212" data-name="椭圆 10" cx="6" cy="6" r="6" transform="translate(-2502 3063)" fill="#c6efef"/>
      </g>
      <g transform="translate(2556 -2685)">
        <circle id="椭圆_10-213" data-name="椭圆 10" cx="6" cy="6" r="6" transform="translate(-2502 3063)" fill="#c6efef"/>
      </g>
      <g transform="translate(2583 -2685)">
        <circle id="椭圆_10-214" data-name="椭圆 10" cx="6" cy="6" r="6" transform="translate(-2502 3063)" fill="#c6efef"/>
      </g>
      <g transform="translate(2610 -2685)">
        <circle id="椭圆_10-215" data-name="椭圆 10" cx="6" cy="6" r="6" transform="translate(-2502 3063)" fill="#c6efef"/>
      </g>
      <g transform="translate(2637 -2685)">
        <circle id="椭圆_10-216" data-name="椭圆 10" cx="6" cy="6" r="6" transform="translate(-2502 3063)" fill="#c6efef"/>
      </g>
      <g transform="translate(2664 -2685)">
        <circle id="椭圆_10-217" data-name="椭圆 10" cx="6" cy="6" r="6" transform="translate(-2502 3063)" fill="#c6efef"/>
      </g>
      <g transform="translate(2691 -2685)">
        <circle id="椭圆_10-218" data-name="椭圆 10" cx="6" cy="6" r="6" transform="translate(-2502 3063)" fill="#c6efef"/>
      </g>
      <g transform="translate(2718 -2685)">
        <circle id="椭圆_10-219" data-name="椭圆 10" cx="6" cy="6" r="6" transform="translate(-2502 3063)" fill="#c6efef"/>
      </g>
      <g transform="translate(2745 -2685)">
        <circle id="椭圆_10-220" data-name="椭圆 10" cx="6" cy="6" r="6" transform="translate(-2502 3063)" fill="#c6efef"/>
      </g>
      <g transform="translate(2772 -2685)">
        <circle id="椭圆_10-221" data-name="椭圆 10" cx="6" cy="6" r="6" transform="translate(-2502 3063)" fill="#c6efef"/>
      </g>
      <g transform="translate(2799 -2685)">
        <circle id="椭圆_10-222" data-name="椭圆 10" cx="6" cy="6" r="6" transform="translate(-2502 3063)" fill="#c6efef"/>
      </g>
      <g transform="translate(2826 -2685)">
        <circle id="椭圆_10-223" data-name="椭圆 10" cx="6" cy="6" r="6" transform="translate(-2502 3063)" fill="#c6efef"/>
      </g>
      <g transform="translate(2853 -2685)">
        <circle id="椭圆_10-224" data-name="椭圆 10" cx="6" cy="6" r="6" transform="translate(-2502 3063)" fill="#c6efef"/>
      </g>
      <g transform="translate(2880 -2685)">
        <circle id="椭圆_10-225" data-name="椭圆 10" cx="6" cy="6" r="6" transform="translate(-2502 3063)" fill="#c6efef"/>
      </g>
    </g>
  </g>
</svg>
