<svg xmlns="http://www.w3.org/2000/svg" width="125" height="40" viewBox="0 0 125 40">
  <g id="Group_965" data-name="Group 965" transform="translate(-2639 -887)">
    <rect id="Rectangle_401" data-name="Rectangle 401" width="125" height="40" transform="translate(2639 887)" fill="#ffff87"/>
    <path id="Path_1502" data-name="Path 1502" d="M4.551-7.344q.025-.882.025-1.2a5.967,5.967,0,0,0-.114-1.27,6.119,6.119,0,0,1,.889.152.171.171,0,0,1,.114.184.433.433,0,0,1-.051.159,1.486,1.486,0,0,0-.146.609q-.025.438-.051,1.257A9.523,9.523,0,0,0,7.2-8.023a.249.249,0,0,1,.083-.019q.063,0,.076.1.038.394.038.419,0,.1-.146.159a14.373,14.373,0,0,1-2.063.546Q5.161-5,5.161-4.043A8.5,8.5,0,0,1,8.646-5.1a2.5,2.5,0,0,1,1.917.73A2.078,2.078,0,0,1,11.115-2.9a2.082,2.082,0,0,1-.832,1.8,3.006,3.006,0,0,1-1.815.5A3.081,3.081,0,0,1,7.49-.73q-.121-.032-.14-.229a1.436,1.436,0,0,0-.146-.5,3.376,3.376,0,0,0,1.244.248,2.091,2.091,0,0,0,1.466-.482,1.574,1.574,0,0,0,.5-1.225,1.479,1.479,0,0,0-.559-1.225,2.087,2.087,0,0,0-1.339-.4A8.616,8.616,0,0,0,5.161-3.421q.013.546.07,1.847,0,.152.032.819.019.438.019.533,0,.241-.127.286a1.212,1.212,0,0,1-.419.063q-.063,0-.165-.114-.178-.2-.222-.248A12.241,12.241,0,0,0,2.33-1.771a2.8,2.8,0,0,0-.419.267.307.307,0,0,1-.165.076q-.076,0-.159-.114a2.881,2.881,0,0,1-.336-.628,4.636,4.636,0,0,0,1.276-.47q.051-.025,2.025-1.117-.006-.5-.006-1l.006-1.993A18.194,18.194,0,0,1,2.387-6.6H2.107a.193.193,0,0,1-.222-.171q-.013-.114-.038-.457.336.025.686.025A17.58,17.58,0,0,0,4.551-7.344Zm.025,4.183Q3.333-2.418,2.7-2.025,3.675-1.4,4.462-.971a.252.252,0,0,0,.108.032q.076,0,.076-.114Q4.634-1.669,4.577-3.161ZM8.944-7.852a2.778,2.778,0,0,1,.248-.413q.07-.083.121-.083a.12.12,0,0,1,.038.006A4.256,4.256,0,0,1,11.845-7a.114.114,0,0,1,.032.07.169.169,0,0,1-.032.076,2.33,2.33,0,0,1-.3.387.106.106,0,0,1-.07.038.106.106,0,0,1-.07-.038A4.369,4.369,0,0,0,8.944-7.852Zm8.995,6.24v.92q0,.1-.089.1h-.406q-.089,0-.089-.1l.025-2.05v-.9L17.354-4.9a.079.079,0,0,1,.089-.089l1.314.025h1.377l1.327-.025a.079.079,0,0,1,.089.089l-.025,1.054v.958l.025,1.98a.079.079,0,0,1-.089.089h-.419a.079.079,0,0,1-.089-.089v-.7Zm0-.508h3.015V-4.456H17.938Zm6.087-4.158H21.607l-1.4.025a.079.079,0,0,1-.089-.089l.013-1.13V-9.02l-.013-1.124a.079.079,0,0,1,.089-.089l1.4.025h1.549l1.39-.025a.079.079,0,0,1,.089.089L24.61-8.265v6.056L24.635-.5a1.8,1.8,0,0,1-.083.635.768.768,0,0,1-.241.292,2.267,2.267,0,0,1-1.257.222h-.279a.314.314,0,0,1-.184-.032.487.487,0,0,1-.063-.165,1.433,1.433,0,0,0-.209-.444,7.493,7.493,0,0,0,.965.057.9.9,0,0,0,.628-.146.851.851,0,0,0,.114-.533Zm0-.482V-8.03h-3.32v1.27Zm0-1.752v-1.2h-3.32v1.2Zm-8.068-1.695h1.435l1.3-.025a.079.079,0,0,1,.089.089l-.025,1.187v1.422l.025,1.193a.079.079,0,0,1-.089.089l-1.3-.025H15.05v4.367L15.076.743a.079.079,0,0,1-.089.089H14.53a.079.079,0,0,1-.089-.089l.025-2.653V-7.471l-.025-2.672a.079.079,0,0,1,.089-.089ZM15.05-8.03v1.27h3.136V-8.03Zm0-.482h3.136v-1.2H15.05Zm12.886-.273a3.906,3.906,0,0,1,.889.216q.089.038.089.108a.627.627,0,0,1-.038.19,3.41,3.41,0,0,0-.133,1.162,23.892,23.892,0,0,0,.171,2.945,6.134,6.134,0,0,0,.628,2.2q.394.711.825.711t.87-.711a5.825,5.825,0,0,0,.584-1.416,1.583,1.583,0,0,0,.368.546.233.233,0,0,1,.083.159.211.211,0,0,1-.019.083,4.4,4.4,0,0,1-.8,1.466,1.455,1.455,0,0,1-1.085.59q-.863,0-1.46-1.2a7.509,7.509,0,0,1-.673-2.412,25.026,25.026,0,0,1-.2-3.4A5.317,5.317,0,0,0,27.936-8.785ZM34.55-7.268a3.22,3.22,0,0,1,.444-.286.288.288,0,0,1,.1-.025.137.137,0,0,1,.076.025,7.367,7.367,0,0,1,2.52,4.507v.025a.119.119,0,0,1-.083.108,2.37,2.37,0,0,1-.489.222.186.186,0,0,1-.044.006q-.07,0-.089-.083A7.315,7.315,0,0,0,34.55-7.268Zm11.235-3.155A12.334,12.334,0,0,0,51.7-5.84a1.477,1.477,0,0,0-.311.368q-.089.159-.146.159a.563.563,0,0,1-.165-.057,12.52,12.52,0,0,1-5.6-4.6,13.973,13.973,0,0,1-5.4,4.678.476.476,0,0,1-.159.063q-.051,0-.14-.14a1.372,1.372,0,0,0-.336-.324,13.056,13.056,0,0,0,3.479-2.222,10.55,10.55,0,0,0,1.968-2.317,2.338,2.338,0,0,0,.311-.673,5.058,5.058,0,0,1,.622.127q.159.051.159.133a.14.14,0,0,1-.076.127.568.568,0,0,0-.07.051A.372.372,0,0,1,45.786-10.423ZM42.567.089V.711q0,.083-.089.083h-.457q-.089,0-.089-.083l.025-2.234V-2.564L41.933-3.98a.079.079,0,0,1,.089-.089l1.8.025h3.466l1.784-.025q.1,0,.1.089l-.025,1.25v1.155L49.169.647q0,.089-.1.089h-.444a.079.079,0,0,1-.089-.089V.089Zm0-.533h5.967V-3.51H42.567Zm1.923-5.979h2.088l1.549-.025a.079.079,0,0,1,.089.089v.419a.079.079,0,0,1-.089.089l-1.549-.025H44.491l-1.549.025a.079.079,0,0,1-.089-.089V-6.36a.079.079,0,0,1,.089-.089ZM56.056-10.3a4.329,4.329,0,0,1,.889.146.13.13,0,0,1,.083.127.362.362,0,0,1-.044.159,1.17,1.17,0,0,0-.133.476q-.07.933-.1,1.8a.912.912,0,0,0,.229-.121.168.168,0,0,1,.108-.051.33.33,0,0,1,.209.121q.152.152.152.241a.715.715,0,0,1-.146.235q-.324.451-.635.939,0,.07-.025.527-.013.254-.013.406a6.221,6.221,0,0,1,4.056-1.765,2.881,2.881,0,0,1,2.342,1,2.989,2.989,0,0,1,.686,2.006,3.448,3.448,0,0,1-.927,2.33,5.115,5.115,0,0,1-2.45,1.492.49.49,0,0,1-.14.025A.234.234,0,0,1,60.011-.3a1.307,1.307,0,0,0-.47-.349A5.207,5.207,0,0,0,62.2-2.133a2.905,2.905,0,0,0,.781-1.974,2.326,2.326,0,0,0-.7-1.8,2.3,2.3,0,0,0-1.606-.565A6.032,6.032,0,0,0,56.653-4.6q0,2.412.038,4.926,0,.108-.076.108a4.871,4.871,0,0,1-.521.025.079.079,0,0,1-.089-.089l.063-4.983q-.121.171-2.38,3.352a.138.138,0,0,1-.108.076.158.158,0,0,1-.07-.019,3.849,3.849,0,0,1-.368-.355.161.161,0,0,1-.025-.076.157.157,0,0,1,.038-.089q1.358-1.663,2.888-3.84.019-.755.038-1.295-.476.133-1.562.489l-.571.273a.1.1,0,0,1-.044.013.224.224,0,0,1-.171-.114,2.316,2.316,0,0,1-.317-.584A3.392,3.392,0,0,0,54.26-6.9q.565-.146,1.834-.521.032-.533.07-1.72v-.222A3.26,3.26,0,0,0,56.056-10.3ZM73.385-6.64q.038-1.27.038-2.393a3.846,3.846,0,0,0-.1-.939,4.237,4.237,0,0,1,.857.171q.127.051.127.146a.432.432,0,0,1-.076.19.887.887,0,0,0-.121.432q-.006.66-.063,2.311,1.5-.121,2.723-.152a.112.112,0,0,1,.127.127v.419a.112.112,0,0,1-.127.127h-.425q-1.155,0-2.323.108-.038,1.314-.152,2.2Q73.7-2.641,72.655-2.641a5.142,5.142,0,0,1-1.1-.114q-.1-.019-.1-.2A1.82,1.82,0,0,0,71.3-3.51a4.453,4.453,0,0,0,1.289.222q.552,0,.647-.832a17.829,17.829,0,0,0,.133-1.923q-1.815.146-3.917.47-.013.863-.013,1.562,0,1.314.057,1.949a1.309,1.309,0,0,0,.59,1.143,4.768,4.768,0,0,0,1.879.248,18.977,18.977,0,0,0,3.053-.235.323.323,0,0,1,.063-.006.12.12,0,0,1,.133.108,2.35,2.35,0,0,1,.038.444q0,.14-.114.152a24.4,24.4,0,0,1-3.1.184,4.6,4.6,0,0,1-2.558-.489,1.991,1.991,0,0,1-.641-1.435q-.07-.654-.07-2.59,0-.4.006-.946-1.111.165-1.936.355a2.6,2.6,0,0,0-.584.178.255.255,0,0,1-.1.025.136.136,0,0,1-.133-.1,4.185,4.185,0,0,1-.2-.692q.07.006.152.006a4.869,4.869,0,0,0,.8-.07q.222-.032,1.06-.165l.939-.146q.013-.521.013-1.473a5.153,5.153,0,0,0-.159-1.257,4.2,4.2,0,0,1,.908.165q.146.051.146.171l-.076.273a1.748,1.748,0,0,0-.114.571q-.013.375-.025.819-.013.514-.019.635Q71.443-6.468,73.385-6.64Z" transform="translate(2663 912)" fill="#101010"/>
  </g>
</svg>
