<svg xmlns="http://www.w3.org/2000/svg" width="125" height="40" viewBox="0 0 125 40">
  <g id="Group_967" data-name="Group 967" transform="translate(-2480 -887)">
    <rect id="Rectangle_399" data-name="Rectangle 399" width="125" height="40" transform="translate(2480 887)" fill="#bfbfbf"/>
    <g id="Group_964" data-name="Group 964" transform="translate(5.646 -1.841)">
      <path id="Path_1501" data-name="Path 1501" d="M3.546.126c1.548,0,2.79-1.008,2.79-3.582V-8.964c0-2.574-1.242-3.582-2.79-3.582S.756-11.538.756-8.964v5.508C.756-.882,2,.126,3.546.126Zm0-.972C2.394-.846,1.8-1.638,1.8-3.456V-8.964c0-1.818.594-2.61,1.746-2.61s1.746.792,1.746,2.61v5.508C5.292-1.638,4.7-.846,3.546-.846ZM10.8-7.38c1.314,0,1.8,1.242,1.8,3.51,0,2.178-.666,3.024-1.8,3.024-.882,0-1.53-.81-1.692-2.088H8.1c.108,1.71,1.206,3.06,2.7,3.06,1.854,0,2.844-1.548,2.844-4,0-2.79-.81-4.554-2.664-4.554a1.877,1.877,0,0,0-1.638.954v-3.906H13.23V-12.42h-4.9v6.462h.9C9.54-6.714,10.026-7.38,10.8-7.38ZM20.736-.972H16.38l2.79-4.356a7.484,7.484,0,0,0,1.584-3.816c0-2.124-1.17-3.4-2.772-3.4-1.512,0-2.754,1.278-2.754,3.33h.99c.054-1.548.792-2.358,1.764-2.358.918,0,1.728.792,1.728,2.358a5.652,5.652,0,0,1-1.17,3.078L15.066-.864V0h5.67Zm1.3-3.762h3.6v-.918h-3.6ZM28.674,0h1.1L31.68-5.382a10.73,10.73,0,0,0,.882-3.636c0-2.106-1.17-3.528-2.88-3.528-1.746,0-2.88,1.44-2.88,3.708C26.8-6.66,27.828-5.2,29.43-5.2a2.129,2.129,0,0,0,1.26-.378Zm2.844-8.838c0,1.62-.612,2.7-1.836,2.7s-1.836-1.08-1.836-2.7c0-1.674.612-2.736,1.836-2.736S31.518-10.512,31.518-8.838Zm6.336-3.582h-1.1L34.848-7.038a10.712,10.712,0,0,0-.882,3.69c0,2.052,1.17,3.474,2.88,3.474,1.746,0,2.88-1.44,2.88-3.708,0-2.178-1.026-3.636-2.628-3.636a2.129,2.129,0,0,0-1.26.378ZM35.01-3.582c0-1.62.612-2.7,1.836-2.7s1.836,1.08,1.836,2.7c0,1.674-.612,2.736-1.836,2.736S35.01-1.908,35.01-3.582ZM46.8-.972H42.444l2.79-4.356a7.484,7.484,0,0,0,1.584-3.816c0-2.124-1.17-3.4-2.772-3.4-1.512,0-2.754,1.278-2.754,3.33h.99c.054-1.548.792-2.358,1.764-2.358.918,0,1.728.792,1.728,2.358A5.652,5.652,0,0,1,44.6-6.138L41.13-.864V0H46.8Zm1.3-3.762h3.6v-.918H48.1Zm5.94-4.374v-2.34H57.42L54.216,0h1.1L58.5-11.448v-.972H53.064v3.312Zm7.2,0v-2.34H64.62L61.416,0h1.1L65.7-11.448v-.972H60.264v3.312ZM70.128-7.38c1.314,0,1.8,1.242,1.8,3.51,0,2.178-.666,3.024-1.8,3.024-.882,0-1.53-.81-1.692-2.088H67.428c.108,1.71,1.206,3.06,2.7,3.06,1.854,0,2.844-1.548,2.844-4,0-2.79-.81-4.554-2.664-4.554a1.877,1.877,0,0,0-1.638.954v-3.906h3.888V-12.42h-4.9v6.462h.9C68.868-6.714,69.354-7.38,70.128-7.38Zm5.508-1.728v-2.34H79.02L75.816,0h1.1L80.1-11.448v-.972H74.664v3.312Z" transform="translate(2507 914.841)" fill="#101010"/>
      <g id="phone-ringing-505" transform="translate(2612.391 1029.036)">
        <g id="Group_958" data-name="Group 958" transform="translate(-126.036 -126.036)">
          <path id="Path_1498" data-name="Path 1498" d="M5.465,7.217,7,8.749a.44.44,0,0,0,.519.077L9.354,7.84a.44.44,0,0,1,.433.009l2.68,1.59a.439.439,0,0,1,.179.554c-.229.521-.646,1.476-.811,1.9a.587.587,0,0,1-.159.233c-1.786,1.548-5.339-.338-8.059-3.058S-.991,2.794.557,1.008A.589.589,0,0,1,.79.849C1.212.684,2.167.267,2.689.038a.439.439,0,0,1,.554.179L4.833,2.9a.44.44,0,0,1,.009.433L3.856,5.165a.44.44,0,0,0,.077.519Z" transform="translate(0 -0.001)" fill="#101010"/>
          <path id="Path_1499" data-name="Path 1499" d="M120.407,6.975h-1.268a5.713,5.713,0,0,0-5.707-5.707V0A6.983,6.983,0,0,1,120.407,6.975Z" transform="translate(-107.726)" fill="#101010"/>
          <path id="Path_1500" data-name="Path 1500" d="M117.942,53.523h-1.268a3.245,3.245,0,0,0-3.241-3.241V49.014A4.514,4.514,0,0,1,117.942,53.523Z" transform="translate(-107.726 -46.548)" fill="#101010"/>
        </g>
      </g>
    </g>
  </g>
</svg>
