<svg xmlns="http://www.w3.org/2000/svg" width="125" height="40" viewBox="0 0 125 40">
  <g id="Group_970" data-name="Group 970" transform="translate(-2627 -887)">
    <g id="Group_971" data-name="Group 971" transform="translate(-12)">
      <rect id="Rectangle_401" data-name="Rectangle 401" width="125" height="40" transform="translate(2639 887)" fill="#bfbfbf"/>
      <path id="Path_1505" data-name="Path 1505" d="M6.043-1.3H2.99v.667A.079.079,0,0,1,2.9-.546H2.482q-.076,0-.076-.089l.025-1.2v-1.79L2.406-4.837q0-.1.076-.1l1.949.025H8.487l1.892-.025q.089,0,.089.1L10.442-3.7v1.206l.025,1.13a.079.079,0,0,1-.089.089L8.487-1.3H6.614v.508a.856.856,0,0,0,.165.59.711.711,0,0,0,.413.19A13.861,13.861,0,0,0,9.02.063a4.471,4.471,0,0,0,2.2-.349.841.841,0,0,0,.324-.508,4.86,4.86,0,0,0,.121-1.041,1.786,1.786,0,0,0,.419.248q.165.07.165.159a1.208,1.208,0,0,1-.013.127,2.983,2.983,0,0,1-.273,1.092,1.218,1.218,0,0,1-.413.432A5.361,5.361,0,0,1,9.045.6,13.972,13.972,0,0,1,6.811.47Q6.043.33,6.043-.609Zm0-1.631H2.99v1.162H6.043Zm.571,0v1.162h3.25V-2.933Zm-.571-.444V-4.443H2.99v1.066Zm.571,0h3.25V-4.443H6.614Zm-.5-5.332v-.933H3.872l-1.86.025q-.089,0-.089-.1v-.375a.079.079,0,0,1,.089-.089l1.86.025H9.179l1.86-.025a.079.079,0,0,1,.089.089v.375q0,.1-.089.1l-1.86-.025H6.7v.933h3.352l1.8-.025q.1,0,.1.089l-.025.578v.476l.025,1.3q0,.1-.1.1h-.419q-.089,0-.089-.1V-8.227H6.7V-6.8L6.722-5.51a.079.079,0,0,1-.089.089H6.176a.079.079,0,0,1-.089-.089L6.113-6.8V-8.227H1.688v1.936q0,.1-.089.1H1.168q-.089,0-.089-.1l.025-1.3V-8l-.025-.641a.079.079,0,0,1,.089-.089l1.8.025ZM3.586-7.478H4.24L5.11-7.5q.089,0,.089.1v.3a.079.079,0,0,1-.089.089l-.87-.025H3.586l-.87.025a.079.079,0,0,1-.089-.089v-.3q0-.1.089-.1Zm0,1.174H4.24l.87-.025A.079.079,0,0,1,5.2-6.24v.3a.079.079,0,0,1-.089.089l-.87-.025H3.586l-.87.025a.079.079,0,0,1-.089-.089v-.3a.079.079,0,0,1,.089-.089ZM8.633-7.478H9.35l.92-.025q.089,0,.089.1v.3a.079.079,0,0,1-.089.089l-.92-.025H8.633l-.908.025q-.1,0-.1-.089v-.3a.084.084,0,0,1,.1-.1Zm0,1.174H9.35l.92-.025a.079.079,0,0,1,.089.089v.3a.079.079,0,0,1-.089.089l-.92-.025H8.633l-.908.025q-.1,0-.1-.089v-.3q0-.089.1-.089Zm13.4-2.825v2.539h1.454l1.758-.025a.079.079,0,0,1,.089.089v.419a.079.079,0,0,1-.089.089l-1.758-.025H22.033v2.285h.832L24.4-3.783a.079.079,0,0,1,.089.089l-.025,1.2v1.073L24.489.736q0,.1-.089.1h-.432q-.089,0-.089-.1V.127H19.76V.813q0,.1-.089.1H19.24q-.089,0-.089-.1l.025-2.177v-.978l-.025-1.352a.079.079,0,0,1,.089-.089l1.549.025h.66V-6.043H20.281l-1.746.025a.079.079,0,0,1-.089-.089v-.419a.079.079,0,0,1,.089-.089l1.746.025h1.168v-2.38a21.374,21.374,0,0,1-2.285.438.762.762,0,0,1-.108.013q-.076,0-.152-.165a1.063,1.063,0,0,0-.26-.349,16.48,16.48,0,0,0,4.729-1.117,2.538,2.538,0,0,0,.679-.394,3.475,3.475,0,0,1,.444.406.219.219,0,0,1,.076.152q0,.083-.184.108a1.372,1.372,0,0,0-.362.089A18.317,18.317,0,0,1,22.033-9.128ZM19.76-.394h4.12V-3.237H19.76ZM15.025.127V.813q0,.1-.089.1H14.53q-.089,0-.089-.1l.025-1.892v-.768l-.025-1.1a.079.079,0,0,1,.089-.089l1.13.025h1.028l1.149-.025a.079.079,0,0,1,.089.089l-.025.9v.813L17.926.584a.079.079,0,0,1-.089.089h-.394a.079.079,0,0,1-.089-.089V.127Zm0-.5h2.33V-2.533h-2.33Zm1.612-3.885H15.7l-1.066.025a.079.079,0,0,1-.089-.089V-4.7q0-.1.089-.1l1.066.025h.933L17.7-4.8a.084.084,0,0,1,.1.1v.387q0,.089-.1.089Zm0-1.727H15.7l-1.066.025a.079.079,0,0,1-.089-.089v-.394a.079.079,0,0,1,.089-.089L15.7-6.5h.933L17.7-6.525q.1,0,.1.089v.394q0,.089-.1.089Zm.121-3.548H15.691l-1.13.025q-.1,0-.1-.089v-.394q0-.089.1-.089l1.13.025h1.066l1.143-.025a.079.079,0,0,1,.089.089v.394A.079.079,0,0,1,17.9-9.5Zm.076,1.777H15.3l-1.365.025a.079.079,0,0,1-.089-.089v-.394a.079.079,0,0,1,.089-.089l1.365.025h1.536L18.2-8.3a.079.079,0,0,1,.089.089v.394a.079.079,0,0,1-.089.089Z" transform="translate(2687.921 911.543)" fill="#101010"/>
    </g>
  </g>
</svg>
