<svg xmlns="http://www.w3.org/2000/svg" width="125" height="40" viewBox="0 0 125 40">
  <g id="Group_966" data-name="Group 966" transform="translate(-2766 -887)">
    <rect id="Rectangle_400" data-name="Rectangle 400" width="125" height="40" transform="translate(2766 887)" fill="#d2f0ef"/>
    <path id="Path_1503" data-name="Path 1503" d="M7.992-9.033A3.093,3.093,0,0,0,9.306-7.262,7.918,7.918,0,0,0,12.257-6.17a1.271,1.271,0,0,0-.248.362q-.07.184-.146.184a.538.538,0,0,1-.127-.025A8.239,8.239,0,0,1,9.191-6.729,3.728,3.728,0,0,1,7.731-8.55q-.59,1.923-3.3,2.507a1.043,1.043,0,0,1-.152.025q-.1,0-.184-.165a.765.765,0,0,0-.273-.273A5.748,5.748,0,0,0,6.487-7.535a2.594,2.594,0,0,0,.9-1.5H5.77a5.929,5.929,0,0,1-.958.914.346.346,0,0,1-.146.083q-.051,0-.184-.114A.769.769,0,0,0,4.158-8.3,5.557,5.557,0,0,0,5.9-10.169a2.257,2.257,0,0,0,.248-.66,3.261,3.261,0,0,1,.533.159q.127.051.127.114T6.7-10.4a1.349,1.349,0,0,0-.2.273q-.3.5-.381.622h4.3a1.138,1.138,0,0,0,.355-.038.445.445,0,0,1,.127-.051.478.478,0,0,1,.273.159q.26.222.26.311,0,.063-.1.127a.894.894,0,0,0-.248.273,5.723,5.723,0,0,1-.755.92q-.127.127-.178.127a.507.507,0,0,1-.184-.07.855.855,0,0,0-.355-.108,4.7,4.7,0,0,0,1.028-1.181ZM4.627-5.783H8.334l1.822-.025a.079.079,0,0,1,.089.089l-.025,1.3v2.063l.025,1.3a.079.079,0,0,1-.089.089L8.334-.99H4.627L2.818-.965a.079.079,0,0,1-.089-.089l.025-1.3V-4.418l-.025-1.3a.079.079,0,0,1,.089-.089ZM3.313-4.354H9.661v-.958H3.313Zm0,.444v.971H9.661V-3.91Zm0,1.416V-1.46H9.661V-2.495Zm1.079-5.4q-.006.1-.006.178t.006.184a1.031,1.031,0,0,1,.013.127q0,.083-.178.184A17.179,17.179,0,0,1,2-6.227a2.854,2.854,0,0,0-.482.209.326.326,0,0,1-.152.089.151.151,0,0,1-.133-.089A4.146,4.146,0,0,1,.99-6.589,5.007,5.007,0,0,0,1.923-6.8,13.5,13.5,0,0,0,4.393-7.89ZM.844.444A9.651,9.651,0,0,0,3.936-.47a1.818,1.818,0,0,0,.419-.324q.3.133.521.26a.189.189,0,0,1,.1.146q0,.083-.114.1a1.061,1.061,0,0,0-.368.146A9.845,9.845,0,0,1,1.4.914a1.071,1.071,0,0,1-.14.019Q1.187.933,1.1.768A1.233,1.233,0,0,0,.844.444ZM11.959.4a1.172,1.172,0,0,0-.273.343q-.083.165-.171.165a1.168,1.168,0,0,1-.152-.019A8.923,8.923,0,0,1,8.023-.419q-.051-.032-.051-.063t.089-.1L8.309-.73a.277.277,0,0,1,.127-.051.161.161,0,0,1,.076.025A9.063,9.063,0,0,0,11.959.4ZM1.536-9.9q-.07-.025-.07-.057a.333.333,0,0,1,.083-.133l.114-.146q.076-.1.14-.1a.2.2,0,0,1,.057.013,8.27,8.27,0,0,1,2,1.054q.057.038.057.076a.3.3,0,0,1-.07.133l-.14.165q-.1.133-.146.133A.154.154,0,0,1,3.485-8.8,7.033,7.033,0,0,0,1.536-9.9ZM16.783-5.4q.006,2.1.051,4.462.013.559.032,1.327.006.362.006.4a.079.079,0,0,1-.089.089h-.457a.079.079,0,0,1-.089-.089q0-.013.019-.978.063-2.825.07-5.211a16.022,16.022,0,0,1-2.038,4.164q-.083.114-.121.114t-.114-.127a.843.843,0,0,0-.286-.317,13.182,13.182,0,0,0,1.384-2.1,17.049,17.049,0,0,0,.939-2.19h-.546l-1.39.025a.079.079,0,0,1-.089-.089v-.375q0-.1.089-.1l1.39.032h.73V-9.28a8.476,8.476,0,0,0-.089-1.5q.343.019.647.063.159.025.159.108a1.315,1.315,0,0,1-.1.248,4.666,4.666,0,0,0-.063,1.066v2.939h.311l1.39-.032a.084.084,0,0,1,.1.1v.375q0,.089-.1.089l-1.39-.025h-.209a12.877,12.877,0,0,0,1.733,2.59,1.2,1.2,0,0,0-.273.349q-.07.133-.1.133t-.108-.1A15.266,15.266,0,0,1,16.783-5.4Zm6.944,1.923q1.155-.229,1.5-.336a.071.071,0,0,1,.032-.006q.051,0,.07.1L25.4-3.3a.174.174,0,0,1,.006.038q0,.051-.083.063l-.19.038q-.565.1-1.409.26v1.435L23.753.781a.079.079,0,0,1-.089.089h-.47a.079.079,0,0,1-.089-.089l.025-2.234V-2.78l-2.7.546q-.787.159-1.333.286-.1.025-.279.07a.474.474,0,0,1-.089.019.267.267,0,0,1-.044.006q-.051,0-.063-.083l-.089-.432a.174.174,0,0,1-.006-.038q0-.051.083-.063.971-.165,1.733-.311l2.793-.559V-8.893a11.56,11.56,0,0,0-.089-1.714,4.757,4.757,0,0,1,.673.063q.14.025.14.1,0,.019-.051.222a6.384,6.384,0,0,0-.076,1.3ZM17.393-7.357a10.555,10.555,0,0,0,.768-1.961,2.848,2.848,0,0,0,.083-.482,2.847,2.847,0,0,1,.527.178q.133.07.133.133t-.089.14a.821.821,0,0,0-.159.292q-.286.819-.7,1.727-.07.146-.121.146a.39.39,0,0,1-.14-.07A.807.807,0,0,0,17.393-7.357ZM14.3-9.452a.1.1,0,0,1-.013-.038q0-.044.127-.1l.171-.083a.427.427,0,0,1,.121-.044q.032,0,.063.063A11.292,11.292,0,0,1,15.6-7.433a.174.174,0,0,1,.006.038q0,.044-.178.114l-.152.063a.726.726,0,0,1-.171.057q-.044,0-.051-.07A8.79,8.79,0,0,0,14.3-9.452Zm5.5.349q-.044-.025-.044-.051t.1-.14l.159-.159q.063-.076.108-.076a.158.158,0,0,1,.063.025,8.506,8.506,0,0,1,1.828,1.562q.038.032.038.057t-.076.108l-.165.2q-.127.127-.152.127T21.595-7.5A7.711,7.711,0,0,0,19.8-9.1Zm-.349,2.85q-.051-.032-.051-.063a.173.173,0,0,1,.063-.108l.184-.178q.063-.07.1-.07a.123.123,0,0,1,.063.025A8.216,8.216,0,0,1,21.671-5.1a.128.128,0,0,1,.038.076q0,.038-.076.121l-.159.184q-.1.114-.14.114a.1.1,0,0,1-.063-.038A9.492,9.492,0,0,0,19.449-6.252ZM28.012.127V.8q0,.1-.089.1H27.53q-.089,0-.089-.1l.025-1.879v-.768l-.025-1.117a.079.079,0,0,1,.089-.089l1.117.025h.939l1.13-.025a.079.079,0,0,1,.089.089l-.025.914v.813L30.805.584a.079.079,0,0,1-.089.089h-.394a.079.079,0,0,1-.089-.089V.127Zm0-.5h2.222V-2.533H28.012ZM34.3-6.4V-7.433h-.743l-1.562.025q-.089,0-.089-.1v-.336a.079.079,0,0,1,.089-.089l1.562.025H34.3v-.946h-.952l-1.676.025q-.1,0-.1-.089v-.355q0-.089.1-.089l1.676.025H34.3V-9.5a6.265,6.265,0,0,0-.1-1.327q.317.019.66.07.146.019.146.1a.986.986,0,0,1-.076.222,3.38,3.38,0,0,0-.076.933v.171h1.231l1.676-.025q.1,0,.1.089v.355q0,.089-.1.089l-1.676-.025H34.855V-7.9h.87l1.542-.025q.1,0,.1.089V-7.5a.084.084,0,0,1-.1.1l-1.542-.025h-.87V-6.4H36.48l1.777-.025q.076,0,.076.089v.355q0,.089-.076.089L36.48-5.916H33.071l-1.784.025a.079.079,0,0,1-.089-.089v-.355a.079.079,0,0,1,.089-.089l1.784.025Zm2.336,5h-3.98v.635L32.678.793q0,.076-.089.076h-.432q-.089,0-.089-.076l.025-1.536V-3.485l-.025-1.454a.079.079,0,0,1,.089-.089L33.681-5H35.6l1.511-.025a.079.079,0,0,1,.089.089l-.025,1.5v1.485l.013,1.714a.957.957,0,0,1-.26.793,2.036,2.036,0,0,1-1.073.209h-.19a.3.3,0,0,1-.19-.038.437.437,0,0,1-.083-.184,1.429,1.429,0,0,0-.222-.387q.457.038.863.038a.671.671,0,0,0,.5-.133.594.594,0,0,0,.1-.387Zm0-.482V-2.977h-3.98v1.092Zm0-1.574V-4.507h-3.98v1.047ZM28.679-4.773h.857L30.589-4.8q.1,0,.1.1v.387q0,.076-.1.076l-1.054-.013h-.857l-1.054.013q-.089,0-.089-.076V-4.7q0-.1.089-.1Zm0-1.727h.857l1.054-.025q.1,0,.1.089v.394q0,.089-.1.089l-1.054-.025h-.857l-1.054.025a.079.079,0,0,1-.089-.089v-.394a.079.079,0,0,1,.089-.089Zm-.013-3.548h.984l1.136-.025a.079.079,0,0,1,.089.089v.394a.079.079,0,0,1-.089.089L29.65-9.528h-.984L27.549-9.5q-.1,0-.1-.089v-.394q0-.089.1-.089Zm-.381,1.777h1.447L31.084-8.3q.089,0,.089.076v.406a.079.079,0,0,1-.089.089L29.732-7.75H28.285l-1.352.025a.079.079,0,0,1-.089-.089V-8.22q0-.076.089-.076Zm17.583.717a13.538,13.538,0,0,0,1.365,3.148A14.229,14.229,0,0,0,49-6.252a1.947,1.947,0,0,0,.324-.584,2,2,0,0,1,.552.375.213.213,0,0,1,.089.159q0,.051-.133.152a2.678,2.678,0,0,0-.584.533,18.412,18.412,0,0,1-1.714,1.663A10.245,10.245,0,0,0,51.207-.743a1.291,1.291,0,0,0-.362.368q-.076.127-.127.127a.431.431,0,0,1-.159-.076,15.268,15.268,0,0,1-1.352-.939,9.855,9.855,0,0,1-2.234-2.558A11.813,11.813,0,0,1,45.7-6.773q.089,5.364.089,6.424a.943.943,0,0,1-.457.92,4.08,4.08,0,0,1-1.492.184.314.314,0,0,1-.184-.032.652.652,0,0,1-.063-.19,1.275,1.275,0,0,0-.248-.457,8.818,8.818,0,0,0,.914.044,1.236,1.236,0,0,0,.724-.14.643.643,0,0,0,.171-.527V-7.554h-3.3L40.1-7.528a.079.079,0,0,1-.089-.089v-.419a.079.079,0,0,1,.089-.089L41.85-8.1h3.3V-9.153a8.678,8.678,0,0,0-.089-1.562,4.83,4.83,0,0,1,.686.07q.146.019.146.1a.82.82,0,0,1-.076.26,4.845,4.845,0,0,0-.07,1.13V-8.1h3.421l1.752-.025q.1,0,.1.089v.419q0,.089-.1.089l-1.752-.025Zm2.012-2.831a7.8,7.8,0,0,1,1.676,1.27.1.1,0,0,1,.038.063q0,.044-.076.108l-.222.209q-.1.083-.127.083T49.105-8.7a6.481,6.481,0,0,0-1.6-1.3q-.057-.038-.057-.063t.07-.108l.19-.178q.07-.063.1-.063A.2.2,0,0,1,47.88-10.385Zm-3.5,6.652a.871.871,0,0,0-.006.108,1.749,1.749,0,0,0,.032.3,1.17,1.17,0,0,1,.025.159q0,.076-.152.178a27.9,27.9,0,0,1-3.041,1.834,1.816,1.816,0,0,0-.482.3q-.108.1-.159.1t-.14-.127a6.094,6.094,0,0,1-.286-.559,5.546,5.546,0,0,0,.92-.355A23.375,23.375,0,0,0,44.383-3.732ZM41.825-6.646a7.524,7.524,0,0,1,1.581,1.771.175.175,0,0,1,.032.07q0,.044-.083.114l-.2.19q-.127.114-.159.114t-.051-.051a6.98,6.98,0,0,0-1.536-1.8q-.044-.038-.044-.063t.083-.108l.209-.178q.083-.076.121-.076A.109.109,0,0,1,41.825-6.646Z" transform="translate(2803 912)" fill="#101010"/>
  </g>
</svg>
