<svg xmlns="http://www.w3.org/2000/svg" width="27.661" height="22.466" viewBox="0 0 27.661 22.466">
  <path id="Icon_awesome-twitter" data-name="Icon awesome-twitter" d="M24.818,8.98c.018.246.018.491.018.737,0,7.494-5.7,16.13-16.13,16.13A16.02,16.02,0,0,1,0,23.3a11.728,11.728,0,0,0,1.369.07A11.354,11.354,0,0,0,8.407,20.95a5.679,5.679,0,0,1-5.3-3.932,7.149,7.149,0,0,0,1.071.088,6,6,0,0,0,1.492-.193,5.67,5.67,0,0,1-4.546-5.564v-.07A5.709,5.709,0,0,0,3.686,12,5.678,5.678,0,0,1,1.931,4.416,16.114,16.114,0,0,0,13.62,10.349a6.4,6.4,0,0,1-.14-1.3,5.675,5.675,0,0,1,9.811-3.879,11.161,11.161,0,0,0,3.6-1.369A5.654,5.654,0,0,1,24.4,6.926a11.365,11.365,0,0,0,3.265-.878A12.186,12.186,0,0,1,24.818,8.98Z" transform="translate(0 -3.381)" fill="#1d9bf0"/>
</svg>
