<svg id="large_works" xmlns="http://www.w3.org/2000/svg" xmlns:xlink="http://www.w3.org/1999/xlink" width="68.57" height="246.917" viewBox="0 0 68.57 246.917">
  <defs>
    <clipPath id="clip-path">
      <rect id="矩形_431" data-name="矩形 431" width="68.57" height="246.917" fill="#c6efef"/>
    </clipPath>
  </defs>
  <g id="组_880" data-name="组 880" clip-path="url(#clip-path)">
    <path id="路径_1789" data-name="路径 1789" d="M62.565,77.811c0-1.366-.516-1.847-2.5-2.491-.861-.241-3.013-.884-5.166-1.446-1.807-.563-5.423-1.527-10.673-3.053L17.975,63.507C13.5,62.221,6.7,60.694.5,59.248V53.782c3.7-1.045,7.4-2.249,11.1-3.455l22.985-7.314-22.381-6.67C9.107,35.458,5.319,34.575.5,33.691V27.5c6.713-1.849,12.137-3.536,19.712-6.027l29.01-9.4c4.218-1.366,8.695-2.812,13.343-4.5L62.651.5h2.324V53.22H62.651V45.827c-4.907,1.286-9.124,2.49-13.429,3.857L15.995,59.971l29.1,8.278c5.337,1.526,8.523,2.249,11.364,2.973a45.086,45.086,0,0,0,4.733.965c1.12,0,1.378-.4,1.378-2.251l.086-5.063h2.324V83.116H62.651ZM15.305,34.655l23.329,7.072,24.017-8.116-.086-13.5Z" fill="#c6efef"/>
    <path id="路径_1790" data-name="路径 1790" d="M62.565,77.811c0-1.366-.516-1.847-2.5-2.491-.861-.241-3.013-.884-5.166-1.446-1.807-.563-5.423-1.527-10.673-3.053L17.975,63.507C13.5,62.221,6.7,60.694.5,59.248V53.782c3.7-1.045,7.4-2.249,11.1-3.455l22.985-7.314-22.381-6.67C9.107,35.458,5.319,34.575.5,33.691V27.5c6.713-1.849,12.137-3.536,19.712-6.027l29.01-9.4c4.218-1.366,8.695-2.812,13.343-4.5L62.651.5h2.324V53.22H62.651V45.827c-4.907,1.286-9.124,2.49-13.429,3.857L15.995,59.971l29.1,8.278c5.337,1.526,8.523,2.249,11.364,2.973a45.086,45.086,0,0,0,4.733.965c1.12,0,1.378-.4,1.378-2.251l.086-5.063h2.324V83.116H62.651ZM15.305,34.655l23.329,7.072,24.017-8.116-.086-13.5Z" fill="#c6efef"/>
    <path id="路径_1791" data-name="路径 1791" d="M1.1,106.823c0-11.653,8.608-19.931,20.659-19.931,12.31,0,21,8.358,21,20.091,0,11.813-8.35,19.771-20.833,19.771-12.4,0-20.831-8.038-20.831-19.931m2.152.08a6.6,6.6,0,0,0,4.3,6.107c3.357,1.448,8.607,2.251,14.375,2.251,5.854,0,11.019-.8,14.462-2.251A6.6,6.6,0,0,0,40.7,106.9c0-5.626-6.456-8.518-18.767-8.518-12.223,0-18.679,2.892-18.679,8.518" fill="#c6efef"/>
    <path id="路径_1792" data-name="路径 1792" d="M1.1,106.823c0-11.653,8.608-19.931,20.659-19.931,12.31,0,21,8.358,21,20.091,0,11.813-8.35,19.771-20.833,19.771C9.539,126.754,1.1,118.716,1.1,106.823Zm2.152.08a6.6,6.6,0,0,0,4.3,6.107c3.357,1.448,8.607,2.251,14.375,2.251,5.854,0,11.019-.8,14.462-2.251A6.6,6.6,0,0,0,40.7,106.9c0-5.626-6.456-8.518-18.767-8.518C9.711,98.385,3.255,101.277,3.255,106.9Z" fill="#c6efef"/>
    <path id="路径_1793" data-name="路径 1793" d="M4.718,132.7l.086,5.466c2.5.16,4.735.24,7.317.24h18.25c3.27,0,5.768-.08,8.866-.24l-.086-5.064h2.325c0,6.67.344,9.644,1.721,14.385l-.861,1.046H34.159c1.549.883,2.152,1.205,2.927,1.688,3.615,2.169,5.6,5.143,5.6,8.6a6.925,6.925,0,0,1-7.317,7.073c-3.013,0-4.907-1.689-4.907-4.421,0-2.571,1.808-4.1,4.993-4.1.516,0,.946.08,1.549.08,1.034,0,1.463-.482,1.463-1.608,0-2.249-2.582-4.661-6.628-5.946-2.583-.884-4.218-1.044-11.535-1.044H4.8L4.718,154.8H2.394V132.7Z" fill="#c6efef"/>
    <path id="路径_1794" data-name="路径 1794" d="M4.718,132.7l.086,5.466c2.5.16,4.735.24,7.317.24h18.25c3.27,0,5.768-.08,8.866-.24l-.086-5.064h2.325c0,6.67.344,9.644,1.721,14.385l-.861,1.046H34.159c1.549.883,2.152,1.205,2.927,1.688,3.615,2.169,5.6,5.143,5.6,8.6a6.925,6.925,0,0,1-7.317,7.073c-3.013,0-4.907-1.689-4.907-4.421,0-2.571,1.808-4.1,4.993-4.1.516,0,.946.08,1.549.08,1.034,0,1.463-.482,1.463-1.608,0-2.249-2.582-4.661-6.628-5.946-2.583-.884-4.218-1.044-11.535-1.044H4.8L4.718,154.8H2.394V132.7Z" fill="#c6efef"/>
    <path id="路径_1795" data-name="路径 1795" d="M39.15,205.351c0-1.608-.43-2.331-2.84-4.823L29.682,193.7,15.391,203.02c-3.959,2.572-7.488,4.741-10.588,7.232l-.086,4.421H2.394V193.536H4.717l.086,4.581,18.078-11.573-1.636-1.686H4.8l-.086,4.5H2.394V168.623H4.717l.086,5.626c5.94.16,11.019.16,16.7.16H62.91l-.259-5.3H64.8c.257,7.635.946,10.529,3.184,15.028l-.86,1.206c-4.994-.4-9.814-.481-15.151-.481H25.033L37,197.474c.688.723,1.2,1.045,1.635,1.045.345,0,.516-.322.516-.8l.086-4.5h2.325v15.911H39.236Z" fill="#c6efef"/>
    <path id="路径_1796" data-name="路径 1796" d="M39.15,205.351c0-1.608-.43-2.331-2.84-4.823L29.682,193.7,15.391,203.02c-3.959,2.572-7.488,4.741-10.588,7.232l-.086,4.421H2.394V193.536H4.717l.086,4.581,18.078-11.573-1.636-1.686H4.8l-.086,4.5H2.394V168.623H4.717l.086,5.626c5.94.16,11.019.16,16.7.16H62.91l-.259-5.3H64.8c.257,7.635.946,10.529,3.184,15.028l-.86,1.206c-4.994-.4-9.814-.481-15.151-.481H25.033L37,197.474c.688.723,1.2,1.045,1.635,1.045.345,0,.516-.322.516-.8l.086-4.5h2.325v15.911H39.236Z" fill="#c6efef"/>
    <path id="路径_1797" data-name="路径 1797" d="M3.082,218.449a34.163,34.163,0,0,0,8.264.643c1.549,0,3.184-.08,4.735-.08v2.09a12.4,12.4,0,0,0-7.921,2.652,10.266,10.266,0,0,0-4.648,8.6c0,4.5,2.668,7.875,6.37,7.875,3.013,0,4.648-1.928,6.284-7.393,1.378-4.822,2.841-8.037,4.477-9.805,1.894-2.17,5.251-3.456,8.866-3.456,7.576,0,13.258,5.466,13.258,12.7,0,2.892-.518,4.42-2.927,9.081l1.98,1.608-.345,1.044c-3.1-.241-4.735-.321-6.543-.321-1.635,0-3.356.08-4.992.08l-.258-1.849c3.529-.482,5.164-.965,6.886-2.17a9.273,9.273,0,0,0,3.874-7.473c0-4.018-2.5-6.912-5.854-6.912-3.53,0-5.079,1.848-7.231,8.6-1.722,5.223-2.5,6.91-4.3,9a11.9,11.9,0,0,1-8.695,3.455c-7.833,0-13.17-5.786-13.17-14.144,0-4.18.688-6.189,3.7-10.69l-2.239-1.767Z" fill="#c6efef"/>
    <path id="路径_1798" data-name="路径 1798" d="M3.082,218.449a34.163,34.163,0,0,0,8.264.643c1.549,0,3.184-.08,4.735-.08v2.09a12.4,12.4,0,0,0-7.921,2.652,10.266,10.266,0,0,0-4.648,8.6c0,4.5,2.668,7.875,6.37,7.875,3.013,0,4.648-1.928,6.284-7.393,1.378-4.822,2.841-8.037,4.477-9.805,1.894-2.17,5.251-3.456,8.866-3.456,7.576,0,13.258,5.466,13.258,12.7,0,2.892-.518,4.42-2.927,9.081l1.98,1.608-.345,1.044c-3.1-.241-4.735-.321-6.543-.321-1.635,0-3.356.08-4.992.08l-.258-1.849c3.529-.482,5.164-.965,6.886-2.17a9.273,9.273,0,0,0,3.874-7.473c0-4.018-2.5-6.912-5.854-6.912-3.53,0-5.079,1.848-7.231,8.6-1.722,5.223-2.5,6.91-4.3,9a11.9,11.9,0,0,1-8.695,3.455c-7.833,0-13.17-5.786-13.17-14.144,0-4.18.688-6.189,3.7-10.69l-2.239-1.767Z" fill="#c6efef"/>
  </g>
</svg>
