<svg xmlns="http://www.w3.org/2000/svg" width="131.431" height="127.644" viewBox="0 0 131.431 127.644">
  <g id="Group_960" data-name="Group 960" transform="translate(-58.333 -84)">
    <g id="_イヤー_1" transform="translate(59 84)">
      <g id="Group_2" data-name="Group 2">
        <path id="Path_1" data-name="Path 1" d="M99.95,0,73.64,35.67V.34H50.33L1.32,66.76H29.05L50.33,37.91V66.76h65.44l11.98-16.24V0H99.96Zm9.35,42.14-4.25,5.77H88.14L109.3,19.12V42.14Z" fill="#013559"/>
        <g id="Group_1" data-name="Group 1">
          <path id="Path_2" data-name="Path 2" d="M12.03,82.14H10.31L9.22,80.02H2.82l-1.1,2.12H0l5.02-9.5H7l5.02,9.5ZM8.45,78.6,6.03,74,3.58,78.6Z" fill="#013559"/>
          <path id="Path_3" data-name="Path 3" d="M19.82,72.65a5.628,5.628,0,0,1,3.93,1.32,4.541,4.541,0,0,1,1.45,3.54,4.325,4.325,0,0,1-1.53,3.38,5.15,5.15,0,0,1-3.54,1.26H13.82v-9.5h6.01Zm.44,8.08a3.133,3.133,0,0,0,3.24-3.27A3.246,3.246,0,0,0,22.52,75a3.532,3.532,0,0,0-2.57-.93H15.38v6.66h4.87Z" fill="#013559"/>
          <path id="Path_4" data-name="Path 4" d="M42.65,72.65a3.221,3.221,0,0,1,2.31.81,2.832,2.832,0,0,1,.85,2.16,2.663,2.663,0,0,1-.89,2.16,3.893,3.893,0,0,1-2.58.75H36.69v3.62H35.12v-9.5h7.53Zm-.27,4.46c1.22,0,1.82-.49,1.82-1.47,0-1.05-.64-1.57-1.92-1.57H36.7v3.04h5.68Z" fill="#013559"/>
          <path id="Path_5" data-name="Path 5" d="M56.53,82.14H47.62v-9.5h1.57v8.08h7.33v1.42Z" fill="#013559"/>
          <path id="Path_6" data-name="Path 6" d="M69.02,82.14H67.3l-1.1-2.12H59.8l-1.09,2.12H56.99l5.02-9.5h1.98ZM65.44,78.6,63.02,74l-2.45,4.6Z" fill="#013559"/>
          <path id="Path_7" data-name="Path 7" d="M81.58,82.14H79.62l-7.25-7.79v7.79H70.8v-9.5h1.95L80,80.43V72.64h1.57v9.5Z" fill="#013559"/>
          <path id="Path_8" data-name="Path 8" d="M95.54,82.14H93.58l-7.25-7.79v7.79H84.76v-9.5h1.96l7.25,7.79V72.64h1.58v9.5Z" fill="#013559"/>
          <path id="Path_9" data-name="Path 9" d="M100.29,82.14H98.72v-9.5h1.57Z" fill="#013559"/>
          <path id="Path_10" data-name="Path 10" d="M114.24,82.14h-1.96l-7.25-7.79v7.79h-1.57v-9.5h1.95l7.25,7.79V72.64h1.57v9.5Z" fill="#013559"/>
          <path id="Path_11" data-name="Path 11" d="M129.06,77.25a4.685,4.685,0,0,1-1.66,3.74,6.524,6.524,0,0,1-4.4,1.43,6.686,6.686,0,0,1-4.18-1.27,4.639,4.639,0,0,1,.03-7.51,6.877,6.877,0,0,1,4.29-1.28,6.5,6.5,0,0,1,5.14,2.3l-1.47.73a5.446,5.446,0,0,0-6.83-.7,3.211,3.211,0,0,0-1.42,2.7,3.16,3.16,0,0,0,1.22,2.6,4.967,4.967,0,0,0,3.23,1q3.15,0,4.09-2.45h-4.42V77.12h6.39v.14Z" fill="#013559"/>
          <path id="Path_12" data-name="Path 12" d="M6.65,85.64l-.77.28a2.863,2.863,0,0,0-2.18-.83,2.67,2.67,0,0,0-1.73.54,1.733,1.733,0,0,0-.67,1.39,1.762,1.762,0,0,0,.66,1.41,2.805,2.805,0,0,0,1.79.53,2.772,2.772,0,0,0,2.14-.84l.73.41a3.328,3.328,0,0,1-1.25.93,4.38,4.38,0,0,1-1.67.29,3.657,3.657,0,0,1-2.26-.68A2.518,2.518,0,0,1,1.45,85a3.58,3.58,0,0,1,2.24-.69,3.512,3.512,0,0,1,2.96,1.33Z" fill="#013559"/>
          <path id="Path_13" data-name="Path 13" d="M13.89,89.59H12.9l-1.39-1.95H8.92v1.95H8.07V84.46h4.05a1.782,1.782,0,0,1,1.27.44,1.53,1.53,0,0,1,.46,1.18,1.471,1.471,0,0,1-.38,1.05,1.682,1.682,0,0,1-.95.47l1.37,2Zm-1.9-2.72c.65,0,.98-.26.98-.79,0-.57-.35-.85-1.06-.85H8.92v1.64h3.07Z" fill="#013559"/>
          <path id="Path_14" data-name="Path 14" d="M20.58,89.59H15.21V84.46h5.17v.76H16.06v1.32h3v.76h-3v1.52h4.52v.76Z" fill="#013559"/>
          <path id="Path_15" data-name="Path 15" d="M27.6,89.59h-.93l-.59-1.15H22.63l-.59,1.15h-.93l2.71-5.13h1.07l2.71,5.13Zm-1.93-1.91-1.31-2.49-1.32,2.49h2.63Z" fill="#013559"/>
          <path id="Path_16" data-name="Path 16" d="M33.6,85.23H31.15v4.36H30.3V85.23H27.85v-.76H33.6Z" fill="#013559"/>
          <path id="Path_17" data-name="Path 17" d="M35.45,89.59H34.6V84.46h.85Z" fill="#013559"/>
          <path id="Path_18" data-name="Path 18" d="M42.85,84.47,40.09,89.6h-.98l-2.76-5.13h.95l2.3,4.27,2.3-4.27h.95Z" fill="#013559"/>
          <path id="Path_19" data-name="Path 19" d="M49.11,89.59H43.74V84.46h5.17v.76H44.59v1.32h3v.76h-3v1.52h4.52v.76Z" fill="#013559"/>
          <path id="Path_20" data-name="Path 20" d="M55.76,84.47a3.052,3.052,0,0,1,2.12.71,2.451,2.451,0,0,1,.78,1.91,2.31,2.31,0,0,1-.83,1.83,2.809,2.809,0,0,1-1.91.68H52.51V84.47h3.25Zm.23,4.36a1.679,1.679,0,0,0,1.75-1.76,1.77,1.77,0,0,0-.53-1.33,1.9,1.9,0,0,0-1.38-.51H53.36v3.6Z" fill="#013559"/>
          <path id="Path_21" data-name="Path 21" d="M65.42,89.59H60.05V84.46h5.17v.76H60.9v1.32h3v.76h-3v1.52h4.52v.76Z" fill="#013559"/>
          <path id="Path_22" data-name="Path 22" d="M71.21,85.67a5.014,5.014,0,0,0-2.32-.58,3.118,3.118,0,0,0-1.2.18q-.42.18-.42.51c0,.22.15.39.44.49a4.132,4.132,0,0,0,1.04.15c.71.05,1.17.09,1.4.12a2.984,2.984,0,0,1,1.42.47,1.148,1.148,0,0,1,.46.98,1.41,1.41,0,0,1-.72,1.26,3.942,3.942,0,0,1-2.08.45,4.773,4.773,0,0,1-3.05-.87l.47-.61a4.892,4.892,0,0,0,2.59.74,3.131,3.131,0,0,0,1.4-.25.721.721,0,0,0,.47-.66c0-.33-.21-.54-.62-.65a12.525,12.525,0,0,0-1.76-.18,5.258,5.258,0,0,1-1.78-.34,1.031,1.031,0,0,1-.6-1,1.3,1.3,0,0,1,.68-1.14,3.632,3.632,0,0,1,1.91-.42,4.814,4.814,0,0,1,2.78.76l-.52.57Z" fill="#013559"/>
          <path id="Path_23" data-name="Path 23" d="M74.21,89.59h-.85V84.46h.85Z" fill="#013559"/>
          <path id="Path_24" data-name="Path 24" d="M82.21,86.95a2.53,2.53,0,0,1-.9,2.02,3.546,3.546,0,0,1-2.38.77,3.619,3.619,0,0,1-2.26-.69A2.5,2.5,0,0,1,76.68,85,3.743,3.743,0,0,1,79,84.3a3.526,3.526,0,0,1,2.78,1.24l-.79.4a2.943,2.943,0,0,0-3.69-.38,1.721,1.721,0,0,0-.76,1.46,1.69,1.69,0,0,0,.66,1.4,2.662,2.662,0,0,0,1.74.54,2.109,2.109,0,0,0,2.21-1.33H78.76v-.76h3.45v.08Z" fill="#013559"/>
          <path id="Path_25" data-name="Path 25" d="M89.48,89.59H88.42l-3.91-4.2v4.2h-.85V84.46h1.05l3.92,4.21V84.46h.85Z" fill="#013559"/>
          <path id="Path_26" data-name="Path 26" d="M99.63,87.02a2.432,2.432,0,0,1-1.03,2.04,4.054,4.054,0,0,1-4.51-.01A2.491,2.491,0,0,1,94.11,85a3.635,3.635,0,0,1,2.25-.7,3.574,3.574,0,0,1,2.25.7,2.445,2.445,0,0,1,1.04,2.02Zm-.89,0a1.721,1.721,0,0,0-.76-1.46,2.7,2.7,0,0,0-1.64-.48,2.648,2.648,0,0,0-1.74.55,1.718,1.718,0,0,0-.67,1.39,1.762,1.762,0,0,0,.66,1.41,3.106,3.106,0,0,0,3.5,0,1.72,1.72,0,0,0,.65-1.4Z" fill="#013559"/>
          <path id="Path_27" data-name="Path 27" d="M106.25,85.23h-4.32v1.32h3v.76h-3v2.28h-.85V84.46h5.17v.76Z" fill="#013559"/>
          <path id="Path_28" data-name="Path 28" d="M112.42,85.23H108.1v1.32h3v.76h-3v2.28h-.85V84.46h5.17v.76Z" fill="#013559"/>
          <path id="Path_29" data-name="Path 29" d="M114.27,89.59h-.85V84.46h.85Z" fill="#013559"/>
          <path id="Path_30" data-name="Path 30" d="M121.97,85.64l-.77.28a2.863,2.863,0,0,0-2.18-.83,2.67,2.67,0,0,0-1.73.54,1.7,1.7,0,0,0-.67,1.39,1.762,1.762,0,0,0,.66,1.41,2.805,2.805,0,0,0,1.79.53,2.772,2.772,0,0,0,2.14-.84l.73.41a3.18,3.18,0,0,1-1.25.93,4.416,4.416,0,0,1-1.67.29,3.657,3.657,0,0,1-2.26-.68,2.518,2.518,0,0,1,.01-4.07,3.6,3.6,0,0,1,2.24-.69,3.512,3.512,0,0,1,2.96,1.33Z" fill="#013559"/>
          <path id="Path_31" data-name="Path 31" d="M128.76,89.59h-5.37V84.46h5.17v.76h-4.32v1.32h3v.76h-3v1.52h4.52v.76Z" fill="#013559"/>
        </g>
      </g>
    </g>
    <path id="Path_1932" data-name="Path 1932" d="M9.029.145H3.846V.6H3V-2.643A21.525,21.525,0,0,1,.752-1.552L.371-2.17A17.328,17.328,0,0,0,4.249-4.265L4.431-4.4q-.875-.7-2.116-1.558A13.139,13.139,0,0,1,.763-4.941l-.43-.5A16.064,16.064,0,0,0,2.89-7.4,9.168,9.168,0,0,0,4.453-9.2l.865.2a8.94,8.94,0,0,1-.671.875H8.459l.322.29a12.654,12.654,0,0,1-4,4.087H9.894V.6H9.029ZM2.911-6.424q1.434.935,2.2,1.509A10.78,10.78,0,0,0,7.584-7.477H4.055A15.206,15.206,0,0,1,2.911-6.424Zm.935,5.9H9.029V-3.078H3.846ZM19.7.059h-6.5V.6h-.843V-4.146h3.6V-6.483H11.44v-.661h4.512V-9.018h.875v1.875h4.689v.661H16.828v2.336h3.733V.564H19.7ZM13.191-.6h6.5V-3.5h-6.5ZM24.105-6.59v1.38A10.379,10.379,0,0,1,22.7.532l-.6-.4a7.67,7.67,0,0,0,.838-2.165,10.968,10.968,0,0,0,.328-2.626v-4.12h8.562V-6.59Zm0-.607h6.913v-.956H24.105ZM23.928.43V-.263h3.754V-1.509H24.745V-2.17h2.938V-3.233L24.9-3.147l-.1-.687,1.354-.011q.462-.7.79-1.332h-2.31v-.639h7.686v.639h-4.5a14.85,14.85,0,0,1-.838,1.316q2.39-.043,3.47-.107-.612-.575-.849-.763l.591-.333A13.778,13.778,0,0,1,32.216-3.3l-.628.414-.532-.516q-.886.07-2.53.14v1.1H31.77v.661H28.526V-.263H32.4V.43ZM38.736.22,38.527-.5a6.056,6.056,0,0,0,2.957-1,2.879,2.879,0,0,0,1.227-2.535A2.852,2.852,0,0,0,41.72-6.37a4.405,4.405,0,0,0-2.763-.87A11.151,11.151,0,0,1,37.92-2.417Q36.942-.483,35.471-.483a1.645,1.645,0,0,1-1.437-.776,3.306,3.306,0,0,1-.524-1.893A4.421,4.421,0,0,1,35.1-6.464a5.362,5.362,0,0,1,3.765-1.469A5.362,5.362,0,0,1,42.238-6.91a3.339,3.339,0,0,1,1.327,2.8,3.721,3.721,0,0,1-1.337,3.088A6.282,6.282,0,0,1,38.736.22ZM38.113-7.17a4.572,4.572,0,0,0-2.68,1.41A3.738,3.738,0,0,0,34.311-3.11a2.537,2.537,0,0,0,.328,1.329,1.016,1.016,0,0,0,.913.545q1,0,1.751-1.877A11.841,11.841,0,0,0,38.113-7.17Zm14.115-.2H45.047v-.747h7.181Zm-2.036,3.3a4.753,4.753,0,0,1-.446,2.216A3.745,3.745,0,0,1,48.332-.419a7.789,7.789,0,0,1-2.473.9l-.285-.757a6.064,6.064,0,0,0,2.675-1.19,2.968,2.968,0,0,0,.988-2.409v-.559H44.419v-.784h9.888v.784H50.193Zm4.673-4.023-.612.252A10.5,10.5,0,0,0,53.48-9.33l.564-.263A13.179,13.179,0,0,1,54.866-8.094Zm-1.472.328-.618.274A12.079,12.079,0,0,0,52-9l.58-.263A11.354,11.354,0,0,1,53.394-7.767Zm4.882,4.941h-.935V-5.543H55.22v-.779h2.122v-2.17h.935v2.17H62.4V-8.535h.935v2.213h2.138v.779H63.336v1.3q0,4.5-6.214,4.705l-.177-.8a7.031,7.031,0,0,0,4.235-1.144A3.415,3.415,0,0,0,62.4-4.222V-5.543H58.276Zm7.659-5.151-.607.231a10.751,10.751,0,0,0-.714-1.5l.548-.242A15.547,15.547,0,0,1,65.936-7.976Zm-1.289.365-.607.252q-.22-.532-.714-1.531l.564-.242A13.36,13.36,0,0,1,64.646-7.611ZM72.864.516h-.956v-5.35a20.718,20.718,0,0,1-5.027,1.875L66.6-3.7a17.965,17.965,0,0,0,5.5-2.25,11.348,11.348,0,0,0,3.024-2.8L76-8.4a11.648,11.648,0,0,1-3.137,2.943Zm9.867-6.741-.607.7A28.751,28.751,0,0,0,78.3-7.514l.462-.671A22.8,22.8,0,0,1,82.731-6.225Zm4.684,1.364a9.482,9.482,0,0,1-2.342,2.72A10.565,10.565,0,0,1,82.078-.432a15.784,15.784,0,0,1-3.66.787L78.23-.473a14.461,14.461,0,0,0,3.137-.642,9.533,9.533,0,0,0,2.35-1.123,11.936,11.936,0,0,0,1.625-1.305,8.85,8.85,0,0,0,1.337-1.781ZM97.029.553h-1.4L95.5-.183H96.68A.451.451,0,0,0,96.991-.3a.376.376,0,0,0,.129-.293V-9.023h.816v8.8a.68.68,0,0,1-.269.561A1,1,0,0,1,97.029.553ZM93.473-.242h-.795L92.587-.9h.58a.445.445,0,0,0,.312-.107.321.321,0,0,0,.118-.242V-3.18H92.082V.666H91.25V-3.18H89.794V-.129h-.811V-3.776H91.25V-5.086h-2.68V-5.7h2.68V-6.961H89.665a5.416,5.416,0,0,1-.591.918l-.628-.29a7.856,7.856,0,0,0,1.166-2.449l.763.124a6.4,6.4,0,0,1-.392,1.069H91.25V-9h.833v1.413h2.369v.628H92.082V-5.7H94.6v.618H92.082v1.311h2.31v2.739a.7.7,0,0,1-.274.577A1.006,1.006,0,0,1,93.473-.242Zm1.74-1.66v-6.51h.795V-1.9ZM105.252.623V-6.612h-.811a12.283,12.283,0,0,1-1.724,2.857l-.6-.424A10.98,10.98,0,0,0,103.6-6.7a14.08,14.08,0,0,0,.8-2.412l.865.145a15.494,15.494,0,0,1-.559,1.719h4.947v.639H106.1v1.66h3.228v.65H106.1v1.617h3.287v.661H106.1V.623Zm-4.42.091V-4.764a13.508,13.508,0,0,1-1.187,1.687l-.553-.44a16.273,16.273,0,0,0,1.678-2.737,11.635,11.635,0,0,0,1.061-2.839l.865.156a15.382,15.382,0,0,1-1.241,3.029h.183V.714ZM120.409-4.8a13.035,13.035,0,0,1-2.6-1.547,13.1,13.1,0,0,1-2.358-2.191,10.941,10.941,0,0,1-2.267,2.183,13.575,13.575,0,0,1-2.707,1.635l-.4-.564a13.314,13.314,0,0,0,2.592-1.6,8.364,8.364,0,0,0,2.189-2.2h1.133a11.959,11.959,0,0,0,2.25,2.092,12.069,12.069,0,0,0,2.707,1.544Zm-7.8-.328v-.661h5.8v.661ZM110.951.6l-.113-.72q.575-.011,1.52-.043a20.952,20.952,0,0,0,1.6-2.659h-3.223v-.666h9.491v.666h-5.28A30.642,30.642,0,0,1,113.292-.2q3.362-.15,4.958-.338a16.534,16.534,0,0,0-1.241-1.386l.671-.371a17.032,17.032,0,0,1,1.2,1.27Q119.63-.167,120,.344l-.779.381q-.177-.269-.494-.677-1.031.134-3.677.314T110.951.6ZM123.1.682v-4.42a10.248,10.248,0,0,1-1.568,1.208l-.36-.537a11.344,11.344,0,0,0,2.111-1.853A6.63,6.63,0,0,0,124.6-6.929h-3.019v-.65h1.584V-9.093h.795v1.515h1.4l.258.29a8.844,8.844,0,0,1-1.692,2.7v.043a10.022,10.022,0,0,0,1.627,1.16l-.349.741A12.183,12.183,0,0,1,123.933-3.7V.682Zm1.708-.306V-.3h3.115V-5.28H125.6v-.671h2.32V-9.072h.854v3.121h2.6v.671h-2.6V-.3h2.986V.376ZM10.094,20.6V12.678c0-2.324-1.19-3.514-3.6-3.514H4.466C2.114,9.164.9,10.41.9,12.678V20.6H2.128V17.438h6.72V20.6ZM8.848,16.234H2.128V12.776a2.119,2.119,0,0,1,2.31-2.394h2.1a2.108,2.108,0,0,1,2.31,2.394Zm16.464.042V13.42c0-2.786-1.442-4.242-4.438-4.242H15.652v11.41h5.4C24.038,20.588,25.312,18.88,25.312,16.276Zm-1.19-.056c0,2.114-1.078,3.15-3.192,3.15H16.9V10.4h3.864c2.254,0,3.36.994,3.36,3.066Zm19.11-6.538a1.349,1.349,0,0,0-1.414-1.4,1.365,1.365,0,0,0-1.414,1.4,1.551,1.551,0,0,0,.028.266H31.108V11.18H40.39V13c0,4.452-1.89,6.426-7.042,6.426H31.57v1.218h1.75c5.824,0,8.3-2.366,8.3-7.658V11.054c.07,0,.14.014.2.014A1.338,1.338,0,0,0,43.232,9.682Zm-.714,0a.7.7,0,0,1-.7.714.707.707,0,1,1,0-1.414A.7.7,0,0,1,42.518,9.682Zm17.15,1.008V9.458H48.776V10.69Zm.266,5.222V12.818H48.426v1.218H58.618v1.988c0,2.464-1.162,3.388-4.032,3.388H48.832V20.63h5.8C58.184,20.63,59.934,19.062,59.934,15.912Zm12.81-4.844V9.808H66.4v1.26Zm5.572-.392V9.346c-1.372.2-2.17,1.26-2.24,2.87l-.042,1.008c-.154,3.71-2.016,6.16-6.37,6.16H66.15V20.63h3.444c4.9,0,7.546-2.7,7.686-7.364l.028-.9C77.336,11.516,77.616,10.774,78.316,10.676Zm16.618.434V9.892H84.322V11.11Zm.518,9.534V19.426H83.776v1.218Zm12.572-9.576V9.808h-6.342v1.26Zm5.572-.392V9.346c-1.372.2-2.17,1.26-2.24,2.87l-.042,1.008c-.154,3.71-2.016,6.16-6.37,6.16H101.43V20.63h3.444c4.9,0,7.546-2.7,7.686-7.364l.028-.9C112.616,11.516,112.9,10.774,113.6,10.676Zm17.822-1.218V8.7h-2.73v.756Zm0,1.414v-.756h-2.73v.756Zm-3.374-.14V9.486H121.17v.588c0,2.072-.91,3.556-2.2,3.6v1.3c1.862-.1,3.108-1.918,3.276-4.242Zm2.268,3.388V11.488H129.08v2.576c0,3.682-1.9,5.348-6.37,5.348h-2.758V20.63h2.786C128.128,20.63,130.312,18.138,130.312,14.12Z" transform="translate(58 191)" fill="#1c1c1c"/>
  </g>
</svg>
