<svg xmlns="http://www.w3.org/2000/svg" width="21.44" height="24.208" viewBox="0 0 21.44 24.208">
  <path id="路径_33" data-name="路径 33" d="M9.206,10.66H6.351a1.816,1.816,0,0,1-.623-.07,1.225,1.225,0,0,1,0-2.319A1.864,1.864,0,0,1,6.351,8.2H8.2V6.35a1.816,1.816,0,0,1,.07-.623A1.2,1.2,0,0,1,9.431,4.9a1.208,1.208,0,0,1,1.16.831,1.848,1.848,0,0,1,.069.623V9.2a2.344,2.344,0,0,1-.035.5,1.264,1.264,0,0,1-.917.917,2.344,2.344,0,0,1-.5.035Zm9.171,10.486H3.063V7.657a.6.6,0,0,1,.181-.44L7.216,3.244a.6.6,0,0,1,.441-.181h10.72ZM.744,5.391A2.414,2.414,0,0,0,.017,6.879Q0,7.064,0,7.25V22.5a3.4,3.4,0,0,0,.017.38,1.542,1.542,0,0,0,1.307,1.307,3.414,3.414,0,0,0,.38.017H19.736a3.384,3.384,0,0,0,.38-.017,1.542,1.542,0,0,0,1.307-1.307,3.163,3.163,0,0,0,.017-.38V1.7a3.171,3.171,0,0,0-.017-.381A1.542,1.542,0,0,0,20.117.017,3.252,3.252,0,0,0,19.736,0H7.25q-.186,0-.372.018A2.41,2.41,0,0,0,5.389.744Z" transform="translate(0 0)" fill="#41c9b4" fill-rule="evenodd"/>
</svg>
