<svg id="_イヤー_1" xmlns="http://www.w3.org/2000/svg" width="96.29" height="66.956" viewBox="0 0 96.29 66.956">
  <g id="组_2" data-name="组 2">
    <path id="路径_1" data-name="路径 1" d="M74.9,0,55.273,26.611V.254H37.883L1.32,49.8H22.007L37.883,28.282V49.8H86.7L95.64,37.689V0H74.908Zm6.975,31.438-3.171,4.3H66.09L81.876,14.264V31.438Z" transform="translate(-0.335)" fill="#013559"/>
    <g id="组_1" data-name="组 1" transform="translate(0 53.982)">
      <path id="路径_2" data-name="路径 2" d="M8.975,79.727H7.692l-.813-1.582H2.1l-.821,1.582H0L3.745,72.64H5.222l3.745,7.087ZM6.3,77.086,4.5,73.655,2.671,77.086Z" transform="translate(0 -72.431)" fill="#013559"/>
      <path id="路径_3" data-name="路径 3" d="M18.3,72.65a4.2,4.2,0,0,1,2.932.985,3.388,3.388,0,0,1,1.082,2.641A3.227,3.227,0,0,1,21.168,78.8a3.842,3.842,0,0,1-2.641.94H13.82V72.65H18.3Zm.328,6.028a2.337,2.337,0,0,0,2.417-2.44A2.421,2.421,0,0,0,20.31,74.4a2.635,2.635,0,0,0-1.917-.694H14.984v4.969h3.633Z" transform="translate(-3.51 -72.434)" fill="#013559"/>
      <path id="路径_4" data-name="路径 4" d="M40.738,72.65a2.4,2.4,0,0,1,1.723.6,2.113,2.113,0,0,1,.634,1.611,1.987,1.987,0,0,1-.664,1.611,2.9,2.9,0,0,1-1.925.56H36.291v2.7H35.12V72.65h5.618Zm-.2,3.327c.91,0,1.358-.366,1.358-1.1,0-.783-.477-1.171-1.432-1.171H36.3v2.268Z" transform="translate(-8.92 -72.434)" fill="#013559"/>
      <path id="路径_5" data-name="路径 5" d="M54.267,79.727H47.62V72.64h1.171v6.028H54.26v1.059Z" transform="translate(-12.094 -72.431)" fill="#013559"/>
      <path id="路径_6" data-name="路径 6" d="M65.965,79.727H64.682l-.821-1.582H59.086l-.813,1.582H56.99l3.745-7.087h1.477Zm-2.671-2.641-1.805-3.432-1.828,3.432Z" transform="translate(-14.474 -72.431)" fill="#013559"/>
      <path id="路径_7" data-name="路径 7" d="M78.842,79.727H77.38l-5.409-5.812v5.812H70.8V72.64h1.455l5.409,5.812V72.64h1.171v7.087Z" transform="translate(-17.981 -72.431)" fill="#013559"/>
      <path id="路径_8" data-name="路径 8" d="M92.8,79.727H91.34l-5.409-5.812v5.812H84.76V72.64h1.462l5.409,5.812V72.64H92.81v7.087Z" transform="translate(-21.527 -72.431)" fill="#013559"/>
      <path id="路径_9" data-name="路径 9" d="M99.891,79.727H98.72V72.64h1.171Z" transform="translate(-25.072 -72.431)" fill="#013559"/>
      <path id="路径_10" data-name="路径 10" d="M111.5,79.727H110.04l-5.409-5.812v5.812H103.46V72.64h1.455l5.409,5.812V72.64h1.171v7.087Z" transform="translate(-26.276 -72.431)" fill="#013559"/>
      <path id="路径_11" data-name="路径 11" d="M125.977,76.008a3.5,3.5,0,0,1-1.238,2.79,4.867,4.867,0,0,1-3.283,1.067,4.988,4.988,0,0,1-3.118-.947,3.461,3.461,0,0,1,.022-5.6,5.131,5.131,0,0,1,3.2-.955,4.845,4.845,0,0,1,3.835,1.716l-1.1.545a4.063,4.063,0,0,0-5.1-.522,2.4,2.4,0,0,0-1.059,2.014,2.357,2.357,0,0,0,.91,1.94,3.706,3.706,0,0,0,2.41.746,2.917,2.917,0,0,0,3.051-1.828h-3.3V75.911h4.767v.1Z" transform="translate(-29.695 -72.36)" fill="#013559"/>
      <path id="路径_12" data-name="路径 12" d="M5.065,85.3l-.574.209a2.136,2.136,0,0,0-1.626-.619,1.992,1.992,0,0,0-1.291.4,1.293,1.293,0,0,0-.5,1.037,1.315,1.315,0,0,0,.492,1.052,2.093,2.093,0,0,0,1.335.4,2.068,2.068,0,0,0,1.6-.627l.545.306a2.483,2.483,0,0,1-.933.694,3.268,3.268,0,0,1-1.246.216,2.728,2.728,0,0,1-1.686-.507,1.879,1.879,0,0,1,.007-3.036,2.671,2.671,0,0,1,1.671-.515,2.62,2.62,0,0,1,2.208.992Z" transform="translate(-0.104 -75.395)" fill="#013559"/>
      <path id="路径_13" data-name="路径 13" d="M12.412,88.287h-.739l-1.037-1.455H8.7v1.455H8.07V84.46h3.021a1.329,1.329,0,0,1,.947.328,1.141,1.141,0,0,1,.343.88,1.1,1.1,0,0,1-.283.783,1.255,1.255,0,0,1-.709.351l1.022,1.492Zm-1.417-2.029c.485,0,.731-.194.731-.589,0-.425-.261-.634-.791-.634H8.7v1.223h2.29Z" transform="translate(-2.05 -75.433)" fill="#013559"/>
      <path id="路径_14" data-name="路径 14" d="M19.216,88.287H15.21V84.46h3.857v.567H15.844v.985h2.238v.567H15.844v1.134h3.372v.567Z" transform="translate(-3.863 -75.433)" fill="#013559"/>
      <path id="路径_15" data-name="路径 15" d="M25.952,88.287h-.694l-.44-.858H22.244l-.44.858H21.11l2.022-3.827h.8l2.022,3.827Zm-1.44-1.425L23.535,85l-.985,1.858Z" transform="translate(-5.361 -75.433)" fill="#013559"/>
      <path id="路径_16" data-name="路径 16" d="M32.14,85.037H30.312V88.29h-.634V85.037H27.85V84.47h4.29Z" transform="translate(-7.073 -75.436)" fill="#013559"/>
      <path id="路径_17" data-name="路径 17" d="M35.234,88.287H34.6V84.46h.634Z" transform="translate(-8.787 -75.433)" fill="#013559"/>
      <path id="路径_18" data-name="路径 18" d="M41.2,84.47,39.14,88.3h-.731L36.35,84.47h.709l1.716,3.186L40.49,84.47Z" transform="translate(-9.232 -75.436)" fill="#013559"/>
      <path id="路径_19" data-name="路径 19" d="M47.746,88.287H43.74V84.46H47.6v.567H44.374v.985h2.238v.567H44.374v1.134h3.372v.567Z" transform="translate(-11.109 -75.433)" fill="#013559"/>
      <path id="路径_20" data-name="路径 20" d="M54.935,84.47a2.277,2.277,0,0,1,1.582.53,1.828,1.828,0,0,1,.582,1.425,1.723,1.723,0,0,1-.619,1.365,2.1,2.1,0,0,1-1.425.507H52.51V84.47h2.425Zm.172,3.253a1.253,1.253,0,0,0,1.306-1.313,1.32,1.32,0,0,0-.4-.992,1.415,1.415,0,0,0-1.03-.38H53.144v2.686Z" transform="translate(-13.336 -75.436)" fill="#013559"/>
      <path id="路径_21" data-name="路径 21" d="M64.056,88.287H60.05V84.46h3.857v.567H60.684v.985h2.238v.567H60.684v1.134h3.372v.567Z" transform="translate(-15.251 -75.433)" fill="#013559"/>
      <path id="路径_22" data-name="路径 22" d="M69.933,85.327a3.74,3.74,0,0,0-1.731-.433,2.326,2.326,0,0,0-.9.134q-.313.134-.313.38c0,.164.112.291.328.366a3.082,3.082,0,0,0,.776.112c.53.037.873.067,1.044.09a2.226,2.226,0,0,1,1.059.351.857.857,0,0,1,.343.731,1.052,1.052,0,0,1-.537.94,2.941,2.941,0,0,1-1.552.336,3.561,3.561,0,0,1-2.275-.649l.351-.455a3.65,3.65,0,0,0,1.932.552,2.336,2.336,0,0,0,1.044-.187.538.538,0,0,0,.351-.492c0-.246-.157-.4-.463-.485a9.345,9.345,0,0,0-1.313-.134,3.923,3.923,0,0,1-1.328-.254.769.769,0,0,1-.448-.746.972.972,0,0,1,.507-.85,2.709,2.709,0,0,1,1.425-.313,3.591,3.591,0,0,1,2.074.567l-.388.425Z" transform="translate(-16.808 -75.398)" fill="#013559"/>
      <path id="路径_23" data-name="路径 23" d="M73.994,88.287H73.36V84.46h.634Z" transform="translate(-18.632 -75.433)" fill="#013559"/>
      <path id="路径_24" data-name="路径 24" d="M80.541,86.277a1.887,1.887,0,0,1-.671,1.507,2.646,2.646,0,0,1-1.776.574,2.7,2.7,0,0,1-1.686-.515,1.864,1.864,0,0,1,.007-3.021,2.793,2.793,0,0,1,1.731-.522,2.631,2.631,0,0,1,2.074.925l-.589.3a2.2,2.2,0,0,0-2.753-.283,1.284,1.284,0,0,0-.567,1.089,1.26,1.26,0,0,0,.492,1.044,1.986,1.986,0,0,0,1.3.4,1.573,1.573,0,0,0,1.649-.992H77.968v-.567h2.574v.06Z" transform="translate(-19.211 -75.392)" fill="#013559"/>
      <path id="路径_25" data-name="路径 25" d="M88,88.287h-.791l-2.917-3.133v3.133H83.66V84.46h.783L87.368,87.6V84.46H88Z" transform="translate(-21.247 -75.433)" fill="#013559"/>
      <path id="路径_26" data-name="路径 26" d="M97.961,86.329a1.815,1.815,0,0,1-.768,1.522,3.025,3.025,0,0,1-3.365-.007,1.859,1.859,0,0,1,.015-3.021,2.712,2.712,0,0,1,1.679-.522,2.666,2.666,0,0,1,1.679.522,1.824,1.824,0,0,1,.776,1.507Zm-.664,0a1.284,1.284,0,0,0-.567-1.089,2.015,2.015,0,0,0-1.223-.358,1.975,1.975,0,0,0-1.3.41,1.282,1.282,0,0,0-.5,1.037,1.315,1.315,0,0,0,.492,1.052,2.317,2.317,0,0,0,2.611,0,1.283,1.283,0,0,0,.485-1.044Z" transform="translate(-23.635 -75.392)" fill="#013559"/>
      <path id="路径_27" data-name="路径 27" d="M104.937,85.034h-3.223v.985h2.238v.567h-2.238v1.7h-.634V84.46h3.857v.567Z" transform="translate(-25.672 -75.433)" fill="#013559"/>
      <path id="路径_28" data-name="路径 28" d="M111.107,85.034h-3.223v.985h2.238v.567h-2.238v1.7h-.634V84.46h3.857v.567Z" transform="translate(-27.239 -75.433)" fill="#013559"/>
      <path id="路径_29" data-name="路径 29" d="M114.054,88.287h-.634V84.46h.634Z" transform="translate(-28.806 -75.433)" fill="#013559"/>
      <path id="路径_30" data-name="路径 30" d="M120.385,85.3l-.574.209a2.136,2.136,0,0,0-1.626-.619,1.992,1.992,0,0,0-1.291.4,1.272,1.272,0,0,0-.5,1.037,1.315,1.315,0,0,0,.492,1.052,2.093,2.093,0,0,0,1.335.4,2.068,2.068,0,0,0,1.6-.627l.545.306a2.372,2.372,0,0,1-.933.694,3.3,3.3,0,0,1-1.246.216,2.728,2.728,0,0,1-1.686-.507,1.879,1.879,0,0,1,.007-3.036,2.686,2.686,0,0,1,1.671-.515,2.62,2.62,0,0,1,2.208.992Z" transform="translate(-29.392 -75.395)" fill="#013559"/>
      <path id="路径_31" data-name="路径 31" d="M127.4,88.287H123.39V84.46h3.857v.567h-3.223v.985h2.238v.567h-2.238v1.134H127.4v.567Z" transform="translate(-31.338 -75.433)" fill="#013559"/>
    </g>
  </g>
</svg>
