<svg id="组_874" data-name="组 874" xmlns="http://www.w3.org/2000/svg" xmlns:xlink="http://www.w3.org/1999/xlink" width="85.049" height="407.07" viewBox="0 0 85.049 407.07">
  <defs>
    <clipPath id="clip-path">
      <rect id="矩形_423" data-name="矩形 423" width="85.049" height="407.07" fill="#e3f9f9"/>
    </clipPath>
  </defs>
  <g id="组_873" data-name="组 873" clip-path="url(#clip-path)">
    <path id="路径_1688" data-name="路径 1688" d="M24.643.663c2.472.135,5.439.27,7.993.27,2.8,0,6.593-.135,10.712-.405l.412,2.031c-5.6.473-10.053,1.827-13.184,3.925A11.325,11.325,0,0,0,25.3,16.163,10.865,10.865,0,0,0,36.427,27.128a9.134,9.134,0,0,0,6.426-2.37c1.813-1.623,2.637-3.112,4.615-8.731,1.813-5.008,3.708-8.257,6.18-10.693C56.78,2.355,61.806.528,67,.528c9.888,0,17.551,6.565,17.551,14.958,0,3.655-.741,5.551-3.873,10.288l2.637,2.031L82.9,29.159c-2.719-.136-4.944-.2-7.416-.2-2.966,0-5.933.135-9.476.2l-.412-2.1c5.026-.338,7.663-1.015,10.711-2.639a10.581,10.581,0,0,0,5.687-9c0-5.278-4.285-9.205-9.971-9.205a9.13,9.13,0,0,0-7.087,2.979c-1.318,1.488-2.224,3.248-4.037,7.85-2.389,6.024-3.873,8.529-6.345,11.034-3.214,3.113-7.581,4.669-12.854,4.669-11.125,0-19.282-7.039-19.282-16.582,0-4.129,1.071-6.836,4.943-11.981l-3.625-1.9Z" fill="#e3f9f9"/>
    <path id="路径_1689" data-name="路径 1689" d="M24.643.663c2.472.135,5.439.27,7.993.27,2.8,0,6.593-.135,10.712-.405l.412,2.031c-5.6.473-10.053,1.827-13.184,3.925A11.325,11.325,0,0,0,25.3,16.163,10.865,10.865,0,0,0,36.427,27.128a9.134,9.134,0,0,0,6.426-2.37c1.813-1.623,2.637-3.112,4.615-8.731,1.813-5.008,3.708-8.257,6.18-10.693C56.78,2.355,61.806.528,67,.528c9.888,0,17.551,6.565,17.551,14.958,0,3.655-.741,5.551-3.873,10.288l2.637,2.031L82.9,29.159c-2.719-.136-4.944-.2-7.416-.2-2.966,0-5.933.135-9.476.2l-.412-2.1c5.026-.338,7.663-1.015,10.711-2.639a10.581,10.581,0,0,0,5.687-9c0-5.278-4.285-9.205-9.971-9.205a9.13,9.13,0,0,0-7.087,2.979c-1.318,1.488-2.224,3.248-4.037,7.85-2.389,6.024-3.873,8.529-6.345,11.034-3.214,3.113-7.581,4.669-12.854,4.669-11.125,0-19.282-7.039-19.282-16.582,0-4.129,1.071-6.836,4.943-11.981l-3.625-1.9Z" fill="#e3f9f9"/>
    <path id="路径_1690" data-name="路径 1690" d="M60.406,36.536c1.235,3.858,2.389,5.685,4.7,7.581,2.555,2.1,5.109,3.112,10.054,4.06v1.287c-3.132-.069-6.758-.2-9.147-.2L60.9,49.193v7.174H58.511V49.193l-20.684-.068c-5.932,0-8.239.068-9.558.474-1.731.542-2.555,1.557-2.555,2.978,0,1.759.824,3.046,3.131,5.279L27.28,59.074c-3.543-2.977-4.944-5.617-4.944-9.34,0-4.129,1.9-7.174,5.521-8.731,1.812-.813,3.625-1.083,6.922-1.083,1.648,0,4.2.068,6.344.068l17.388.27V36.536Z" fill="#e3f9f9"/>
    <path id="路径_1691" data-name="路径 1691" d="M60.406,36.536c1.235,3.858,2.389,5.685,4.7,7.581,2.555,2.1,5.109,3.112,10.054,4.06v1.287c-3.132-.069-6.758-.2-9.147-.2L60.9,49.193v7.174H58.511V49.193l-20.684-.068c-5.932,0-8.239.068-9.558.474-1.731.542-2.555,1.557-2.555,2.978,0,1.759.824,3.046,3.131,5.279L27.28,59.074c-3.543-2.977-4.944-5.617-4.944-9.34,0-4.129,1.9-7.174,5.521-8.731,1.812-.813,3.625-1.083,6.922-1.083,1.648,0,4.2.068,6.344.068l17.388.27V36.536Z" fill="#e3f9f9"/>
    <path id="路径_1692" data-name="路径 1692" d="M25.715,62.389l.082,4.6c2.389.135,4.533.2,7,.2h17.47c3.13,0,5.521-.068,8.486-.2l-.083-4.264H60.9c0,5.617.329,8.122,1.648,12.115l-.825.88H53.9c1.482.744,2.061,1.016,2.8,1.422,3.462,1.827,5.357,4.332,5.357,7.242,0,3.452-2.884,5.956-7.005,5.956-2.883,0-4.7-1.421-4.7-3.722,0-2.166,1.73-3.452,4.779-3.452.494,0,.9.068,1.483.068.989,0,1.4-.407,1.4-1.355,0-1.894-2.472-3.925-6.345-5.008C49.2,76.13,47.633,76,40.629,76H25.8L25.715,81H23.49V62.389Z" fill="#e3f9f9"/>
    <path id="路径_1693" data-name="路径 1693" d="M25.715,62.389l.082,4.6c2.389.135,4.533.2,7,.2h17.47c3.13,0,5.521-.068,8.486-.2l-.083-4.264H60.9c0,5.617.329,8.122,1.648,12.115l-.825.88H53.9c1.482.744,2.061,1.016,2.8,1.422,3.462,1.827,5.357,4.332,5.357,7.242,0,3.452-2.884,5.956-7.005,5.956-2.883,0-4.7-1.421-4.7-3.722,0-2.166,1.73-3.452,4.779-3.452.494,0,.9.068,1.483.068.989,0,1.4-.407,1.4-1.355,0-1.894-2.472-3.925-6.345-5.008C49.2,76.13,47.633,76,40.629,76H25.8L25.715,81H23.49V62.389Z" fill="#e3f9f9"/>
    <path id="路径_1694" data-name="路径 1694" d="M22.254,110.717c0-9.814,8.24-16.785,19.775-16.785,11.784,0,20.107,7.039,20.107,16.921,0,9.949-7.993,16.65-19.942,16.65-11.865,0-19.94-6.769-19.94-16.786m2.06.068c0,2.233,1.483,4.129,4.12,5.143,3.213,1.22,8.239,1.9,13.76,1.9,5.6,0,10.548-.676,13.844-1.9,2.636-1.014,4.12-2.91,4.12-5.143,0-4.738-6.18-7.174-17.964-7.174-11.7,0-17.88,2.436-17.88,7.174" fill="#e3f9f9"/>
    <path id="路径_1695" data-name="路径 1695" d="M22.254,110.717c0-9.814,8.24-16.785,19.775-16.785,11.784,0,20.107,7.039,20.107,16.921,0,9.949-7.993,16.65-19.942,16.65C30.329,127.5,22.254,120.734,22.254,110.717Zm2.06.068c0,2.233,1.483,4.129,4.12,5.143,3.213,1.22,8.239,1.9,13.76,1.9,5.6,0,10.548-.676,13.844-1.9,2.636-1.014,4.12-2.91,4.12-5.143,0-4.738-6.18-7.174-17.964-7.174C30.494,103.611,24.314,106.047,24.314,110.785Z" fill="#e3f9f9"/>
    <path id="路径_1696" data-name="路径 1696" d="M25.715,131.766,25.8,136.5h32.96l-.083-4.2H60.9c0,5.076.412,8.529,1.648,12.116l-.825.88H55.874c3.46,2.775,6.263,6.5,6.263,10.018,0,4.06-1.568,6.9-4.122,8.6-2.141,1.557-5.026,2.031-11.619,2.031H25.8l-.082,4.332H23.49v-17.4h2.225l.082,3.723H50.1c3.956,0,5.687-.339,6.675-1.355a3.63,3.63,0,0,0,1.318-2.775,8.155,8.155,0,0,0-2.472-5.143c-.988-1.083-1.9-1.9-2.72-1.9H25.8l-.082,3.52H23.49V131.766Z" fill="#e3f9f9"/>
    <path id="路径_1697" data-name="路径 1697" d="M25.715,131.766,25.8,136.5h32.96l-.083-4.2H60.9c0,5.076.412,8.529,1.648,12.116l-.825.88H55.874c3.46,2.775,6.263,6.5,6.263,10.018,0,4.06-1.568,6.9-4.122,8.6-2.141,1.557-5.026,2.031-11.619,2.031H25.8l-.082,4.332H23.49v-17.4h2.225l.082,3.723H50.1c3.956,0,5.687-.339,6.675-1.355a3.63,3.63,0,0,0,1.318-2.775,8.155,8.155,0,0,0-2.472-5.143c-.988-1.083-1.9-1.9-2.72-1.9H25.8l-.082,3.52H23.49V131.766Z" fill="#e3f9f9"/>
    <path id="路径_1698" data-name="路径 1698" d="M29.175,175.016c4.285,0,6.674,1.489,9.311,5.754a11.611,11.611,0,0,1,10.053-5.28,13.436,13.436,0,0,1,13.6,13.672,12.884,12.884,0,0,1-3.791,9.409,19.683,19.683,0,0,1-2.8,2.3c5.522.879,7.829,2.436,7.829,5.211,0,2.3-1.9,3.927-4.615,3.927-2.307,0-3.872-1.151-3.872-2.912,0-1.555,1.235-2.3,2.719-2.3a12.96,12.96,0,0,1,1.4.135c.33,0,.495-.2.495-.541,0-1.083-2.473-2.03-5.356-2.03a20.739,20.739,0,0,0-2.554.27,23.936,23.936,0,0,1-3.05.2c-4.119,0-8.24-2.1-10.134-5.211a16.68,16.68,0,0,1-2.473-8.393A11.9,11.9,0,0,1,37,184.56a3.068,3.068,0,0,0,.33-1.287c0-1.488-1.978-3.045-3.956-3.045-2.224,0-3.461,2.1-3.461,5.821,0,2.369,0,4.061.248,7.919.082,1.489.165,3.114.165,3.994,0,4.534-1.319,6.97-4.862,9a10.579,10.579,0,0,1-5.85,1.422,20.547,20.547,0,0,1-14.009-5.077C2.395,200.33.5,195.051.5,189.433c0-9.476,4.7-16.109,11.371-16.109,3.955,0,6.509,2.3,9.558,8.8.577-4.874,3.049-7.107,7.746-7.107m-15.986,5.076c-5.685,0-10.052,5.009-10.052,11.71,0,7.243,5.437,13.469,11.782,13.469,2.143,0,4.2-1.015,4.945-2.5,1.07-1.963,1.153-2.5,1.07-10.83,0-2.775,0-4.128.083-5.82,0-.542,0-1.557.082-2.505a10.111,10.111,0,0,0-7.91-3.52m24.638,9.07c0,3.655,3.873,5.754,10.712,5.754,7.169,0,11.454-2.166,11.454-5.754s-4.615-5.956-11.536-5.956c-6.51,0-10.63,2.369-10.63,5.956" fill="#e3f9f9"/>
    <path id="路径_1699" data-name="路径 1699" d="M29.175,175.016c4.285,0,6.674,1.489,9.311,5.754a11.611,11.611,0,0,1,10.053-5.28,13.436,13.436,0,0,1,13.6,13.672,12.884,12.884,0,0,1-3.791,9.409,19.683,19.683,0,0,1-2.8,2.3c5.522.879,7.829,2.436,7.829,5.211,0,2.3-1.9,3.927-4.615,3.927-2.307,0-3.872-1.151-3.872-2.912,0-1.555,1.235-2.3,2.719-2.3a12.96,12.96,0,0,1,1.4.135c.33,0,.495-.2.495-.541,0-1.083-2.473-2.03-5.356-2.03a20.739,20.739,0,0,0-2.554.27,23.936,23.936,0,0,1-3.05.2c-4.119,0-8.24-2.1-10.134-5.211a16.68,16.68,0,0,1-2.473-8.393A11.9,11.9,0,0,1,37,184.56a3.068,3.068,0,0,0,.33-1.287c0-1.488-1.978-3.045-3.956-3.045-2.224,0-3.461,2.1-3.461,5.821,0,2.369,0,4.061.248,7.919.082,1.489.165,3.114.165,3.994,0,4.534-1.319,6.97-4.862,9a10.579,10.579,0,0,1-5.85,1.422,20.547,20.547,0,0,1-14.009-5.077C2.395,200.33.5,195.051.5,189.433c0-9.476,4.7-16.109,11.371-16.109,3.955,0,6.509,2.3,9.558,8.8C22.006,177.249,24.478,175.016,29.175,175.016Zm-15.986,5.076c-5.685,0-10.052,5.009-10.052,11.71,0,7.243,5.437,13.469,11.782,13.469,2.143,0,4.2-1.015,4.945-2.5,1.07-1.963,1.153-2.5,1.07-10.83,0-2.775,0-4.128.083-5.82,0-.542,0-1.557.082-2.505A10.111,10.111,0,0,0,13.189,180.092Zm24.638,9.07c0,3.655,3.873,5.754,10.712,5.754,7.169,0,11.454-2.166,11.454-5.754s-4.615-5.956-11.536-5.956C41.947,183.206,37.827,185.575,37.827,189.162Z" fill="#e3f9f9"/>
    <path id="路径_1700" data-name="路径 1700" d="M25.714,239.79,25.8,246.9H81.17l.248-5.956H83.56c-.165,4.467-.329,8.122-.329,10.9,0,3.926.329,7.648.329,12.387,0,4.6-.824,8.189-2.472,10.49-2.719,3.86-7.746,6.093-13.678,6.093-10.548,0-17.14-6.634-17.14-17.4a46.284,46.284,0,0,1,.576-6.769H25.8l-.083,9.273H23.49V239.79Zm27.275,16.853a39.754,39.754,0,0,0-.33,4.4c0,3.723,1.4,6.363,4.2,7.988a21.314,21.314,0,0,0,10.218,2.3c5.767,0,10.795-1.76,12.689-4.467.906-1.422,1.319-3.047,1.319-5.822,0-1.218,0-2.233-.165-4.4Z" fill="#e3f9f9"/>
    <path id="路径_1701" data-name="路径 1701" d="M25.714,239.79,25.8,246.9H81.17l.248-5.956H83.56c-.165,4.467-.329,8.122-.329,10.9,0,3.926.329,7.648.329,12.387,0,4.6-.824,8.189-2.472,10.49-2.719,3.86-7.746,6.093-13.678,6.093-10.548,0-17.14-6.634-17.14-17.4a46.284,46.284,0,0,1,.576-6.769H25.8l-.083,9.273H23.49V239.79Zm27.275,16.853a39.754,39.754,0,0,0-.33,4.4c0,3.723,1.4,6.363,4.2,7.988a21.314,21.314,0,0,0,10.218,2.3c5.767,0,10.795-1.76,12.689-4.467.906-1.422,1.319-3.047,1.319-5.822,0-1.218,0-2.233-.165-4.4Z" fill="#e3f9f9"/>
    <path id="路径_1702" data-name="路径 1702" d="M22.254,301.044c0-9.814,8.24-16.785,19.775-16.785,11.784,0,20.107,7.039,20.107,16.921,0,9.949-7.993,16.65-19.942,16.65-11.865,0-19.94-6.769-19.94-16.786m2.06.068c0,2.233,1.483,4.128,4.12,5.143,3.213,1.22,8.239,1.9,13.76,1.9,5.6,0,10.548-.676,13.844-1.9,2.636-1.015,4.12-2.91,4.12-5.143,0-4.738-6.18-7.174-17.964-7.174-11.7,0-17.88,2.436-17.88,7.174" fill="#e3f9f9"/>
    <path id="路径_1703" data-name="路径 1703" d="M22.254,301.044c0-9.814,8.24-16.785,19.775-16.785,11.784,0,20.107,7.039,20.107,16.921,0,9.949-7.993,16.65-19.942,16.65C30.329,317.83,22.254,311.061,22.254,301.044Zm2.06.068c0,2.233,1.483,4.128,4.12,5.143,3.213,1.22,8.239,1.9,13.76,1.9,5.6,0,10.548-.676,13.844-1.9,2.636-1.015,4.12-2.91,4.12-5.143,0-4.738-6.18-7.174-17.964-7.174C30.494,293.938,24.314,296.374,24.314,301.112Z" fill="#e3f9f9"/>
    <path id="路径_1704" data-name="路径 1704" d="M25.714,322.094l.083,4.738h32.96l-.083-4.332h2.143c.165,6.565.577,9.069,1.813,12.589l-.659.881c-3.049-.137-5.851-.272-9.147-.272H25.8l-.083,4.332H23.49V322.094Zm57.517,9.34c0,2.64-2.719,4.806-5.934,4.806-3.13,0-5.52-2.031-5.52-4.738,0-2.639,2.472-4.67,5.685-4.67s5.769,1.962,5.769,4.6" fill="#e3f9f9"/>
    <path id="路径_1705" data-name="路径 1705" d="M25.714,322.094l.083,4.738h32.96l-.083-4.332h2.143c.165,6.565.577,9.069,1.813,12.589l-.659.881c-3.049-.137-5.851-.272-9.147-.272H25.8l-.083,4.332H23.49V322.094Zm57.517,9.34c0,2.64-2.719,4.806-5.934,4.806-3.13,0-5.52-2.031-5.52-4.738,0-2.639,2.472-4.67,5.685-4.67S83.231,328.794,83.231,331.434Z" fill="#e3f9f9"/>
    <path id="路径_1706" data-name="路径 1706" d="M25.715,343.617l.082,4.738h32.96l-.083-4.2H60.9c0,5.076.412,8.529,1.648,12.116l-.825.88H55.874c3.46,2.775,6.263,6.5,6.263,10.018,0,4.06-1.568,6.9-4.122,8.6-2.141,1.557-5.026,2.031-11.619,2.031H25.8l-.082,4.332H23.49v-17.4h2.225l.082,3.723H50.1c3.956,0,5.687-.339,6.675-1.355a3.63,3.63,0,0,0,1.318-2.775,8.155,8.155,0,0,0-2.472-5.143c-.988-1.083-1.9-1.9-2.72-1.9H25.8l-.082,3.52H23.49V343.617Z" fill="#e3f9f9"/>
    <path id="路径_1707" data-name="路径 1707" d="M25.715,343.617l.082,4.738h32.96l-.083-4.2H60.9c0,5.076.412,8.529,1.648,12.116l-.825.88H55.874c3.46,2.775,6.263,6.5,6.263,10.018,0,4.06-1.568,6.9-4.122,8.6-2.141,1.557-5.026,2.031-11.619,2.031H25.8l-.082,4.332H23.49v-17.4h2.225l.082,3.723H50.1c3.956,0,5.687-.339,6.675-1.355a3.63,3.63,0,0,0,1.318-2.775,8.155,8.155,0,0,0-2.472-5.143c-.988-1.083-1.9-1.9-2.72-1.9H25.8l-.082,3.52H23.49V343.617Z" fill="#e3f9f9"/>
    <path id="路径_1708" data-name="路径 1708" d="M60.406,383.889c1.235,3.858,2.389,5.685,4.7,7.581,2.555,2.1,5.109,3.112,10.054,4.06v1.287c-3.132-.069-6.758-.2-9.147-.2l-5.109-.067v7.174H58.511v-7.174l-20.684-.068c-5.932,0-8.239.068-9.558.474-1.731.542-2.555,1.557-2.555,2.978,0,1.759.824,3.046,3.131,5.279l-1.565,1.218c-3.543-2.977-4.944-5.617-4.944-9.34,0-4.129,1.9-7.174,5.521-8.731,1.812-.813,3.625-1.083,6.922-1.083,1.648,0,4.2.067,6.344.067l17.388.271v-3.722Z" fill="#e3f9f9"/>
    <path id="路径_1709" data-name="路径 1709" d="M60.406,383.889c1.235,3.858,2.389,5.685,4.7,7.581,2.555,2.1,5.109,3.112,10.054,4.06v1.287c-3.132-.069-6.758-.2-9.147-.2l-5.109-.067v7.174H58.511v-7.174l-20.684-.068c-5.932,0-8.239.068-9.558.474-1.731.542-2.555,1.557-2.555,2.978,0,1.759.824,3.046,3.131,5.279l-1.565,1.218c-3.543-2.977-4.944-5.617-4.944-9.34,0-4.129,1.9-7.174,5.521-8.731,1.812-.813,3.625-1.083,6.922-1.083,1.648,0,4.2.067,6.344.067l17.388.271v-3.722Z" fill="#e3f9f9"/>
  </g>
</svg>
