<svg xmlns="http://www.w3.org/2000/svg" width="49.091" height="49.831" viewBox="0 0 49.091 49.831">
  <path id="路径_1491" data-name="路径 1491" d="M-280.09,2088.352a125.052,125.052,0,0,1,18.865,5.872c8.584,3.628,15.744,9.364,14.437,15.08s-21.713,1.951-30.044,0-17.948-7.023-16.778-9.364,11.705-3.9,24.581,2.594,15.861,12.642,13.266,17.441-15.471,2.614-23.411,0-14.827-6.126-13.656-8.72,12.349-2.751,22.1,2.848,9.228,10.945,6.633,14.066-12.486.917-16,0-7.16-3.161-6.633-4.7,5.072-1.151,9.891,1.053,5.1,6.861,2.985,9.755-7.972,1.723-12.1,0" transform="translate(294.717 -2087.375)" fill="none" stroke="#788082" stroke-width="2"/>
</svg>
