<svg xmlns="http://www.w3.org/2000/svg" xmlns:xlink="http://www.w3.org/1999/xlink" width="40.081" height="70.619" viewBox="0 0 40.081 70.619">
  <defs>
    <clipPath id="clip-path">
      <rect id="矩形_435" data-name="矩形 435" width="40.081" height="70.619" transform="translate(0 0.001)" fill="none"/>
    </clipPath>
  </defs>
  <g id="wenhao" transform="translate(0 0)">
    <g id="组_898" data-name="组 898" clip-path="url(#clip-path)">
      <path id="路径_1813" data-name="路径 1813" d="M.145,15.981C2.79,4.251,11.337-2.028,24.112.589,36.965,3.223,41.581,13.373,39.664,22.726a21.1,21.1,0,0,1-1.946,5.557c-5.64,12.56-18.01,9.935-20.353,21.366-.638,3.118-2.814,4.3-4.595,3.931-1.859-.381-3.4-2.321-2.777-5.351,3.319-16.194,15.123-13.956,19.922-22.808a11.793,11.793,0,0,0,1.5-3.754c1.118-5.457-1.553-11.328-8.829-12.819s-12.615.934-14.57,9.287a3.88,3.88,0,0,1-4.73,3A4.008,4.008,0,0,1,.11,16.154ZM5.75,63.422c.692-3.378,3.275-5.736,5.984-5.181s4.155,3.739,3.463,7.117-3.274,5.736-5.983,5.181S5.058,66.8,5.75,63.422"/>
    </g>
  </g>
</svg>
